<svg width="77" height="109" viewBox="0 0 77 109" fill="none" xmlns="http://www.w3.org/2000/svg">
<path d="M49.5775 0.599991L51.1775 3.8H47.9775L49.5775 0.599991ZM46.3775 0.599991L47.9775 3.8H44.7775L46.3775 0.599991ZM75.1775 0.919996L76.4575 3.47999H73.8975L75.1775 0.919996ZM71.9775 0.919996L73.2575 3.47999H70.6975L71.9775 0.919996ZM68.7775 0.919996L70.0575 3.47999H67.4975L68.7775 0.919996ZM65.5775 0.919996L66.8575 3.47999H64.2975L65.5775 0.919996ZM62.3775 0.919996L63.6575 3.47999H61.0975L62.3775 0.919996ZM59.1775 0.919996L60.4575 3.47999H57.8975L59.1775 0.919996ZM55.9775 0.919996L57.2575 3.47999H54.6975L55.9775 0.919996ZM52.7775 0.919996L54.0575 3.47999H51.4975L52.7775 0.919996ZM43.1775 3.31999L42.0575 2.2L43.1775 1.07999L44.2975 2.2L43.1775 3.31999ZM39.9775 3.31999L38.8575 2.2L39.9775 1.07999L41.0975 2.2L39.9775 3.31999ZM36.7775 3.31999L35.6575 2.2L36.7775 1.07999L37.8975 2.2L36.7775 3.31999ZM49.5775 3.8L51.1775 6.99999H47.9775L49.5775 3.8ZM46.3775 3.8L47.9775 6.99999H44.7775L46.3775 3.8ZM75.1775 4.11999L76.4575 6.68H73.8975L75.1775 4.11999ZM71.9775 4.11999L73.2575 6.68H70.6975L71.9775 4.11999ZM68.7775 4.11999L70.0575 6.68H67.4975L68.7775 4.11999ZM65.5775 4.11999L66.8575 6.68H64.2975L65.5775 4.11999ZM62.3775 4.11999L63.6575 6.68H61.0975L62.3775 4.11999ZM59.1775 4.11999L60.4575 6.68H57.8975L59.1775 4.11999ZM55.9775 4.11999L57.2575 6.68H54.6975L55.9775 4.11999ZM52.7775 4.11999L54.0575 6.68H51.4975L52.7775 4.11999ZM43.1775 6.51999L42.0575 5.4L43.1775 4.27999L44.2975 5.4L43.1775 6.51999ZM39.9775 6.51999L38.8575 5.4L39.9775 4.27999L41.0975 5.4L39.9775 6.51999ZM36.7775 6.51999L35.6575 5.4L36.7775 4.27999L37.8975 5.4L36.7775 6.51999ZM33.5775 6.51999L32.4575 5.4L33.5775 4.27999L34.6975 5.4L33.5775 6.51999ZM62.3775 10.36L60.6175 8.59999L62.3775 6.84L63.9775 8.43999L65.5775 6.84L67.1775 8.43999L68.7775 6.84L70.3775 8.43999L71.9775 6.84L73.5775 8.43999L75.1775 6.84L76.9375 8.59999L75.1775 10.36C76.1375 10.36 76.6175 10.84 76.6175 11.8C76.6175 12.76 76.1375 13.24 75.1775 13.24C74.2175 13.24 73.7375 12.76 73.7375 11.8C73.7375 10.84 74.2175 10.36 75.1775 10.36L73.5775 8.75999L71.9775 10.36L70.3775 8.75999L68.7775 10.36L67.1775 8.75999L65.5775 10.36L63.9775 8.75999L62.3775 10.36ZM55.9775 6.84L57.5775 10.04L59.1775 6.84L60.9375 10.36H59.3375L60.7775 13.4H59.1775L60.7775 16.6H59.1775L60.7775 19.8H57.5775H54.3775L55.9775 16.6H54.3775L55.9775 13.4H54.3775L55.8175 10.36H54.2175L55.9775 6.84ZM52.7775 9.88C51.9242 9.88 51.4975 9.45333 51.4975 8.59999C51.4975 7.74666 51.9242 7.32 52.7775 7.32C53.6308 7.32 54.0575 7.74666 54.0575 8.59999C54.0575 9.45333 53.6308 9.88 52.7775 9.88ZM49.5775 9.88C48.7242 9.88 48.2975 9.45333 48.2975 8.59999C48.2975 7.74666 48.7242 7.32 49.5775 7.32C50.4308 7.32 50.8575 7.74666 50.8575 8.59999C50.8575 9.45333 50.4308 9.88 49.5775 9.88ZM46.3775 9.88C45.5242 9.88 45.0975 9.45333 45.0975 8.59999C45.0975 7.74666 45.5242 7.32 46.3775 7.32C47.2308 7.32 47.6575 7.74666 47.6575 8.59999C47.6575 9.45333 47.2308 9.88 46.3775 9.88ZM43.1775 9.88C42.3242 9.88 41.8975 9.45333 41.8975 8.59999C41.8975 7.74666 42.3242 7.32 43.1775 7.32C44.0308 7.32 44.4575 7.74666 44.4575 8.59999C44.4575 9.45333 44.0308 9.88 43.1775 9.88ZM39.9775 9.88C39.1242 9.88 38.6975 9.45333 38.6975 8.59999C38.6975 7.74666 39.1242 7.32 39.9775 7.32C40.8308 7.32 41.2575 7.74666 41.2575 8.59999C41.2575 9.45333 40.8308 9.88 39.9775 9.88ZM36.7775 9.88C35.9242 9.88 35.4975 9.45333 35.4975 8.59999C35.4975 7.74666 35.9242 7.32 36.7775 7.32C37.6308 7.32 38.0575 7.74666 38.0575 8.59999C38.0575 9.45333 37.6308 9.88 36.7775 9.88ZM33.5775 9.88C32.7242 9.88 32.2975 9.45333 32.2975 8.59999C32.2975 7.74666 32.7242 7.32 33.5775 7.32C34.4308 7.32 34.8575 7.74666 34.8575 8.59999C34.8575 9.45333 34.4308 9.88 33.5775 9.88ZM30.3775 9.88C29.5242 9.88 29.0975 9.45333 29.0975 8.59999C29.0975 7.74666 29.5242 7.32 30.3775 7.32C31.2308 7.32 31.6575 7.74666 31.6575 8.59999C31.6575 9.45333 31.2308 9.88 30.3775 9.88ZM57.4175 10.36H56.1375L57.5775 13.4L59.0175 10.36H57.4175ZM71.9775 10.52L73.2575 13.08H70.6975L71.9775 10.52ZM68.7775 10.52L70.0575 13.08H67.4975L68.7775 10.52ZM65.5775 10.52L66.8575 13.08H64.2975L65.5775 10.52ZM62.3775 10.52L63.6575 13.08H61.0975L62.3775 10.52ZM52.7775 13.08C51.9242 13.08 51.4975 12.6533 51.4975 11.8C51.4975 10.9467 51.9242 10.52 52.7775 10.52C53.6308 10.52 54.0575 10.9467 54.0575 11.8C54.0575 12.6533 53.6308 13.08 52.7775 13.08ZM49.5775 13.08C48.7242 13.08 48.2975 12.6533 48.2975 11.8C48.2975 10.9467 48.7242 10.52 49.5775 10.52C50.4308 10.52 50.8575 10.9467 50.8575 11.8C50.8575 12.6533 50.4308 13.08 49.5775 13.08ZM46.3775 13.08C45.5242 13.08 45.0975 12.6533 45.0975 11.8C45.0975 10.9467 45.5242 10.52 46.3775 10.52C47.2308 10.52 47.6575 10.9467 47.6575 11.8C47.6575 12.6533 47.2308 13.08 46.3775 13.08ZM43.1775 13.08C42.3242 13.08 41.8975 12.6533 41.8975 11.8C41.8975 10.9467 42.3242 10.52 43.1775 10.52C44.0308 10.52 44.4575 10.9467 44.4575 11.8C44.4575 12.6533 44.0308 13.08 43.1775 13.08ZM39.9775 13.08C39.1242 13.08 38.6975 12.6533 38.6975 11.8C38.6975 10.9467 39.1242 10.52 39.9775 10.52C40.8308 10.52 41.2575 10.9467 41.2575 11.8C41.2575 12.6533 40.8308 13.08 39.9775 13.08ZM36.7775 13.08C35.9242 13.08 35.4975 12.6533 35.4975 11.8C35.4975 10.9467 35.9242 10.52 36.7775 10.52C37.6308 10.52 38.0575 10.9467 38.0575 11.8C38.0575 12.6533 37.6308 13.08 36.7775 13.08ZM33.5775 13.08C32.7242 13.08 32.2975 12.6533 32.2975 11.8C32.2975 10.9467 32.7242 10.52 33.5775 10.52C34.4308 10.52 34.8575 10.9467 34.8575 11.8C34.8575 12.6533 34.4308 13.08 33.5775 13.08ZM30.3775 13.08C29.5242 13.08 29.0975 12.6533 29.0975 11.8C29.0975 10.9467 29.5242 10.52 30.3775 10.52C31.2308 10.52 31.6575 10.9467 31.6575 11.8C31.6575 12.6533 31.2308 13.08 30.3775 13.08ZM27.1775 13.08C26.3242 13.08 25.8975 12.6533 25.8975 11.8C25.8975 10.9467 26.3242 10.52 27.1775 10.52C28.0308 10.52 28.4575 10.9467 28.4575 11.8C28.4575 12.6533 28.0308 13.08 27.1775 13.08ZM25.0975 12.92H22.8575V10.68H25.0975V12.92ZM57.5775 13.4H55.9775L57.5775 16.6L59.1775 13.4H57.5775ZM75.1775 16.44C74.2175 16.44 73.7375 15.96 73.7375 15C73.7375 14.04 74.2175 13.56 75.1775 13.56C76.1375 13.56 76.6175 14.04 76.6175 15C76.6175 15.96 76.1375 16.44 75.1775 16.44ZM71.9775 13.72L73.2575 16.28H70.6975L71.9775 13.72ZM68.7775 13.72L70.0575 16.28H67.4975L68.7775 13.72ZM65.5775 13.72L66.8575 16.28H64.2975L65.5775 13.72ZM62.3775 13.72L63.6575 16.28H61.0975L62.3775 13.72ZM52.7775 16.28C51.9242 16.28 51.4975 15.8533 51.4975 15C51.4975 14.1467 51.9242 13.72 52.7775 13.72C53.6308 13.72 54.0575 14.1467 54.0575 15C54.0575 15.8533 53.6308 16.28 52.7775 16.28ZM49.5775 16.28C48.7242 16.28 48.2975 15.8533 48.2975 15C48.2975 14.1467 48.7242 13.72 49.5775 13.72C50.4308 13.72 50.8575 14.1467 50.8575 15C50.8575 15.8533 50.4308 16.28 49.5775 16.28ZM46.3775 16.28C45.5242 16.28 45.0975 15.8533 45.0975 15C45.0975 14.1467 45.5242 13.72 46.3775 13.72C47.2308 13.72 47.6575 14.1467 47.6575 15C47.6575 15.8533 47.2308 16.28 46.3775 16.28ZM43.1775 16.28C42.3242 16.28 41.8975 15.8533 41.8975 15C41.8975 14.1467 42.3242 13.72 43.1775 13.72C44.0308 13.72 44.4575 14.1467 44.4575 15C44.4575 15.8533 44.0308 16.28 43.1775 16.28ZM39.9775 16.28C39.1242 16.28 38.6975 15.8533 38.6975 15C38.6975 14.1467 39.1242 13.72 39.9775 13.72C40.8308 13.72 41.2575 14.1467 41.2575 15C41.2575 15.8533 40.8308 16.28 39.9775 16.28ZM36.7775 16.28C35.9242 16.28 35.4975 15.8533 35.4975 15C35.4975 14.1467 35.9242 13.72 36.7775 13.72C37.6308 13.72 38.0575 14.1467 38.0575 15C38.0575 15.8533 37.6308 16.28 36.7775 16.28ZM33.5775 16.28C32.7242 16.28 32.2975 15.8533 32.2975 15C32.2975 14.1467 32.7242 13.72 33.5775 13.72C34.4308 13.72 34.8575 14.1467 34.8575 15C34.8575 15.8533 34.4308 16.28 33.5775 16.28ZM30.3775 16.28C29.5242 16.28 29.0975 15.8533 29.0975 15C29.0975 14.1467 29.5242 13.72 30.3775 13.72C31.2308 13.72 31.6575 14.1467 31.6575 15C31.6575 15.8533 31.2308 16.28 30.3775 16.28ZM27.1775 16.28C26.3242 16.28 25.8975 15.8533 25.8975 15C25.8975 14.1467 26.3242 13.72 27.1775 13.72C28.0308 13.72 28.4575 14.1467 28.4575 15C28.4575 15.8533 28.0308 16.28 27.1775 16.28ZM25.0975 16.12H22.8575V13.88H25.0975V16.12ZM21.8975 16.12H19.6575V13.88H21.8975V16.12ZM57.5775 16.6H55.9775L57.5775 19.8L59.1775 16.6H57.5775ZM75.1775 19.64C74.2175 19.64 73.7375 19.16 73.7375 18.2C73.7375 17.24 74.2175 16.76 75.1775 16.76C76.1375 16.76 76.6175 17.24 76.6175 18.2C76.6175 19.16 76.1375 19.64 75.1775 19.64ZM71.9775 16.92L73.2575 19.48H70.6975L71.9775 16.92ZM68.7775 16.92L70.0575 19.48H67.4975L68.7775 16.92ZM65.5775 16.92L66.8575 19.48H64.2975L65.5775 16.92ZM62.3775 16.92L63.6575 19.48H61.0975L62.3775 16.92ZM52.7775 19.48C51.9242 19.48 51.4975 19.0533 51.4975 18.2C51.4975 17.3467 51.9242 16.92 52.7775 16.92C53.6308 16.92 54.0575 17.3467 54.0575 18.2C54.0575 19.0533 53.6308 19.48 52.7775 19.48ZM49.5775 19.48C48.7242 19.48 48.2975 19.0533 48.2975 18.2C48.2975 17.3467 48.7242 16.92 49.5775 16.92C50.4308 16.92 50.8575 17.3467 50.8575 18.2C50.8575 19.0533 50.4308 19.48 49.5775 19.48ZM46.3775 19.48C45.5242 19.48 45.0975 19.0533 45.0975 18.2C45.0975 17.3467 45.5242 16.92 46.3775 16.92C47.2308 16.92 47.6575 17.3467 47.6575 18.2C47.6575 19.0533 47.2308 19.48 46.3775 19.48ZM43.1775 19.48C42.3242 19.48 41.8975 19.0533 41.8975 18.2C41.8975 17.3467 42.3242 16.92 43.1775 16.92C44.0308 16.92 44.4575 17.3467 44.4575 18.2C44.4575 19.0533 44.0308 19.48 43.1775 19.48ZM39.9775 19.48C39.1242 19.48 38.6975 19.0533 38.6975 18.2C38.6975 17.3467 39.1242 16.92 39.9775 16.92C40.8308 16.92 41.2575 17.3467 41.2575 18.2C41.2575 19.0533 40.8308 19.48 39.9775 19.48ZM36.7775 19.48C35.9242 19.48 35.4975 19.0533 35.4975 18.2C35.4975 17.3467 35.9242 16.92 36.7775 16.92C37.6308 16.92 38.0575 17.3467 38.0575 18.2C38.0575 19.0533 37.6308 19.48 36.7775 19.48ZM33.5775 19.48C32.7242 19.48 32.2975 19.0533 32.2975 18.2C32.2975 17.3467 32.7242 16.92 33.5775 16.92C34.4308 16.92 34.8575 17.3467 34.8575 18.2C34.8575 19.0533 34.4308 19.48 33.5775 19.48ZM30.3775 19.48C29.5242 19.48 29.0975 19.0533 29.0975 18.2C29.0975 17.3467 29.5242 16.92 30.3775 16.92C31.2308 16.92 31.6575 17.3467 31.6575 18.2C31.6575 19.0533 31.2308 19.48 30.3775 19.48ZM27.1775 19.48C26.3242 19.48 25.8975 19.0533 25.8975 18.2C25.8975 17.3467 26.3242 16.92 27.1775 16.92C28.0308 16.92 28.4575 17.3467 28.4575 18.2C28.4575 19.0533 28.0308 19.48 27.1775 19.48ZM25.0975 19.32H22.8575V17.08H25.0975V19.32ZM21.8975 19.32H19.6575V17.08H21.8975V19.32ZM18.6975 19.32H16.4575V17.08H18.6975V19.32ZM71.9775 22.84L70.5375 21.4L71.9775 19.96L73.4175 21.4L71.9775 22.84ZM68.7775 22.84L67.3375 21.4L68.7775 19.96L70.2175 21.4L68.7775 22.84ZM65.5775 22.84L64.1375 21.4L65.5775 19.96L67.0175 21.4L65.5775 22.84ZM62.3775 22.84L60.9375 21.4L62.3775 19.96L63.8175 21.4L62.3775 22.84ZM59.1775 22.84L57.7375 21.4L59.1775 19.96L60.6175 21.4L59.1775 22.84ZM55.9775 22.84L54.5375 21.4L55.9775 19.96L57.4175 21.4L55.9775 22.84ZM52.7775 22.84L51.3375 21.4L52.7775 19.96L54.2175 21.4L52.7775 22.84ZM49.5775 22.84L48.1375 21.4L49.5775 19.96L51.0175 21.4L49.5775 22.84ZM14.3775 19.96L15.8175 22.84H12.9375L14.3775 19.96ZM75.1775 22.84L73.7375 21.4L75.1775 19.96L76.6175 21.4L75.1775 22.84ZM47.8175 22.84H44.9375V19.96H47.8175V22.84ZM44.6175 22.84H41.7375V19.96H44.6175V22.84ZM41.4175 22.84H38.5375V19.96H41.4175V22.84ZM38.2175 22.84H35.3375V19.96H38.2175V22.84ZM35.0175 22.84H32.1375V19.96H35.0175V22.84ZM31.8175 22.84H28.9375V19.96H31.8175V22.84ZM28.6175 22.84H25.7375V19.96H28.6175V22.84ZM25.4175 22.84H22.5375V19.96H25.4175V22.84ZM22.2175 22.84H19.3375V19.96H22.2175V22.84ZM19.0175 22.84H16.1375V19.96H19.0175V22.84ZM71.9775 26.04C71.0175 26.04 70.5375 25.56 70.5375 24.6C70.5375 23.64 71.0175 23.16 71.9775 23.16C72.9375 23.16 73.4175 23.64 73.4175 24.6C73.4175 25.56 72.9375 26.04 71.9775 26.04ZM68.7775 26.04C67.8175 26.04 67.3375 25.56 67.3375 24.6C67.3375 23.64 67.8175 23.16 68.7775 23.16C69.7375 23.16 70.2175 23.64 70.2175 24.6C70.2175 25.56 69.7375 26.04 68.7775 26.04ZM65.5775 26.04C64.6175 26.04 64.1375 25.56 64.1375 24.6C64.1375 23.64 64.6175 23.16 65.5775 23.16C66.5375 23.16 67.0175 23.64 67.0175 24.6C67.0175 25.56 66.5375 26.04 65.5775 26.04ZM62.3775 26.04C61.4175 26.04 60.9375 25.56 60.9375 24.6C60.9375 23.64 61.4175 23.16 62.3775 23.16C63.3375 23.16 63.8175 23.64 63.8175 24.6C63.8175 25.56 63.3375 26.04 62.3775 26.04ZM59.1775 26.04C58.2175 26.04 57.7375 25.56 57.7375 24.6C57.7375 23.64 58.2175 23.16 59.1775 23.16C60.1375 23.16 60.6175 23.64 60.6175 24.6C60.6175 25.56 60.1375 26.04 59.1775 26.04ZM55.9775 26.04C55.0175 26.04 54.5375 25.56 54.5375 24.6C54.5375 23.64 55.0175 23.16 55.9775 23.16C56.9375 23.16 57.4175 23.64 57.4175 24.6C57.4175 25.56 56.9375 26.04 55.9775 26.04ZM52.7775 26.04C51.8175 26.04 51.3375 25.56 51.3375 24.6C51.3375 23.64 51.8175 23.16 52.7775 23.16C53.7375 23.16 54.2175 23.64 54.2175 24.6C54.2175 25.56 53.7375 26.04 52.7775 26.04ZM49.5775 26.04C48.6175 26.04 48.1375 25.56 48.1375 24.6C48.1375 23.64 48.6175 23.16 49.5775 23.16C50.5375 23.16 51.0175 23.64 51.0175 24.6C51.0175 25.56 50.5375 26.04 49.5775 26.04ZM14.3775 23.16L15.8175 26.04H12.9375L14.3775 23.16ZM11.1775 23.16L12.6175 26.04H9.7375L11.1775 23.16ZM7.9775 23.16L9.4175 26.04H6.5375L7.9775 23.16ZM47.6575 25.88H45.0975V23.32H47.6575V25.88ZM44.4575 25.88H41.8975V23.32H44.4575V25.88ZM41.2575 25.88H38.6975V23.32H41.2575V25.88ZM38.0575 25.88H35.4975V23.32H38.0575V25.88ZM34.8575 25.88H32.2975V23.32H34.8575V25.88ZM31.6575 25.88H29.0975V23.32H31.6575V25.88ZM28.4575 25.88H25.8975V23.32H28.4575V25.88ZM25.2575 25.88H22.6975V23.32H25.2575V25.88ZM22.0575 25.88H19.4975V23.32H22.0575V25.88ZM18.8575 25.88H16.2975V23.32H18.8575V25.88ZM75.1775 25.4C74.6442 25.4 74.3775 25.1333 74.3775 24.6C74.3775 24.0667 74.6442 23.8 75.1775 23.8C75.7108 23.8 75.9775 24.0667 75.9775 24.6C75.9775 25.1333 75.7108 25.4 75.1775 25.4ZM76.6175 29.24H73.7375V26.36H76.6175V29.24ZM71.9775 29.24C71.0175 29.24 70.5375 28.76 70.5375 27.8C70.5375 26.84 71.0175 26.36 71.9775 26.36C72.9375 26.36 73.4175 26.84 73.4175 27.8C73.4175 28.76 72.9375 29.24 71.9775 29.24ZM68.7775 29.24C67.8175 29.24 67.3375 28.76 67.3375 27.8C67.3375 26.84 67.8175 26.36 68.7775 26.36C69.7375 26.36 70.2175 26.84 70.2175 27.8C70.2175 28.76 69.7375 29.24 68.7775 29.24ZM65.5775 29.24C64.6175 29.24 64.1375 28.76 64.1375 27.8C64.1375 26.84 64.6175 26.36 65.5775 26.36C66.5375 26.36 67.0175 26.84 67.0175 27.8C67.0175 28.76 66.5375 29.24 65.5775 29.24ZM62.3775 29.24C61.4175 29.24 60.9375 28.76 60.9375 27.8C60.9375 26.84 61.4175 26.36 62.3775 26.36C63.3375 26.36 63.8175 26.84 63.8175 27.8C63.8175 28.76 63.3375 29.24 62.3775 29.24ZM59.1775 29.24C58.2175 29.24 57.7375 28.76 57.7375 27.8C57.7375 26.84 58.2175 26.36 59.1775 26.36C60.1375 26.36 60.6175 26.84 60.6175 27.8C60.6175 28.76 60.1375 29.24 59.1775 29.24ZM55.9775 29.24C55.0175 29.24 54.5375 28.76 54.5375 27.8C54.5375 26.84 55.0175 26.36 55.9775 26.36C56.9375 26.36 57.4175 26.84 57.4175 27.8C57.4175 28.76 56.9375 29.24 55.9775 29.24ZM52.7775 29.24C51.8175 29.24 51.3375 28.76 51.3375 27.8C51.3375 26.84 51.8175 26.36 52.7775 26.36C53.7375 26.36 54.2175 26.84 54.2175 27.8C54.2175 28.76 53.7375 29.24 52.7775 29.24ZM49.5775 29.24C48.6175 29.24 48.1375 28.76 48.1375 27.8C48.1375 26.84 48.6175 26.36 49.5775 26.36C50.5375 26.36 51.0175 26.84 51.0175 27.8C51.0175 28.76 50.5375 29.24 49.5775 29.24ZM14.3775 26.36L15.8175 29.24H12.9375L14.3775 26.36ZM11.1775 26.36L12.6175 29.24H9.7375L11.1775 26.36ZM7.9775 26.36L9.4175 29.24H6.5375L7.9775 26.36ZM4.7775 26.36L6.2175 29.24H3.3375L4.7775 26.36ZM47.6575 29.08H45.0975V26.52H47.6575V29.08ZM44.4575 29.08H41.8975V26.52H44.4575V29.08ZM41.2575 29.08H38.6975V26.52H41.2575V29.08ZM38.0575 29.08H35.4975V26.52H38.0575V29.08ZM34.8575 29.08H32.2975V26.52H34.8575V29.08ZM31.6575 29.08H29.0975V26.52H31.6575V29.08ZM28.4575 29.08H25.8975V26.52H28.4575V29.08ZM25.2575 29.08H22.6975V26.52H25.2575V29.08ZM22.0575 29.08H19.4975V26.52H22.0575V29.08ZM18.8575 29.08H16.2975V26.52H18.8575V29.08ZM76.6175 32.44H73.7375V29.56H76.6175V32.44ZM71.9775 32.44C71.0175 32.44 70.5375 31.96 70.5375 31C70.5375 30.04 71.0175 29.56 71.9775 29.56C72.9375 29.56 73.4175 30.04 73.4175 31C73.4175 31.96 72.9375 32.44 71.9775 32.44ZM68.7775 32.44C67.8175 32.44 67.3375 31.96 67.3375 31C67.3375 30.04 67.8175 29.56 68.7775 29.56C69.7375 29.56 70.2175 30.04 70.2175 31C70.2175 31.96 69.7375 32.44 68.7775 32.44ZM65.5775 32.44C64.6175 32.44 64.1375 31.96 64.1375 31C64.1375 30.04 64.6175 29.56 65.5775 29.56C66.5375 29.56 67.0175 30.04 67.0175 31C67.0175 31.96 66.5375 32.44 65.5775 32.44ZM62.3775 32.44C61.4175 32.44 60.9375 31.96 60.9375 31C60.9375 30.04 61.4175 29.56 62.3775 29.56C63.3375 29.56 63.8175 30.04 63.8175 31C63.8175 31.96 63.3375 32.44 62.3775 32.44ZM59.1775 32.44C58.2175 32.44 57.7375 31.96 57.7375 31C57.7375 30.04 58.2175 29.56 59.1775 29.56C60.1375 29.56 60.6175 30.04 60.6175 31C60.6175 31.96 60.1375 32.44 59.1775 32.44ZM55.9775 32.44C55.0175 32.44 54.5375 31.96 54.5375 31C54.5375 30.04 55.0175 29.56 55.9775 29.56C56.9375 29.56 57.4175 30.04 57.4175 31C57.4175 31.96 56.9375 32.44 55.9775 32.44ZM52.7775 32.44C51.8175 32.44 51.3375 31.96 51.3375 31C51.3375 30.04 51.8175 29.56 52.7775 29.56C53.7375 29.56 54.2175 30.04 54.2175 31C54.2175 31.96 53.7375 32.44 52.7775 32.44ZM49.5775 32.44C48.6175 32.44 48.1375 31.96 48.1375 31C48.1375 30.04 48.6175 29.56 49.5775 29.56C50.5375 29.56 51.0175 30.04 51.0175 31C51.0175 31.96 50.5375 32.44 49.5775 32.44ZM14.3775 29.56L15.8175 32.44H12.9375L14.3775 29.56ZM11.1775 29.56L12.6175 32.44H9.7375L11.1775 29.56ZM7.9775 29.56L9.4175 32.44H6.5375L7.9775 29.56ZM4.7775 29.56L6.2175 32.44H3.3375L4.7775 29.56ZM1.5775 29.56L3.0175 32.44H0.1375L1.5775 29.56ZM47.6575 32.28H45.0975V29.72H47.6575V32.28ZM44.4575 32.28H41.8975V29.72H44.4575V32.28ZM41.2575 32.28H38.6975V29.72H41.2575V32.28ZM38.0575 32.28H35.4975V29.72H38.0575V32.28ZM34.8575 32.28H32.2975V29.72H34.8575V32.28ZM31.6575 32.28H29.0975V29.72H31.6575V32.28ZM28.4575 32.28H25.8975V29.72H28.4575V32.28ZM25.2575 32.28H22.6975V29.72H25.2575V32.28ZM22.0575 32.28H19.4975V29.72H22.0575V32.28ZM18.8575 32.28H16.2975V29.72H18.8575V32.28ZM76.6175 35.64H73.7375V32.76H76.6175V35.64ZM14.3775 32.76L15.8175 35.64H12.9375L14.3775 32.76ZM11.1775 32.76L12.6175 35.64H9.7375L11.1775 32.76ZM7.9775 32.76L9.4175 35.64H6.5375L7.9775 32.76ZM4.7775 32.76L6.2175 35.64H3.3375L4.7775 32.76ZM1.5775 32.76L3.0175 35.64H0.1375L1.5775 32.76ZM47.6575 35.48H45.0975V32.92H47.6575V35.48ZM44.4575 35.48H41.8975V32.92H44.4575V35.48ZM41.2575 35.48H38.6975V32.92H41.2575V35.48ZM38.0575 35.48H35.4975V32.92H38.0575V35.48ZM34.8575 35.48H32.2975V32.92H34.8575V35.48ZM31.6575 35.48H29.0975V32.92H31.6575V35.48ZM28.4575 35.48H25.8975V32.92H28.4575V35.48ZM25.2575 35.48H22.6975V32.92H25.2575V35.48ZM22.0575 35.48H19.4975V32.92H22.0575V35.48ZM18.8575 35.48H16.2975V32.92H18.8575V35.48ZM69.8975 35.32H67.6575V33.08H69.8975V35.32ZM66.6975 35.32H64.4575V33.08H66.6975V35.32ZM63.4975 35.32H61.2575V33.08H63.4975V35.32ZM60.2975 35.32H58.0575V33.08H60.2975V35.32ZM57.0975 35.32H54.8575V33.08H57.0975V35.32ZM53.8975 35.32H51.6575V33.08H53.8975V35.32ZM50.6975 35.32H48.4575V33.08H50.6975V35.32ZM71.9775 35.16C71.3375 35.16 71.0175 34.84 71.0175 34.2C71.0175 33.56 71.3375 33.24 71.9775 33.24C72.6175 33.24 72.9375 33.56 72.9375 34.2C72.9375 34.84 72.6175 35.16 71.9775 35.16ZM76.6175 38.84H73.7375V35.96H76.6175V38.84ZM14.3775 36.12L15.6575 38.68H13.0975L14.3775 36.12ZM11.1775 36.12L12.4575 38.68H9.8975L11.1775 36.12ZM7.9775 36.12L9.2575 38.68H6.6975L7.9775 36.12ZM4.7775 36.12L6.0575 38.68H3.4975L4.7775 36.12ZM1.5775 36.12L2.8575 38.68H0.2975L1.5775 36.12ZM47.6575 38.68H45.0975V36.12H47.6575V38.68ZM44.4575 38.68H41.8975V36.12H44.4575V38.68ZM41.2575 38.68H38.6975V36.12H41.2575V38.68ZM38.0575 38.68H35.4975V36.12H38.0575V38.68ZM34.8575 38.68H32.2975V36.12H34.8575V38.68ZM31.6575 38.68H29.0975V36.12H31.6575V38.68ZM28.4575 38.68H25.8975V36.12H28.4575V38.68ZM25.2575 38.68H22.6975V36.12H25.2575V38.68ZM22.0575 38.68H19.4975V36.12H22.0575V38.68ZM18.8575 38.68H16.2975V36.12H18.8575V38.68ZM69.7375 38.36H67.8175V36.44H69.7375V38.36ZM66.5375 38.36H64.6175V36.44H66.5375V38.36ZM63.3375 38.36H61.4175V36.44H63.3375V38.36ZM60.1375 38.36H58.2175V36.44H60.1375V38.36ZM56.9375 38.36H55.0175V36.44H56.9375V38.36ZM53.7375 38.36H51.8175V36.44H53.7375V38.36ZM50.5375 38.36H48.6175V36.44H50.5375V38.36ZM71.9775 38.2C71.4442 38.2 71.1775 37.9333 71.1775 37.4C71.1775 36.8667 71.4442 36.6 71.9775 36.6C72.5108 36.6 72.7775 36.8667 72.7775 37.4C72.7775 37.9333 72.5108 38.2 71.9775 38.2ZM76.6175 42.04H73.7375V39.16H76.6175V42.04ZM14.3775 39.32L15.6575 41.88H13.0975L14.3775 39.32ZM11.1775 39.32L12.4575 41.88H9.8975L11.1775 39.32ZM7.9775 39.32L9.2575 41.88H6.6975L7.9775 39.32ZM4.7775 39.32L6.0575 41.88H3.4975L4.7775 39.32ZM47.6575 41.88H45.0975V39.32H47.6575V41.88ZM44.4575 41.88H41.8975V39.32H44.4575V41.88ZM41.2575 41.88H38.6975V39.32H41.2575V41.88ZM38.0575 41.88H35.4975V39.32H38.0575V41.88ZM34.8575 41.88H32.2975V39.32H34.8575V41.88ZM31.6575 41.88H29.0975V39.32H31.6575V41.88ZM28.4575 41.88H25.8975V39.32H28.4575V41.88ZM25.2575 41.88H22.6975V39.32H25.2575V41.88ZM22.0575 41.88H19.4975V39.32H22.0575V41.88ZM18.8575 41.88H16.2975V39.32H18.8575V41.88ZM69.7375 41.56H67.8175V39.64H69.7375V41.56ZM66.5375 41.56H64.6175V39.64H66.5375V41.56ZM63.3375 41.56H61.4175V39.64H63.3375V41.56ZM60.1375 41.56H58.2175V39.64H60.1375V41.56ZM56.9375 41.56H55.0175V39.64H56.9375V41.56ZM53.7375 41.56H51.8175V39.64H53.7375V41.56ZM50.5375 41.56H48.6175V39.64H50.5375V41.56ZM71.9775 41.4C71.4442 41.4 71.1775 41.1333 71.1775 40.6C71.1775 40.0667 71.4442 39.8 71.9775 39.8C72.5108 39.8 72.7775 40.0667 72.7775 40.6C72.7775 41.1333 72.5108 41.4 71.9775 41.4ZM76.6175 45.24H73.7375V42.36H76.6175V45.24ZM14.3775 42.52L15.6575 45.08H13.0975L14.3775 42.52ZM11.1775 42.52L12.4575 45.08H9.8975L11.1775 42.52ZM7.9775 42.52L9.2575 45.08H6.6975L7.9775 42.52ZM47.6575 45.08H45.0975V42.52H47.6575V45.08ZM44.4575 45.08H41.8975V42.52H44.4575V45.08ZM41.2575 45.08H38.6975V42.52H41.2575V45.08ZM34.8575 45.08H32.2975V42.52H34.8575V45.08ZM31.6575 45.08H29.0975V42.52H31.6575V45.08ZM28.4575 45.08H25.8975V42.52H28.4575V45.08ZM25.2575 45.08H22.6975V42.52H25.2575V45.08ZM22.0575 45.08H19.4975V42.52H22.0575V45.08ZM18.8575 45.08H16.2975V42.52H18.8575V45.08ZM69.7375 44.76H67.8175V42.84H69.7375V44.76ZM66.5375 44.76H64.6175V42.84H66.5375V44.76ZM63.3375 44.76H61.4175V42.84H63.3375V44.76ZM60.1375 44.76H58.2175V42.84H60.1375V44.76ZM56.9375 44.76H55.0175V42.84H56.9375V44.76ZM53.7375 44.76H51.8175V42.84H53.7375V44.76ZM50.5375 44.76H48.6175V42.84H50.5375V44.76ZM71.9775 44.6C71.4442 44.6 71.1775 44.3333 71.1775 43.8C71.1775 43.2667 71.4442 43 71.9775 43C72.5108 43 72.7775 43.2667 72.7775 43.8C72.7775 44.3333 72.5108 44.6 71.9775 44.6ZM76.6175 48.44H73.7375V45.56H76.6175V48.44ZM14.3775 45.72L15.6575 48.28H13.0975L14.3775 45.72ZM11.1775 45.72L12.4575 48.28H9.8975L11.1775 45.72ZM7.9775 45.72L9.2575 48.28H6.6975L7.9775 45.72ZM47.6575 48.28H45.0975V45.72H47.6575V48.28ZM44.4575 48.28H41.8975V45.72H44.4575V48.28ZM41.2575 48.28H38.6975V45.72H41.2575V48.28ZM31.6575 48.28H29.0975V45.72H31.6575V48.28ZM28.4575 48.28H25.8975V45.72H28.4575V48.28ZM25.2575 48.28H22.6975V45.72H25.2575V48.28ZM22.0575 48.28H19.4975V45.72H22.0575V48.28ZM18.8575 48.28H16.2975V45.72H18.8575V48.28ZM69.7375 47.96H67.8175V46.04H69.7375V47.96ZM66.5375 47.96H64.6175V46.04H66.5375V47.96ZM63.3375 47.96H61.4175V46.04H63.3375V47.96ZM60.1375 47.96H58.2175V46.04H60.1375V47.96ZM56.9375 47.96H55.0175V46.04H56.9375V47.96ZM53.7375 47.96H51.8175V46.04H53.7375V47.96ZM50.5375 47.96H48.6175V46.04H50.5375V47.96ZM71.9775 47.8C71.4442 47.8 71.1775 47.5333 71.1775 47C71.1775 46.4667 71.4442 46.2 71.9775 46.2C72.5108 46.2 72.7775 46.4667 72.7775 47C72.7775 47.5333 72.5108 47.8 71.9775 47.8ZM76.4575 51.48H73.8975V48.92H76.4575V51.48ZM14.3775 48.92L15.6575 51.48H13.0975L14.3775 48.92ZM11.1775 48.92L12.4575 51.48H9.8975L11.1775 48.92ZM47.4975 51.32H45.2575V49.08H47.4975V51.32ZM44.2975 51.32H42.0575V49.08H44.2975V51.32ZM41.0975 51.32H38.8575V49.08H41.0975V51.32ZM25.0975 51.32H22.8575V49.08H25.0975V51.32ZM21.8975 51.32H19.6575V49.08H21.8975V51.32ZM18.6975 51.32H16.4575V49.08H18.6975V51.32ZM69.7375 51.16H67.8175V49.24H69.7375V51.16ZM66.5375 51.16H64.6175V49.24H66.5375V51.16ZM63.3375 51.16H61.4175V49.24H63.3375V51.16ZM60.1375 51.16H58.2175V49.24H60.1375V51.16ZM56.9375 51.16H55.0175V49.24H56.9375V51.16ZM53.7375 51.16H51.8175V49.24H53.7375V51.16ZM50.5375 51.16H48.6175V49.24H50.5375V51.16ZM71.9775 51C71.4442 51 71.1775 50.7333 71.1775 50.2C71.1775 49.6667 71.4442 49.4 71.9775 49.4C72.5108 49.4 72.7775 49.6667 72.7775 50.2C72.7775 50.7333 72.5108 51 71.9775 51ZM76.4575 54.68H73.8975V52.12H76.4575V54.68ZM14.3775 52.12L15.6575 54.68H13.0975L14.3775 52.12ZM47.4975 54.52H45.2575V52.28H47.4975V54.52ZM44.2975 54.52H42.0575V52.28H44.2975V54.52ZM41.0975 54.52H38.8575V52.28H41.0975V54.52ZM21.8975 54.52H19.6575V52.28H21.8975V54.52ZM18.6975 54.52H16.4575V52.28H18.6975V54.52ZM69.7375 54.36H67.8175V52.44H69.7375V54.36ZM66.5375 54.36H64.6175V52.44H66.5375V54.36ZM63.3375 54.36H61.4175V52.44H63.3375V54.36ZM60.1375 54.36H58.2175V52.44H60.1375V54.36ZM56.9375 54.36H55.0175V52.44H56.9375V54.36ZM53.7375 54.36H51.8175V52.44H53.7375V54.36ZM50.5375 54.36H48.6175V52.44H50.5375V54.36ZM71.9775 54.2C71.4442 54.2 71.1775 53.9333 71.1775 53.4C71.1775 52.8667 71.4442 52.6 71.9775 52.6C72.5108 52.6 72.7775 52.8667 72.7775 53.4C72.7775 53.9333 72.5108 54.2 71.9775 54.2ZM76.4575 57.88H73.8975V55.32H76.4575V57.88ZM47.4975 57.72H45.2575V55.48H47.4975V57.72ZM44.2975 57.72H42.0575V55.48H44.2975V57.72ZM41.0975 57.72H38.8575V55.48H41.0975V57.72ZM69.7375 57.56H67.8175V55.64H69.7375V57.56ZM66.5375 57.56H64.6175V55.64H66.5375V57.56ZM63.3375 57.56H61.4175V55.64H63.3375V57.56ZM60.1375 57.56H58.2175V55.64H60.1375V57.56ZM56.9375 57.56H55.0175V55.64H56.9375V57.56ZM53.7375 57.56H51.8175V55.64H53.7375V57.56ZM50.5375 57.56H48.6175V55.64H50.5375V57.56ZM71.9775 57.4C71.4442 57.4 71.1775 57.1333 71.1775 56.6C71.1775 56.0667 71.4442 55.8 71.9775 55.8C72.5108 55.8 72.7775 56.0667 72.7775 56.6C72.7775 57.1333 72.5108 57.4 71.9775 57.4ZM47.4975 60.92H45.2575V58.68H47.4975V60.92ZM44.2975 60.92H42.0575V58.68H44.2975V60.92ZM41.0975 60.92H38.8575V58.68H41.0975V60.92ZM69.7375 60.76H67.8175V58.84H69.7375V60.76ZM66.5375 60.76H64.6175V58.84H66.5375V60.76ZM63.3375 60.76H61.4175V58.84H63.3375V60.76ZM60.1375 60.76H58.2175V58.84H60.1375V60.76ZM56.9375 60.76H55.0175V58.84H56.9375V60.76ZM53.7375 60.76H51.8175V58.84H53.7375V60.76ZM50.5375 60.76H48.6175V58.84H50.5375V60.76ZM75.1775 59L75.9775 60.6H74.3775L75.1775 59ZM71.9775 60.6C71.4442 60.6 71.1775 60.3333 71.1775 59.8C71.1775 59.2667 71.4442 59 71.9775 59C72.5108 59 72.7775 59.2667 72.7775 59.8C72.7775 60.3333 72.5108 60.6 71.9775 60.6ZM47.4975 64.12H45.2575V61.88H47.4975V64.12ZM44.2975 64.12H42.0575V61.88H44.2975V64.12ZM41.0975 64.12H38.8575V61.88H41.0975V64.12ZM69.5775 63.8H67.9775V62.2H69.5775V63.8ZM66.3775 63.8H64.7775V62.2H66.3775V63.8ZM63.1775 63.8H61.5775V62.2H63.1775V63.8ZM59.9775 63.8H58.3775V62.2H59.9775V63.8ZM56.7775 63.8H55.1775V62.2H56.7775V63.8ZM53.5775 63.8H51.9775V62.2H53.5775V63.8ZM50.3775 63.8H48.7775V62.2H50.3775V63.8ZM75.1775 62.36L75.8175 63.64H74.5375L75.1775 62.36ZM71.9775 63.64C71.5508 63.64 71.3375 63.4267 71.3375 63C71.3375 62.5733 71.5508 62.36 71.9775 62.36C72.4042 62.36 72.6175 62.5733 72.6175 63C72.6175 63.4267 72.4042 63.64 71.9775 63.64ZM46.3775 67.32L45.2575 66.2L46.3775 65.08L47.4975 66.2L46.3775 67.32ZM43.1775 67.32L42.0575 66.2L43.1775 65.08L44.2975 66.2L43.1775 67.32ZM39.9775 67.32L38.8575 66.2L39.9775 65.08L41.0975 66.2L39.9775 67.32ZM69.5775 67H67.9775V65.4H69.5775V67ZM66.3775 67H64.7775V65.4H66.3775V67ZM63.1775 67H61.5775V65.4H63.1775V67ZM59.9775 67H58.3775V65.4H59.9775V67ZM56.7775 67H55.1775V65.4H56.7775V67ZM53.5775 67H51.9775V65.4H53.5775V67ZM50.3775 67H48.7775V65.4H50.3775V67ZM75.1775 65.56L75.8175 66.84H74.5375L75.1775 65.56ZM71.9775 66.84C71.5508 66.84 71.3375 66.6267 71.3375 66.2C71.3375 65.7733 71.5508 65.56 71.9775 65.56C72.4042 65.56 72.6175 65.7733 72.6175 66.2C72.6175 66.6267 72.4042 66.84 71.9775 66.84ZM46.3775 70.52L45.2575 69.4L46.3775 68.28L47.4975 69.4L46.3775 70.52ZM43.1775 70.52L42.0575 69.4L43.1775 68.28L44.2975 69.4L43.1775 70.52ZM39.9775 70.52L38.8575 69.4L39.9775 68.28L41.0975 69.4L39.9775 70.52ZM69.5775 70.2H67.9775V68.6H69.5775V70.2ZM66.3775 70.2H64.7775V68.6H66.3775V70.2ZM63.1775 70.2H61.5775V68.6H63.1775V70.2ZM59.9775 70.2H58.3775V68.6H59.9775V70.2ZM56.7775 70.2H55.1775V68.6H56.7775V70.2ZM53.5775 70.2H51.9775V68.6H53.5775V70.2ZM50.3775 70.2H48.7775V68.6H50.3775V70.2ZM75.1775 68.76L75.8175 70.04H74.5375L75.1775 68.76ZM71.9775 70.04C71.5508 70.04 71.3375 69.8267 71.3375 69.4C71.3375 68.9733 71.5508 68.76 71.9775 68.76C72.4042 68.76 72.6175 68.9733 72.6175 69.4C72.6175 69.8267 72.4042 70.04 71.9775 70.04ZM46.3775 73.72L45.2575 72.6L46.3775 71.48L47.4975 72.6L46.3775 73.72ZM43.1775 73.72L42.0575 72.6L43.1775 71.48L44.2975 72.6L43.1775 73.72ZM39.9775 73.72L38.8575 72.6L39.9775 71.48L41.0975 72.6L39.9775 73.72ZM69.5775 73.4H67.9775V71.8H69.5775V73.4ZM66.3775 73.4H64.7775V71.8H66.3775V73.4ZM63.1775 73.4H61.5775V71.8H63.1775V73.4ZM59.9775 73.4H58.3775V71.8H59.9775V73.4ZM56.7775 73.4H55.1775V71.8H56.7775V73.4ZM53.5775 73.4H51.9775V71.8H53.5775V73.4ZM50.3775 73.4H48.7775V71.8H50.3775V73.4ZM75.1775 71.96L75.8175 73.24H74.5375L75.1775 71.96ZM71.9775 73.24C71.5508 73.24 71.3375 73.0267 71.3375 72.6C71.3375 72.1733 71.5508 71.96 71.9775 71.96C72.4042 71.96 72.6175 72.1733 72.6175 72.6C72.6175 73.0267 72.4042 73.24 71.9775 73.24ZM46.3775 76.92L45.2575 75.8L46.3775 74.68L47.4975 75.8L46.3775 76.92ZM43.1775 76.92L42.0575 75.8L43.1775 74.68L44.2975 75.8L43.1775 76.92ZM39.9775 76.92L38.8575 75.8L39.9775 74.68L41.0975 75.8L39.9775 76.92ZM69.5775 76.6H67.9775V75H69.5775V76.6ZM66.3775 76.6H64.7775V75H66.3775V76.6ZM63.1775 76.6H61.5775V75H63.1775V76.6ZM59.9775 76.6H58.3775V75H59.9775V76.6ZM56.7775 76.6H55.1775V75H56.7775V76.6ZM53.5775 76.6H51.9775V75H53.5775V76.6ZM50.3775 76.6H48.7775V75H50.3775V76.6ZM75.1775 75.16L75.8175 76.44H74.5375L75.1775 75.16ZM71.9775 76.44C71.5508 76.44 71.3375 76.2267 71.3375 75.8C71.3375 75.3733 71.5508 75.16 71.9775 75.16C72.4042 75.16 72.6175 75.3733 72.6175 75.8C72.6175 76.2267 72.4042 76.44 71.9775 76.44ZM46.3775 80.12L45.2575 79L46.3775 77.88L47.4975 79L46.3775 80.12ZM43.1775 80.12L42.0575 79L43.1775 77.88L44.2975 79L43.1775 80.12ZM39.9775 80.12L38.8575 79L39.9775 77.88L41.0975 79L39.9775 80.12ZM69.5775 79.8H67.9775V78.2H69.5775V79.8ZM66.3775 79.8H64.7775V78.2H66.3775V79.8ZM63.1775 79.8H61.5775V78.2H63.1775V79.8ZM59.9775 79.8H58.3775V78.2H59.9775V79.8ZM56.7775 79.8H55.1775V78.2H56.7775V79.8ZM53.5775 79.8H51.9775V78.2H53.5775V79.8ZM50.3775 79.8H48.7775V78.2H50.3775V79.8ZM75.1775 78.36L75.8175 79.64H74.5375L75.1775 78.36ZM71.9775 79.64C71.5508 79.64 71.3375 79.4267 71.3375 79C71.3375 78.5733 71.5508 78.36 71.9775 78.36C72.4042 78.36 72.6175 78.5733 72.6175 79C72.6175 79.4267 72.4042 79.64 71.9775 79.64ZM46.3775 83.32L45.2575 82.2L46.3775 81.08L47.4975 82.2L46.3775 83.32ZM43.1775 83.32L42.0575 82.2L43.1775 81.08L44.2975 82.2L43.1775 83.32ZM39.9775 83.32L38.8575 82.2L39.9775 81.08L41.0975 82.2L39.9775 83.32ZM69.5775 83H67.9775V81.4H69.5775V83ZM66.3775 83H64.7775V81.4H66.3775V83ZM63.1775 83H61.5775V81.4H63.1775V83ZM59.9775 83H58.3775V81.4H59.9775V83ZM56.7775 83H55.1775V81.4H56.7775V83ZM53.5775 83H51.9775V81.4H53.5775V83ZM50.3775 83H48.7775V81.4H50.3775V83ZM75.1775 81.56L75.8175 82.84H74.5375L75.1775 81.56ZM71.9775 82.84C71.5508 82.84 71.3375 82.6267 71.3375 82.2C71.3375 81.7733 71.5508 81.56 71.9775 81.56C72.4042 81.56 72.6175 81.7733 72.6175 82.2C72.6175 82.6267 72.4042 82.84 71.9775 82.84ZM46.3775 86.52L45.2575 85.4L46.3775 84.28L47.4975 85.4L46.3775 86.52ZM43.1775 86.52L42.0575 85.4L43.1775 84.28L44.2975 85.4L43.1775 86.52ZM39.9775 86.52L38.8575 85.4L39.9775 84.28L41.0975 85.4L39.9775 86.52ZM69.5775 86.2H67.9775V84.6H69.5775V86.2ZM66.3775 86.2H64.7775V84.6H66.3775V86.2ZM63.1775 86.2H61.5775V84.6H63.1775V86.2ZM59.9775 86.2H58.3775V84.6H59.9775V86.2ZM56.7775 86.2H55.1775V84.6H56.7775V86.2ZM53.5775 86.2H51.9775V84.6H53.5775V86.2ZM50.3775 86.2H48.7775V84.6H50.3775V86.2ZM75.1775 84.76L75.8175 86.04H74.5375L75.1775 84.76ZM71.9775 86.04C71.5508 86.04 71.3375 85.8267 71.3375 85.4C71.3375 84.9733 71.5508 84.76 71.9775 84.76C72.4042 84.76 72.6175 84.9733 72.6175 85.4C72.6175 85.8267 72.4042 86.04 71.9775 86.04ZM46.3775 89.56L45.4175 88.6L46.3775 87.64L47.3375 88.6L46.3775 89.56ZM43.1775 89.56L42.2175 88.6L43.1775 87.64L44.1375 88.6L43.1775 89.56ZM39.9775 89.56L39.0175 88.6L39.9775 87.64L40.9375 88.6L39.9775 89.56ZM69.4175 89.24H68.1375V87.96H69.4175V89.24ZM66.2175 89.24H64.9375V87.96H66.2175V89.24ZM63.0175 89.24H61.7375V87.96H63.0175V89.24ZM59.8175 89.24H58.5375V87.96H59.8175V89.24ZM56.6175 89.24H55.3375V87.96H56.6175V89.24ZM53.4175 89.24H52.1375V87.96H53.4175V89.24ZM50.2175 89.24H48.9375V87.96H50.2175V89.24ZM75.1775 88.12L75.6575 89.08H74.6975L75.1775 88.12ZM71.9775 89.08C71.6575 89.08 71.4975 88.92 71.4975 88.6C71.4975 88.28 71.6575 88.12 71.9775 88.12C72.2975 88.12 72.4575 88.28 72.4575 88.6C72.4575 88.92 72.2975 89.08 71.9775 89.08ZM46.3775 92.76L45.4175 91.8L46.3775 90.84L47.3375 91.8L46.3775 92.76ZM43.1775 92.76L42.2175 91.8L43.1775 90.84L44.1375 91.8L43.1775 92.76ZM39.9775 92.76L39.0175 91.8L39.9775 90.84L40.9375 91.8L39.9775 92.76ZM69.4175 92.44H68.1375V91.16H69.4175V92.44ZM66.2175 92.44H64.9375V91.16H66.2175V92.44ZM63.0175 92.44H61.7375V91.16H63.0175V92.44ZM59.8175 92.44H58.5375V91.16H59.8175V92.44ZM56.6175 92.44H55.3375V91.16H56.6175V92.44ZM53.4175 92.44H52.1375V91.16H53.4175V92.44ZM50.2175 92.44H48.9375V91.16H50.2175V92.44ZM75.1775 91.32L75.6575 92.28H74.6975L75.1775 91.32ZM71.9775 92.28C71.6575 92.28 71.4975 92.12 71.4975 91.8C71.4975 91.48 71.6575 91.32 71.9775 91.32C72.2975 91.32 72.4575 91.48 72.4575 91.8C72.4575 92.12 72.2975 92.28 71.9775 92.28ZM46.3775 95.96L45.4175 95L46.3775 94.04L47.3375 95L46.3775 95.96ZM43.1775 95.96L42.2175 95L43.1775 94.04L44.1375 95L43.1775 95.96ZM39.9775 95.96L39.0175 95L39.9775 94.04L40.9375 95L39.9775 95.96ZM69.4175 95.64H68.1375V94.36H69.4175V95.64ZM66.2175 95.64H64.9375V94.36H66.2175V95.64ZM63.0175 95.64H61.7375V94.36H63.0175V95.64ZM59.8175 95.64H58.5375V94.36H59.8175V95.64ZM56.6175 95.64H55.3375V94.36H56.6175V95.64ZM53.4175 95.64H52.1375V94.36H53.4175V95.64ZM50.2175 95.64H48.9375V94.36H50.2175V95.64ZM75.1775 94.52L75.6575 95.48H74.6975L75.1775 94.52ZM71.9775 95.48C71.6575 95.48 71.4975 95.32 71.4975 95C71.4975 94.68 71.6575 94.52 71.9775 94.52C72.2975 94.52 72.4575 94.68 72.4575 95C72.4575 95.32 72.2975 95.48 71.9775 95.48ZM46.3775 99.16L45.4175 98.2L46.3775 97.24L47.3375 98.2L46.3775 99.16ZM43.1775 99.16L42.2175 98.2L43.1775 97.24L44.1375 98.2L43.1775 99.16ZM39.9775 99.16L39.0175 98.2L39.9775 97.24L40.9375 98.2L39.9775 99.16ZM69.4175 98.84H68.1375V97.56H69.4175V98.84ZM66.2175 98.84H64.9375V97.56H66.2175V98.84ZM63.0175 98.84H61.7375V97.56H63.0175V98.84ZM59.8175 98.84H58.5375V97.56H59.8175V98.84ZM56.6175 98.84H55.3375V97.56H56.6175V98.84ZM53.4175 98.84H52.1375V97.56H53.4175V98.84ZM50.2175 98.84H48.9375V97.56H50.2175V98.84ZM75.1775 97.72L75.6575 98.68H74.6975L75.1775 97.72ZM71.9775 98.68C71.6575 98.68 71.4975 98.52 71.4975 98.2C71.4975 97.88 71.6575 97.72 71.9775 97.72C72.2975 97.72 72.4575 97.88 72.4575 98.2C72.4575 98.52 72.2975 98.68 71.9775 98.68ZM46.3775 102.36L45.4175 101.4L46.3775 100.44L47.3375 101.4L46.3775 102.36ZM43.1775 102.36L42.2175 101.4L43.1775 100.44L44.1375 101.4L43.1775 102.36ZM39.9775 102.36L39.0175 101.4L39.9775 100.44L40.9375 101.4L39.9775 102.36ZM69.4175 102.04H68.1375V100.76H69.4175V102.04ZM66.2175 102.04H64.9375V100.76H66.2175V102.04ZM63.0175 102.04H61.7375V100.76H63.0175V102.04ZM59.8175 102.04H58.5375V100.76H59.8175V102.04ZM56.6175 102.04H55.3375V100.76H56.6175V102.04ZM53.4175 102.04H52.1375V100.76H53.4175V102.04ZM50.2175 102.04H48.9375V100.76H50.2175V102.04ZM75.1775 100.92L75.6575 101.88H74.6975L75.1775 100.92ZM71.9775 101.88C71.6575 101.88 71.4975 101.72 71.4975 101.4C71.4975 101.08 71.6575 100.92 71.9775 100.92C72.2975 100.92 72.4575 101.08 72.4575 101.4C72.4575 101.72 72.2975 101.88 71.9775 101.88ZM46.3775 105.56L45.4175 104.6L46.3775 103.64L47.3375 104.6L46.3775 105.56ZM43.1775 105.56L42.2175 104.6L43.1775 103.64L44.1375 104.6L43.1775 105.56ZM39.9775 105.56L39.0175 104.6L39.9775 103.64L40.9375 104.6L39.9775 105.56ZM69.4175 105.24H68.1375V103.96H69.4175V105.24ZM66.2175 105.24H64.9375V103.96H66.2175V105.24ZM63.0175 105.24H61.7375V103.96H63.0175V105.24ZM59.8175 105.24H58.5375V103.96H59.8175V105.24ZM56.6175 105.24H55.3375V103.96H56.6175V105.24ZM53.4175 105.24H52.1375V103.96H53.4175V105.24ZM50.2175 105.24H48.9375V103.96H50.2175V105.24ZM75.1775 104.12L75.6575 105.08H74.6975L75.1775 104.12ZM71.9775 105.08C71.6575 105.08 71.4975 104.92 71.4975 104.6C71.4975 104.28 71.6575 104.12 71.9775 104.12C72.2975 104.12 72.4575 104.28 72.4575 104.6C72.4575 104.92 72.2975 105.08 71.9775 105.08ZM46.3775 108.76L45.4175 107.8L46.3775 106.84L47.3375 107.8L46.3775 108.76ZM43.1775 108.76L42.2175 107.8L43.1775 106.84L44.1375 107.8L43.1775 108.76ZM39.9775 108.76L39.0175 107.8L39.9775 106.84L40.9375 107.8L39.9775 108.76ZM69.4175 108.44H68.1375V107.16H69.4175V108.44ZM66.2175 108.44H64.9375V107.16H66.2175V108.44ZM63.0175 108.44H61.7375V107.16H63.0175V108.44ZM59.8175 108.44H58.5375V107.16H59.8175V108.44ZM56.6175 108.44H55.3375V107.16H56.6175V108.44ZM53.4175 108.44H52.1375V107.16H53.4175V108.44ZM50.2175 108.44H48.9375V107.16H50.2175V108.44ZM75.1775 107.32L75.6575 108.28H74.6975L75.1775 107.32ZM71.9775 108.28C71.6575 108.28 71.4975 108.12 71.4975 107.8C71.4975 107.48 71.6575 107.32 71.9775 107.32C72.2975 107.32 72.4575 107.48 72.4575 107.8C72.4575 108.12 72.2975 108.28 71.9775 108.28Z" fill="url(#paint0_linear_4278_2668)"/>
<defs>
<linearGradient id="paint0_linear_4278_2668" x1="41" y1="-24" x2="41" y2="136" gradientUnits="userSpaceOnUse">
<stop stop-color="#F7E7FF"/>
<stop offset="1" stop-color="#EBC7FF"/>
</linearGradient>
</defs>
</svg>
