<svg width="99" height="112" viewBox="0 0 99 112" fill="none" xmlns="http://www.w3.org/2000/svg">
<path d="M32.3838 6.64H29.5038V3.76H32.2238V0.079998H35.4238H38.6238H41.8238H45.0238H48.2238H52.0638V0.719999H54.6238V3.27999H52.0638V3.92H51.7438V6.8H48.5438V3.92V6.8H45.3438V3.92V6.8H42.1438V3.92V6.8H38.9438V3.92V6.64H35.9038V3.92H35.5837V6.64H32.7038V3.92H32.3838V6.64ZM67.4238 3.27999H64.8638V0.719999H67.4238V3.27999ZM64.2238 3.27999H61.6638V0.719999H64.2238V3.27999ZM61.0238 3.27999H58.4638V0.719999H61.0238V3.27999ZM57.8238 3.27999H55.2638V0.719999H57.8238V3.27999ZM53.3438 3.43999L54.9438 6.64L56.5438 3.43999L58.1438 6.64L59.7438 3.43999L61.3438 6.64L62.9438 3.43999L64.5438 6.64L66.1438 3.43999L67.7438 6.64L69.3438 3.43999L70.9438 6.64L72.5438 3.43999L74.1437 6.64L75.7438 3.43999L77.5038 6.96H73.9838H70.7838H67.5838H64.3838H62.9438L64.5438 9.99999H61.3438L62.9438 6.96H61.1838H59.7438L61.3438 9.99999H58.1438L59.7438 6.96H57.9838H56.5438L58.1438 9.99999H54.9438L56.5438 6.96H54.7838H53.3438L54.9438 9.99999H51.7438L53.3438 6.96H51.5838L53.3438 3.43999ZM29.1838 6.64H26.3038V3.76H29.1838V6.64ZM25.9838 6.64H23.1038V3.76H25.9838V6.64ZM50.1438 6.8L51.7438 9.99999H48.5438L50.1438 6.8ZM46.9438 6.8L48.5438 9.99999H45.3438L46.9438 6.8ZM43.7438 6.8L45.3438 9.99999H42.1438L43.7438 6.8ZM40.5438 6.8L42.1438 9.99999H38.9438L40.5438 6.8ZM37.3438 6.8L38.9438 9.99999H35.7438L37.3438 6.8ZM34.1438 6.8L35.7438 9.99999H32.5438L34.1438 6.8ZM82.1438 9.84L80.7038 8.4L82.1438 6.96L83.5838 8.4L82.1438 9.84ZM78.9438 9.84L77.5038 8.4L78.9438 6.96L80.3838 8.4L78.9438 9.84ZM30.9438 9.84C29.9838 9.84 29.5038 9.36 29.5038 8.4C29.5038 7.44 29.9838 6.96 30.9438 6.96C31.9038 6.96 32.3838 7.44 32.3838 8.4C32.3838 9.36 31.9038 9.84 30.9438 9.84ZM27.7438 9.84C26.7838 9.84 26.3038 9.36 26.3038 8.4C26.3038 7.44 26.7838 6.96 27.7438 6.96C28.7038 6.96 29.1838 7.44 29.1838 8.4C29.1838 9.36 28.7038 9.84 27.7438 9.84ZM24.5438 9.84C23.5838 9.84 23.1038 9.36 23.1038 8.4C23.1038 7.44 23.5838 6.96 24.5438 6.96C25.5038 6.96 25.9838 7.44 25.9838 8.4C25.9838 9.36 25.5038 9.84 24.5438 9.84ZM21.3438 9.84C20.3838 9.84 19.9038 9.36 19.9038 8.4C19.9038 7.44 20.3838 6.96 21.3438 6.96C22.3038 6.96 22.7838 7.44 22.7838 8.4C22.7838 9.36 22.3038 9.84 21.3438 9.84ZM18.1438 9.84C17.1838 9.84 16.7038 9.36 16.7038 8.4C16.7038 7.44 17.1838 6.96 18.1438 6.96C19.1038 6.96 19.5838 7.44 19.5838 8.4C19.5838 9.36 19.1038 9.84 18.1438 9.84ZM75.7438 7.27999L76.8638 9.51999H74.6238L75.7438 7.27999ZM72.5438 7.27999L73.6638 9.51999H71.4238L72.5438 7.27999ZM69.3438 7.27999L70.4638 9.51999H68.2238L69.3438 7.27999ZM66.1438 7.27999L67.2638 9.51999H65.0238L66.1438 7.27999ZM66.1438 9.84L67.7438 13.04L69.3438 9.84L70.9438 13.04L72.5438 9.84L74.1437 13.04L75.7438 9.84L77.5038 13.36H75.9038L77.5038 16.56H75.9038L77.3438 19.6H75.7438L77.3438 22.8H75.7438L77.3438 26H75.7438L77.3438 29.2H74.1437L75.7438 26H74.1437H72.5438L74.1437 29.2H70.9438L72.5438 26H70.9438H69.3438L70.9438 29.2H67.7438L69.3438 26H67.7438H66.1438L67.7438 29.2H64.5438L66.1438 26H64.5438L66.1438 22.8H64.5438L66.1438 19.6H64.5438L66.1438 16.56H64.3838L65.9838 13.36H64.3838L66.1438 9.84ZM62.9438 9.99999L64.5438 13.2H61.3438L62.9438 9.99999ZM59.7438 9.99999L61.3438 13.2H58.1438L59.7438 9.99999ZM56.5438 9.99999L58.1438 13.2H54.9438L56.5438 9.99999ZM53.3438 9.99999L54.9438 13.2H51.7438L53.3438 9.99999ZM50.1438 9.99999L51.7438 13.2H48.5438L50.1438 9.99999ZM46.9438 9.99999L48.5438 13.2H45.3438L46.9438 9.99999ZM43.7438 9.99999L45.3438 13.2H42.1438L43.7438 9.99999ZM40.5438 9.99999L42.1438 13.2H38.9438L40.5438 9.99999ZM37.3438 9.99999L38.9438 13.2H35.7438L37.3438 9.99999ZM34.1438 9.99999L35.7438 13.2H32.5438L34.1438 9.99999ZM85.3438 13.04L83.9038 11.6L85.3438 10.16L86.7838 11.6L85.3438 13.04ZM82.1438 13.04L80.7038 11.6L82.1438 10.16L83.5838 11.6L82.1438 13.04ZM78.9438 13.04L77.5038 11.6L78.9438 10.16L80.3838 11.6L78.9438 13.04ZM30.9438 13.04C29.9838 13.04 29.5038 12.56 29.5038 11.6C29.5038 10.64 29.9838 10.16 30.9438 10.16C31.9038 10.16 32.3838 10.64 32.3838 11.6C32.3838 12.56 31.9038 13.04 30.9438 13.04ZM27.7438 13.04C26.7838 13.04 26.3038 12.56 26.3038 11.6C26.3038 10.64 26.7838 10.16 27.7438 10.16C28.7038 10.16 29.1838 10.64 29.1838 11.6C29.1838 12.56 28.7038 13.04 27.7438 13.04ZM24.5438 13.04C23.5838 13.04 23.1038 12.56 23.1038 11.6C23.1038 10.64 23.5838 10.16 24.5438 10.16C25.5038 10.16 25.9838 10.64 25.9838 11.6C25.9838 12.56 25.5038 13.04 24.5438 13.04ZM21.3438 13.04C20.3838 13.04 19.9038 12.56 19.9038 11.6C19.9038 10.64 20.3838 10.16 21.3438 10.16C22.3038 10.16 22.7838 10.64 22.7838 11.6C22.7838 12.56 22.3038 13.04 21.3438 13.04ZM18.1438 13.04C17.1838 13.04 16.7038 12.56 16.7038 11.6C16.7038 10.64 17.1838 10.16 18.1438 10.16C19.1038 10.16 19.5838 10.64 19.5838 11.6C19.5838 12.56 19.1038 13.04 18.1438 13.04ZM14.9438 13.04C13.9838 13.04 13.5038 12.56 13.5038 11.6C13.5038 10.64 13.9838 10.16 14.9438 10.16C15.9038 10.16 16.3838 10.64 16.3838 11.6C16.3838 12.56 15.9038 13.04 14.9438 13.04ZM62.9438 13.2L64.5438 16.4H61.3438L62.9438 13.2ZM59.7438 13.2L61.3438 16.4H58.1438L59.7438 13.2ZM56.5438 13.2L58.1438 16.4H54.9438L56.5438 13.2ZM53.3438 13.2L54.9438 16.4H51.7438L53.3438 13.2ZM50.1438 13.2L51.7438 16.4H48.5438L50.1438 13.2ZM46.9438 13.2L48.5438 16.4H45.3438L46.9438 13.2ZM43.7438 13.2L45.3438 16.4H42.1438L43.7438 13.2ZM40.5438 13.2L42.1438 16.4H38.9438L40.5438 13.2ZM37.3438 13.2L38.9438 16.4H35.7438L37.3438 13.2ZM34.1438 13.2L35.7438 16.4H32.5438L34.1438 13.2ZM67.5838 13.36H66.3038L67.7438 16.24L69.1838 13.36H67.5838ZM70.7838 13.36H69.5038L70.9438 16.24L72.3838 13.36H70.7838ZM73.9838 13.36H72.7038L74.1437 16.24L75.5837 13.36H73.9838ZM88.5438 16.24L87.1038 14.8L88.5438 13.36L89.9838 14.8L88.5438 16.24ZM85.3438 16.24L83.9038 14.8L85.3438 13.36L86.7838 14.8L85.3438 16.24ZM82.1438 16.24L80.7038 14.8L82.1438 13.36L83.5838 14.8L82.1438 16.24ZM78.9438 16.24L77.5038 14.8L78.9438 13.36L80.3838 14.8L78.9438 16.24ZM30.9438 16.24C29.9838 16.24 29.5038 15.76 29.5038 14.8C29.5038 13.84 29.9838 13.36 30.9438 13.36C31.9038 13.36 32.3838 13.84 32.3838 14.8C32.3838 15.76 31.9038 16.24 30.9438 16.24ZM27.7438 16.24C26.7838 16.24 26.3038 15.76 26.3038 14.8C26.3038 13.84 26.7838 13.36 27.7438 13.36C28.7038 13.36 29.1838 13.84 29.1838 14.8C29.1838 15.76 28.7038 16.24 27.7438 16.24ZM24.5438 16.08C23.6904 16.08 23.2638 15.6533 23.2638 14.8C23.2638 13.84 23.6904 13.36 24.5438 13.36C25.5038 13.36 25.9838 13.84 25.9838 14.8C25.9838 15.6533 25.5038 16.08 24.5438 16.08ZM21.3438 16.08C20.4904 16.08 20.0638 15.6533 20.0638 14.8C20.0638 13.9467 20.4904 13.52 21.3438 13.52C22.1971 13.52 22.6238 13.9467 22.6238 14.8C22.6238 15.6533 22.1971 16.08 21.3438 16.08ZM18.1438 16.08C17.2904 16.08 16.8637 15.6533 16.8637 14.8C16.8637 13.9467 17.2904 13.52 18.1438 13.52C18.9971 13.52 19.4238 13.9467 19.4238 14.8C19.4238 15.6533 18.9971 16.08 18.1438 16.08ZM14.9438 16.08C14.0904 16.08 13.6638 15.6533 13.6638 14.8C13.6638 13.9467 14.0904 13.52 14.9438 13.52C15.7971 13.52 16.2238 13.9467 16.2238 14.8C16.2238 15.6533 15.7971 16.08 14.9438 16.08ZM11.7438 16.08C10.8904 16.08 10.4638 15.6533 10.4638 14.8C10.4638 13.9467 10.8904 13.52 11.7438 13.52C12.5971 13.52 13.0238 13.9467 13.0238 14.8C13.0238 15.6533 12.5971 16.08 11.7438 16.08ZM67.5838 16.56H66.1438L67.7438 19.6L69.3438 16.56H67.5838ZM70.7838 16.56H69.3438L70.9438 19.6L72.5438 16.56H70.7838ZM73.9838 16.56H72.5438L74.1437 19.6L75.7438 16.56H73.9838ZM62.9438 16.56L64.3838 19.44H61.5038L62.9438 16.56ZM59.7438 16.56L61.1838 19.44H58.3038L59.7438 16.56ZM56.5438 16.56L57.9838 19.44H55.1038L56.5438 16.56ZM53.3438 16.56L54.7838 19.44H51.9038L53.3438 16.56ZM50.1438 16.56L51.5838 19.44H48.7038L50.1438 16.56ZM46.9438 16.56L48.3838 19.44H45.5038L46.9438 16.56ZM43.7438 16.56L45.1838 19.44H42.3038L43.7438 16.56ZM40.5438 16.56L41.9838 19.44H39.1038L40.5438 16.56ZM37.3438 16.56L38.7838 19.44H35.9038L37.3438 16.56ZM34.1438 16.56L35.5837 19.44H32.7038L34.1438 16.56ZM91.7438 19.28L90.4638 18L91.7438 16.72L93.0238 18L91.7438 19.28ZM88.5438 19.28L87.2638 18L88.5438 16.72L89.8238 18L88.5438 19.28ZM85.3438 19.28L84.0638 18L85.3438 16.72L86.6238 18L85.3438 19.28ZM82.1438 19.28L80.8638 18L82.1438 16.72L83.4238 18L82.1438 19.28ZM78.9438 19.28L77.6638 18L78.9438 16.72L80.2238 18L78.9438 19.28ZM30.9438 19.28C30.0904 19.28 29.6638 18.8533 29.6638 18C29.6638 17.1467 30.0904 16.72 30.9438 16.72C31.7971 16.72 32.2238 17.1467 32.2238 18C32.2238 18.8533 31.7971 19.28 30.9438 19.28ZM27.7438 19.28C26.8904 19.28 26.4638 18.8533 26.4638 18C26.4638 17.1467 26.8904 16.72 27.7438 16.72C28.5971 16.72 29.0238 17.1467 29.0238 18C29.0238 18.8533 28.5971 19.28 27.7438 19.28ZM24.5438 19.28C23.6904 19.28 23.2638 18.8533 23.2638 18C23.2638 17.1467 23.6904 16.72 24.5438 16.72C25.3971 16.72 25.8238 17.1467 25.8238 18C25.8238 18.8533 25.3971 19.28 24.5438 19.28ZM21.3438 19.28C20.4904 19.28 20.0638 18.8533 20.0638 18C20.0638 17.1467 20.4904 16.72 21.3438 16.72C22.1971 16.72 22.6238 17.1467 22.6238 18C22.6238 18.8533 22.1971 19.28 21.3438 19.28ZM18.1438 19.28C17.2904 19.28 16.8637 18.8533 16.8637 18C16.8637 17.1467 17.2904 16.72 18.1438 16.72C18.9971 16.72 19.4238 17.1467 19.4238 18C19.4238 18.8533 18.9971 19.28 18.1438 19.28ZM14.9438 19.28C14.0904 19.28 13.6638 18.8533 13.6638 18C13.6638 17.1467 14.0904 16.72 14.9438 16.72C15.7971 16.72 16.2238 17.1467 16.2238 18C16.2238 18.8533 15.7971 19.28 14.9438 19.28ZM11.7438 19.28C10.8904 19.28 10.4638 18.8533 10.4638 18C10.4638 17.1467 10.8904 16.72 11.7438 16.72C12.5971 16.72 13.0238 17.1467 13.0238 18C13.0238 18.8533 12.5971 19.28 11.7438 19.28ZM8.54375 19.28C7.69042 19.28 7.26375 18.8533 7.26375 18C7.26375 17.1467 7.69042 16.72 8.54375 16.72C9.39708 16.72 9.82375 17.1467 9.82375 18C9.82375 18.8533 9.39708 19.28 8.54375 19.28ZM67.7438 19.6H66.1438L67.7438 22.8L69.3438 19.6H67.7438ZM70.9438 19.6H69.3438L70.9438 22.8L72.5438 19.6H70.9438ZM74.1437 19.6H72.5438L74.1437 22.8L75.7438 19.6H74.1437ZM62.9438 19.76L64.3838 22.64H61.5038L62.9438 19.76ZM59.7438 19.76L61.1838 22.64H58.3038L59.7438 19.76ZM56.5438 19.76L57.9838 22.64H55.1038L56.5438 19.76ZM53.3438 19.76L54.7838 22.64H51.9038L53.3438 19.76ZM50.1438 19.76L51.5838 22.64H48.7038L50.1438 19.76ZM46.9438 19.76L48.3838 22.64H45.5038L46.9438 19.76ZM43.7438 19.76L45.1838 22.64H42.3038L43.7438 19.76ZM40.5438 19.76L41.9838 22.64H39.1038L40.5438 19.76ZM37.3438 19.76L38.7838 22.64H35.9038L37.3438 19.76ZM34.1438 19.76L35.5837 22.64H32.7038L34.1438 19.76ZM91.7438 22.48L90.4638 21.2L91.7438 19.92L93.0238 21.2L91.7438 22.48ZM88.5438 22.48L87.2638 21.2L88.5438 19.92L89.8238 21.2L88.5438 22.48ZM85.3438 22.48L84.0638 21.2L85.3438 19.92L86.6238 21.2L85.3438 22.48ZM82.1438 22.48L80.8638 21.2L82.1438 19.92L83.4238 21.2L82.1438 22.48ZM78.9438 22.48L77.6638 21.2L78.9438 19.92L80.2238 21.2L78.9438 22.48ZM30.9438 22.48C30.0904 22.48 29.6638 22.0533 29.6638 21.2C29.6638 20.3467 30.0904 19.92 30.9438 19.92C31.7971 19.92 32.2238 20.3467 32.2238 21.2C32.2238 22.0533 31.7971 22.48 30.9438 22.48ZM27.7438 22.48C26.8904 22.48 26.4638 22.0533 26.4638 21.2C26.4638 20.3467 26.8904 19.92 27.7438 19.92C28.5971 19.92 29.0238 20.3467 29.0238 21.2C29.0238 22.0533 28.5971 22.48 27.7438 22.48ZM24.5438 22.48C23.6904 22.48 23.2638 22.0533 23.2638 21.2C23.2638 20.3467 23.6904 19.92 24.5438 19.92C25.3971 19.92 25.8238 20.3467 25.8238 21.2C25.8238 22.0533 25.3971 22.48 24.5438 22.48ZM21.3438 22.48C20.4904 22.48 20.0638 22.0533 20.0638 21.2C20.0638 20.3467 20.4904 19.92 21.3438 19.92C22.1971 19.92 22.6238 20.3467 22.6238 21.2C22.6238 22.0533 22.1971 22.48 21.3438 22.48ZM18.1438 22.48C17.2904 22.48 16.8637 22.0533 16.8637 21.2C16.8637 20.3467 17.2904 19.92 18.1438 19.92C18.9971 19.92 19.4238 20.3467 19.4238 21.2C19.4238 22.0533 18.9971 22.48 18.1438 22.48ZM14.9438 22.48C14.0904 22.48 13.6638 22.0533 13.6638 21.2C13.6638 20.3467 14.0904 19.92 14.9438 19.92C15.7971 19.92 16.2238 20.3467 16.2238 21.2C16.2238 22.0533 15.7971 22.48 14.9438 22.48ZM11.7438 22.48C10.8904 22.48 10.4638 22.0533 10.4638 21.2C10.4638 20.3467 10.8904 19.92 11.7438 19.92C12.5971 19.92 13.0238 20.3467 13.0238 21.2C13.0238 22.0533 12.5971 22.48 11.7438 22.48ZM8.54375 22.48C7.69042 22.48 7.26375 22.0533 7.26375 21.2C7.26375 20.3467 7.69042 19.92 8.54375 19.92C9.39708 19.92 9.82375 20.3467 9.82375 21.2C9.82375 22.0533 9.39708 22.48 8.54375 22.48ZM67.7438 22.8H66.1438L67.7438 26L69.3438 22.8H67.7438ZM70.9438 22.8H69.3438L70.9438 26L72.5438 22.8H70.9438ZM74.1437 22.8H72.5438L74.1437 26L75.7438 22.8H74.1437ZM62.9438 22.96L64.3838 25.84H61.5038L62.9438 22.96ZM59.7438 22.96L61.1838 25.84H58.3038L59.7438 22.96ZM56.5438 22.96L57.9838 25.84H55.1038L56.5438 22.96ZM53.3438 22.96L54.7838 25.84H51.9038L53.3438 22.96ZM50.1438 22.96L51.5838 25.84H48.7038L50.1438 22.96ZM46.9438 22.96L48.3838 25.84H45.5038L46.9438 22.96ZM43.7438 22.96L45.1838 25.84H42.3038L43.7438 22.96ZM40.5438 22.96L41.9838 25.84H39.1038L40.5438 22.96ZM37.3438 22.96L38.7838 25.84H35.9038L37.3438 22.96ZM34.1438 22.96L35.5837 25.84H32.7038L34.1438 22.96ZM94.9438 25.68L93.6638 24.4L94.9438 23.12L96.2238 24.4L94.9438 25.68ZM91.7438 25.68L90.4638 24.4L91.7438 23.12L93.0238 24.4L91.7438 25.68ZM88.5438 25.68L87.2638 24.4L88.5438 23.12L89.8238 24.4L88.5438 25.68ZM85.3438 25.68L84.0638 24.4L85.3438 23.12L86.6238 24.4L85.3438 25.68ZM82.1438 25.68L80.8638 24.4L82.1438 23.12L83.4238 24.4L82.1438 25.68ZM78.9438 25.68L77.6638 24.4L78.9438 23.12L80.2238 24.4L78.9438 25.68ZM30.9438 25.68C30.0904 25.68 29.6638 25.2533 29.6638 24.4C29.6638 23.5467 30.0904 23.12 30.9438 23.12C31.7971 23.12 32.2238 23.5467 32.2238 24.4C32.2238 25.2533 31.7971 25.68 30.9438 25.68ZM27.7438 25.68C26.8904 25.68 26.4638 25.2533 26.4638 24.4C26.4638 23.5467 26.8904 23.12 27.7438 23.12C28.5971 23.12 29.0238 23.5467 29.0238 24.4C29.0238 25.2533 28.5971 25.68 27.7438 25.68ZM24.5438 25.68C23.6904 25.68 23.2638 25.2533 23.2638 24.4C23.2638 23.5467 23.6904 23.12 24.5438 23.12C25.3971 23.12 25.8238 23.5467 25.8238 24.4C25.8238 25.2533 25.3971 25.68 24.5438 25.68ZM21.3438 25.68C20.4904 25.68 20.0638 25.2533 20.0638 24.4C20.0638 23.5467 20.4904 23.12 21.3438 23.12C22.1971 23.12 22.6238 23.5467 22.6238 24.4C22.6238 25.2533 22.1971 25.68 21.3438 25.68ZM18.1438 25.68C17.2904 25.68 16.8637 25.2533 16.8637 24.4C16.8637 23.5467 17.2904 23.12 18.1438 23.12C18.9971 23.12 19.4238 23.5467 19.4238 24.4C19.4238 25.2533 18.9971 25.68 18.1438 25.68ZM14.9438 25.68C14.0904 25.68 13.6638 25.2533 13.6638 24.4C13.6638 23.5467 14.0904 23.12 14.9438 23.12C15.7971 23.12 16.2238 23.5467 16.2238 24.4C16.2238 25.2533 15.7971 25.68 14.9438 25.68ZM11.7438 25.68C10.8904 25.68 10.4638 25.2533 10.4638 24.4C10.4638 23.5467 10.8904 23.12 11.7438 23.12C12.5971 23.12 13.0238 23.5467 13.0238 24.4C13.0238 25.2533 12.5971 25.68 11.7438 25.68ZM8.54375 25.68C7.69042 25.68 7.26375 25.2533 7.26375 24.4C7.26375 23.5467 7.69042 23.12 8.54375 23.12C9.39708 23.12 9.82375 23.5467 9.82375 24.4C9.82375 25.2533 9.39708 25.68 8.54375 25.68ZM5.34375 25.68C4.49042 25.68 4.06375 25.2533 4.06375 24.4C4.06375 23.5467 4.49042 23.12 5.34375 23.12C6.19708 23.12 6.62375 23.5467 6.62375 24.4C6.62375 25.2533 6.19708 25.68 5.34375 25.68ZM62.9438 26.16L64.3838 29.04H61.5038L62.9438 26.16ZM59.7438 26.16L61.1838 29.04H58.3038L59.7438 26.16ZM56.5438 26.16L57.9838 29.04H55.1038L56.5438 26.16ZM53.3438 26.16L54.7838 29.04H51.9038L53.3438 26.16ZM50.1438 26.16L51.5838 29.04H48.7038L50.1438 26.16ZM46.9438 26.16L48.3838 29.04H45.5038L46.9438 26.16ZM43.7438 26.16L45.1838 29.04H42.3038L43.7438 26.16ZM40.5438 26.16L41.9838 29.04H39.1038L40.5438 26.16ZM37.3438 26.16L38.7838 29.04H35.9038L37.3438 26.16ZM34.1438 26.16L35.5837 29.04H32.7038L34.1438 26.16ZM94.9438 28.88L93.6638 27.6L94.9438 26.32L96.2238 27.6L94.9438 28.88ZM91.7438 28.88L90.4638 27.6L91.7438 26.32L93.0238 27.6L91.7438 28.88ZM88.5438 28.88L87.2638 27.6L88.5438 26.32L89.8238 27.6L88.5438 28.88ZM85.3438 28.88L84.0638 27.6L85.3438 26.32L86.6238 27.6L85.3438 28.88ZM82.1438 28.88L80.8638 27.6L82.1438 26.32L83.4238 27.6L82.1438 28.88ZM78.9438 28.88L77.6638 27.6L78.9438 26.32L80.2238 27.6L78.9438 28.88ZM30.9438 28.88C30.0904 28.88 29.6638 28.4533 29.6638 27.6C29.6638 26.7467 30.0904 26.32 30.9438 26.32C31.7971 26.32 32.2238 26.7467 32.2238 27.6C32.2238 28.4533 31.7971 28.88 30.9438 28.88ZM27.7438 28.88C26.8904 28.88 26.4638 28.4533 26.4638 27.6C26.4638 26.7467 26.8904 26.32 27.7438 26.32C28.5971 26.32 29.0238 26.7467 29.0238 27.6C29.0238 28.4533 28.5971 28.88 27.7438 28.88ZM24.5438 28.88C23.6904 28.88 23.2638 28.4533 23.2638 27.6C23.2638 26.7467 23.6904 26.32 24.5438 26.32C25.3971 26.32 25.8238 26.7467 25.8238 27.6C25.8238 28.4533 25.3971 28.88 24.5438 28.88ZM21.3438 28.88C20.4904 28.88 20.0638 28.4533 20.0638 27.6C20.0638 26.7467 20.4904 26.32 21.3438 26.32C22.1971 26.32 22.6238 26.7467 22.6238 27.6C22.6238 28.4533 22.1971 28.88 21.3438 28.88ZM18.1438 28.88C17.2904 28.88 16.8637 28.4533 16.8637 27.6C16.8637 26.7467 17.2904 26.32 18.1438 26.32C18.9971 26.32 19.4238 26.7467 19.4238 27.6C19.4238 28.4533 18.9971 28.88 18.1438 28.88ZM14.9438 28.88C14.0904 28.88 13.6638 28.4533 13.6638 27.6C13.6638 26.7467 14.0904 26.32 14.9438 26.32C15.7971 26.32 16.2238 26.7467 16.2238 27.6C16.2238 28.4533 15.7971 28.88 14.9438 28.88ZM11.7438 28.88C10.8904 28.88 10.4638 28.4533 10.4638 27.6C10.4638 26.7467 10.8904 26.32 11.7438 26.32C12.5971 26.32 13.0238 26.7467 13.0238 27.6C13.0238 28.4533 12.5971 28.88 11.7438 28.88ZM8.54375 28.88C7.69042 28.88 7.26375 28.4533 7.26375 27.6C7.26375 26.7467 7.69042 26.32 8.54375 26.32C9.39708 26.32 9.82375 26.7467 9.82375 27.6C9.82375 28.4533 9.39708 28.88 8.54375 28.88ZM5.34375 28.88C4.49042 28.88 4.06375 28.4533 4.06375 27.6C4.06375 26.7467 4.49042 26.32 5.34375 26.32C6.19708 26.32 6.62375 26.7467 6.62375 27.6C6.62375 28.4533 6.19708 28.88 5.34375 28.88ZM75.7438 29.2L77.3438 32.4H74.1437L75.7438 29.2ZM72.5438 29.2L74.1437 32.4H70.9438L72.5438 29.2ZM69.3438 29.2L70.9438 32.4H67.7438L69.3438 29.2ZM66.1438 29.2L67.7438 32.4H64.5438L66.1438 29.2ZM62.9438 29.36L64.3838 32.24H61.5038L62.9438 29.36ZM59.7438 29.36L61.1838 32.24H58.3038L59.7438 29.36ZM56.5438 29.36L57.9838 32.24H55.1038L56.5438 29.36ZM53.3438 29.36L54.7838 32.24H51.9038L53.3438 29.36ZM50.1438 29.36L51.5838 32.24H48.7038L50.1438 29.36ZM46.9438 29.36L48.3838 32.24H45.5038L46.9438 29.36ZM43.7438 29.36L45.1838 32.24H42.3038L43.7438 29.36ZM40.5438 29.36L41.9838 32.24H39.1038L40.5438 29.36ZM37.3438 29.36L38.7838 32.24H35.9038L37.3438 29.36ZM34.1438 29.36L35.5837 32.24H32.7038L34.1438 29.36ZM94.9438 32.08L93.6638 30.8L94.9438 29.52L96.2238 30.8L94.9438 32.08ZM91.7438 32.08L90.4638 30.8L91.7438 29.52L93.0238 30.8L91.7438 32.08ZM88.5438 32.08L87.2638 30.8L88.5438 29.52L89.8238 30.8L88.5438 32.08ZM85.3438 32.08L84.0638 30.8L85.3438 29.52L86.6238 30.8L85.3438 32.08ZM82.1438 32.08L80.8638 30.8L82.1438 29.52L83.4238 30.8L82.1438 32.08ZM78.9438 32.08L77.6638 30.8L78.9438 29.52L80.2238 30.8L78.9438 32.08ZM30.9438 32.08C30.0904 32.08 29.6638 31.6533 29.6638 30.8C29.6638 29.9467 30.0904 29.52 30.9438 29.52C31.7971 29.52 32.2238 29.9467 32.2238 30.8C32.2238 31.6533 31.7971 32.08 30.9438 32.08ZM27.7438 32.08C26.8904 32.08 26.4638 31.6533 26.4638 30.8C26.4638 29.9467 26.8904 29.52 27.7438 29.52C28.5971 29.52 29.0238 29.9467 29.0238 30.8C29.0238 31.6533 28.5971 32.08 27.7438 32.08ZM24.5438 32.08C23.6904 32.08 23.2638 31.6533 23.2638 30.8C23.2638 29.9467 23.6904 29.52 24.5438 29.52C25.3971 29.52 25.8238 29.9467 25.8238 30.8C25.8238 31.6533 25.3971 32.08 24.5438 32.08ZM21.3438 32.08C20.4904 32.08 20.0638 31.6533 20.0638 30.8C20.0638 29.9467 20.4904 29.52 21.3438 29.52C22.1971 29.52 22.6238 29.9467 22.6238 30.8C22.6238 31.6533 22.1971 32.08 21.3438 32.08ZM18.1438 32.08C17.2904 32.08 16.8637 31.6533 16.8637 30.8C16.8637 29.9467 17.2904 29.52 18.1438 29.52C18.9971 29.52 19.4238 29.9467 19.4238 30.8C19.4238 31.6533 18.9971 32.08 18.1438 32.08ZM14.9438 32.08C14.0904 32.08 13.6638 31.6533 13.6638 30.8C13.6638 29.9467 14.0904 29.52 14.9438 29.52C15.7971 29.52 16.2238 29.9467 16.2238 30.8C16.2238 31.6533 15.7971 32.08 14.9438 32.08ZM11.7438 32.08C10.8904 32.08 10.4638 31.6533 10.4638 30.8C10.4638 29.9467 10.8904 29.52 11.7438 29.52C12.5971 29.52 13.0238 29.9467 13.0238 30.8C13.0238 31.6533 12.5971 32.08 11.7438 32.08ZM8.54375 32.08C7.69042 32.08 7.26375 31.6533 7.26375 30.8C7.26375 29.9467 7.69042 29.52 8.54375 29.52C9.39708 29.52 9.82375 29.9467 9.82375 30.8C9.82375 31.6533 9.39708 32.08 8.54375 32.08ZM5.34375 32.08C4.49042 32.08 4.06375 31.6533 4.06375 30.8C4.06375 29.9467 4.49042 29.52 5.34375 29.52C6.19708 29.52 6.62375 29.9467 6.62375 30.8C6.62375 31.6533 6.19708 32.08 5.34375 32.08ZM2.14375 32.08C1.29042 32.08 0.86375 31.6533 0.86375 30.8C0.86375 29.9467 1.29042 29.52 2.14375 29.52C2.99708 29.52 3.42375 29.9467 3.42375 30.8C3.42375 31.6533 2.99708 32.08 2.14375 32.08ZM75.7438 32.4L77.3438 35.6H74.1437L75.7438 32.4ZM72.5438 32.4L74.1437 35.6H70.9438L72.5438 32.4ZM69.3438 32.4L70.9438 35.6H67.7438L69.3438 32.4ZM66.1438 32.4L67.7438 35.6H64.5438L66.1438 32.4ZM62.9438 32.56L64.3838 35.44H61.5038L62.9438 32.56ZM59.7438 32.56L61.1838 35.44H58.3038L59.7438 32.56ZM56.5438 32.56L57.9838 35.44H55.1038L56.5438 32.56ZM40.5438 32.56L41.9838 35.44H39.1038L40.5438 32.56ZM37.3438 32.56L38.7838 35.44H35.9038L37.3438 32.56ZM34.1438 32.56L35.5837 35.44H32.7038L34.1438 32.56ZM94.9438 35.28L93.6638 34L94.9438 32.72L96.2238 34L94.9438 35.28ZM91.7438 35.28L90.4638 34L91.7438 32.72L93.0238 34L91.7438 35.28ZM88.5438 35.28L87.2638 34L88.5438 32.72L89.8238 34L88.5438 35.28ZM85.3438 35.28L84.0638 34L85.3438 32.72L86.6238 34L85.3438 35.28ZM82.1438 35.28L80.8638 34L82.1438 32.72L83.4238 34L82.1438 35.28ZM78.9438 35.28L77.6638 34L78.9438 32.72L80.2238 34L78.9438 35.28ZM30.9438 35.28C30.0904 35.28 29.6638 34.8533 29.6638 34C29.6638 33.1467 30.0904 32.72 30.9438 32.72C31.7971 32.72 32.2238 33.1467 32.2238 34C32.2238 34.8533 31.7971 35.28 30.9438 35.28ZM27.7438 35.28C26.8904 35.28 26.4638 34.8533 26.4638 34C26.4638 33.1467 26.8904 32.72 27.7438 32.72C28.5971 32.72 29.0238 33.1467 29.0238 34C29.0238 34.8533 28.5971 35.28 27.7438 35.28ZM24.5438 35.28C23.6904 35.28 23.2638 34.8533 23.2638 34C23.2638 33.1467 23.6904 32.72 24.5438 32.72C25.3971 32.72 25.8238 33.1467 25.8238 34C25.8238 34.8533 25.3971 35.28 24.5438 35.28ZM21.3438 35.28C20.4904 35.28 20.0638 34.8533 20.0638 34C20.0638 33.1467 20.4904 32.72 21.3438 32.72C22.1971 32.72 22.6238 33.1467 22.6238 34C22.6238 34.8533 22.1971 35.28 21.3438 35.28ZM18.1438 35.28C17.2904 35.28 16.8637 34.8533 16.8637 34C16.8637 33.1467 17.2904 32.72 18.1438 32.72C18.9971 32.72 19.4238 33.1467 19.4238 34C19.4238 34.8533 18.9971 35.28 18.1438 35.28ZM14.9438 35.28C14.0904 35.28 13.6638 34.8533 13.6638 34C13.6638 33.1467 14.0904 32.72 14.9438 32.72C15.7971 32.72 16.2238 33.1467 16.2238 34C16.2238 34.8533 15.7971 35.28 14.9438 35.28ZM11.7438 35.28C10.8904 35.28 10.4638 34.8533 10.4638 34C10.4638 33.1467 10.8904 32.72 11.7438 32.72C12.5971 32.72 13.0238 33.1467 13.0238 34C13.0238 34.8533 12.5971 35.28 11.7438 35.28ZM8.54375 35.28C7.69042 35.28 7.26375 34.8533 7.26375 34C7.26375 33.1467 7.69042 32.72 8.54375 32.72C9.39708 32.72 9.82375 33.1467 9.82375 34C9.82375 34.8533 9.39708 35.28 8.54375 35.28ZM5.34375 35.28C4.49042 35.28 4.06375 34.8533 4.06375 34C4.06375 33.1467 4.49042 32.72 5.34375 32.72C6.19708 32.72 6.62375 33.1467 6.62375 34C6.62375 34.8533 6.19708 35.28 5.34375 35.28ZM2.14375 35.28C1.29042 35.28 0.86375 34.8533 0.86375 34C0.86375 33.1467 1.29042 32.72 2.14375 32.72C2.99708 32.72 3.42375 33.1467 3.42375 34C3.42375 34.8533 2.99708 35.28 2.14375 35.28ZM75.7438 35.76L77.1838 38.64H74.3038L75.7438 35.76ZM72.5438 35.76L73.9838 38.64H71.1038L72.5438 35.76ZM69.3438 35.76L70.7838 38.64H67.9038L69.3438 35.76ZM66.1438 35.76L67.5838 38.64H64.7038L66.1438 35.76ZM62.9438 35.92L64.2238 38.48H61.6638L62.9438 35.92ZM59.7438 35.92L61.0238 38.48H58.4638L59.7438 35.92ZM56.5438 35.92L57.8238 38.48H55.2638L56.5438 35.92ZM40.5438 35.92L41.8238 38.48H39.2638L40.5438 35.92ZM37.3438 35.92L38.6238 38.48H36.0638L37.3438 35.92ZM34.1438 35.92L35.4238 38.48H32.8638L34.1438 35.92ZM94.9438 38.32L93.8238 37.2L94.9438 36.08L96.0638 37.2L94.9438 38.32ZM91.7438 38.32L90.6238 37.2L91.7438 36.08L92.8638 37.2L91.7438 38.32ZM88.5438 38.32L87.4237 37.2L88.5438 36.08L89.6638 37.2L88.5438 38.32ZM85.3438 38.32L84.2238 37.2L85.3438 36.08L86.4638 37.2L85.3438 38.32ZM82.1438 38.32L81.0238 37.2L82.1438 36.08L83.2638 37.2L82.1438 38.32ZM78.9438 38.32L77.8237 37.2L78.9438 36.08L80.0638 37.2L78.9438 38.32ZM30.9438 38.32C30.1971 38.32 29.8238 37.9467 29.8238 37.2C29.8238 36.4533 30.1971 36.08 30.9438 36.08C31.6904 36.08 32.0638 36.4533 32.0638 37.2C32.0638 37.9467 31.6904 38.32 30.9438 38.32ZM27.7438 38.32C26.9971 38.32 26.6238 37.9467 26.6238 37.2C26.6238 36.4533 26.9971 36.08 27.7438 36.08C28.4904 36.08 28.8638 36.4533 28.8638 37.2C28.8638 37.9467 28.4904 38.32 27.7438 38.32ZM24.5438 38.32C23.7971 38.32 23.4238 37.9467 23.4238 37.2C23.4238 36.4533 23.7971 36.08 24.5438 36.08C25.2904 36.08 25.6638 36.4533 25.6638 37.2C25.6638 37.9467 25.2904 38.32 24.5438 38.32ZM21.3438 38.32C20.5971 38.32 20.2238 37.9467 20.2238 37.2C20.2238 36.4533 20.5971 36.08 21.3438 36.08C22.0904 36.08 22.4638 36.4533 22.4638 37.2C22.4638 37.9467 22.0904 38.32 21.3438 38.32ZM18.1438 38.32C17.3971 38.32 17.0238 37.9467 17.0238 37.2C17.0238 36.4533 17.3971 36.08 18.1438 36.08C18.8904 36.08 19.2638 36.4533 19.2638 37.2C19.2638 37.9467 18.8904 38.32 18.1438 38.32ZM14.9438 38.32C14.1971 38.32 13.8238 37.9467 13.8238 37.2C13.8238 36.4533 14.1971 36.08 14.9438 36.08C15.6904 36.08 16.0638 36.4533 16.0638 37.2C16.0638 37.9467 15.6904 38.32 14.9438 38.32ZM11.7438 38.32C10.9971 38.32 10.6238 37.9467 10.6238 37.2C10.6238 36.4533 10.9971 36.08 11.7438 36.08C12.4904 36.08 12.8638 36.4533 12.8638 37.2C12.8638 37.9467 12.4904 38.32 11.7438 38.32ZM8.54375 38.32C7.79708 38.32 7.42375 37.9467 7.42375 37.2C7.42375 36.4533 7.79708 36.08 8.54375 36.08C9.29042 36.08 9.66375 36.4533 9.66375 37.2C9.66375 37.9467 9.29042 38.32 8.54375 38.32ZM5.34375 38.32C4.59708 38.32 4.22375 37.9467 4.22375 37.2C4.22375 36.4533 4.59708 36.08 5.34375 36.08C6.09042 36.08 6.46375 36.4533 6.46375 37.2C6.46375 37.9467 6.09042 38.32 5.34375 38.32ZM2.14375 38.32C1.39708 38.32 1.02375 37.9467 1.02375 37.2C1.02375 36.4533 1.39708 36.08 2.14375 36.08C2.89042 36.08 3.26375 36.4533 3.26375 37.2C3.26375 37.9467 2.89042 38.32 2.14375 38.32ZM75.7438 38.96L77.1838 41.84H74.3038L75.7438 38.96ZM72.5438 38.96L73.9838 41.84H71.1038L72.5438 38.96ZM69.3438 38.96L70.7838 41.84H67.9038L69.3438 38.96ZM66.1438 38.96L67.5838 41.84H64.7038L66.1438 38.96ZM62.9438 39.12L64.2238 41.68H61.6638L62.9438 39.12ZM59.7438 39.12L61.0238 41.68H58.4638L59.7438 39.12ZM56.5438 39.12L57.8238 41.68H55.2638L56.5438 39.12ZM37.3438 39.12L38.6238 41.68H36.0638L37.3438 39.12ZM34.1438 39.12L35.4238 41.68H32.8638L34.1438 39.12ZM94.9438 41.52L93.8238 40.4L94.9438 39.28L96.0638 40.4L94.9438 41.52ZM91.7438 41.52L90.6238 40.4L91.7438 39.28L92.8638 40.4L91.7438 41.52ZM88.5438 41.52L87.4237 40.4L88.5438 39.28L89.6638 40.4L88.5438 41.52ZM85.3438 41.52L84.2238 40.4L85.3438 39.28L86.4638 40.4L85.3438 41.52ZM82.1438 41.52L81.0238 40.4L82.1438 39.28L83.2638 40.4L82.1438 41.52ZM78.9438 41.52L77.8237 40.4L78.9438 39.28L80.0638 40.4L78.9438 41.52ZM30.9438 41.52C30.1971 41.52 29.8238 41.1467 29.8238 40.4C29.8238 39.6533 30.1971 39.28 30.9438 39.28C31.6904 39.28 32.0638 39.6533 32.0638 40.4C32.0638 41.1467 31.6904 41.52 30.9438 41.52ZM27.7438 41.52C26.9971 41.52 26.6238 41.1467 26.6238 40.4C26.6238 39.6533 26.9971 39.28 27.7438 39.28C28.4904 39.28 28.8638 39.6533 28.8638 40.4C28.8638 41.1467 28.4904 41.52 27.7438 41.52ZM24.5438 41.52C23.7971 41.52 23.4238 41.1467 23.4238 40.4C23.4238 39.6533 23.7971 39.28 24.5438 39.28C25.2904 39.28 25.6638 39.6533 25.6638 40.4C25.6638 41.1467 25.2904 41.52 24.5438 41.52ZM21.3438 41.52C20.5971 41.52 20.2238 41.1467 20.2238 40.4C20.2238 39.6533 20.5971 39.28 21.3438 39.28C22.0904 39.28 22.4638 39.6533 22.4638 40.4C22.4638 41.1467 22.0904 41.52 21.3438 41.52ZM18.1438 41.52C17.3971 41.52 17.0238 41.1467 17.0238 40.4C17.0238 39.6533 17.3971 39.28 18.1438 39.28C18.8904 39.28 19.2638 39.6533 19.2638 40.4C19.2638 41.1467 18.8904 41.52 18.1438 41.52ZM14.9438 41.52C14.1971 41.52 13.8238 41.1467 13.8238 40.4C13.8238 39.6533 14.1971 39.28 14.9438 39.28C15.6904 39.28 16.0638 39.6533 16.0638 40.4C16.0638 41.1467 15.6904 41.52 14.9438 41.52ZM11.7438 41.52C10.9971 41.52 10.6238 41.1467 10.6238 40.4C10.6238 39.6533 10.9971 39.28 11.7438 39.28C12.4904 39.28 12.8638 39.6533 12.8638 40.4C12.8638 41.1467 12.4904 41.52 11.7438 41.52ZM8.54375 41.52C7.79708 41.52 7.42375 41.1467 7.42375 40.4C7.42375 39.6533 7.79708 39.28 8.54375 39.28C9.29042 39.28 9.66375 39.6533 9.66375 40.4C9.66375 41.1467 9.29042 41.52 8.54375 41.52ZM5.34375 41.52C4.59708 41.52 4.22375 41.1467 4.22375 40.4C4.22375 39.6533 4.59708 39.28 5.34375 39.28C6.09042 39.28 6.46375 39.6533 6.46375 40.4C6.46375 41.1467 6.09042 41.52 5.34375 41.52ZM2.14375 41.52C1.39708 41.52 1.02375 41.1467 1.02375 40.4C1.02375 39.6533 1.39708 39.28 2.14375 39.28C2.89042 39.28 3.26375 39.6533 3.26375 40.4C3.26375 41.1467 2.89042 41.52 2.14375 41.52ZM94.9438 42.32L96.2238 44.88H93.6638L94.9438 42.32ZM91.7438 42.32L93.0238 44.88H90.4638L91.7438 42.32ZM88.5438 42.32L89.8238 44.88H87.2638L88.5438 42.32ZM85.3438 42.32L86.6238 44.88H84.0638L85.3438 42.32ZM82.1438 42.32L83.4238 44.88H80.8638L82.1438 42.32ZM78.9438 42.32L80.2238 44.88H77.6638L78.9438 42.32ZM75.7438 42.32L77.0238 44.88H74.4638L75.7438 42.32ZM72.5438 42.32L73.8238 44.88H71.2638L72.5438 42.32ZM69.3438 42.32L70.6238 44.88H68.0638L69.3438 42.32ZM66.1438 44.56L65.1838 43.6L66.1438 42.64L67.1038 43.6L66.1438 44.56ZM62.9438 44.56L61.9838 43.6L62.9438 42.64L63.9038 43.6L62.9438 44.56ZM59.7438 44.56L58.7838 43.6L59.7438 42.64L60.7038 43.6L59.7438 44.56ZM56.5438 44.56L55.5838 43.6L56.5438 42.64L57.5038 43.6L56.5438 44.56ZM94.9438 45.52L96.2238 48.08H93.6638L94.9438 45.52ZM91.7438 45.52L93.0238 48.08H90.4638L91.7438 45.52ZM88.5438 45.52L89.8238 48.08H87.2638L88.5438 45.52ZM85.3438 45.52L86.6238 48.08H84.0638L85.3438 45.52ZM82.1438 45.52L83.4238 48.08H80.8638L82.1438 45.52ZM78.9438 45.52L80.2238 48.08H77.6638L78.9438 45.52ZM75.7438 45.52L77.0238 48.08H74.4638L75.7438 45.52ZM72.5438 45.52L73.8238 48.08H71.2638L72.5438 45.52ZM69.3438 45.52L70.6238 48.08H68.0638L69.3438 45.52ZM66.1438 47.6L65.3438 46.8L66.1438 46L66.9438 46.8L66.1438 47.6ZM62.9438 47.6L62.1438 46.8L62.9438 46L63.7438 46.8L62.9438 47.6ZM59.7438 47.6L58.9438 46.8L59.7438 46L60.5438 46.8L59.7438 47.6ZM56.5438 47.6L55.7438 46.8L56.5438 46L57.3438 46.8L56.5438 47.6ZM53.3438 47.6L52.5438 46.8L53.3438 46L54.1438 46.8L53.3438 47.6ZM91.7438 48.72L93.0238 51.28H90.4638L91.7438 48.72ZM88.5438 48.72L89.8238 51.28H87.2638L88.5438 48.72ZM85.3438 48.72L86.6238 51.28H84.0638L85.3438 48.72ZM82.1438 48.72L83.4238 51.28H80.8638L82.1438 48.72ZM78.9438 48.72L80.2238 51.28H77.6638L78.9438 48.72ZM75.7438 48.72L77.0238 51.28H74.4638L75.7438 48.72ZM72.5438 48.72L73.8238 51.28H71.2638L72.5438 48.72ZM69.3438 48.72L70.6238 51.28H68.0638L69.3438 48.72ZM66.1438 51.12C65.3971 51.12 65.0238 50.7467 65.0238 50C65.0238 49.2533 65.3971 48.88 66.1438 48.88C66.8904 48.88 67.2638 49.2533 67.2638 50C67.2638 50.7467 66.8904 51.12 66.1438 51.12ZM62.9438 51.12C62.1971 51.12 61.8238 50.7467 61.8238 50C61.8238 49.2533 62.1971 48.88 62.9438 48.88C63.6904 48.88 64.0638 49.2533 64.0638 50C64.0638 50.7467 63.6904 51.12 62.9438 51.12ZM59.7438 51.12C58.9971 51.12 58.6238 50.7467 58.6238 50C58.6238 49.2533 58.9971 48.88 59.7438 48.88C60.4904 48.88 60.8638 49.2533 60.8638 50C60.8638 50.7467 60.4904 51.12 59.7438 51.12ZM56.5438 51.12C55.7971 51.12 55.4238 50.7467 55.4238 50C55.4238 49.2533 55.7971 48.88 56.5438 48.88C57.2904 48.88 57.6638 49.2533 57.6638 50C57.6638 50.7467 57.2904 51.12 56.5438 51.12ZM53.3438 51.12C52.5971 51.12 52.2238 50.7467 52.2238 50C52.2238 49.2533 52.5971 48.88 53.3438 48.88C54.0904 48.88 54.4638 49.2533 54.4638 50C54.4638 50.7467 54.0904 51.12 53.3438 51.12ZM50.1438 51.12C49.3971 51.12 49.0238 50.7467 49.0238 50C49.0238 49.2533 49.3971 48.88 50.1438 48.88C50.8904 48.88 51.2638 49.2533 51.2638 50C51.2638 50.7467 50.8904 51.12 50.1438 51.12ZM66.1438 54.32C65.3971 54.32 65.0238 53.9467 65.0238 53.2C65.0238 52.4533 65.3971 52.08 66.1438 52.08C66.8904 52.08 67.2638 52.4533 67.2638 53.2C67.2638 53.9467 66.8904 54.32 66.1438 54.32ZM62.9438 54.32C62.1971 54.32 61.8238 53.9467 61.8238 53.2C61.8238 52.4533 62.1971 52.08 62.9438 52.08C63.6904 52.08 64.0638 52.4533 64.0638 53.2C64.0638 53.9467 63.6904 54.32 62.9438 54.32ZM59.7438 54.32C58.9971 54.32 58.6238 53.9467 58.6238 53.2C58.6238 52.4533 58.9971 52.08 59.7438 52.08C60.4904 52.08 60.8638 52.4533 60.8638 53.2C60.8638 53.9467 60.4904 54.32 59.7438 54.32ZM56.5438 54.32C55.7971 54.32 55.4238 53.9467 55.4238 53.2C55.4238 52.4533 55.7971 52.08 56.5438 52.08C57.2904 52.08 57.6638 52.4533 57.6638 53.2C57.6638 53.9467 57.2904 54.32 56.5438 54.32ZM53.3438 54.32C52.5971 54.32 52.2238 53.9467 52.2238 53.2C52.2238 52.4533 52.5971 52.08 53.3438 52.08C54.0904 52.08 54.4638 52.4533 54.4638 53.2C54.4638 53.9467 54.0904 54.32 53.3438 54.32ZM50.1438 54.32C49.3971 54.32 49.0238 53.9467 49.0238 53.2C49.0238 52.4533 49.3971 52.08 50.1438 52.08C50.8904 52.08 51.2638 52.4533 51.2638 53.2C51.2638 53.9467 50.8904 54.32 50.1438 54.32ZM46.9438 54.32C46.1971 54.32 45.8238 53.9467 45.8238 53.2C45.8238 52.4533 46.1971 52.08 46.9438 52.08C47.6904 52.08 48.0638 52.4533 48.0638 53.2C48.0638 53.9467 47.6904 54.32 46.9438 54.32ZM91.7438 52.4L92.5438 54H90.9438L91.7438 52.4ZM88.5438 52.4L89.3438 54H87.7438L88.5438 52.4ZM85.3438 52.4L86.1438 54H84.5438L85.3438 52.4ZM82.1438 52.4L82.9438 54H81.3438L82.1438 52.4ZM78.9438 52.4L79.7438 54H78.1438L78.9438 52.4ZM75.7438 52.4L76.5438 54H74.9438L75.7438 52.4ZM72.5438 52.4L73.3438 54H71.7438L72.5438 52.4ZM69.3438 52.4L70.1438 54H68.5438L69.3438 52.4ZM66.1438 57.36C65.5038 57.36 65.1838 57.04 65.1838 56.4C65.1838 55.76 65.5038 55.44 66.1438 55.44C66.7838 55.44 67.1038 55.76 67.1038 56.4C67.1038 57.04 66.7838 57.36 66.1438 57.36ZM62.9438 57.36C62.3038 57.36 61.9838 57.04 61.9838 56.4C61.9838 55.76 62.3038 55.44 62.9438 55.44C63.5838 55.44 63.9038 55.76 63.9038 56.4C63.9038 57.04 63.5838 57.36 62.9438 57.36ZM59.7438 57.36C59.1038 57.36 58.7838 57.04 58.7838 56.4C58.7838 55.76 59.1038 55.44 59.7438 55.44C60.3838 55.44 60.7038 55.76 60.7038 56.4C60.7038 57.04 60.3838 57.36 59.7438 57.36ZM56.5438 57.36C55.9038 57.36 55.5838 57.04 55.5838 56.4C55.5838 55.76 55.9038 55.44 56.5438 55.44C57.1838 55.44 57.5038 55.76 57.5038 56.4C57.5038 57.04 57.1838 57.36 56.5438 57.36ZM53.3438 57.36C52.7038 57.36 52.3838 57.04 52.3838 56.4C52.3838 55.76 52.7038 55.44 53.3438 55.44C53.9838 55.44 54.3038 55.76 54.3038 56.4C54.3038 57.04 53.9838 57.36 53.3438 57.36ZM50.1438 57.36C49.5038 57.36 49.1838 57.04 49.1838 56.4C49.1838 55.76 49.5038 55.44 50.1438 55.44C50.7838 55.44 51.1038 55.76 51.1038 56.4C51.1038 57.04 50.7838 57.36 50.1438 57.36ZM46.9438 57.36C46.3038 57.36 45.9838 57.04 45.9838 56.4C45.9838 55.76 46.3038 55.44 46.9438 55.44C47.5838 55.44 47.9038 55.76 47.9038 56.4C47.9038 57.04 47.5838 57.36 46.9438 57.36ZM43.7438 57.36C43.1038 57.36 42.7838 57.04 42.7838 56.4C42.7838 55.76 43.1038 55.44 43.7438 55.44C44.3838 55.44 44.7038 55.76 44.7038 56.4C44.7038 57.04 44.3838 57.36 43.7438 57.36ZM88.5438 55.6L89.3438 57.2H87.7438L88.5438 55.6ZM85.3438 55.6L86.1438 57.2H84.5438L85.3438 55.6ZM82.1438 55.6L82.9438 57.2H81.3438L82.1438 55.6ZM78.9438 55.6L79.7438 57.2H78.1438L78.9438 55.6ZM75.7438 55.6L76.5438 57.2H74.9438L75.7438 55.6ZM72.5438 55.6L73.3438 57.2H71.7438L72.5438 55.6ZM69.3438 55.6L70.1438 57.2H68.5438L69.3438 55.6ZM62.9438 58L64.5438 61.2H61.3438L62.9438 58ZM59.7438 58L61.3438 61.2H58.1438L59.7438 58ZM56.5438 58L58.1438 61.2H54.9438L56.5438 58ZM53.3438 58L54.9438 61.2H51.7438L53.3438 58ZM50.1438 58L51.7438 61.2H48.5438L50.1438 58ZM46.9438 58L48.5438 61.2H45.3438L46.9438 58ZM43.7438 58L45.3438 61.2H42.1438L43.7438 58ZM41.9838 61.04H39.1038V58.16H41.9838V61.04ZM38.7838 61.04H35.9038V58.16H38.7838V61.04ZM66.1438 58.64L67.1038 60.56H65.1838L66.1438 58.64ZM85.3438 58.8L86.1438 60.4H84.5438L85.3438 58.8ZM82.1438 58.8L82.9438 60.4H81.3438L82.1438 58.8ZM78.9438 58.8L79.7438 60.4H78.1438L78.9438 58.8ZM75.7438 58.8L76.5438 60.4H74.9438L75.7438 58.8ZM72.5438 58.8L73.3438 60.4H71.7438L72.5438 58.8ZM69.3438 58.8L70.1438 60.4H68.5438L69.3438 58.8ZM62.9438 61.2L64.5438 64.4H61.3438L62.9438 61.2ZM59.7438 61.2L61.3438 64.4H58.1438L59.7438 61.2ZM56.5438 61.2L58.1438 64.4H54.9438L56.5438 61.2ZM53.3438 61.2L54.9438 64.4H51.7438L53.3438 61.2ZM50.1438 61.2L51.7438 64.4H48.5438L50.1438 61.2ZM46.9438 61.2L48.5438 64.4H45.3438L46.9438 61.2ZM43.7438 61.2L45.3438 64.4H42.1438L43.7438 61.2ZM41.9838 64.24H39.1038V61.36H41.9838V64.24ZM38.7838 64.24H35.9038V61.36H38.7838V64.24ZM35.5837 64.24H32.7038V61.36H35.5837V64.24ZM66.1438 61.84L67.1038 63.76H65.1838L66.1438 61.84ZM82.1438 63.6L81.3438 62.8L82.1438 62L82.9438 62.8L82.1438 63.6ZM78.9438 63.6L78.1438 62.8L78.9438 62L79.7438 62.8L78.9438 63.6ZM75.7438 63.6L74.9438 62.8L75.7438 62L76.5438 62.8L75.7438 63.6ZM72.5438 63.6L71.7438 62.8L72.5438 62L73.3438 62.8L72.5438 63.6ZM69.3438 63.6L68.5438 62.8L69.3438 62L70.1438 62.8L69.3438 63.6ZM62.9438 64.4L64.5438 67.44H61.5038L62.9438 64.4ZM59.7438 64.56L61.1838 67.44H58.3038L59.7438 64.56ZM56.5438 64.56L57.9838 67.44H55.1038L56.5438 64.56ZM53.3438 64.56L54.7838 67.44H51.9038L53.3438 64.56ZM50.1438 64.56L51.5838 67.44H48.7038L50.1438 64.56ZM46.9438 64.56L48.3838 67.44H45.5038L46.9438 64.56ZM43.7438 64.56L45.1838 67.44H42.3038L43.7438 64.56ZM41.9838 67.44H39.1038V64.56H41.9838V67.44ZM38.7838 67.44H35.9038V64.56H38.7838V67.44ZM35.5837 67.44H32.7038V64.56H35.5837V67.44ZM32.3838 67.44H29.5038V64.56H32.3838V67.44ZM66.1438 65.04L67.1038 66.96H65.1838L66.1438 65.04ZM78.9438 66.8L78.1438 66L78.9438 65.2L79.7438 66L78.9438 66.8ZM75.7438 66.8L74.9438 66L75.7438 65.2L76.5438 66L75.7438 66.8ZM72.5438 66.8L71.7438 66L72.5438 65.2L73.3438 66L72.5438 66.8ZM69.3438 66.8L68.5438 66L69.3438 65.2L70.1438 66L69.3438 66.8ZM62.9438 67.76L64.3838 70.64H61.5038L62.9438 67.76ZM59.7438 67.76L61.1838 70.64H58.3038L59.7438 67.76ZM56.5438 67.76L57.9838 70.64H55.1038L56.5438 67.76ZM53.3438 67.76L54.7838 70.64H51.9038L53.3438 67.76ZM50.1438 67.76L51.5838 70.64H48.7038L50.1438 67.76ZM46.9438 67.76L48.3838 70.64H45.5038L46.9438 67.76ZM43.7438 67.76L45.1838 70.64H42.3038L43.7438 67.76ZM41.9838 70.64H39.1038V67.76H41.9838V70.64ZM38.7838 70.64H35.9038V67.76H38.7838V70.64ZM35.5837 70.64H32.7038V67.76H35.5837V70.64ZM32.3838 70.64H29.5038V67.76H32.3838V70.64ZM66.1438 68.24L67.1038 70.16H65.1838L66.1438 68.24ZM27.7438 70.16L26.7838 69.2L27.7438 68.24L28.7038 69.2L27.7438 70.16ZM24.5438 70.16L23.5838 69.2L24.5438 68.24L25.5038 69.2L24.5438 70.16ZM75.7438 69.84L75.1038 69.2L75.7438 68.56L76.3838 69.2L75.7438 69.84ZM72.5438 69.84L71.9038 69.2L72.5438 68.56L73.1838 69.2L72.5438 69.84ZM69.3438 69.84L68.7038 69.2L69.3438 68.56L69.9838 69.2L69.3438 69.84ZM62.9438 70.96L64.3838 73.84H61.5038L62.9438 70.96ZM59.7438 70.96L61.1838 73.84H58.3038L59.7438 70.96ZM56.5438 70.96L57.9838 73.84H55.1038L56.5438 70.96ZM53.3438 70.96L54.7838 73.84H51.9038L53.3438 70.96ZM50.1438 70.96L51.5838 73.84H48.7038L50.1438 70.96ZM46.9438 70.96L48.3838 73.84H45.5038L46.9438 70.96ZM43.7438 70.96L45.1838 73.84H42.3038L43.7438 70.96ZM41.9838 73.84H39.1038V70.96H41.9838V73.84ZM38.7838 73.84H35.9038V70.96H38.7838V73.84ZM35.5837 73.84H32.7038V70.96H35.5837V73.84ZM32.3838 73.84H29.5038V70.96H32.3838V73.84ZM66.1438 71.44L67.1038 73.36H65.1838L66.1438 71.44ZM27.7438 73.36L26.7838 72.4L27.7438 71.44L28.7038 72.4L27.7438 73.36ZM24.5438 73.36L23.5838 72.4L24.5438 71.44L25.5038 72.4L24.5438 73.36ZM21.3438 73.36L20.3838 72.4L21.3438 71.44L22.3038 72.4L21.3438 73.36ZM72.5438 73.04L71.9038 72.4L72.5438 71.76L73.1838 72.4L72.5438 73.04ZM69.3438 73.04L68.7038 72.4L69.3438 71.76L69.9838 72.4L69.3438 73.04ZM62.9438 74.16L64.3838 77.04H61.5038L62.9438 74.16ZM59.7438 74.16L61.1838 77.04H58.3038L59.7438 74.16ZM56.5438 74.16L57.9838 77.04H55.1038L56.5438 74.16ZM53.3438 74.16L54.7838 77.04H51.9038L53.3438 74.16ZM50.1438 74.16L51.5838 77.04H48.7038L50.1438 74.16ZM46.9438 74.16L48.3838 77.04H45.5038L46.9438 74.16ZM43.7438 74.16L45.1838 77.04H42.3038L43.7438 74.16ZM41.8238 76.88H39.2638V74.32H41.8238V76.88ZM38.6238 76.88H36.0638V74.32H38.6238V76.88ZM35.4238 76.88H32.8638V74.32H35.4238V76.88ZM32.2238 76.88H29.6638V74.32H32.2238V76.88ZM66.1438 74.64L67.1038 76.56H65.1838L66.1438 74.64ZM27.7438 76.4L26.9438 75.6L27.7438 74.8L28.5438 75.6L27.7438 76.4ZM24.5438 76.4L23.7438 75.6L24.5438 74.8L25.3438 75.6L24.5438 76.4ZM21.3438 76.4L20.5438 75.6L21.3438 74.8L22.1438 75.6L21.3438 76.4ZM18.1438 76.4L17.3438 75.6L18.1438 74.8L18.9438 75.6L18.1438 76.4ZM62.9438 77.36L64.3838 80.24H61.5038L62.9438 77.36ZM59.7438 77.36L61.1838 80.24H58.3038L59.7438 77.36ZM56.5438 77.36L57.9838 80.24H55.1038L56.5438 77.36ZM53.3438 77.36L54.7838 80.24H51.9038L53.3438 77.36ZM50.1438 77.36L51.5838 80.24H48.7038L50.1438 77.36ZM46.9438 77.36L48.3838 80.24H45.5038L46.9438 77.36ZM43.7438 77.36L45.1838 80.24H42.3038L43.7438 77.36ZM41.8238 80.08H39.2638V77.52H41.8238V80.08ZM38.6238 80.08H36.0638V77.52H38.6238V80.08ZM35.4238 80.08H32.8638V77.52H35.4238V80.08ZM32.2238 80.08H29.6638V77.52H32.2238V80.08ZM27.7438 79.6L26.9438 78.8L27.7438 78L28.5438 78.8L27.7438 79.6ZM24.5438 79.6L23.7438 78.8L24.5438 78L25.3438 78.8L24.5438 79.6ZM21.3438 79.6L20.5438 78.8L21.3438 78L22.1438 78.8L21.3438 79.6ZM18.1438 79.6L17.3438 78.8L18.1438 78L18.9438 78.8L18.1438 79.6ZM14.9438 79.6L14.1438 78.8L14.9438 78L15.7438 78.8L14.9438 79.6ZM11.7438 79.6L10.9438 78.8L11.7438 78L12.5438 78.8L11.7438 79.6ZM62.9438 80.56L64.3838 83.44H61.5038L62.9438 80.56ZM59.7438 80.56L61.1838 83.44H58.3038L59.7438 80.56ZM56.5438 80.56L57.9838 83.44H55.1038L56.5438 80.56ZM53.3438 80.56L54.7838 83.44H51.9038L53.3438 80.56ZM50.1438 80.56L51.5838 83.44H48.7038L50.1438 80.56ZM46.9438 80.56L48.3838 83.44H45.5038L46.9438 80.56ZM43.7438 80.56L45.1838 83.44H42.3038L43.7438 80.56ZM41.8238 83.28H39.2638V80.72H41.8238V83.28ZM38.6238 83.28H36.0638V80.72H38.6238V83.28ZM35.4238 83.28H32.8638V80.72H35.4238V83.28ZM32.2238 83.28H29.6638V80.72H32.2238V83.28ZM66.1438 81.2L66.9438 82.8H65.3438L66.1438 81.2ZM27.7438 82.8L26.9438 82L27.7438 81.2L28.5438 82L27.7438 82.8ZM24.5438 82.8L23.7438 82L24.5438 81.2L25.3438 82L24.5438 82.8ZM21.3438 82.8L20.5438 82L21.3438 81.2L22.1438 82L21.3438 82.8ZM18.1438 82.8L17.3438 82L18.1438 81.2L18.9438 82L18.1438 82.8ZM14.9438 82.8L14.1438 82L14.9438 81.2L15.7438 82L14.9438 82.8ZM11.7438 82.8L10.9438 82L11.7438 81.2L12.5438 82L11.7438 82.8ZM8.54375 82.8L7.74375 82L8.54375 81.2L9.34375 82L8.54375 82.8ZM94.9438 81.36L95.5838 82.64H94.3038L94.9438 81.36ZM91.7438 81.36L92.3838 82.64H91.1038L91.7438 81.36ZM88.5438 82.64L87.9038 82L88.5438 81.36L89.1838 82L88.5438 82.64ZM85.3438 82.64L84.7038 82L85.3438 81.36L85.9838 82L85.3438 82.64ZM82.1438 82.64L81.5037 82L82.1438 81.36L82.7838 82L82.1438 82.64ZM78.9438 82.64L78.3038 82L78.9438 81.36L79.5838 82L78.9438 82.64ZM75.7438 82.64L75.1038 82L75.7438 81.36L76.3838 82L75.7438 82.64ZM72.5438 82.64L71.9038 82L72.5438 81.36L73.1838 82L72.5438 82.64ZM69.3438 82.64L68.7038 82L69.3438 81.36L69.9838 82L69.3438 82.64ZM62.9438 83.76L64.3838 86.64H61.5038L62.9438 83.76ZM59.7438 83.76L61.1838 86.64H58.3038L59.7438 83.76ZM56.5438 83.76L57.9838 86.64H55.1038L56.5438 83.76ZM53.3438 83.76L54.7838 86.64H51.9038L53.3438 83.76ZM50.1438 83.76L51.5838 86.64H48.7038L50.1438 83.76ZM46.9438 83.76L48.3838 86.64H45.5038L46.9438 83.76ZM43.7438 83.76L45.1838 86.64H42.3038L43.7438 83.76ZM41.8238 86.48H39.2638V83.92H41.8238V86.48ZM38.6238 86.48H36.0638V83.92H38.6238V86.48ZM35.4238 86.48H32.8638V83.92H35.4238V86.48ZM32.2238 86.48H29.6638V83.92H32.2238V86.48ZM66.1438 84.4L66.9438 86H65.3438L66.1438 84.4ZM27.7438 86L26.9438 85.2L27.7438 84.4L28.5438 85.2L27.7438 86ZM24.5438 86L23.7438 85.2L24.5438 84.4L25.3438 85.2L24.5438 86ZM21.3438 86L20.5438 85.2L21.3438 84.4L22.1438 85.2L21.3438 86ZM18.1438 86L17.3438 85.2L18.1438 84.4L18.9438 85.2L18.1438 86ZM14.9438 86L14.1438 85.2L14.9438 84.4L15.7438 85.2L14.9438 86ZM11.7438 86L10.9438 85.2L11.7438 84.4L12.5438 85.2L11.7438 86ZM8.54375 86L7.74375 85.2L8.54375 84.4L9.34375 85.2L8.54375 86ZM5.34375 86L4.54375 85.2L5.34375 84.4L6.14375 85.2L5.34375 86ZM98.1438 84.56L98.7838 85.84H97.5038L98.1438 84.56ZM94.9438 84.56L95.5838 85.84H94.3038L94.9438 84.56ZM91.7438 84.56L92.3838 85.84H91.1038L91.7438 84.56ZM88.5438 85.84L87.9038 85.2L88.5438 84.56L89.1838 85.2L88.5438 85.84ZM85.3438 85.84L84.7038 85.2L85.3438 84.56L85.9838 85.2L85.3438 85.84ZM82.1438 85.84L81.5037 85.2L82.1438 84.56L82.7838 85.2L82.1438 85.84ZM78.9438 85.84L78.3038 85.2L78.9438 84.56L79.5838 85.2L78.9438 85.84ZM75.7438 85.84L75.1038 85.2L75.7438 84.56L76.3838 85.2L75.7438 85.84ZM72.5438 85.84L71.9038 85.2L72.5438 84.56L73.1838 85.2L72.5438 85.84ZM69.3438 85.84L68.7038 85.2L69.3438 84.56L69.9838 85.2L69.3438 85.84ZM62.9438 87.12L64.2238 89.68H61.6638L62.9438 87.12ZM59.7438 87.12L61.0238 89.68H58.4638L59.7438 87.12ZM56.5438 87.12L57.8238 89.68H55.2638L56.5438 87.12ZM53.3438 87.12L54.6238 89.68H52.0638L53.3438 87.12ZM50.1438 87.12L51.4238 89.68H48.8638L50.1438 87.12ZM46.9438 87.12L48.2238 89.68H45.6638L46.9438 87.12ZM43.7438 87.12L45.0238 89.68H42.4638L43.7438 87.12ZM41.8238 89.68H39.2638V87.12H41.8238V89.68ZM38.6238 89.68H36.0638V87.12H38.6238V89.68ZM35.4238 89.68H32.8638V87.12H35.4238V89.68ZM32.2238 89.68H29.6638V87.12H32.2238V89.68ZM66.1438 87.6L66.9438 89.2H65.3438L66.1438 87.6ZM27.7438 89.2L26.9438 88.4L27.7438 87.6L28.5438 88.4L27.7438 89.2ZM24.5438 89.2L23.7438 88.4L24.5438 87.6L25.3438 88.4L24.5438 89.2ZM21.3438 89.2L20.5438 88.4L21.3438 87.6L22.1438 88.4L21.3438 89.2ZM18.1438 89.2L17.3438 88.4L18.1438 87.6L18.9438 88.4L18.1438 89.2ZM14.9438 89.2L14.1438 88.4L14.9438 87.6L15.7438 88.4L14.9438 89.2ZM11.7438 89.2L10.9438 88.4L11.7438 87.6L12.5438 88.4L11.7438 89.2ZM8.54375 89.2L7.74375 88.4L8.54375 87.6L9.34375 88.4L8.54375 89.2ZM5.34375 89.2L4.54375 88.4L5.34375 87.6L6.14375 88.4L5.34375 89.2ZM2.14375 89.2L1.34375 88.4L2.14375 87.6L2.94375 88.4L2.14375 89.2ZM98.1438 87.92L98.6238 88.88H97.6638L98.1438 87.92ZM94.9438 87.92L95.4238 88.88H94.4638L94.9438 87.92ZM91.7438 87.92L92.2238 88.88H91.2638L91.7438 87.92ZM88.5438 88.88L88.0638 88.4L88.5438 87.92L89.0238 88.4L88.5438 88.88ZM85.3438 88.88L84.8638 88.4L85.3438 87.92L85.8238 88.4L85.3438 88.88ZM82.1438 88.88L81.6638 88.4L82.1438 87.92L82.6238 88.4L82.1438 88.88ZM78.9438 88.88L78.4638 88.4L78.9438 87.92L79.4238 88.4L78.9438 88.88ZM75.7438 88.88L75.2638 88.4L75.7438 87.92L76.2238 88.4L75.7438 88.88ZM72.5438 88.88L72.0638 88.4L72.5438 87.92L73.0238 88.4L72.5438 88.88ZM69.3438 88.88L68.8638 88.4L69.3438 87.92L69.8238 88.4L69.3438 88.88ZM62.9438 90.32L64.2238 92.88H61.6638L62.9438 90.32ZM59.7438 90.32L61.0238 92.88H58.4638L59.7438 90.32ZM56.5438 90.32L57.8238 92.88H55.2638L56.5438 90.32ZM53.3438 90.32L54.6238 92.88H52.0638L53.3438 90.32ZM50.1438 90.32L51.4238 92.88H48.8638L50.1438 90.32ZM46.9438 90.32L48.2238 92.88H45.6638L46.9438 90.32ZM43.7438 90.32L45.0238 92.88H42.4638L43.7438 90.32ZM41.8238 92.88H39.2638V90.32H41.8238V92.88ZM38.6238 92.88H36.0638V90.32H38.6238V92.88ZM35.4238 92.88H32.8638V90.32H35.4238V92.88ZM32.2238 92.88H29.6638V90.32H32.2238V92.88ZM66.1438 90.8L66.9438 92.4H65.3438L66.1438 90.8ZM27.7438 92.4L26.9438 91.6L27.7438 90.8L28.5438 91.6L27.7438 92.4ZM24.5438 92.4L23.7438 91.6L24.5438 90.8L25.3438 91.6L24.5438 92.4ZM21.3438 92.4L20.5438 91.6L21.3438 90.8L22.1438 91.6L21.3438 92.4ZM18.1438 92.4L17.3438 91.6L18.1438 90.8L18.9438 91.6L18.1438 92.4ZM14.9438 92.4L14.1438 91.6L14.9438 90.8L15.7438 91.6L14.9438 92.4ZM11.7438 92.4L10.9438 91.6L11.7438 90.8L12.5438 91.6L11.7438 92.4ZM8.54375 92.4L7.74375 91.6L8.54375 90.8L9.34375 91.6L8.54375 92.4ZM5.34375 92.4L4.54375 91.6L5.34375 90.8L6.14375 91.6L5.34375 92.4ZM2.14375 92.4L1.34375 91.6L2.14375 90.8L2.94375 91.6L2.14375 92.4ZM98.1438 91.12L98.6238 92.08H97.6638L98.1438 91.12ZM94.9438 91.12L95.4238 92.08H94.4638L94.9438 91.12ZM91.7438 91.12L92.2238 92.08H91.2638L91.7438 91.12ZM88.5438 92.08L88.0638 91.6L88.5438 91.12L89.0238 91.6L88.5438 92.08ZM85.3438 92.08L84.8638 91.6L85.3438 91.12L85.8238 91.6L85.3438 92.08ZM82.1438 92.08L81.6638 91.6L82.1438 91.12L82.6238 91.6L82.1438 92.08ZM78.9438 92.08L78.4638 91.6L78.9438 91.12L79.4238 91.6L78.9438 92.08ZM75.7438 92.08L75.2638 91.6L75.7438 91.12L76.2238 91.6L75.7438 92.08ZM72.5438 92.08L72.0638 91.6L72.5438 91.12L73.0238 91.6L72.5438 92.08ZM69.3438 92.08L68.8638 91.6L69.3438 91.12L69.8238 91.6L69.3438 92.08ZM62.9438 93.52L64.2238 96.08H61.6638L62.9438 93.52ZM59.7438 93.52L61.0238 96.08H58.4638L59.7438 93.52ZM56.5438 93.52L57.8238 96.08H55.2638L56.5438 93.52ZM53.3438 93.52L54.6238 96.08H52.0638L53.3438 93.52ZM50.1438 93.52L51.4238 96.08H48.8638L50.1438 93.52ZM46.9438 93.52L48.2238 96.08H45.6638L46.9438 93.52ZM43.7438 93.52L45.0238 96.08H42.4638L43.7438 93.52ZM41.8238 96.08H39.2638V93.52H41.8238V96.08ZM38.6238 96.08H36.0638V93.52H38.6238V96.08ZM35.4238 96.08H32.8638V93.52H35.4238V96.08ZM32.2238 96.08H29.6638V93.52H32.2238V96.08ZM66.1438 94L66.9438 95.6H65.3438L66.1438 94ZM27.7438 95.6L26.9438 94.8L27.7438 94L28.5438 94.8L27.7438 95.6ZM24.5438 95.44L23.9038 94.8L24.5438 94L25.3438 94.8L24.5438 95.44ZM21.3438 95.44L20.7038 94.8L21.3438 94.16L21.9838 94.8L21.3438 95.44ZM18.1438 95.44L17.5038 94.8L18.1438 94.16L18.7838 94.8L18.1438 95.44ZM14.9438 95.44L14.3038 94.8L14.9438 94.16L15.5838 94.8L14.9438 95.44ZM11.7438 95.44L11.1038 94.8L11.7438 94.16L12.3838 94.8L11.7438 95.44ZM8.54375 95.44L7.90375 94.8L8.54375 94.16L9.18375 94.8L8.54375 95.44ZM5.34375 95.44L4.70375 94.8L5.34375 94.16L5.98375 94.8L5.34375 95.44ZM2.14375 95.44L1.50375 94.8L2.14375 94.16L2.78375 94.8L2.14375 95.44ZM98.1438 94.32L98.6238 95.28H97.6638L98.1438 94.32ZM94.9438 94.32L95.4238 95.28H94.4638L94.9438 94.32ZM91.7438 94.32L92.2238 95.28H91.2638L91.7438 94.32ZM88.5438 95.28L88.0638 94.8L88.5438 94.32L89.0238 94.8L88.5438 95.28ZM85.3438 95.28L84.8638 94.8L85.3438 94.32L85.8238 94.8L85.3438 95.28ZM82.1438 95.28L81.6638 94.8L82.1438 94.32L82.6238 94.8L82.1438 95.28ZM78.9438 95.28L78.4638 94.8L78.9438 94.32L79.4238 94.8L78.9438 95.28ZM75.7438 95.28L75.2638 94.8L75.7438 94.32L76.2238 94.8L75.7438 95.28ZM72.5438 95.28L72.0638 94.8L72.5438 94.32L73.0238 94.8L72.5438 95.28ZM69.3438 95.28L68.8638 94.8L69.3438 94.32L69.8238 94.8L69.3438 95.28ZM62.9438 96.72L64.2238 99.28H61.6638L62.9438 96.72ZM59.7438 96.72L61.0238 99.28H58.4638L59.7438 96.72ZM56.5438 96.72L57.8238 99.28H55.2638L56.5438 96.72ZM53.3438 96.72L54.6238 99.28H52.0638L53.3438 96.72ZM50.1438 96.72L51.4238 99.28H48.8638L50.1438 96.72ZM46.9438 96.72L48.2238 99.28H45.6638L46.9438 96.72ZM43.7438 96.72L45.0238 99.28H42.4638L43.7438 96.72ZM41.6638 99.12H39.4238V96.88H41.6638V99.12ZM38.4638 99.12H36.2238V96.88H38.4638V99.12ZM35.2638 99.12H33.0238V96.88H35.2638V99.12ZM32.0638 99.12H29.8238V96.88H32.0638V99.12ZM66.1438 97.36L66.7838 98.64H65.5038L66.1438 97.36ZM27.7438 98.64L27.1038 98L27.7438 97.36L28.3838 98L27.7438 98.64ZM24.5438 98.64L23.9038 98L24.5438 97.36L25.1838 98L24.5438 98.64ZM21.3438 98.64L20.7038 98L21.3438 97.36L21.9838 98L21.3438 98.64ZM18.1438 98.64L17.5038 98L18.1438 97.36L18.7838 98L18.1438 98.64ZM14.9438 98.64L14.3038 98L14.9438 97.36L15.5838 98L14.9438 98.64ZM11.7438 98.64L11.1038 98L11.7438 97.36L12.3838 98L11.7438 98.64ZM8.54375 98.64L7.90375 98L8.54375 97.36L9.18375 98L8.54375 98.64ZM5.34375 98.64L4.70375 98L5.34375 97.36L5.98375 98L5.34375 98.64ZM2.14375 98.64L1.50375 98L2.14375 97.36L2.78375 98L2.14375 98.64ZM98.1438 97.52L98.6238 98.48H97.6638L98.1438 97.52ZM94.9438 97.52L95.4238 98.48H94.4638L94.9438 97.52ZM91.7438 97.52L92.2238 98.48H91.2638L91.7438 97.52ZM88.5438 98.48L88.0638 98L88.5438 97.52L89.0238 98L88.5438 98.48ZM85.3438 98.48L84.8638 98L85.3438 97.52L85.8238 98L85.3438 98.48ZM82.1438 98.48L81.6638 98L82.1438 97.52L82.6238 98L82.1438 98.48ZM78.9438 98.48L78.4638 98L78.9438 97.52L79.4238 98L78.9438 98.48ZM75.7438 98.48L75.2638 98L75.7438 97.52L76.2238 98L75.7438 98.48ZM72.5438 98.48L72.0638 98L72.5438 97.52L73.0238 98L72.5438 98.48ZM69.3438 98.48L68.8638 98L69.3438 97.52L69.8238 98L69.3438 98.48ZM62.9438 99.92L64.2238 102.48H61.6638L62.9438 99.92ZM59.7438 99.92L61.0238 102.48H58.4638L59.7438 99.92ZM56.5438 99.92L57.8238 102.48H55.2638L56.5438 99.92ZM53.3438 99.92L54.6238 102.48H52.0638L53.3438 99.92ZM50.1438 99.92L51.4238 102.48H48.8638L50.1438 99.92ZM46.9438 99.92L48.2238 102.48H45.6638L46.9438 99.92ZM43.7438 99.92L45.0238 102.48H42.4638L43.7438 99.92ZM41.6638 102.32H39.4238V100.08H41.6638V102.32ZM38.4638 102.32H36.2238V100.08H38.4638V102.32ZM35.2638 102.32H33.0238V100.08H35.2638V102.32ZM32.0638 102.32H29.8238V100.08H32.0638V102.32ZM66.1438 100.56L66.7838 101.84H65.5038L66.1438 100.56ZM27.7438 101.84L27.1038 101.2L27.7438 100.56L28.3838 101.2L27.7438 101.84ZM24.5438 101.84L23.9038 101.2L24.5438 100.56L25.1838 101.2L24.5438 101.84ZM21.3438 101.84L20.7038 101.2L21.3438 100.56L21.9838 101.2L21.3438 101.84ZM18.1438 101.84L17.5038 101.2L18.1438 100.56L18.7838 101.2L18.1438 101.84ZM14.9438 101.84L14.3038 101.2L14.9438 100.56L15.5838 101.2L14.9438 101.84ZM11.7438 101.84L11.1038 101.2L11.7438 100.56L12.3838 101.2L11.7438 101.84ZM8.54375 101.84L7.90375 101.2L8.54375 100.56L9.18375 101.2L8.54375 101.84ZM5.34375 101.84L4.70375 101.2L5.34375 100.56L5.98375 101.2L5.34375 101.84ZM2.14375 101.84L1.50375 101.2L2.14375 100.56L2.78375 101.2L2.14375 101.84ZM98.1438 100.72L98.6238 101.68H97.6638L98.1438 100.72ZM94.9438 100.72L95.4238 101.68H94.4638L94.9438 100.72ZM91.7438 100.72L92.2238 101.68H91.2638L91.7438 100.72ZM88.5438 101.68L88.0638 101.2L88.5438 100.72L89.0238 101.2L88.5438 101.68ZM85.3438 101.68L84.8638 101.2L85.3438 100.72L85.8238 101.2L85.3438 101.68ZM82.1438 101.68L81.6638 101.2L82.1438 100.72L82.6238 101.2L82.1438 101.68ZM78.9438 101.68L78.4638 101.2L78.9438 100.72L79.4238 101.2L78.9438 101.68ZM75.7438 101.68L75.2638 101.2L75.7438 100.72L76.2238 101.2L75.7438 101.68ZM72.5438 101.68L72.0638 101.2L72.5438 100.72L73.0238 101.2L72.5438 101.68ZM69.3438 101.68L68.8638 101.2L69.3438 100.72L69.8238 101.2L69.3438 101.68ZM62.9438 103.12L64.2238 105.68H61.6638L62.9438 103.12ZM59.7438 103.12L61.0238 105.68H58.4638L59.7438 103.12ZM56.5438 103.12L57.8238 105.68H55.2638L56.5438 103.12ZM53.3438 103.12L54.6238 105.68H52.0638L53.3438 103.12ZM50.1438 103.12L51.4238 105.68H48.8638L50.1438 103.12ZM46.9438 103.12L48.2238 105.68H45.6638L46.9438 103.12ZM43.7438 103.12L45.0238 105.68H42.4638L43.7438 103.12ZM41.6638 105.52H39.4238V103.28H41.6638V105.52ZM38.4638 105.52H36.2238V103.28H38.4638V105.52ZM35.2638 105.52H33.0238V103.28H35.2638V105.52ZM32.0638 105.52H29.8238V103.28H32.0638V105.52ZM66.1438 103.76L66.7838 105.04H65.5038L66.1438 103.76ZM27.7438 105.04L27.1038 104.4L27.7438 103.76L28.3838 104.4L27.7438 105.04ZM24.5438 105.04L23.9038 104.4L24.5438 103.76L25.1838 104.4L24.5438 105.04ZM21.3438 105.04L20.7038 104.4L21.3438 103.76L21.9838 104.4L21.3438 105.04ZM18.1438 105.04L17.5038 104.4L18.1438 103.76L18.7838 104.4L18.1438 105.04ZM14.9438 105.04L14.3038 104.4L14.9438 103.76L15.5838 104.4L14.9438 105.04ZM11.7438 105.04L11.1038 104.4L11.7438 103.76L12.3838 104.4L11.7438 105.04ZM8.54375 105.04L7.90375 104.4L8.54375 103.76L9.18375 104.4L8.54375 105.04ZM5.34375 105.04L4.70375 104.4L5.34375 103.76L5.98375 104.4L5.34375 105.04ZM2.14375 105.04L1.50375 104.4L2.14375 103.76L2.78375 104.4L2.14375 105.04ZM98.1438 103.92L98.6238 104.88H97.6638L98.1438 103.92ZM94.9438 103.92L95.4238 104.88H94.4638L94.9438 103.92ZM91.7438 103.92L92.2238 104.88H91.2638L91.7438 103.92ZM88.5438 104.88L88.0638 104.4L88.5438 103.92L89.0238 104.4L88.5438 104.88ZM85.3438 104.88L84.8638 104.4L85.3438 103.92L85.8238 104.4L85.3438 104.88ZM82.1438 104.88L81.6638 104.4L82.1438 103.92L82.6238 104.4L82.1438 104.88ZM78.9438 104.88L78.4638 104.4L78.9438 103.92L79.4238 104.4L78.9438 104.88ZM75.7438 104.88L75.2638 104.4L75.7438 103.92L76.2238 104.4L75.7438 104.88ZM72.5438 104.88L72.0638 104.4L72.5438 103.92L73.0238 104.4L72.5438 104.88ZM69.3438 104.88L68.8638 104.4L69.3438 103.92L69.8238 104.4L69.3438 104.88ZM62.9438 106.48L64.0638 108.72H61.8238L62.9438 106.48ZM59.7438 106.48L60.8638 108.72H58.6238L59.7438 106.48ZM56.5438 106.48L57.6638 108.72H55.4238L56.5438 106.48ZM53.3438 106.48L54.4638 108.72H52.2238L53.3438 106.48ZM50.1438 106.48L51.2638 108.72H49.0238L50.1438 106.48ZM46.9438 106.48L48.0638 108.72H45.8238L46.9438 106.48ZM43.7438 106.48L44.8638 108.72H42.6238L43.7438 106.48ZM41.6638 108.72H39.4238V106.48H41.6638V108.72ZM38.4638 108.72H36.2238V106.48H38.4638V108.72ZM35.2638 108.72H33.0238V106.48H35.2638V108.72ZM32.0638 108.72H29.8238V106.48H32.0638V108.72ZM66.1438 106.96L66.7838 108.24H65.5038L66.1438 106.96ZM27.7438 108.24L27.1038 107.6L27.7438 106.96L28.3838 107.6L27.7438 108.24ZM24.5438 108.24L23.9038 107.6L24.5438 106.96L25.1838 107.6L24.5438 108.24ZM21.3438 108.24L20.7038 107.6L21.3438 106.96L21.9838 107.6L21.3438 108.24ZM18.1438 108.24L17.5038 107.6L18.1438 106.96L18.7838 107.6L18.1438 108.24ZM14.9438 108.24L14.3038 107.6L14.9438 106.96L15.5838 107.6L14.9438 108.24ZM11.7438 108.24L11.1038 107.6L11.7438 106.96L12.3838 107.6L11.7438 108.24ZM8.54375 108.24L7.90375 107.6L8.54375 106.96L9.18375 107.6L8.54375 108.24ZM5.34375 108.24L4.70375 107.6L5.34375 106.96L5.98375 107.6L5.34375 108.24ZM2.14375 108.24L1.50375 107.6L2.14375 106.96L2.78375 107.6L2.14375 108.24ZM98.1438 107.28L98.4638 107.92H97.8238L98.1438 107.28ZM94.9438 107.28L95.2638 107.92H94.6238L94.9438 107.28ZM91.7438 107.28L92.0638 107.92H91.4238L91.7438 107.28ZM88.5438 107.92L88.2238 107.6L88.5438 107.28L88.8638 107.6L88.5438 107.92ZM85.3438 107.92L85.0238 107.6L85.3438 107.28L85.6638 107.6L85.3438 107.92ZM82.1438 107.92L81.8238 107.6L82.1438 107.28L82.4638 107.6L82.1438 107.92ZM78.9438 107.92L78.6238 107.6L78.9438 107.28L79.2638 107.6L78.9438 107.92ZM75.7438 107.92L75.4238 107.6L75.7438 107.28L76.0638 107.6L75.7438 107.92ZM72.5438 107.92L72.2238 107.6L72.5438 107.28L72.8638 107.6L72.5438 107.92ZM69.3438 107.92L69.0238 107.6L69.3438 107.28L69.6638 107.6L69.3438 107.92ZM62.9438 109.68L64.0638 111.92H61.8238L62.9438 109.68ZM59.7438 109.68L60.8638 111.92H58.6238L59.7438 109.68ZM56.5438 109.68L57.6638 111.92H55.4238L56.5438 109.68ZM53.3438 109.68L54.4638 111.92H52.2238L53.3438 109.68ZM50.1438 109.68L51.2638 111.92H49.0238L50.1438 109.68ZM46.9438 109.68L48.0638 111.92H45.8238L46.9438 109.68ZM43.7438 109.68L44.8638 111.92H42.6238L43.7438 109.68ZM41.6638 111.92H39.4238V109.68H41.6638V111.92ZM38.4638 111.92H36.2238V109.68H38.4638V111.92ZM35.2638 111.92H33.0238V109.68H35.2638V111.92ZM32.0638 111.92H29.8238V109.68H32.0638V111.92ZM66.1438 110.16L66.7838 111.44H65.5038L66.1438 110.16ZM27.7438 111.44L27.1038 110.8L27.7438 110.16L28.3838 110.8L27.7438 111.44ZM24.5438 111.44L23.9038 110.8L24.5438 110.16L25.1838 110.8L24.5438 111.44ZM21.3438 111.44L20.7038 110.8L21.3438 110.16L21.9838 110.8L21.3438 111.44ZM18.1438 111.44L17.5038 110.8L18.1438 110.16L18.7838 110.8L18.1438 111.44ZM14.9438 111.44L14.3038 110.8L14.9438 110.16L15.5838 110.8L14.9438 111.44ZM11.7438 111.44L11.1038 110.8L11.7438 110.16L12.3838 110.8L11.7438 111.44ZM8.54375 111.44L7.90375 110.8L8.54375 110.16L9.18375 110.8L8.54375 111.44ZM5.34375 111.44L4.70375 110.8L5.34375 110.16L5.98375 110.8L5.34375 111.44ZM2.14375 111.44L1.50375 110.8L2.14375 110.16L2.78375 110.8L2.14375 111.44ZM98.1438 110.48L98.4638 111.12H97.8238L98.1438 110.48ZM94.9438 110.48L95.2638 111.12H94.6238L94.9438 110.48ZM91.7438 110.48L92.0638 111.12H91.4238L91.7438 110.48ZM88.5438 111.12L88.2238 110.8L88.5438 110.48L88.8638 110.8L88.5438 111.12ZM85.3438 111.12L85.0238 110.8L85.3438 110.48L85.6638 110.8L85.3438 111.12ZM82.1438 111.12L81.8238 110.8L82.1438 110.48L82.4638 110.8L82.1438 111.12ZM78.9438 111.12L78.6238 110.8L78.9438 110.48L79.2638 110.8L78.9438 111.12ZM75.7438 111.12L75.4238 110.8L75.7438 110.48L76.0638 110.8L75.7438 111.12ZM72.5438 111.12L72.2238 110.8L72.5438 110.48L72.8638 110.8L72.5438 111.12ZM69.3438 111.12L69.0238 110.8L69.3438 110.48L69.6638 110.8L69.3438 111.12Z" fill="url(#paint0_linear_4278_2670)"/>
<defs>
<linearGradient id="paint0_linear_4278_2670" x1="49.5" y1="-21" x2="49.5" y2="139" gradientUnits="userSpaceOnUse">
<stop stop-color="#F7E7FF"/>
<stop offset="1" stop-color="#EBC7FF"/>
</linearGradient>
</defs>
</svg>
