<svg width="102" height="113" viewBox="0 0 102 113" fill="none" xmlns="http://www.w3.org/2000/svg">
<path d="M67.3625 2.59999C67.3625 3.02666 67.1492 3.45333 66.7225 3.87999C66.4025 4.30666 65.9758 4.51999 65.4425 4.51999L66.8825 7.24H64.0025L65.4425 4.51999C64.8025 4.51999 64.2692 4.2 63.8425 3.56C63.4158 4.2 62.8825 4.51999 62.2425 4.51999L63.6825 7.24H60.8025L62.2425 4.51999C61.6025 4.51999 61.0692 4.2 60.6425 3.56C60.2158 4.2 59.6825 4.51999 59.0425 4.51999L60.4825 7.24H57.6025L59.0425 4.51999C58.4025 4.51999 57.8692 4.2 57.4425 3.56C57.0158 4.2 56.4825 4.51999 55.8425 4.51999L57.2825 7.24H54.4025L55.8425 4.51999C55.2025 4.51999 54.6692 4.2 54.2425 3.56C53.8158 4.2 53.2825 4.51999 52.6425 4.51999L54.0825 7.24H51.2025L52.6425 4.51999C52.0025 4.51999 51.4692 4.2 51.0425 3.56C50.6158 4.2 50.0825 4.51999 49.4425 4.51999L50.8825 7.24H48.0025L49.4425 4.51999C48.8025 4.51999 48.2692 4.2 47.8425 3.56C47.4158 4.2 46.8825 4.51999 46.2425 4.51999L47.6825 7.24H44.8025L46.2425 4.51999C45.6025 4.51999 45.0692 4.2 44.6425 3.56C44.2158 4.2 43.6825 4.51999 43.0425 4.51999L44.4825 7.24H41.6025L43.0425 4.51999C42.4025 4.51999 41.8692 4.14666 41.4425 3.39999C41.0158 4.14666 40.4825 4.51999 39.8425 4.51999L41.2825 7.24H38.4025L39.8425 4.51999C39.2025 4.51999 38.6692 4.14666 38.2425 3.39999C37.8158 4.14666 37.2825 4.51999 36.6425 4.51999L38.0825 7.24H35.2025L36.6425 4.51999C36.0025 4.51999 35.4692 4.14666 35.0425 3.39999C34.6158 4.14666 34.0825 4.51999 33.4425 4.51999L34.8825 7.24H32.0025L33.4425 4.51999C32.8025 4.51999 32.2692 4.14666 31.8425 3.39999C31.4158 4.14666 30.8825 4.51999 30.2425 4.51999L31.6825 7.24H28.8025L30.2425 4.51999C29.6025 4.51999 29.0692 4.14666 28.6425 3.39999C28.2158 4.14666 27.6825 4.51999 27.0425 4.51999L28.4825 7.24H25.6025L27.0425 4.51999C26.4025 4.51999 25.8692 4.14666 25.4425 3.39999C25.0158 4.14666 24.4825 4.51999 23.8425 4.51999L25.2825 7.24H22.4025L23.8425 4.51999C23.2025 4.51999 22.6692 4.14666 22.2425 3.39999C21.8158 4.14666 21.2825 4.51999 20.6425 4.51999L22.0825 7.24H19.2025L20.6425 4.51999C20.0025 4.51999 19.4692 4.14666 19.0425 3.39999C18.6158 4.14666 18.0825 4.51999 17.4425 4.51999L18.8825 7.24H16.0025L17.4425 4.51999C16.8025 4.51999 16.2692 4.14666 15.8425 3.39999C15.4158 4.14666 14.8825 4.51999 14.2425 4.51999L15.6825 7.24H12.8025L14.2425 4.51999C13.6025 4.51999 13.0692 4.14666 12.6425 3.39999C12.2158 4.14666 11.6825 4.51999 11.0425 4.51999L12.4825 7.24H9.6025L11.0425 4.51999C10.4025 4.51999 9.86917 4.14666 9.4425 3.39999C9.01583 4.14666 8.4825 4.51999 7.8425 4.51999L9.2825 7.24H6.4025L7.8425 4.51999C6.5625 4.51999 5.9225 3.87999 5.9225 2.59999C5.9225 2.17333 6.13583 1.74667 6.5625 1.32C6.98917 0.89333 7.41583 0.679996 7.8425 0.679996C8.4825 0.679996 9.01583 1.05333 9.4425 1.79999C9.86917 1.05333 10.4025 0.679996 11.0425 0.679996C11.6825 0.679996 12.2158 1.05333 12.6425 1.79999C13.0692 1.05333 13.6025 0.679996 14.2425 0.679996C14.8825 0.679996 15.4158 1.05333 15.8425 1.79999C16.2692 1.05333 16.8025 0.679996 17.4425 0.679996C18.0825 0.679996 18.6158 1.05333 19.0425 1.79999C19.4692 1.05333 20.0025 0.679996 20.6425 0.679996C21.2825 0.679996 21.8158 1.05333 22.2425 1.79999C22.6692 1.05333 23.2025 0.679996 23.8425 0.679996C24.4825 0.679996 25.0158 1.05333 25.4425 1.79999C25.8692 1.05333 26.4025 0.679996 27.0425 0.679996C27.6825 0.679996 28.2158 1.05333 28.6425 1.79999C29.0692 1.05333 29.6025 0.679996 30.2425 0.679996C30.8825 0.679996 31.4158 1.05333 31.8425 1.79999C32.2692 1.05333 32.8025 0.679996 33.4425 0.679996C34.0825 0.679996 34.6158 1.05333 35.0425 1.79999C35.4692 1.05333 36.0025 0.679996 36.6425 0.679996C37.2825 0.679996 37.8158 1.05333 38.2425 1.79999C38.6692 1.05333 39.2025 0.679996 39.8425 0.679996C40.4825 0.679996 41.0158 1.05333 41.4425 1.79999C41.8692 1.05333 42.4025 0.679996 43.0425 0.679996C43.6825 0.679996 44.2158 0.999996 44.6425 1.63999C45.0692 0.999996 45.6025 0.679996 46.2425 0.679996C46.8825 0.679996 47.4158 0.999996 47.8425 1.63999C48.2692 0.999996 48.8025 0.679996 49.4425 0.679996C50.0825 0.679996 50.6158 0.999996 51.0425 1.63999C51.4692 0.999996 52.0025 0.679996 52.6425 0.679996C53.2825 0.679996 53.8158 0.999996 54.2425 1.63999C54.6692 0.999996 55.2025 0.679996 55.8425 0.679996C56.4825 0.679996 57.0158 0.999996 57.4425 1.63999C57.8692 0.999996 58.4025 0.679996 59.0425 0.679996C59.6825 0.679996 60.2158 0.999996 60.6425 1.63999C61.0692 0.999996 61.6025 0.679996 62.2425 0.679996C62.8825 0.679996 63.4158 0.999996 63.8425 1.63999C64.2692 0.999996 64.8025 0.679996 65.4425 0.679996C65.8692 0.679996 66.2958 0.89333 66.7225 1.32C67.1492 1.74667 67.3625 2.17333 67.3625 2.59999ZM68.6425 20.2C67.5758 20.2 67.0425 19.6667 67.0425 18.6C67.0425 18.1733 67.2025 17.8 67.5225 17.48C67.8425 17.16 68.1092 17 68.3225 17H67.0425V13.8V10.6H70.2425H73.4425H76.6425H79.8425H83.0425H86.2425V7.4H89.4425V8.2C89.5492 7.77333 89.7625 7.50666 90.0825 7.4C89.8692 7.18666 89.6558 6.91999 89.4425 6.6V7.4H86.2425V4.2V7.4H83.0425V4.2V7.4H79.8425V4.2V7.4H76.6425V4.2H73.4425H70.2425H67.0425L68.6425 0.999992L70.2425 4.2L71.8425 0.999992L73.4425 4.2L75.0425 0.999992L76.6425 4.2L78.2425 0.999992L79.8425 4.2L81.4425 0.999992L83.0425 4.2L84.6425 0.999992L86.2425 4.2L87.8425 0.999992L89.4425 4.2L91.0425 0.999992L92.6425 4.2L94.2425 0.999992L95.8425 4.2H95.2025C95.8425 4.62666 96.1625 5.15999 96.1625 5.8C96.1625 6.44 95.8425 6.97333 95.2025 7.4C95.8425 7.72 96.1625 8.25333 96.1625 8.99999C96.1625 9.63999 95.8425 10.1733 95.2025 10.6H95.8425V13.8V17H92.6425H89.4425H86.2425H84.9625C85.8158 17.2133 86.2425 17.7467 86.2425 18.6C86.2425 19.6667 85.7092 20.2 84.6425 20.2C85.7092 20.2 86.2425 20.7333 86.2425 21.8C86.2425 22.8667 85.7092 23.4 84.6425 23.4C83.5758 23.4 83.0425 22.8667 83.0425 21.8C83.0425 20.7333 83.5758 20.2 84.6425 20.2C83.5758 20.2 83.0425 19.72 83.0425 18.76C82.9358 19.72 82.4025 20.2 81.4425 20.2C80.3758 20.2 79.8425 19.72 79.8425 18.76C79.7358 19.72 79.2025 20.2 78.2425 20.2C77.1758 20.2 76.6425 19.72 76.6425 18.76C76.5358 19.72 76.0025 20.2 75.0425 20.2C73.9758 20.2 73.4425 19.72 73.4425 18.76C73.3358 19.72 72.8025 20.2 71.8425 20.2C70.7758 20.2 70.2425 19.72 70.2425 18.76C70.1358 19.72 69.6025 20.2 68.6425 20.2ZM89.4425 4.2V5C89.5492 4.68 89.7625 4.41333 90.0825 4.2H89.4425ZM92.6425 4.2H92.0025C92.3225 4.41333 92.5358 4.68 92.6425 5C92.8558 4.68 93.0692 4.41333 93.2825 4.2H92.6425ZM75.0425 4.36L76.4825 7.24H73.6025L75.0425 4.36ZM71.8425 4.36L73.2825 7.24H70.4025L71.8425 4.36ZM68.6425 4.36L70.0825 7.24H67.2025L68.6425 4.36ZM92.0025 7.4C92.2158 7.50666 92.4292 7.71999 92.6425 8.04C92.8558 7.71999 93.0692 7.50666 93.2825 7.4C93.0692 7.18666 92.8558 6.91999 92.6425 6.6C92.4292 6.91999 92.2158 7.18666 92.0025 7.4ZM86.2425 10.6H83.0425V7.4H86.2425V10.6ZM83.0425 10.6H79.8425V7.4H83.0425V10.6ZM79.8425 10.6H76.6425V7.4H79.8425V10.6ZM75.0425 7.55999L76.4825 10.44H73.6025L75.0425 7.55999ZM71.8425 7.55999L73.2825 10.44H70.4025L71.8425 7.55999ZM68.6425 7.55999L70.0825 10.44H67.2025L68.6425 7.55999ZM65.4425 7.55999L66.8825 10.44H64.0025L65.4425 7.55999ZM62.2425 7.55999L63.6825 10.44H60.8025L62.2425 7.55999ZM59.0425 7.55999L60.4825 10.44H57.6025L59.0425 7.55999ZM55.8425 7.55999L57.2825 10.44H54.4025L55.8425 7.55999ZM52.6425 7.55999L54.0825 10.44H51.2025L52.6425 7.55999ZM49.4425 7.55999L50.8825 10.44H48.0025L49.4425 7.55999ZM46.2425 7.55999L47.6825 10.44H44.8025L46.2425 7.55999ZM43.0425 7.55999L44.4825 10.44H41.6025L43.0425 7.55999ZM39.8425 7.55999L41.2825 10.44H38.4025L39.8425 7.55999ZM36.6425 7.55999L38.0825 10.44H35.2025L36.6425 7.55999ZM33.4425 7.55999L34.8825 10.28H32.1625L33.4425 7.55999ZM30.2425 7.71999L31.5225 10.28H28.9625L30.2425 7.71999ZM27.0425 7.71999L28.3225 10.28H25.7625L27.0425 7.71999ZM23.8425 7.71999L25.1225 10.28H22.5625L23.8425 7.71999ZM20.6425 7.71999L21.9225 10.28H19.3625L20.6425 7.71999ZM17.4425 7.71999L18.7225 10.28H16.1625L17.4425 7.71999ZM14.2425 7.71999L15.5225 10.28H12.9625L14.2425 7.71999ZM11.0425 7.71999L12.3225 10.28H9.7625L11.0425 7.71999ZM7.8425 7.71999L9.1225 10.28H6.5625L7.8425 7.71999ZM89.4425 10.6H89.9225C89.7092 10.3867 89.5492 10.12 89.4425 9.79999V10.6ZM92.6425 10.6H93.1225C92.9092 10.3867 92.7492 10.1733 92.6425 9.95999C92.5358 10.28 92.3225 10.4933 92.0025 10.6H92.6425ZM9.4425 29.8H6.2425V26.6V23.4V20.2V17.16H6.0825V13.96V10.44H9.2825H12.4825H15.6825H18.8825H22.0825H25.2825H28.4825H31.6825H34.8825H38.0825H41.2825H44.4825H48.0025V10.6H51.0425H54.2425H57.4425V13.8V17V20.2H54.2425H51.0425H48.0025H51.0425V23.4H47.8425H51.0425V26.6H47.8425V23.4V26.6V29.8H44.6425H41.4425H38.2425H35.0425H31.8425H28.6425H25.4425V26.6V29.8H22.2425V26.6V29.8H19.0425V26.6V29.8H15.8425V26.6V29.8H12.6425V26.6V29.8H9.4425V26.6V29.8ZM65.4425 13.64C64.4825 13.64 64.0025 13.16 64.0025 12.2C64.0025 11.24 64.4825 10.76 65.4425 10.76C66.4025 10.76 66.8825 11.24 66.8825 12.2C66.8825 13.16 66.4025 13.64 65.4425 13.64ZM62.2425 13.64C61.2825 13.64 60.8025 13.16 60.8025 12.2C60.8025 11.24 61.2825 10.76 62.2425 10.76C63.2025 10.76 63.6825 11.24 63.6825 12.2C63.6825 13.16 63.2025 13.64 62.2425 13.64ZM59.0425 13.64C58.0825 13.64 57.6025 13.16 57.6025 12.2C57.6025 11.24 58.0825 10.76 59.0425 10.76C60.0025 10.76 60.4825 11.24 60.4825 12.2C60.4825 13.16 60.0025 13.64 59.0425 13.64ZM65.4425 16.84C64.4825 16.84 64.0025 16.36 64.0025 15.4C64.0025 14.44 64.4825 13.96 65.4425 13.96C66.4025 13.96 66.8825 14.44 66.8825 15.4C66.8825 16.36 66.4025 16.84 65.4425 16.84ZM62.2425 16.84C61.2825 16.84 60.8025 16.36 60.8025 15.4C60.8025 14.44 61.2825 13.96 62.2425 13.96C63.2025 13.96 63.6825 14.44 63.6825 15.4C63.6825 16.36 63.2025 16.84 62.2425 16.84ZM59.0425 16.84C58.0825 16.84 57.6025 16.36 57.6025 15.4C57.6025 14.44 58.0825 13.96 59.0425 13.96C60.0025 13.96 60.4825 14.44 60.4825 15.4C60.4825 16.36 60.0025 16.84 59.0425 16.84ZM70.2425 17H68.9625C69.8158 17.2133 70.2425 17.6933 70.2425 18.44C70.3492 17.3733 70.7758 16.8933 71.5225 17H70.2425ZM73.4425 17H72.1625C73.0158 17.2133 73.4425 17.6933 73.4425 18.44C73.5492 17.3733 73.9758 16.8933 74.7225 17H73.4425ZM76.6425 17H75.3625C76.2158 17.2133 76.6425 17.6933 76.6425 18.44C76.7492 17.3733 77.1758 16.8933 77.9225 17H76.6425ZM79.8425 17H78.5625C79.4158 17.2133 79.8425 17.6933 79.8425 18.44C79.8425 18.12 80.0025 17.8 80.3225 17.48C80.6425 17.16 80.9092 17 81.1225 17H79.8425ZM83.0425 17H81.7625C82.6158 17.2133 83.0425 17.6933 83.0425 18.44C83.0425 18.12 83.2025 17.8 83.5225 17.48C83.8425 17.16 84.1092 17 84.3225 17H83.0425ZM94.2425 20.2C93.1758 20.2 92.6425 19.6667 92.6425 18.6C92.6425 17.5333 93.1758 17 94.2425 17C95.3092 17 95.8425 17.5333 95.8425 18.6C95.8425 19.6667 95.3092 20.2 94.2425 20.2ZM91.0425 20.2C89.9758 20.2 89.4425 19.6667 89.4425 18.6C89.4425 17.5333 89.9758 17 91.0425 17C92.1092 17 92.6425 17.5333 92.6425 18.6C92.6425 19.6667 92.1092 20.2 91.0425 20.2ZM87.8425 20.2C86.7758 20.2 86.2425 19.6667 86.2425 18.6C86.2425 17.5333 86.7758 17 87.8425 17C88.9092 17 89.4425 17.5333 89.4425 18.6C89.4425 19.6667 88.9092 20.2 87.8425 20.2ZM65.4425 20.04C64.4825 20.04 64.0025 19.56 64.0025 18.6C64.0025 17.64 64.4825 17.16 65.4425 17.16C66.4025 17.16 66.8825 17.64 66.8825 18.6C66.8825 19.56 66.4025 20.04 65.4425 20.04ZM62.2425 20.04C61.2825 20.04 60.8025 19.56 60.8025 18.6C60.8025 17.64 61.2825 17.16 62.2425 17.16C63.2025 17.16 63.6825 17.64 63.6825 18.6C63.6825 19.56 63.2025 20.04 62.2425 20.04ZM59.0425 20.04C58.0825 20.04 57.6025 19.56 57.6025 18.6C57.6025 17.64 58.0825 17.16 59.0425 17.16C60.0025 17.16 60.4825 17.64 60.4825 18.6C60.4825 19.56 60.0025 20.04 59.0425 20.04ZM81.4425 23.4C80.3758 23.4 79.8425 22.8667 79.8425 21.8C79.8425 20.7333 80.3758 20.2 81.4425 20.2C82.5092 20.2 83.0425 20.7333 83.0425 21.8C83.0425 22.8667 82.5092 23.4 81.4425 23.4ZM78.2425 23.4C77.1758 23.4 76.6425 22.8667 76.6425 21.8C76.6425 20.7333 77.1758 20.2 78.2425 20.2C79.3092 20.2 79.8425 20.7333 79.8425 21.8C79.8425 22.8667 79.3092 23.4 78.2425 23.4ZM75.0425 23.4C73.9758 23.4 73.4425 22.8667 73.4425 21.8C73.4425 20.7333 73.9758 20.2 75.0425 20.2C76.1092 20.2 76.6425 20.7333 76.6425 21.8C76.6425 22.8667 76.1092 23.4 75.0425 23.4ZM71.8425 23.4C70.7758 23.4 70.2425 22.8667 70.2425 21.8C70.2425 20.7333 70.7758 20.2 71.8425 20.2C72.9092 20.2 73.4425 20.7333 73.4425 21.8C73.4425 22.8667 72.9092 23.4 71.8425 23.4ZM68.6425 23.4C67.5758 23.4 67.0425 22.8667 67.0425 21.8C67.0425 20.7333 67.5758 20.2 68.6425 20.2C69.7092 20.2 70.2425 20.7333 70.2425 21.8C70.2425 22.8667 69.7092 23.4 68.6425 23.4ZM57.4425 23.4H54.2425V20.2H57.4425V23.4ZM54.2425 23.4H51.0425V20.2H54.2425V23.4ZM94.2425 23.24C93.2825 23.24 92.8025 22.76 92.8025 21.8C92.8025 20.84 93.2825 20.36 94.2425 20.36C95.2025 20.36 95.6825 20.84 95.6825 21.8C95.6825 22.76 95.2025 23.24 94.2425 23.24ZM91.0425 23.24C90.0825 23.24 89.6025 22.76 89.6025 21.8C89.6025 20.84 90.0825 20.36 91.0425 20.36C92.0025 20.36 92.4825 20.84 92.4825 21.8C92.4825 22.76 92.0025 23.24 91.0425 23.24ZM87.8425 23.24C86.8825 23.24 86.4025 22.76 86.4025 21.8C86.4025 20.84 86.8825 20.36 87.8425 20.36C88.8025 20.36 89.2825 20.84 89.2825 21.8C89.2825 22.76 88.8025 23.24 87.8425 23.24ZM65.4425 23.08C64.5892 23.08 64.1625 22.6533 64.1625 21.8C64.1625 20.9467 64.5892 20.52 65.4425 20.52C66.2958 20.52 66.7225 20.9467 66.7225 21.8C66.7225 22.6533 66.2958 23.08 65.4425 23.08ZM62.2425 23.08C61.3892 23.08 60.9625 22.6533 60.9625 21.8C60.9625 20.9467 61.3892 20.52 62.2425 20.52C63.0958 20.52 63.5225 20.9467 63.5225 21.8C63.5225 22.6533 63.0958 23.08 62.2425 23.08ZM59.0425 23.08C58.1892 23.08 57.7625 22.6533 57.7625 21.8C57.7625 20.9467 58.1892 20.52 59.0425 20.52C59.8958 20.52 60.3225 20.9467 60.3225 21.8C60.3225 22.6533 59.8958 23.08 59.0425 23.08ZM84.6425 26.6C83.5758 26.6 83.0425 26.0667 83.0425 25C83.0425 23.9333 83.5758 23.4 84.6425 23.4C85.7092 23.4 86.2425 23.9333 86.2425 25C86.2425 26.0667 85.7092 26.6 84.6425 26.6ZM81.4425 26.6C80.3758 26.6 79.8425 26.0667 79.8425 25C79.8425 23.9333 80.3758 23.4 81.4425 23.4C82.5092 23.4 83.0425 23.9333 83.0425 25C83.0425 26.0667 82.5092 26.6 81.4425 26.6ZM78.2425 26.6C77.1758 26.6 76.6425 26.0667 76.6425 25C76.6425 23.9333 77.1758 23.4 78.2425 23.4C79.3092 23.4 79.8425 23.9333 79.8425 25C79.8425 26.0667 79.3092 26.6 78.2425 26.6ZM75.0425 26.6C73.9758 26.6 73.4425 26.0667 73.4425 25C73.4425 23.9333 73.9758 23.4 75.0425 23.4C76.1092 23.4 76.6425 23.9333 76.6425 25C76.6425 26.0667 76.1092 26.6 75.0425 26.6ZM71.8425 26.6C70.7758 26.6 70.2425 26.0667 70.2425 25C70.2425 23.9333 70.7758 23.4 71.8425 23.4C72.9092 23.4 73.4425 23.9333 73.4425 25C73.4425 26.0667 72.9092 26.6 71.8425 26.6ZM68.6425 26.6C67.5758 26.6 67.0425 26.0667 67.0425 25C67.0425 23.9333 67.5758 23.4 68.6425 23.4C69.7092 23.4 70.2425 23.9333 70.2425 25C70.2425 26.0667 69.7092 26.6 68.6425 26.6ZM57.4425 26.6H54.2425V23.4H57.4425V26.6ZM54.2425 26.6H51.0425V23.4H54.2425V26.6ZM94.2425 26.44C93.2825 26.44 92.8025 25.96 92.8025 25C92.8025 24.04 93.2825 23.56 94.2425 23.56C95.2025 23.56 95.6825 24.04 95.6825 25C95.6825 25.96 95.2025 26.44 94.2425 26.44ZM91.0425 26.44C90.0825 26.44 89.6025 25.96 89.6025 25C89.6025 24.04 90.0825 23.56 91.0425 23.56C92.0025 23.56 92.4825 24.04 92.4825 25C92.4825 25.96 92.0025 26.44 91.0425 26.44ZM87.8425 26.44C86.8825 26.44 86.4025 25.96 86.4025 25C86.4025 24.04 86.8825 23.56 87.8425 23.56C88.8025 23.56 89.2825 24.04 89.2825 25C89.2825 25.96 88.8025 26.44 87.8425 26.44ZM65.4425 26.28C64.5892 26.28 64.1625 25.8533 64.1625 25C64.1625 24.1467 64.5892 23.72 65.4425 23.72C66.2958 23.72 66.7225 24.1467 66.7225 25C66.7225 25.8533 66.2958 26.28 65.4425 26.28ZM62.2425 26.28C61.3892 26.28 60.9625 25.8533 60.9625 25C60.9625 24.1467 61.3892 23.72 62.2425 23.72C63.0958 23.72 63.5225 24.1467 63.5225 25C63.5225 25.8533 63.0958 26.28 62.2425 26.28ZM59.0425 26.28C58.1892 26.28 57.7625 25.8533 57.7625 25C57.7625 24.1467 58.1892 23.72 59.0425 23.72C59.8958 23.72 60.3225 24.1467 60.3225 25C60.3225 25.8533 59.8958 26.28 59.0425 26.28ZM84.6425 29.8C83.5758 29.8 83.0425 29.2667 83.0425 28.2C83.0425 27.1333 83.5758 26.6 84.6425 26.6C85.7092 26.6 86.2425 27.1333 86.2425 28.2C86.2425 29.2667 85.7092 29.8 84.6425 29.8ZM81.4425 29.8C80.3758 29.8 79.8425 29.2667 79.8425 28.2C79.8425 27.1333 80.3758 26.6 81.4425 26.6C82.5092 26.6 83.0425 27.1333 83.0425 28.2C83.0425 29.2667 82.5092 29.8 81.4425 29.8ZM78.2425 29.8C77.1758 29.8 76.6425 29.2667 76.6425 28.2C76.6425 27.1333 77.1758 26.6 78.2425 26.6C79.3092 26.6 79.8425 27.1333 79.8425 28.2C79.8425 29.2667 79.3092 29.8 78.2425 29.8ZM75.0425 29.8C73.9758 29.8 73.4425 29.2667 73.4425 28.2C73.4425 27.1333 73.9758 26.6 75.0425 26.6C76.1092 26.6 76.6425 27.1333 76.6425 28.2C76.6425 29.2667 76.1092 29.8 75.0425 29.8ZM71.8425 29.8C70.7758 29.8 70.2425 29.2667 70.2425 28.2C70.2425 27.1333 70.7758 26.6 71.8425 26.6C72.9092 26.6 73.4425 27.1333 73.4425 28.2C73.4425 29.2667 72.9092 29.8 71.8425 29.8ZM68.6425 29.8C67.5758 29.8 67.0425 29.2667 67.0425 28.2C67.0425 27.1333 67.5758 26.6 68.6425 26.6C69.7092 26.6 70.2425 27.1333 70.2425 28.2C70.2425 29.2667 69.7092 29.8 68.6425 29.8ZM57.4425 29.8H54.2425V26.6H57.4425V29.8ZM54.2425 29.8H51.0425V26.6H54.2425V29.8ZM51.0425 29.8H47.8425V26.6H51.0425V29.8ZM94.2425 29.64C93.2825 29.64 92.8025 29.16 92.8025 28.2C92.8025 27.24 93.2825 26.76 94.2425 26.76C95.2025 26.76 95.6825 27.24 95.6825 28.2C95.6825 29.16 95.2025 29.64 94.2425 29.64ZM91.0425 29.64C90.0825 29.64 89.6025 29.16 89.6025 28.2C89.6025 27.24 90.0825 26.76 91.0425 26.76C92.0025 26.76 92.4825 27.24 92.4825 28.2C92.4825 29.16 92.0025 29.64 91.0425 29.64ZM87.8425 29.64C86.8825 29.64 86.4025 29.16 86.4025 28.2C86.4025 27.24 86.8825 26.76 87.8425 26.76C88.8025 26.76 89.2825 27.24 89.2825 28.2C89.2825 29.16 88.8025 29.64 87.8425 29.64ZM65.4425 27.08L66.5625 29.32H64.3225L65.4425 27.08ZM62.2425 27.08L63.3625 29.32H61.1225L62.2425 27.08ZM59.0425 27.08L60.1625 29.32H57.9225L59.0425 27.08ZM47.8425 33H44.6425V29.8H47.8425V33ZM44.6425 33H41.4425V29.8H44.6425V33ZM41.4425 33H38.2425V29.8H41.4425V33ZM38.2425 33H35.0425V29.8H38.2425V33ZM35.0425 33H31.8425V29.8H35.0425V33ZM31.8425 33H28.6425V29.8H31.8425V33ZM28.6425 33H25.4425V29.8H28.6425V33ZM25.4425 33H22.2425V29.8H25.4425V33ZM22.2425 33H19.0425V29.8H22.2425V33ZM19.0425 33H15.8425V29.8H19.0425V33ZM15.8425 33H12.6425V29.8H15.8425V33ZM12.6425 33H9.4425V29.8H12.6425V33ZM9.4425 33H6.2425V29.8H9.4425V33ZM84.6425 32.84C83.6825 32.84 83.2025 32.36 83.2025 31.4C83.2025 30.44 83.6825 29.96 84.6425 29.96C85.6025 29.96 86.0825 30.44 86.0825 31.4C86.0825 32.36 85.6025 32.84 84.6425 32.84ZM81.4425 32.84C80.4825 32.84 80.0025 32.36 80.0025 31.4C80.0025 30.44 80.4825 29.96 81.4425 29.96C82.4025 29.96 82.8825 30.44 82.8825 31.4C82.8825 32.36 82.4025 32.84 81.4425 32.84ZM78.2425 32.84C77.2825 32.84 76.8025 32.36 76.8025 31.4C76.8025 30.44 77.2825 29.96 78.2425 29.96C79.2025 29.96 79.6825 30.44 79.6825 31.4C79.6825 32.36 79.2025 32.84 78.2425 32.84ZM75.0425 32.84C74.0825 32.84 73.6025 32.36 73.6025 31.4C73.6025 30.44 74.0825 29.96 75.0425 29.96C76.0025 29.96 76.4825 30.44 76.4825 31.4C76.4825 32.36 76.0025 32.84 75.0425 32.84ZM71.8425 32.84C70.8825 32.84 70.4025 32.36 70.4025 31.4C70.4025 30.44 70.8825 29.96 71.8425 29.96C72.8025 29.96 73.2825 30.44 73.2825 31.4C73.2825 32.36 72.8025 32.84 71.8425 32.84ZM68.6425 32.84C67.6825 32.84 67.2025 32.36 67.2025 31.4C67.2025 30.44 67.6825 29.96 68.6425 29.96C69.6025 29.96 70.0825 30.44 70.0825 31.4C70.0825 32.36 69.6025 32.84 68.6425 32.84ZM57.2825 32.84H54.4025V29.96H57.2825V32.84ZM54.0825 32.84H51.2025V29.96H54.0825V32.84ZM50.8825 32.84H48.0025V29.96H50.8825V32.84ZM91.0425 32.84C90.0825 32.84 89.6025 32.36 89.6025 31.4C89.6025 30.44 90.0825 29.96 91.0425 29.96C92.0025 29.96 92.4825 30.44 92.4825 31.4C92.4825 32.36 92.0025 32.84 91.0425 32.84ZM87.8425 32.84C86.8825 32.84 86.4025 32.36 86.4025 31.4C86.4025 30.44 86.8825 29.96 87.8425 29.96C88.8025 29.96 89.2825 30.44 89.2825 31.4C89.2825 32.36 88.8025 32.84 87.8425 32.84ZM65.4425 30.28L66.5625 32.52H64.3225L65.4425 30.28ZM62.2425 30.28L63.3625 32.52H61.1225L62.2425 30.28ZM59.0425 30.28L60.1625 32.52H57.9225L59.0425 30.28ZM84.6425 36.04C83.6825 36.04 83.2025 35.56 83.2025 34.6C83.2025 33.64 83.6825 33.16 84.6425 33.16C85.6025 33.16 86.0825 33.64 86.0825 34.6C86.0825 35.56 85.6025 36.04 84.6425 36.04ZM81.4425 36.04C80.4825 36.04 80.0025 35.56 80.0025 34.6C80.0025 33.64 80.4825 33.16 81.4425 33.16C82.4025 33.16 82.8825 33.64 82.8825 34.6C82.8825 35.56 82.4025 36.04 81.4425 36.04ZM78.2425 36.04C77.2825 36.04 76.8025 35.56 76.8025 34.6C76.8025 33.64 77.2825 33.16 78.2425 33.16C79.2025 33.16 79.6825 33.64 79.6825 34.6C79.6825 35.56 79.2025 36.04 78.2425 36.04ZM75.0425 36.04C74.0825 36.04 73.6025 35.56 73.6025 34.6C73.6025 33.64 74.0825 33.16 75.0425 33.16C76.0025 33.16 76.4825 33.64 76.4825 34.6C76.4825 35.56 76.0025 36.04 75.0425 36.04ZM71.8425 36.04C70.8825 36.04 70.4025 35.56 70.4025 34.6C70.4025 33.64 70.8825 33.16 71.8425 33.16C72.8025 33.16 73.2825 33.64 73.2825 34.6C73.2825 35.56 72.8025 36.04 71.8425 36.04ZM68.6425 36.04C67.6825 36.04 67.2025 35.56 67.2025 34.6C67.2025 33.64 67.6825 33.16 68.6425 33.16C69.6025 33.16 70.0825 33.64 70.0825 34.6C70.0825 35.56 69.6025 36.04 68.6425 36.04ZM57.2825 36.04H54.4025V33.16H57.2825V36.04ZM54.0825 36.04H51.2025V33.16H54.0825V36.04ZM50.8825 36.04H48.0025V33.16H50.8825V36.04ZM87.8425 36.04C86.8825 36.04 86.4025 35.56 86.4025 34.6C86.4025 33.64 86.8825 33.16 87.8425 33.16C88.8025 33.16 89.2825 33.64 89.2825 34.6C89.2825 35.56 88.8025 36.04 87.8425 36.04ZM65.4425 33.48L66.5625 35.72H64.3225L65.4425 33.48ZM62.2425 33.48L63.3625 35.72H61.1225L62.2425 33.48ZM59.0425 33.48L60.1625 35.72H57.9225L59.0425 33.48ZM47.8425 39.4H44.6425V36.2H47.8425V39.4ZM44.6425 39.4H41.4425V36.2H44.6425V39.4ZM81.4425 39.24C80.4825 39.24 80.0025 38.76 80.0025 37.8C80.0025 36.84 80.4825 36.36 81.4425 36.36C82.4025 36.36 82.8825 36.84 82.8825 37.8C82.8825 38.76 82.4025 39.24 81.4425 39.24ZM78.2425 39.24C77.2825 39.24 76.8025 38.76 76.8025 37.8C76.8025 36.84 77.2825 36.36 78.2425 36.36C79.2025 36.36 79.6825 36.84 79.6825 37.8C79.6825 38.76 79.2025 39.24 78.2425 39.24ZM75.0425 39.24C74.0825 39.24 73.6025 38.76 73.6025 37.8C73.6025 36.84 74.0825 36.36 75.0425 36.36C76.0025 36.36 76.4825 36.84 76.4825 37.8C76.4825 38.76 76.0025 39.24 75.0425 39.24ZM71.8425 39.24C70.8825 39.24 70.4025 38.76 70.4025 37.8C70.4025 36.84 70.8825 36.36 71.8425 36.36C72.8025 36.36 73.2825 36.84 73.2825 37.8C73.2825 38.76 72.8025 39.24 71.8425 39.24ZM68.6425 39.24C67.6825 39.24 67.2025 38.76 67.2025 37.8C67.2025 36.84 67.6825 36.36 68.6425 36.36C69.6025 36.36 70.0825 36.84 70.0825 37.8C70.0825 38.76 69.6025 39.24 68.6425 39.24ZM57.2825 39.24H54.4025V36.36H57.2825V39.24ZM54.0825 39.24H51.2025V36.36H54.0825V39.24ZM50.8825 39.24H48.0025V36.36H50.8825V39.24ZM65.4425 36.68L66.5625 38.92H64.3225L65.4425 36.68ZM62.2425 36.68L63.3625 38.92H61.1225L62.2425 36.68ZM59.0425 36.68L60.1625 38.92H57.9225L59.0425 36.68ZM27.0425 58.6L25.4425 57L27.0425 55.4L25.4425 53.8L27.0425 52.2L25.4425 50.6L27.0425 49L25.2825 47.4L27.0425 45.64L28.6425 47.24L30.0825 45.8L28.4825 44.2L30.2425 42.44L31.8425 44.04L33.4425 42.44L35.0425 44.04L36.6425 42.44H35.2025V39.56H38.0825V42.44H36.6425L38.2425 44.04L39.8425 42.44H38.4025V39.56H41.2825V42.44H39.8425L41.4425 44.04L43.0425 42.44H41.6025V39.56H44.4825V42.44H43.0425L44.6425 44.04L46.2425 42.44H44.8025V39.56H47.6825V42.44H46.2425L47.8425 44.04L49.4425 42.44L51.0425 44.04L52.6425 42.44L54.2425 44.04L55.8425 42.44L57.6025 44.2L56.0025 45.8L57.6025 47.4L55.8425 49L57.4425 50.6L55.8425 52.2L57.4425 53.8L55.8425 55.4L57.4425 57L55.8425 58.6L54.2425 57L52.6425 58.6L51.0425 57L49.4425 58.6L47.8425 57L46.2425 58.6L44.6425 57L43.0425 58.6L41.4425 57L39.8425 58.6L38.2425 57L36.6425 58.6L35.0425 57L33.4425 58.6L31.8425 57L30.2425 58.6L28.6425 57L27.0425 58.6ZM78.2425 42.44C77.2825 42.44 76.8025 41.96 76.8025 41C76.8025 40.04 77.2825 39.56 78.2425 39.56C79.2025 39.56 79.6825 40.04 79.6825 41C79.6825 41.96 79.2025 42.44 78.2425 42.44ZM75.0425 42.44C74.0825 42.44 73.6025 41.96 73.6025 41C73.6025 40.04 74.0825 39.56 75.0425 39.56C76.0025 39.56 76.4825 40.04 76.4825 41C76.4825 41.96 76.0025 42.44 75.0425 42.44ZM71.8425 42.44C70.8825 42.44 70.4025 41.96 70.4025 41C70.4025 40.04 70.8825 39.56 71.8425 39.56C72.8025 39.56 73.2825 40.04 73.2825 41C73.2825 41.96 72.8025 42.44 71.8425 42.44ZM68.6425 42.44C67.6825 42.44 67.2025 41.96 67.2025 41C67.2025 40.04 67.6825 39.56 68.6425 39.56C69.6025 39.56 70.0825 40.04 70.0825 41C70.0825 41.96 69.6025 42.44 68.6425 42.44ZM57.2825 42.44H54.4025V39.56H57.2825V42.44ZM54.0825 42.44H51.2025V39.56H54.0825V42.44ZM50.8825 42.44H48.0025V39.56H50.8825V42.44ZM65.4425 40.04L66.4025 41.96H64.4825L65.4425 40.04ZM62.2425 40.04L63.2025 41.96H61.2825L62.2425 40.04ZM59.0425 40.04L60.0025 41.96H58.0825L59.0425 40.04ZM62.2425 42.92L63.5225 45.48H60.9625L62.2425 42.92ZM59.0425 42.92L60.3225 45.48H57.7625L59.0425 42.92ZM71.8425 45.48C70.9892 45.48 70.5625 45.0533 70.5625 44.2C70.5625 43.3467 70.9892 42.92 71.8425 42.92C72.6958 42.92 73.1225 43.3467 73.1225 44.2C73.1225 45.0533 72.6958 45.48 71.8425 45.48ZM68.6425 45.48C67.7892 45.48 67.3625 45.0533 67.3625 44.2C67.3625 43.3467 67.7892 42.92 68.6425 42.92C69.4958 42.92 69.9225 43.3467 69.9225 44.2C69.9225 45.0533 69.4958 45.48 68.6425 45.48ZM65.4425 43.08L66.5625 45.32H64.3225L65.4425 43.08ZM30.4025 45.8L31.8425 47.24L33.2825 45.8L31.8425 44.36L30.4025 45.8ZM33.6025 45.8L35.0425 47.24L36.4825 45.8L35.0425 44.36L33.6025 45.8ZM36.8025 45.8L38.2425 47.24L39.6825 45.8L38.2425 44.36L36.8025 45.8ZM40.0025 45.8L41.4425 47.24L42.8825 45.8L41.4425 44.36L40.0025 45.8ZM43.2025 45.8L44.6425 47.24L46.0825 45.8L44.6425 44.36L43.2025 45.8ZM46.4025 45.8L47.8425 47.24L49.2825 45.8L47.8425 44.36L46.4025 45.8ZM49.6025 45.8L51.0425 47.24L52.4825 45.8L51.0425 44.36L49.6025 45.8ZM52.8025 45.8L54.2425 47.24L55.6825 45.8L54.2425 44.36L52.8025 45.8ZM62.2425 46.12L63.5225 48.68H60.9625L62.2425 46.12ZM59.0425 46.12L60.3225 48.68H57.7625L59.0425 46.12ZM81.4425 48.68C80.5892 48.68 80.1625 48.2533 80.1625 47.4C80.1625 46.5467 80.5892 46.12 81.4425 46.12C82.2958 46.12 82.7225 46.5467 82.7225 47.4C82.7225 48.2533 82.2958 48.68 81.4425 48.68ZM78.2425 48.68C77.3892 48.68 76.9625 48.2533 76.9625 47.4C76.9625 46.5467 77.3892 46.12 78.2425 46.12C79.0958 46.12 79.5225 46.5467 79.5225 47.4C79.5225 48.2533 79.0958 48.68 78.2425 48.68ZM75.0425 48.68C74.1892 48.68 73.7625 48.2533 73.7625 47.4C73.7625 46.5467 74.1892 46.12 75.0425 46.12C75.8958 46.12 76.3225 46.5467 76.3225 47.4C76.3225 48.2533 75.8958 48.68 75.0425 48.68ZM71.8425 48.68C70.9892 48.68 70.5625 48.2533 70.5625 47.4C70.5625 46.5467 70.9892 46.12 71.8425 46.12C72.6958 46.12 73.1225 46.5467 73.1225 47.4C73.1225 48.2533 72.6958 48.68 71.8425 48.68ZM68.6425 48.68C67.7892 48.68 67.3625 48.2533 67.3625 47.4C67.3625 46.5467 67.7892 46.12 68.6425 46.12C69.4958 46.12 69.9225 46.5467 69.9225 47.4C69.9225 48.2533 69.4958 48.68 68.6425 48.68ZM65.4425 46.28L66.5625 48.52H64.3225L65.4425 46.28ZM27.0425 49L28.6425 50.6L30.2425 49L28.6425 47.56L27.0425 49ZM30.2425 49L31.8425 50.6L33.4425 49L31.8425 47.56L30.2425 49ZM33.4425 49L35.0425 50.6L36.6425 49L35.0425 47.56L33.4425 49ZM36.6425 49L38.2425 50.6L39.8425 49L38.2425 47.56L36.6425 49ZM39.8425 49L41.4425 50.6L43.0425 49L41.4425 47.56L39.8425 49ZM43.0425 49L44.6425 50.6L46.2425 49L44.6425 47.56L43.0425 49ZM46.2425 49L47.8425 50.6L49.4425 49L47.8425 47.56L46.2425 49ZM49.4425 49L51.0425 50.6L52.6425 49L51.0425 47.56L49.4425 49ZM52.6425 49L54.2425 50.6L55.8425 49L54.2425 47.56L52.6425 49ZM65.4425 49L67.0425 52.2H65.4425L67.0425 55.4H65.4425L67.0425 58.6H63.8425L65.4425 55.4H63.8425L65.4425 52.2H63.8425L65.4425 49ZM62.2425 49.32L63.5225 51.88H60.9625L62.2425 49.32ZM59.0425 49.32L60.3225 51.88H57.7625L59.0425 49.32ZM87.8425 51.72C87.0958 51.72 86.7225 51.3467 86.7225 50.6C86.7225 49.8533 87.0958 49.48 87.8425 49.48C88.5892 49.48 88.9625 49.8533 88.9625 50.6C88.9625 51.3467 88.5892 51.72 87.8425 51.72ZM84.6425 51.72C83.8958 51.72 83.5225 51.3467 83.5225 50.6C83.5225 49.8533 83.8958 49.48 84.6425 49.48C85.3892 49.48 85.7625 49.8533 85.7625 50.6C85.7625 51.3467 85.3892 51.72 84.6425 51.72ZM81.4425 51.72C80.6958 51.72 80.3225 51.3467 80.3225 50.6C80.3225 49.8533 80.6958 49.48 81.4425 49.48C82.1892 49.48 82.5625 49.8533 82.5625 50.6C82.5625 51.3467 82.1892 51.72 81.4425 51.72ZM78.2425 51.72C77.4958 51.72 77.1225 51.3467 77.1225 50.6C77.1225 49.8533 77.4958 49.48 78.2425 49.48C78.9892 49.48 79.3625 49.8533 79.3625 50.6C79.3625 51.3467 78.9892 51.72 78.2425 51.72ZM75.0425 51.72C74.2958 51.72 73.9225 51.3467 73.9225 50.6C73.9225 49.8533 74.2958 49.48 75.0425 49.48C75.7892 49.48 76.1625 49.8533 76.1625 50.6C76.1625 51.3467 75.7892 51.72 75.0425 51.72ZM71.8425 51.72C71.0958 51.72 70.7225 51.3467 70.7225 50.6C70.7225 49.8533 71.0958 49.48 71.8425 49.48C72.5892 49.48 72.9625 49.8533 72.9625 50.6C72.9625 51.3467 72.5892 51.72 71.8425 51.72ZM68.6425 51.72C67.8958 51.72 67.5225 51.3467 67.5225 50.6C67.5225 49.8533 67.8958 49.48 68.6425 49.48C69.3892 49.48 69.7625 49.8533 69.7625 50.6C69.7625 51.3467 69.3892 51.72 68.6425 51.72ZM27.0425 52.2L28.6425 53.8L30.2425 52.2L28.6425 50.6L27.0425 52.2ZM30.2425 52.2L31.8425 53.8L33.4425 52.2L31.8425 50.6L30.2425 52.2ZM33.4425 52.2L35.0425 53.8L36.6425 52.2L35.0425 50.6L33.4425 52.2ZM36.6425 52.2L38.2425 53.8L39.8425 52.2L38.2425 50.6L36.6425 52.2ZM39.8425 52.2L41.4425 53.8L43.0425 52.2L41.4425 50.6L39.8425 52.2ZM43.0425 52.2L44.6425 53.8L46.2425 52.2L44.6425 50.6L43.0425 52.2ZM46.2425 52.2L47.8425 53.8L49.4425 52.2L47.8425 50.6L46.2425 52.2ZM49.4425 52.2L51.0425 53.8L52.6425 52.2L51.0425 50.6L49.4425 52.2ZM52.6425 52.2L54.2425 53.8L55.8425 52.2L54.2425 50.6L52.6425 52.2ZM91.0425 52.36L92.4825 55.24H89.6025L91.0425 52.36ZM87.8425 52.36L89.2825 55.24H86.4025L87.8425 52.36ZM84.6425 52.36L86.0825 55.24H83.2025L84.6425 52.36ZM81.4425 52.36L82.8825 55.24H80.0025L81.4425 52.36ZM78.2425 52.36L79.6825 55.24H76.8025L78.2425 52.36ZM75.0425 52.36L76.4825 55.24H73.6025L75.0425 52.36ZM71.8425 52.36L73.2825 55.24H70.4025L71.8425 52.36ZM68.6425 52.36L70.0825 55.24H67.2025L68.6425 52.36ZM62.2425 52.52L63.5225 55.08H60.9625L62.2425 52.52ZM59.0425 52.52L60.3225 55.08H57.7625L59.0425 52.52ZM27.0425 55.4L28.6425 57L30.2425 55.4L28.6425 53.8L27.0425 55.4ZM30.2425 55.4L31.8425 57L33.4425 55.4L31.8425 53.8L30.2425 55.4ZM33.4425 55.4L35.0425 57L36.6425 55.4L35.0425 53.8L33.4425 55.4ZM36.6425 55.4L38.2425 57L39.8425 55.4L38.2425 53.8L36.6425 55.4ZM39.8425 55.4L41.4425 57L43.0425 55.4L41.4425 53.8L39.8425 55.4ZM43.0425 55.4L44.6425 57L46.2425 55.4L44.6425 53.8L43.0425 55.4ZM46.2425 55.4L47.8425 57L49.4425 55.4L47.8425 53.8L46.2425 55.4ZM49.4425 55.4L51.0425 57L52.6425 55.4L51.0425 53.8L49.4425 55.4ZM52.6425 55.4L54.2425 57L55.8425 55.4L54.2425 53.8L52.6425 55.4ZM94.2425 55.56L95.6825 58.44H92.8025L94.2425 55.56ZM91.0425 55.56L92.4825 58.44H89.6025L91.0425 55.56ZM87.8425 55.56L89.2825 58.44H86.4025L87.8425 55.56ZM84.6425 55.56L86.0825 58.44H83.2025L84.6425 55.56ZM81.4425 55.56L82.8825 58.44H80.0025L81.4425 55.56ZM78.2425 55.56L79.6825 58.44H76.8025L78.2425 55.56ZM75.0425 55.56L76.4825 58.44H73.6025L75.0425 55.56ZM71.8425 55.56L73.2825 58.44H70.4025L71.8425 55.56ZM68.6425 55.56L70.0825 58.44H67.2025L68.6425 55.56ZM62.2425 55.72L63.5225 58.28H60.9625L62.2425 55.72ZM59.0425 55.72L60.3225 58.28H57.7625L59.0425 55.72ZM65.4425 58.6L67.0425 61.8H63.8425L65.4425 58.6ZM55.8425 61.8L54.2425 60.2L55.8425 58.6L57.4425 60.2L55.8425 61.8ZM52.6425 61.8L51.0425 60.2L52.6425 58.6L54.2425 60.2L52.6425 61.8ZM49.4425 61.8L47.8425 60.2L49.4425 58.6L51.0425 60.2L49.4425 61.8ZM46.2425 61.8L44.6425 60.2L46.2425 58.6L47.8425 60.2L46.2425 61.8ZM43.0425 61.8L41.4425 60.2L43.0425 58.6L44.6425 60.2L43.0425 61.8ZM39.8425 61.8L38.2425 60.2L39.8425 58.6L41.4425 60.2L39.8425 61.8ZM36.6425 61.8L35.0425 60.2L36.6425 58.6L38.2425 60.2L36.6425 61.8ZM33.4425 61.8L31.8425 60.2L33.4425 58.6L35.0425 60.2L33.4425 61.8ZM30.2425 61.8L28.6425 60.2L30.2425 58.6L31.8425 60.2L30.2425 61.8ZM27.0425 61.8L25.4425 60.2L27.0425 58.6L28.6425 60.2L27.0425 61.8ZM97.4425 58.76L98.8825 61.64H96.0025L97.4425 58.76ZM94.2425 58.76L95.6825 61.64H92.8025L94.2425 58.76ZM91.0425 58.76L92.4825 61.64H89.6025L91.0425 58.76ZM87.8425 58.76L89.2825 61.64H86.4025L87.8425 58.76ZM84.6425 58.76L86.0825 61.64H83.2025L84.6425 58.76ZM81.4425 58.76L82.8825 61.64H80.0025L81.4425 58.76ZM78.2425 58.76L79.6825 61.64H76.8025L78.2425 58.76ZM75.0425 58.76L76.4825 61.64H73.6025L75.0425 58.76ZM71.8425 58.76L73.2825 61.64H70.4025L71.8425 58.76ZM68.6425 58.76L70.0825 61.64H67.2025L68.6425 58.76ZM62.2425 59.08L63.3625 61.32H61.1225L62.2425 59.08ZM59.0425 59.08L60.1625 61.32H57.9225L59.0425 59.08ZM65.4425 61.8L67.0425 65H63.8425L65.4425 61.8ZM55.8425 65L54.2425 63.4L55.8425 61.8L57.4425 63.4L55.8425 65ZM52.6425 65L51.0425 63.4L52.6425 61.8L54.2425 63.4L52.6425 65ZM49.4425 65L47.8425 63.4L49.4425 61.8L51.0425 63.4L49.4425 65ZM46.2425 65L44.6425 63.4L46.2425 61.8L47.8425 63.4L46.2425 65ZM43.0425 65L41.4425 63.4L43.0425 61.8L44.6425 63.4L43.0425 65ZM39.8425 65L38.2425 63.4L39.8425 61.8L41.4425 63.4L39.8425 65ZM36.6425 65L35.0425 63.4L36.6425 61.8L38.2425 63.4L36.6425 65ZM33.4425 65L31.8425 63.4L33.4425 61.8L35.0425 63.4L33.4425 65ZM30.2425 65L28.6425 63.4L30.2425 61.8L31.8425 63.4L30.2425 65ZM27.0425 65L25.4425 63.4L27.0425 61.8L28.6425 63.4L27.0425 65ZM97.4425 61.96L98.8825 64.84H96.0025L97.4425 61.96ZM94.2425 61.96L95.6825 64.84H92.8025L94.2425 61.96ZM91.0425 61.96L92.4825 64.84H89.6025L91.0425 61.96ZM87.8425 61.96L89.2825 64.84H86.4025L87.8425 61.96ZM84.6425 61.96L86.0825 64.84H83.2025L84.6425 61.96ZM81.4425 61.96L82.8825 64.84H80.0025L81.4425 61.96ZM78.2425 61.96L79.6825 64.84H76.8025L78.2425 61.96ZM75.0425 61.96L76.4825 64.84H73.6025L75.0425 61.96ZM71.8425 61.96L73.2825 64.84H70.4025L71.8425 61.96ZM68.6425 61.96L70.0825 64.84H67.2025L68.6425 61.96ZM62.2425 62.28L63.3625 64.52H61.1225L62.2425 62.28ZM59.0425 62.28L60.1625 64.52H57.9225L59.0425 62.28ZM84.6425 68.2C83.5758 68.2 83.0425 67.6667 83.0425 66.6C83.0425 65.5333 83.5758 65 84.6425 65C85.7092 65 86.2425 65.5333 86.2425 66.6C86.2425 67.6667 85.7092 68.2 84.6425 68.2ZM81.4425 68.2C80.3758 68.2 79.8425 67.6667 79.8425 66.6C79.8425 65.5333 80.3758 65 81.4425 65C82.5092 65 83.0425 65.5333 83.0425 66.6C83.0425 67.6667 82.5092 68.2 81.4425 68.2ZM78.2425 68.2C77.1758 68.2 76.6425 67.6667 76.6425 66.6C76.6425 65.5333 77.1758 65 78.2425 65C79.3092 65 79.8425 65.5333 79.8425 66.6C79.8425 67.6667 79.3092 68.2 78.2425 68.2ZM75.0425 68.2C73.9758 68.2 73.4425 67.6667 73.4425 66.6C73.4425 65.5333 73.9758 65 75.0425 65C76.1092 65 76.6425 65.5333 76.6425 66.6C76.6425 67.6667 76.1092 68.2 75.0425 68.2ZM71.8425 68.2C70.7758 68.2 70.2425 67.6667 70.2425 66.6C70.2425 65.5333 70.7758 65 71.8425 65C72.9092 65 73.4425 65.5333 73.4425 66.6C73.4425 67.6667 72.9092 68.2 71.8425 68.2ZM68.6425 68.2C67.5758 68.2 67.0425 67.6667 67.0425 66.6C67.0425 65.5333 67.5758 65 68.6425 65C69.7092 65 70.2425 65.5333 70.2425 66.6C70.2425 67.6667 69.7092 68.2 68.6425 68.2ZM65.4425 65L67.0425 68.2H63.8425L65.4425 65ZM55.8425 68.2L54.2425 66.6L55.8425 65L57.4425 66.6L55.8425 68.2ZM52.6425 68.2L51.0425 66.6L52.6425 65L54.2425 66.6L52.6425 68.2ZM49.4425 68.2L47.8425 66.6L49.4425 65L51.0425 66.6L49.4425 68.2ZM46.2425 68.2L44.6425 66.6L46.2425 65L47.8425 66.6L46.2425 68.2ZM43.0425 68.2L41.4425 66.6L43.0425 65L44.6425 66.6L43.0425 68.2ZM39.8425 68.2L38.2425 66.6L39.8425 65L41.4425 66.6L39.8425 68.2ZM36.6425 68.2L35.0425 66.6L36.6425 65L38.2425 66.6L36.6425 68.2ZM33.4425 68.2L31.8425 66.6L33.4425 65L35.0425 66.6L33.4425 68.2ZM30.2425 68.2L28.6425 66.6L30.2425 65L31.8425 66.6L30.2425 68.2ZM62.2425 65.48L63.3625 67.72H61.1225L62.2425 65.48ZM59.0425 65.48L60.1625 67.72H57.9225L59.0425 65.48ZM97.4425 67.72L96.3225 66.6L97.4425 65.48L98.5625 66.6L97.4425 67.72ZM94.2425 67.72L93.1225 66.6L94.2425 65.48L95.3625 66.6L94.2425 67.72ZM91.0425 67.72L89.9225 66.6L91.0425 65.48L92.1625 66.6L91.0425 67.72ZM87.8425 67.72L86.7225 66.6L87.8425 65.48L88.9625 66.6L87.8425 67.72ZM100.643 67.56L99.6825 66.6L100.643 65.64L101.603 66.6L100.643 67.56ZM84.6425 71.24C83.6825 71.24 83.2025 70.76 83.2025 69.8C83.2025 68.84 83.6825 68.36 84.6425 68.36C85.6025 68.36 86.0825 68.84 86.0825 69.8C86.0825 70.76 85.6025 71.24 84.6425 71.24ZM81.4425 71.24C80.4825 71.24 80.0025 70.76 80.0025 69.8C80.0025 68.84 80.4825 68.36 81.4425 68.36C82.4025 68.36 82.8825 68.84 82.8825 69.8C82.8825 70.76 82.4025 71.24 81.4425 71.24ZM78.2425 71.24C77.2825 71.24 76.8025 70.76 76.8025 69.8C76.8025 68.84 77.2825 68.36 78.2425 68.36C79.2025 68.36 79.6825 68.84 79.6825 69.8C79.6825 70.76 79.2025 71.24 78.2425 71.24ZM75.0425 71.24C74.0825 71.24 73.6025 70.76 73.6025 69.8C73.6025 68.84 74.0825 68.36 75.0425 68.36C76.0025 68.36 76.4825 68.84 76.4825 69.8C76.4825 70.76 76.0025 71.24 75.0425 71.24ZM71.8425 71.24C70.8825 71.24 70.4025 70.76 70.4025 69.8C70.4025 68.84 70.8825 68.36 71.8425 68.36C72.8025 68.36 73.2825 68.84 73.2825 69.8C73.2825 70.76 72.8025 71.24 71.8425 71.24ZM68.6425 71.24C67.6825 71.24 67.2025 70.76 67.2025 69.8C67.2025 68.84 67.6825 68.36 68.6425 68.36C69.6025 68.36 70.0825 68.84 70.0825 69.8C70.0825 70.76 69.6025 71.24 68.6425 71.24ZM65.4425 68.36L66.8825 71.24H64.0025L65.4425 68.36ZM62.2425 68.68L63.3625 70.92H61.1225L62.2425 68.68ZM59.0425 68.68L60.1625 70.92H57.9225L59.0425 68.68ZM97.4425 70.76L96.4825 69.8L97.4425 68.84L98.4025 69.8L97.4425 70.76ZM94.2425 70.76L93.2825 69.8L94.2425 68.84L95.2025 69.8L94.2425 70.76ZM91.0425 70.76L90.0825 69.8L91.0425 68.84L92.0025 69.8L91.0425 70.76ZM87.8425 70.76L86.8825 69.8L87.8425 68.84L88.8025 69.8L87.8425 70.76ZM100.643 70.6L99.8425 69.8L100.643 69L101.443 69.8L100.643 70.6ZM84.6425 74.44C83.6825 74.44 83.2025 73.96 83.2025 73C83.2025 72.04 83.6825 71.56 84.6425 71.56C85.6025 71.56 86.0825 72.04 86.0825 73C86.0825 73.96 85.6025 74.44 84.6425 74.44ZM81.4425 74.44C80.4825 74.44 80.0025 73.96 80.0025 73C80.0025 72.04 80.4825 71.56 81.4425 71.56C82.4025 71.56 82.8825 72.04 82.8825 73C82.8825 73.96 82.4025 74.44 81.4425 74.44ZM78.2425 74.44C77.2825 74.44 76.8025 73.96 76.8025 73C76.8025 72.04 77.2825 71.56 78.2425 71.56C79.2025 71.56 79.6825 72.04 79.6825 73C79.6825 73.96 79.2025 74.44 78.2425 74.44ZM75.0425 74.44C74.0825 74.44 73.6025 73.96 73.6025 73C73.6025 72.04 74.0825 71.56 75.0425 71.56C76.0025 71.56 76.4825 72.04 76.4825 73C76.4825 73.96 76.0025 74.44 75.0425 74.44ZM71.8425 74.44C70.8825 74.44 70.4025 73.96 70.4025 73C70.4025 72.04 70.8825 71.56 71.8425 71.56C72.8025 71.56 73.2825 72.04 73.2825 73C73.2825 73.96 72.8025 74.44 71.8425 74.44ZM68.6425 74.44C67.6825 74.44 67.2025 73.96 67.2025 73C67.2025 72.04 67.6825 71.56 68.6425 71.56C69.6025 71.56 70.0825 72.04 70.0825 73C70.0825 73.96 69.6025 74.44 68.6425 74.44ZM65.4425 71.56L66.8825 74.44H64.0025L65.4425 71.56ZM62.2425 71.88L63.3625 74.12H61.1225L62.2425 71.88ZM97.4425 73.96L96.4825 73L97.4425 72.04L98.4025 73L97.4425 73.96ZM94.2425 73.96L93.2825 73L94.2425 72.04L95.2025 73L94.2425 73.96ZM91.0425 73.96L90.0825 73L91.0425 72.04L92.0025 73L91.0425 73.96ZM87.8425 73.96L86.8825 73L87.8425 72.04L88.8025 73L87.8425 73.96ZM100.643 73.8L99.8425 73L100.643 72.2L101.443 73L100.643 73.8ZM84.6425 77.64C83.6825 77.64 83.2025 77.16 83.2025 76.2C83.2025 75.24 83.6825 74.76 84.6425 74.76C85.6025 74.76 86.0825 75.24 86.0825 76.2C86.0825 77.16 85.6025 77.64 84.6425 77.64ZM81.4425 77.64C80.4825 77.64 80.0025 77.16 80.0025 76.2C80.0025 75.24 80.4825 74.76 81.4425 74.76C82.4025 74.76 82.8825 75.24 82.8825 76.2C82.8825 77.16 82.4025 77.64 81.4425 77.64ZM78.2425 77.64C77.2825 77.64 76.8025 77.16 76.8025 76.2C76.8025 75.24 77.2825 74.76 78.2425 74.76C79.2025 74.76 79.6825 75.24 79.6825 76.2C79.6825 77.16 79.2025 77.64 78.2425 77.64ZM75.0425 77.64C74.0825 77.64 73.6025 77.16 73.6025 76.2C73.6025 75.24 74.0825 74.76 75.0425 74.76C76.0025 74.76 76.4825 75.24 76.4825 76.2C76.4825 77.16 76.0025 77.64 75.0425 77.64ZM71.8425 77.64C70.8825 77.64 70.4025 77.16 70.4025 76.2C70.4025 75.24 70.8825 74.76 71.8425 74.76C72.8025 74.76 73.2825 75.24 73.2825 76.2C73.2825 77.16 72.8025 77.64 71.8425 77.64ZM68.6425 77.64C67.6825 77.64 67.2025 77.16 67.2025 76.2C67.2025 75.24 67.6825 74.76 68.6425 74.76C69.6025 74.76 70.0825 75.24 70.0825 76.2C70.0825 77.16 69.6025 77.64 68.6425 77.64ZM65.4425 74.76L66.8825 77.64H64.0025L65.4425 74.76ZM100.643 77.48L99.3625 76.2L100.643 74.92L101.923 76.2L100.643 77.48ZM62.2425 75.08L63.3625 77.32H61.1225L62.2425 75.08ZM97.4425 77.16L96.4825 76.2L97.4425 75.24L98.4025 76.2L97.4425 77.16ZM94.2425 77.16L93.2825 76.2L94.2425 75.24L95.2025 76.2L94.2425 77.16ZM91.0425 77.16L90.0825 76.2L91.0425 75.24L92.0025 76.2L91.0425 77.16ZM87.8425 77.16L86.8825 76.2L87.8425 75.24L88.8025 76.2L87.8425 77.16ZM84.6425 80.84C83.6825 80.84 83.2025 80.36 83.2025 79.4C83.2025 78.44 83.6825 77.96 84.6425 77.96C85.6025 77.96 86.0825 78.44 86.0825 79.4C86.0825 80.36 85.6025 80.84 84.6425 80.84ZM81.4425 80.84C80.4825 80.84 80.0025 80.36 80.0025 79.4C80.0025 78.44 80.4825 77.96 81.4425 77.96C82.4025 77.96 82.8825 78.44 82.8825 79.4C82.8825 80.36 82.4025 80.84 81.4425 80.84ZM78.2425 80.84C77.2825 80.84 76.8025 80.36 76.8025 79.4C76.8025 78.44 77.2825 77.96 78.2425 77.96C79.2025 77.96 79.6825 78.44 79.6825 79.4C79.6825 80.36 79.2025 80.84 78.2425 80.84ZM75.0425 80.84C74.0825 80.84 73.6025 80.36 73.6025 79.4C73.6025 78.44 74.0825 77.96 75.0425 77.96C76.0025 77.96 76.4825 78.44 76.4825 79.4C76.4825 80.36 76.0025 80.84 75.0425 80.84ZM71.8425 80.84C70.8825 80.84 70.4025 80.36 70.4025 79.4C70.4025 78.44 70.8825 77.96 71.8425 77.96C72.8025 77.96 73.2825 78.44 73.2825 79.4C73.2825 80.36 72.8025 80.84 71.8425 80.84ZM68.6425 80.84C67.6825 80.84 67.2025 80.36 67.2025 79.4C67.2025 78.44 67.6825 77.96 68.6425 77.96C69.6025 77.96 70.0825 78.44 70.0825 79.4C70.0825 80.36 69.6025 80.84 68.6425 80.84ZM65.4425 77.96L66.8825 80.84H64.0025L65.4425 77.96ZM36.6425 80.84L35.2025 79.4L36.6425 77.96L38.0825 79.4L36.6425 80.84ZM33.4425 80.84L32.0025 79.4L33.4425 77.96L34.8825 79.4L33.4425 80.84ZM30.2425 80.84L28.8025 79.4L30.2425 77.96L31.6825 79.4L30.2425 80.84ZM27.0425 80.84L25.6025 79.4L27.0425 77.96L28.4825 79.4L27.0425 80.84ZM23.8425 80.84L22.4025 79.4L23.8425 77.96L25.2825 79.4L23.8425 80.84ZM20.6425 80.84L19.2025 79.4L20.6425 77.96L22.0825 79.4L20.6425 80.84ZM17.4425 80.84L16.0025 79.4L17.4425 77.96L18.8825 79.4L17.4425 80.84ZM14.2425 80.84L12.8025 79.4L14.2425 77.96L15.6825 79.4L14.2425 80.84ZM11.0425 80.84L9.6025 79.4L11.0425 77.96L12.4825 79.4L11.0425 80.84ZM7.8425 80.84L6.4025 79.4L7.8425 77.96L9.2825 79.4L7.8425 80.84ZM4.6425 80.84L3.2025 79.4L4.6425 77.96L6.0825 79.4L4.6425 80.84ZM1.4425 80.84L0.0025003 79.4L1.4425 77.96L2.8825 79.4L1.4425 80.84ZM100.643 80.68L99.3625 79.4L100.643 78.12L101.923 79.4L100.643 80.68ZM62.2425 78.44L63.2025 80.36H61.2825L62.2425 78.44ZM97.4425 80.36L96.4825 79.4L97.4425 78.44L98.4025 79.4L97.4425 80.36ZM94.2425 80.36L93.2825 79.4L94.2425 78.44L95.2025 79.4L94.2425 80.36ZM91.0425 80.36L90.0825 79.4L91.0425 78.44L92.0025 79.4L91.0425 80.36ZM87.8425 80.36L86.8825 79.4L87.8425 78.44L88.8025 79.4L87.8425 80.36ZM84.6425 84.04C83.6825 84.04 83.2025 83.56 83.2025 82.6C83.2025 81.64 83.6825 81.16 84.6425 81.16C85.6025 81.16 86.0825 81.64 86.0825 82.6C86.0825 83.56 85.6025 84.04 84.6425 84.04ZM81.4425 84.04C80.4825 84.04 80.0025 83.56 80.0025 82.6C80.0025 81.64 80.4825 81.16 81.4425 81.16C82.4025 81.16 82.8825 81.64 82.8825 82.6C82.8825 83.56 82.4025 84.04 81.4425 84.04ZM78.2425 84.04C77.2825 84.04 76.8025 83.56 76.8025 82.6C76.8025 81.64 77.2825 81.16 78.2425 81.16C79.2025 81.16 79.6825 81.64 79.6825 82.6C79.6825 83.56 79.2025 84.04 78.2425 84.04ZM75.0425 84.04C74.0825 84.04 73.6025 83.56 73.6025 82.6C73.6025 81.64 74.0825 81.16 75.0425 81.16C76.0025 81.16 76.4825 81.64 76.4825 82.6C76.4825 83.56 76.0025 84.04 75.0425 84.04ZM71.8425 84.04C70.8825 84.04 70.4025 83.56 70.4025 82.6C70.4025 81.64 70.8825 81.16 71.8425 81.16C72.8025 81.16 73.2825 81.64 73.2825 82.6C73.2825 83.56 72.8025 84.04 71.8425 84.04ZM68.6425 84.04C67.6825 84.04 67.2025 83.56 67.2025 82.6C67.2025 81.64 67.6825 81.16 68.6425 81.16C69.6025 81.16 70.0825 81.64 70.0825 82.6C70.0825 83.56 69.6025 84.04 68.6425 84.04ZM65.4425 81.16L66.8825 84.04H64.0025L65.4425 81.16ZM55.8425 84.04L54.4025 82.6L55.8425 81.16L57.2825 82.6L55.8425 84.04ZM43.0425 84.04L41.6025 82.6L43.0425 81.16L44.4825 82.6L43.0425 84.04ZM39.8425 84.04L38.4025 82.6L39.8425 81.16L41.2825 82.6L39.8425 84.04ZM36.6425 84.04L35.2025 82.6L36.6425 81.16L38.0825 82.6L36.6425 84.04ZM33.4425 84.04L32.0025 82.6L33.4425 81.16L34.8825 82.6L33.4425 84.04ZM30.2425 84.04L28.8025 82.6L30.2425 81.16L31.6825 82.6L30.2425 84.04ZM27.0425 84.04L25.6025 82.6L27.0425 81.16L28.4825 82.6L27.0425 84.04ZM23.8425 84.04L22.4025 82.6L23.8425 81.16L25.2825 82.6L23.8425 84.04ZM20.6425 84.04L19.2025 82.6L20.6425 81.16L22.0825 82.6L20.6425 84.04ZM17.4425 84.04L16.0025 82.6L17.4425 81.16L18.8825 82.6L17.4425 84.04ZM14.2425 84.04L12.8025 82.6L14.2425 81.16L15.6825 82.6L14.2425 84.04ZM11.0425 84.04L9.6025 82.6L11.0425 81.16L12.4825 82.6L11.0425 84.04ZM7.8425 84.04L6.4025 82.6L7.8425 81.16L9.2825 82.6L7.8425 84.04ZM4.6425 84.04L3.2025 82.6L4.6425 81.16L6.0825 82.6L4.6425 84.04ZM1.4425 84.04L0.0025003 82.6L1.4425 81.16L2.8825 82.6L1.4425 84.04ZM100.643 83.88L99.3625 82.6L100.643 81.32L101.923 82.6L100.643 83.88ZM62.2425 81.64L63.2025 83.56H61.2825L62.2425 81.64ZM59.0425 81.64L60.0025 83.56H58.0825L59.0425 81.64ZM97.4425 83.56L96.4825 82.6L97.4425 81.64L98.4025 82.6L97.4425 83.56ZM94.2425 83.56L93.2825 82.6L94.2425 81.64L95.2025 82.6L94.2425 83.56ZM91.0425 83.56L90.0825 82.6L91.0425 81.64L92.0025 82.6L91.0425 83.56ZM87.8425 83.56L86.8825 82.6L87.8425 81.64L88.8025 82.6L87.8425 83.56ZM84.6425 87.24C83.6825 87.24 83.2025 86.76 83.2025 85.8C83.2025 84.84 83.6825 84.36 84.6425 84.36C85.6025 84.36 86.0825 84.84 86.0825 85.8C86.0825 86.76 85.6025 87.24 84.6425 87.24ZM81.4425 87.24C80.4825 87.24 80.0025 86.76 80.0025 85.8C80.0025 84.84 80.4825 84.36 81.4425 84.36C82.4025 84.36 82.8825 84.84 82.8825 85.8C82.8825 86.76 82.4025 87.24 81.4425 87.24ZM78.2425 87.24C77.2825 87.24 76.8025 86.76 76.8025 85.8C76.8025 84.84 77.2825 84.36 78.2425 84.36C79.2025 84.36 79.6825 84.84 79.6825 85.8C79.6825 86.76 79.2025 87.24 78.2425 87.24ZM75.0425 87.24C74.0825 87.24 73.6025 86.76 73.6025 85.8C73.6025 84.84 74.0825 84.36 75.0425 84.36C76.0025 84.36 76.4825 84.84 76.4825 85.8C76.4825 86.76 76.0025 87.24 75.0425 87.24ZM71.8425 87.24C70.8825 87.24 70.4025 86.76 70.4025 85.8C70.4025 84.84 70.8825 84.36 71.8425 84.36C72.8025 84.36 73.2825 84.84 73.2825 85.8C73.2825 86.76 72.8025 87.24 71.8425 87.24ZM68.6425 87.24C67.6825 87.24 67.2025 86.76 67.2025 85.8C67.2025 84.84 67.6825 84.36 68.6425 84.36C69.6025 84.36 70.0825 84.84 70.0825 85.8C70.0825 86.76 69.6025 87.24 68.6425 87.24ZM65.4425 84.36L66.8825 87.24H64.0025L65.4425 84.36ZM55.8425 87.24L54.4025 85.8L55.8425 84.36L57.2825 85.8L55.8425 87.24ZM52.6425 87.24L51.2025 85.8L52.6425 84.36L54.0825 85.8L52.6425 87.24ZM49.4425 87.24L48.0025 85.8L49.4425 84.36L50.8825 85.8L49.4425 87.24ZM46.2425 87.24L44.8025 85.8L46.2425 84.36L47.6825 85.8L46.2425 87.24ZM43.0425 87.24L41.6025 85.8L43.0425 84.36L44.4825 85.8L43.0425 87.24ZM39.8425 87.24L38.4025 85.8L39.8425 84.36L41.2825 85.8L39.8425 87.24ZM36.6425 87.24L35.2025 85.8L36.6425 84.36L38.0825 85.8L36.6425 87.24ZM33.4425 87.24L32.0025 85.8L33.4425 84.36L34.8825 85.8L33.4425 87.24ZM30.2425 87.24L28.8025 85.8L30.2425 84.36L31.6825 85.8L30.2425 87.24ZM27.0425 87.24L25.6025 85.8L27.0425 84.36L28.4825 85.8L27.0425 87.24ZM23.8425 87.24L22.4025 85.8L23.8425 84.36L25.2825 85.8L23.8425 87.24ZM20.6425 87.24L19.2025 85.8L20.6425 84.36L22.0825 85.8L20.6425 87.24ZM17.4425 87.24L16.0025 85.8L17.4425 84.36L18.8825 85.8L17.4425 87.24ZM14.2425 87.24L12.8025 85.8L14.2425 84.36L15.6825 85.8L14.2425 87.24ZM11.0425 87.24L9.6025 85.8L11.0425 84.36L12.4825 85.8L11.0425 87.24ZM7.8425 87.08L6.5625 85.8L7.8425 84.36L9.2825 85.8L7.8425 87.08ZM4.6425 87.08L3.3625 85.8L4.6425 84.52L5.9225 85.8L4.6425 87.08ZM1.4425 87.08L0.1625 85.8L1.4425 84.52L2.7225 85.8L1.4425 87.08ZM100.643 87.08L99.3625 85.8L100.643 84.52L101.923 85.8L100.643 87.08ZM62.2425 84.84L63.2025 86.76H61.2825L62.2425 84.84ZM59.0425 84.84L60.0025 86.76H58.0825L59.0425 84.84ZM97.4425 86.76L96.4825 85.8L97.4425 84.84L98.4025 85.8L97.4425 86.76ZM94.2425 86.76L93.2825 85.8L94.2425 84.84L95.2025 85.8L94.2425 86.76ZM91.0425 86.76L90.0825 85.8L91.0425 84.84L92.0025 85.8L91.0425 86.76ZM87.8425 86.76L86.8825 85.8L87.8425 84.84L88.8025 85.8L87.8425 86.76ZM84.6425 90.28C83.7892 90.28 83.3625 89.8533 83.3625 89C83.3625 88.1467 83.7892 87.72 84.6425 87.72C85.4958 87.72 85.9225 88.1467 85.9225 89C85.9225 89.8533 85.4958 90.28 84.6425 90.28ZM81.4425 90.28C80.5892 90.28 80.1625 89.8533 80.1625 89C80.1625 88.1467 80.5892 87.72 81.4425 87.72C82.2958 87.72 82.7225 88.1467 82.7225 89C82.7225 89.8533 82.2958 90.28 81.4425 90.28ZM78.2425 90.28C77.3892 90.28 76.9625 89.8533 76.9625 89C76.9625 88.1467 77.3892 87.72 78.2425 87.72C79.0958 87.72 79.5225 88.1467 79.5225 89C79.5225 89.8533 79.0958 90.28 78.2425 90.28ZM75.0425 90.28C74.1892 90.28 73.7625 89.8533 73.7625 89C73.7625 88.1467 74.1892 87.72 75.0425 87.72C75.8958 87.72 76.3225 88.1467 76.3225 89C76.3225 89.8533 75.8958 90.28 75.0425 90.28ZM71.8425 90.28C70.9892 90.28 70.5625 89.8533 70.5625 89C70.5625 88.1467 70.9892 87.72 71.8425 87.72C72.6958 87.72 73.1225 88.1467 73.1225 89C73.1225 89.8533 72.6958 90.28 71.8425 90.28ZM68.6425 90.28C67.7892 90.28 67.3625 89.8533 67.3625 89C67.3625 88.1467 67.7892 87.72 68.6425 87.72C69.4958 87.72 69.9225 88.1467 69.9225 89C69.9225 89.8533 69.4958 90.28 68.6425 90.28ZM65.4425 87.72L66.7225 90.28H64.1625L65.4425 87.72ZM55.8425 90.28L54.5625 89L55.8425 87.72L57.1225 89L55.8425 90.28ZM52.6425 90.28L51.3625 89L52.6425 87.72L53.9225 89L52.6425 90.28ZM49.4425 90.28L48.1625 89L49.4425 87.72L50.7225 89L49.4425 90.28ZM46.2425 90.28L44.9625 89L46.2425 87.72L47.5225 89L46.2425 90.28ZM43.0425 90.28L41.7625 89L43.0425 87.72L44.3225 89L43.0425 90.28ZM39.8425 90.28L38.5625 89L39.8425 87.72L41.1225 89L39.8425 90.28ZM36.6425 90.28L35.3625 89L36.6425 87.72L37.9225 89L36.6425 90.28ZM33.4425 90.28L32.1625 89L33.4425 87.72L34.7225 89L33.4425 90.28ZM30.2425 90.28L28.9625 89L30.2425 87.72L31.5225 89L30.2425 90.28ZM27.0425 90.28L25.7625 89L27.0425 87.72L28.3225 89L27.0425 90.28ZM23.8425 90.28L22.5625 89L23.8425 87.72L25.1225 89L23.8425 90.28ZM20.6425 90.28L19.3625 89L20.6425 87.72L21.9225 89L20.6425 90.28ZM17.4425 90.28L16.1625 89L17.4425 87.72L18.7225 89L17.4425 90.28ZM14.2425 90.28L12.9625 89L14.2425 87.72L15.5225 89L14.2425 90.28ZM11.0425 90.28L9.7625 89L11.0425 87.72L12.3225 89L11.0425 90.28ZM7.8425 90.28L6.5625 89L7.8425 87.72L9.1225 89L7.8425 90.28ZM4.6425 90.28L3.3625 89L4.6425 87.72L5.9225 89L4.6425 90.28ZM1.4425 90.28L0.1625 89L1.4425 87.72L2.7225 89L1.4425 90.28ZM62.2425 88.04L63.2025 89.96H61.2825L62.2425 88.04ZM59.0425 88.04L60.0025 89.96H58.0825L59.0425 88.04ZM97.4425 89.8L96.6425 89L97.4425 88.2L98.2425 89L97.4425 89.8ZM94.2425 89.8L93.4425 89L94.2425 88.2L95.0425 89L94.2425 89.8ZM91.0425 89.8L90.2425 89L91.0425 88.2L91.8425 89L91.0425 89.8ZM87.8425 89.8L87.0425 89L87.8425 88.2L88.6425 89L87.8425 89.8ZM84.6425 93.48C83.7892 93.48 83.3625 93.0533 83.3625 92.2C83.3625 91.3467 83.7892 90.92 84.6425 90.92C85.4958 90.92 85.9225 91.3467 85.9225 92.2C85.9225 93.0533 85.4958 93.48 84.6425 93.48ZM81.4425 93.48C80.5892 93.48 80.1625 93.0533 80.1625 92.2C80.1625 91.3467 80.5892 90.92 81.4425 90.92C82.2958 90.92 82.7225 91.3467 82.7225 92.2C82.7225 93.0533 82.2958 93.48 81.4425 93.48ZM78.2425 93.48C77.3892 93.48 76.9625 93.0533 76.9625 92.2C76.9625 91.3467 77.3892 90.92 78.2425 90.92C79.0958 90.92 79.5225 91.3467 79.5225 92.2C79.5225 93.0533 79.0958 93.48 78.2425 93.48ZM75.0425 93.48C74.1892 93.48 73.7625 93.0533 73.7625 92.2C73.7625 91.3467 74.1892 90.92 75.0425 90.92C75.8958 90.92 76.3225 91.3467 76.3225 92.2C76.3225 93.0533 75.8958 93.48 75.0425 93.48ZM71.8425 93.48C70.9892 93.48 70.5625 93.0533 70.5625 92.2C70.5625 91.3467 70.9892 90.92 71.8425 90.92C72.6958 90.92 73.1225 91.3467 73.1225 92.2C73.1225 93.0533 72.6958 93.48 71.8425 93.48ZM68.6425 93.48C67.7892 93.48 67.3625 93.0533 67.3625 92.2C67.3625 91.3467 67.7892 90.92 68.6425 90.92C69.4958 90.92 69.9225 91.3467 69.9225 92.2C69.9225 93.0533 69.4958 93.48 68.6425 93.48ZM65.4425 90.92L66.7225 93.48H64.1625L65.4425 90.92ZM55.8425 93.48L54.5625 92.2L55.8425 90.92L57.1225 92.2L55.8425 93.48ZM52.6425 93.48L51.3625 92.2L52.6425 90.92L53.9225 92.2L52.6425 93.48ZM49.4425 93.48L48.1625 92.2L49.4425 90.92L50.7225 92.2L49.4425 93.48ZM46.2425 93.48L44.9625 92.2L46.2425 90.92L47.5225 92.2L46.2425 93.48ZM43.0425 93.48L41.7625 92.2L43.0425 90.92L44.3225 92.2L43.0425 93.48ZM39.8425 93.48L38.5625 92.2L39.8425 90.92L41.1225 92.2L39.8425 93.48ZM36.6425 93.48L35.3625 92.2L36.6425 90.92L37.9225 92.2L36.6425 93.48ZM33.4425 93.48L32.1625 92.2L33.4425 90.92L34.7225 92.2L33.4425 93.48ZM30.2425 93.48L28.9625 92.2L30.2425 90.92L31.5225 92.2L30.2425 93.48ZM27.0425 93.48L25.7625 92.2L27.0425 90.92L28.3225 92.2L27.0425 93.48ZM23.8425 93.48L22.5625 92.2L23.8425 90.92L25.1225 92.2L23.8425 93.48ZM20.6425 93.48L19.3625 92.2L20.6425 90.92L21.9225 92.2L20.6425 93.48ZM17.4425 93.48L16.1625 92.2L17.4425 90.92L18.7225 92.2L17.4425 93.48ZM14.2425 93.48L12.9625 92.2L14.2425 90.92L15.5225 92.2L14.2425 93.48ZM11.0425 93.48L9.7625 92.2L11.0425 90.92L12.3225 92.2L11.0425 93.48ZM7.8425 93.48L6.5625 92.2L7.8425 90.92L9.1225 92.2L7.8425 93.48ZM4.6425 93.48L3.3625 92.2L4.6425 90.92L5.9225 92.2L4.6425 93.48ZM1.4425 93.48L0.1625 92.2L1.4425 90.92L2.7225 92.2L1.4425 93.48ZM62.2425 91.24L63.2025 93.16H61.2825L62.2425 91.24ZM59.0425 91.24L60.0025 93.16H58.0825L59.0425 91.24ZM97.4425 93L96.6425 92.2L97.4425 91.4L98.2425 92.2L97.4425 93ZM94.2425 93L93.4425 92.2L94.2425 91.4L95.0425 92.2L94.2425 93ZM91.0425 93L90.2425 92.2L91.0425 91.4L91.8425 92.2L91.0425 93ZM87.8425 93L87.0425 92.2L87.8425 91.4L88.6425 92.2L87.8425 93ZM84.6425 96.68C83.7892 96.68 83.3625 96.2533 83.3625 95.4C83.3625 94.5467 83.7892 94.12 84.6425 94.12C85.4958 94.12 85.9225 94.5467 85.9225 95.4C85.9225 96.2533 85.4958 96.68 84.6425 96.68ZM81.4425 96.68C80.5892 96.68 80.1625 96.2533 80.1625 95.4C80.1625 94.5467 80.5892 94.12 81.4425 94.12C82.2958 94.12 82.7225 94.5467 82.7225 95.4C82.7225 96.2533 82.2958 96.68 81.4425 96.68ZM78.2425 96.68C77.3892 96.68 76.9625 96.2533 76.9625 95.4C76.9625 94.5467 77.3892 94.12 78.2425 94.12C79.0958 94.12 79.5225 94.5467 79.5225 95.4C79.5225 96.2533 79.0958 96.68 78.2425 96.68ZM75.0425 96.68C74.1892 96.68 73.7625 96.2533 73.7625 95.4C73.7625 94.5467 74.1892 94.12 75.0425 94.12C75.8958 94.12 76.3225 94.5467 76.3225 95.4C76.3225 96.2533 75.8958 96.68 75.0425 96.68ZM71.8425 96.68C70.9892 96.68 70.5625 96.2533 70.5625 95.4C70.5625 94.5467 70.9892 94.12 71.8425 94.12C72.6958 94.12 73.1225 94.5467 73.1225 95.4C73.1225 96.2533 72.6958 96.68 71.8425 96.68ZM68.6425 96.68C67.7892 96.68 67.3625 96.2533 67.3625 95.4C67.3625 94.5467 67.7892 94.12 68.6425 94.12C69.4958 94.12 69.9225 94.5467 69.9225 95.4C69.9225 96.2533 69.4958 96.68 68.6425 96.68ZM65.4425 94.12L66.7225 96.68H64.1625L65.4425 94.12ZM55.8425 96.68L54.5625 95.4L55.8425 94.12L57.1225 95.4L55.8425 96.68ZM52.6425 96.68L51.3625 95.4L52.6425 94.12L53.9225 95.4L52.6425 96.68ZM49.4425 96.68L48.1625 95.4L49.4425 94.12L50.7225 95.4L49.4425 96.68ZM46.2425 96.68L44.9625 95.4L46.2425 94.12L47.5225 95.4L46.2425 96.68ZM43.0425 96.68L41.7625 95.4L43.0425 94.12L44.3225 95.4L43.0425 96.68ZM39.8425 96.68L38.5625 95.4L39.8425 94.12L41.1225 95.4L39.8425 96.68ZM36.6425 96.68L35.3625 95.4L36.6425 94.12L37.9225 95.4L36.6425 96.68ZM33.4425 96.68L32.1625 95.4L33.4425 94.12L34.7225 95.4L33.4425 96.68ZM30.2425 96.68L28.9625 95.4L30.2425 94.12L31.5225 95.4L30.2425 96.68ZM27.0425 96.68L25.7625 95.4L27.0425 94.12L28.3225 95.4L27.0425 96.68ZM23.8425 96.68L22.5625 95.4L23.8425 94.12L25.1225 95.4L23.8425 96.68ZM20.6425 96.68L19.3625 95.4L20.6425 94.12L21.9225 95.4L20.6425 96.68ZM17.4425 96.68L16.1625 95.4L17.4425 94.12L18.7225 95.4L17.4425 96.68ZM14.2425 96.68L12.9625 95.4L14.2425 94.12L15.5225 95.4L14.2425 96.68ZM11.0425 96.68L9.7625 95.4L11.0425 94.12L12.3225 95.4L11.0425 96.68ZM7.8425 96.68L6.5625 95.4L7.8425 94.12L9.1225 95.4L7.8425 96.68ZM4.6425 96.68L3.3625 95.4L4.6425 94.12L5.9225 95.4L4.6425 96.68ZM62.2425 94.44L63.2025 96.36H61.2825L62.2425 94.44ZM59.0425 94.44L60.0025 96.36H58.0825L59.0425 94.44ZM94.2425 96.2L93.4425 95.4L94.2425 94.6L95.0425 95.4L94.2425 96.2ZM91.0425 96.2L90.2425 95.4L91.0425 94.6L91.8425 95.4L91.0425 96.2ZM87.8425 96.2L87.0425 95.4L87.8425 94.6L88.6425 95.4L87.8425 96.2ZM84.6425 99.88C83.7892 99.88 83.3625 99.4533 83.3625 98.6C83.3625 97.7467 83.7892 97.32 84.6425 97.32C85.4958 97.32 85.9225 97.7467 85.9225 98.6C85.9225 99.4533 85.4958 99.88 84.6425 99.88ZM81.4425 99.88C80.5892 99.88 80.1625 99.4533 80.1625 98.6C80.1625 97.7467 80.5892 97.32 81.4425 97.32C82.2958 97.32 82.7225 97.7467 82.7225 98.6C82.7225 99.4533 82.2958 99.88 81.4425 99.88ZM78.2425 99.88C77.3892 99.88 76.9625 99.4533 76.9625 98.6C76.9625 97.7467 77.3892 97.32 78.2425 97.32C79.0958 97.32 79.5225 97.7467 79.5225 98.6C79.5225 99.4533 79.0958 99.88 78.2425 99.88ZM75.0425 99.88C74.1892 99.88 73.7625 99.4533 73.7625 98.6C73.7625 97.7467 74.1892 97.32 75.0425 97.32C75.8958 97.32 76.3225 97.7467 76.3225 98.6C76.3225 99.4533 75.8958 99.88 75.0425 99.88ZM71.8425 99.88C70.9892 99.88 70.5625 99.4533 70.5625 98.6C70.5625 97.7467 70.9892 97.32 71.8425 97.32C72.6958 97.32 73.1225 97.7467 73.1225 98.6C73.1225 99.4533 72.6958 99.88 71.8425 99.88ZM68.6425 99.88C67.7892 99.88 67.3625 99.4533 67.3625 98.6C67.3625 97.7467 67.7892 97.32 68.6425 97.32C69.4958 97.32 69.9225 97.7467 69.9225 98.6C69.9225 99.4533 69.4958 99.88 68.6425 99.88ZM65.4425 97.32L66.7225 99.88H64.1625L65.4425 97.32ZM55.8425 99.88L54.5625 98.6L55.8425 97.32L57.1225 98.6L55.8425 99.88ZM52.6425 99.88L51.3625 98.6L52.6425 97.32L53.9225 98.6L52.6425 99.88ZM49.4425 99.88L48.1625 98.6L49.4425 97.32L50.7225 98.6L49.4425 99.88ZM46.2425 99.88L44.9625 98.6L46.2425 97.32L47.5225 98.6L46.2425 99.88ZM43.0425 99.88L41.7625 98.6L43.0425 97.32L44.3225 98.6L43.0425 99.88ZM39.8425 99.88L38.5625 98.6L39.8425 97.32L41.1225 98.6L39.8425 99.88ZM36.6425 99.88L35.3625 98.6L36.6425 97.32L37.9225 98.6L36.6425 99.88ZM33.4425 99.88L32.1625 98.6L33.4425 97.32L34.7225 98.6L33.4425 99.88ZM30.2425 99.88L28.9625 98.6L30.2425 97.32L31.5225 98.6L30.2425 99.88ZM27.0425 99.88L25.7625 98.6L27.0425 97.32L28.3225 98.6L27.0425 99.88ZM23.8425 99.88L22.5625 98.6L23.8425 97.32L25.1225 98.6L23.8425 99.88ZM20.6425 99.88L19.3625 98.6L20.6425 97.32L21.9225 98.6L20.6425 99.88ZM17.4425 99.88L16.1625 98.6L17.4425 97.32L18.7225 98.6L17.4425 99.88ZM14.2425 99.88L12.9625 98.6L14.2425 97.32L15.5225 98.6L14.2425 99.88ZM11.0425 99.88L9.7625 98.6L11.0425 97.32L12.3225 98.6L11.0425 99.88ZM7.8425 99.88L6.5625 98.6L7.8425 97.32L9.1225 98.6L7.8425 99.88ZM62.2425 97.8L63.0425 99.4H61.4425L62.2425 97.8ZM59.0425 97.8L59.8425 99.4H58.2425L59.0425 97.8ZM94.2425 99.4L93.4425 98.6L94.2425 97.8L95.0425 98.6L94.2425 99.4ZM91.0425 99.4L90.2425 98.6L91.0425 97.8L91.8425 98.6L91.0425 99.4ZM87.8425 99.4L87.0425 98.6L87.8425 97.8L88.6425 98.6L87.8425 99.4ZM84.6425 103.08C83.7892 103.08 83.3625 102.653 83.3625 101.8C83.3625 100.947 83.7892 100.52 84.6425 100.52C85.4958 100.52 85.9225 100.947 85.9225 101.8C85.9225 102.653 85.4958 103.08 84.6425 103.08ZM81.4425 103.08C80.5892 103.08 80.1625 102.653 80.1625 101.8C80.1625 100.947 80.5892 100.52 81.4425 100.52C82.2958 100.52 82.7225 100.947 82.7225 101.8C82.7225 102.653 82.2958 103.08 81.4425 103.08ZM78.2425 103.08C77.3892 103.08 76.9625 102.653 76.9625 101.8C76.9625 100.947 77.3892 100.52 78.2425 100.52C79.0958 100.52 79.5225 100.947 79.5225 101.8C79.5225 102.653 79.0958 103.08 78.2425 103.08ZM75.0425 103.08C74.1892 103.08 73.7625 102.653 73.7625 101.8C73.7625 100.947 74.1892 100.52 75.0425 100.52C75.8958 100.52 76.3225 100.947 76.3225 101.8C76.3225 102.653 75.8958 103.08 75.0425 103.08ZM71.8425 103.08C70.9892 103.08 70.5625 102.653 70.5625 101.8C70.5625 100.947 70.9892 100.52 71.8425 100.52C72.6958 100.52 73.1225 100.947 73.1225 101.8C73.1225 102.653 72.6958 103.08 71.8425 103.08ZM68.6425 103.08C67.7892 103.08 67.3625 102.653 67.3625 101.8C67.3625 100.947 67.7892 100.52 68.6425 100.52C69.4958 100.52 69.9225 100.947 69.9225 101.8C69.9225 102.653 69.4958 103.08 68.6425 103.08ZM65.4425 100.52L66.7225 103.08H64.1625L65.4425 100.52ZM55.8425 103.08L54.5625 101.8L55.8425 100.52L57.1225 101.8L55.8425 103.08ZM52.6425 103.08L51.3625 101.8L52.6425 100.52L53.9225 101.8L52.6425 103.08ZM49.4425 103.08L48.1625 101.8L49.4425 100.52L50.7225 101.8L49.4425 103.08ZM46.2425 103.08L44.9625 101.8L46.2425 100.52L47.5225 101.8L46.2425 103.08ZM43.0425 103.08L41.7625 101.8L43.0425 100.52L44.3225 101.8L43.0425 103.08ZM39.8425 103.08L38.5625 101.8L39.8425 100.52L41.1225 101.8L39.8425 103.08ZM36.6425 103.08L35.3625 101.8L36.6425 100.52L37.9225 101.8L36.6425 103.08ZM33.4425 103.08L32.1625 101.8L33.4425 100.52L34.7225 101.8L33.4425 103.08ZM30.2425 103.08L28.9625 101.8L30.2425 100.52L31.5225 101.8L30.2425 103.08ZM27.0425 103.08L25.7625 101.8L27.0425 100.52L28.3225 101.8L27.0425 103.08ZM23.8425 103.08L22.5625 101.8L23.8425 100.52L25.1225 101.8L23.8425 103.08ZM20.6425 103.08L19.3625 101.8L20.6425 100.52L21.9225 101.8L20.6425 103.08ZM17.4425 103.08L16.1625 101.8L17.4425 100.52L18.7225 101.8L17.4425 103.08ZM14.2425 103.08L12.9625 101.8L14.2425 100.52L15.5225 101.8L14.2425 103.08ZM11.0425 103.08L9.7625 101.8L11.0425 100.52L12.3225 101.8L11.0425 103.08ZM62.2425 101L63.0425 102.6H61.4425L62.2425 101ZM59.0425 101L59.8425 102.6H58.2425L59.0425 101ZM91.0425 102.6L90.2425 101.8L91.0425 101L91.8425 101.8L91.0425 102.6ZM87.8425 102.6L87.0425 101.8L87.8425 101L88.6425 101.8L87.8425 102.6ZM84.6425 106.28C83.7892 106.28 83.3625 105.853 83.3625 105C83.3625 104.147 83.7892 103.72 84.6425 103.72C85.4958 103.72 85.9225 104.147 85.9225 105C85.9225 105.853 85.4958 106.28 84.6425 106.28ZM81.4425 106.28C80.5892 106.28 80.1625 105.853 80.1625 105C80.1625 104.147 80.5892 103.72 81.4425 103.72C82.2958 103.72 82.7225 104.147 82.7225 105C82.7225 105.853 82.2958 106.28 81.4425 106.28ZM78.2425 106.28C77.3892 106.28 76.9625 105.853 76.9625 105C76.9625 104.147 77.3892 103.72 78.2425 103.72C79.0958 103.72 79.5225 104.147 79.5225 105C79.5225 105.853 79.0958 106.28 78.2425 106.28ZM75.0425 106.28C74.1892 106.28 73.7625 105.853 73.7625 105C73.7625 104.147 74.1892 103.72 75.0425 103.72C75.8958 103.72 76.3225 104.147 76.3225 105C76.3225 105.853 75.8958 106.28 75.0425 106.28ZM71.8425 106.28C70.9892 106.28 70.5625 105.853 70.5625 105C70.5625 104.147 70.9892 103.72 71.8425 103.72C72.6958 103.72 73.1225 104.147 73.1225 105C73.1225 105.853 72.6958 106.28 71.8425 106.28ZM68.6425 106.28C67.7892 106.28 67.3625 105.853 67.3625 105C67.3625 104.147 67.7892 103.72 68.6425 103.72C69.4958 103.72 69.9225 104.147 69.9225 105C69.9225 105.853 69.4958 106.28 68.6425 106.28ZM65.4425 103.72L66.7225 106.28H64.1625L65.4425 103.72ZM55.8425 106.28L54.5625 105L55.8425 103.72L57.1225 105L55.8425 106.28ZM52.6425 106.28L51.3625 105L52.6425 103.72L53.9225 105L52.6425 106.28ZM49.4425 106.28L48.1625 105L49.4425 103.72L50.7225 105L49.4425 106.28ZM46.2425 106.28L44.9625 105L46.2425 103.72L47.5225 105L46.2425 106.28ZM43.0425 106.28L41.7625 105L43.0425 103.72L44.3225 105L43.0425 106.28ZM39.8425 106.28L38.5625 105L39.8425 103.72L41.1225 105L39.8425 106.28ZM36.6425 106.28L35.3625 105L36.6425 103.72L37.9225 105L36.6425 106.28ZM33.4425 106.28L32.1625 105L33.4425 103.72L34.7225 105L33.4425 106.28ZM30.2425 106.28L28.9625 105L30.2425 103.72L31.5225 105L30.2425 106.28ZM27.0425 106.28L25.7625 105L27.0425 103.72L28.3225 105L27.0425 106.28ZM23.8425 106.28L22.5625 105L23.8425 103.72L25.1225 105L23.8425 106.28ZM20.6425 106.28L19.3625 105L20.6425 103.72L21.9225 105L20.6425 106.28ZM17.4425 106.28L16.1625 105L17.4425 103.72L18.7225 105L17.4425 106.28ZM14.2425 106.28L12.9625 105L14.2425 103.72L15.5225 105L14.2425 106.28ZM62.2425 104.2L63.0425 105.8H61.4425L62.2425 104.2ZM59.0425 104.2L59.8425 105.8H58.2425L59.0425 104.2ZM81.4425 109.32C80.6958 109.32 80.3225 108.947 80.3225 108.2C80.3225 107.453 80.6958 107.08 81.4425 107.08C82.1892 107.08 82.5625 107.453 82.5625 108.2C82.5625 108.947 82.1892 109.32 81.4425 109.32ZM78.2425 109.32C77.4958 109.32 77.1225 108.947 77.1225 108.2C77.1225 107.453 77.4958 107.08 78.2425 107.08C78.9892 107.08 79.3625 107.453 79.3625 108.2C79.3625 108.947 78.9892 109.32 78.2425 109.32ZM75.0425 109.32C74.2958 109.32 73.9225 108.947 73.9225 108.2C73.9225 107.453 74.2958 107.08 75.0425 107.08C75.7892 107.08 76.1625 107.453 76.1625 108.2C76.1625 108.947 75.7892 109.32 75.0425 109.32ZM71.8425 109.32C71.0958 109.32 70.7225 108.947 70.7225 108.2C70.7225 107.453 71.0958 107.08 71.8425 107.08C72.5892 107.08 72.9625 107.453 72.9625 108.2C72.9625 108.947 72.5892 109.32 71.8425 109.32ZM68.6425 109.32C67.8958 109.32 67.5225 108.947 67.5225 108.2C67.5225 107.453 67.8958 107.08 68.6425 107.08C69.3892 107.08 69.7625 107.453 69.7625 108.2C69.7625 108.947 69.3892 109.32 68.6425 109.32ZM65.4425 107.08L66.5625 109.32H64.3225L65.4425 107.08ZM55.8425 109.32L54.7225 108.2L55.8425 107.08L56.9625 108.2L55.8425 109.32ZM52.6425 109.32L51.5225 108.2L52.6425 107.08L53.7625 108.2L52.6425 109.32ZM49.4425 109.32L48.3225 108.2L49.4425 107.08L50.5625 108.2L49.4425 109.32ZM46.2425 109.32L45.1225 108.2L46.2425 107.08L47.3625 108.2L46.2425 109.32ZM43.0425 109.32L41.9225 108.2L43.0425 107.08L44.1625 108.2L43.0425 109.32ZM39.8425 109.32L38.7225 108.2L39.8425 107.08L40.9625 108.2L39.8425 109.32ZM36.6425 109.32L35.5225 108.2L36.6425 107.08L37.7625 108.2L36.6425 109.32ZM33.4425 109.32L32.3225 108.2L33.4425 107.08L34.5625 108.2L33.4425 109.32ZM30.2425 109.32L29.1225 108.2L30.2425 107.08L31.3625 108.2L30.2425 109.32ZM27.0425 109.32L25.9225 108.2L27.0425 107.08L28.1625 108.2L27.0425 109.32ZM23.8425 109.32L22.7225 108.2L23.8425 107.08L24.9625 108.2L23.8425 109.32ZM20.6425 109.32L19.5225 108.2L20.6425 107.08L21.7625 108.2L20.6425 109.32ZM62.2425 107.4L63.0425 109H61.4425L62.2425 107.4ZM59.0425 107.4L59.8425 109H58.2425L59.0425 107.4ZM71.8425 112.52C71.0958 112.52 70.7225 112.147 70.7225 111.4C70.7225 110.653 71.0958 110.28 71.8425 110.28C72.5892 110.28 72.9625 110.653 72.9625 111.4C72.9625 112.147 72.5892 112.52 71.8425 112.52ZM68.6425 112.52C67.8958 112.52 67.5225 112.147 67.5225 111.4C67.5225 110.653 67.8958 110.28 68.6425 110.28C69.3892 110.28 69.7625 110.653 69.7625 111.4C69.7625 112.147 69.3892 112.52 68.6425 112.52ZM65.4425 110.28L66.5625 112.52H64.3225L65.4425 110.28ZM55.8425 112.52L54.7225 111.4L55.8425 110.28L56.9625 111.4L55.8425 112.52ZM52.6425 112.52L51.5225 111.4L52.6425 110.28L53.7625 111.4L52.6425 112.52ZM49.4425 112.52L48.3225 111.4L49.4425 110.28L50.5625 111.4L49.4425 112.52ZM46.2425 112.52L45.1225 111.4L46.2425 110.28L47.3625 111.4L46.2425 112.52ZM43.0425 112.52L41.9225 111.4L43.0425 110.28L44.1625 111.4L43.0425 112.52ZM39.8425 112.52L38.7225 111.4L39.8425 110.28L40.9625 111.4L39.8425 112.52ZM36.6425 112.52L35.5225 111.4L36.6425 110.28L37.7625 111.4L36.6425 112.52ZM33.4425 112.52L32.3225 111.4L33.4425 110.28L34.5625 111.4L33.4425 112.52ZM30.2425 112.52L29.1225 111.4L30.2425 110.28L31.3625 111.4L30.2425 112.52ZM27.0425 112.52L25.9225 111.4L27.0425 110.28L28.1625 111.4L27.0425 112.52ZM62.2425 110.6L63.0425 112.2H61.4425L62.2425 110.6ZM59.0425 110.6L59.8425 112.2H58.2425L59.0425 110.6Z" fill="url(#paint0_linear_4278_2672)"/>
<defs>
<linearGradient id="paint0_linear_4278_2672" x1="51" y1="-22" x2="51" y2="138" gradientUnits="userSpaceOnUse">
<stop stop-color="#F7E7FF"/>
<stop offset="1" stop-color="#EBC7FF"/>
</linearGradient>
</defs>
</svg>
