<svg width="109" height="109" viewBox="0 0 109 109" fill="none" xmlns="http://www.w3.org/2000/svg">
<path d="M36.9038 48.6L35.3038 47L36.9038 45.4L35.3038 43.8L36.9038 42.2L35.3038 40.6L36.9038 39L35.1438 37.4L36.7438 35.8L35.1438 34.2L36.7438 32.6L35.1438 31L36.7438 29.4L35.1438 27.8L36.7438 26.2L35.1438 24.6L36.4238 23.16H35.1438H31.9438H28.7438L30.5038 19.64L32.1038 22.84L33.3838 20.12H31.7838L33.7038 16.28L35.3038 19.48L36.5837 16.92H34.9838L36.9038 13.08L38.5038 16.28L39.7838 13.72H38.1838L40.1038 9.88L41.7038 13.08L42.9838 10.52H41.3837L42.9838 7.32H41.3837L43.3038 3.47999L44.9038 6.68L46.3438 3.64C45.4904 3.53333 45.0638 3.05333 45.0638 2.2C45.0638 1.24 45.5438 0.759998 46.5038 0.759998C47.4638 0.759998 47.9438 1.24 47.9438 2.2C47.9438 3.16 47.5171 3.64 46.6638 3.64L47.9438 6.35999V3.64H49.5438L48.1038 2.2L49.7038 0.599991L51.3038 2.2L52.9038 0.599991L54.5038 2.2L56.1038 0.599991L57.7038 2.2L59.3038 0.599991L60.9038 2.2L62.5038 0.599991L64.1038 2.2L65.7038 0.599991L67.3038 2.2L68.9038 0.599991L70.5038 2.2L72.1038 0.599991L73.7038 2.2L72.1038 3.8L70.5038 2.2L69.0638 3.64H70.6638V3.96H73.3838L75.3038 0.119997L76.9038 3.31999L78.5038 0.119997L80.1038 3.31999L81.7038 0.119997L83.3038 3.31999L84.9038 0.119997L86.5038 3.31999L88.1038 0.119997L90.1838 4.27999H89.5438V6.84H86.6638V4.27999H86.3438V6.84H83.4638V4.27999H83.1438V6.84H80.2638V4.27999H79.9438V6.84H77.0638V4.27999H76.7438V6.84H73.8638V4.27999H73.5438V6.84H70.6638V7.15999H73.5438V10.04H70.6638V7.15999V10.36V13.4H73.7038H76.9038H80.1038H83.3038H86.5038H89.7038V16.6V19.8V23H88.4237C89.2771 23.2133 89.7038 23.7467 89.7038 24.6C89.7038 25.24 89.3838 25.72 88.7438 26.04C89.5971 26.36 90.0238 26.9467 90.0238 27.8C90.0238 28.5467 89.6504 29.08 88.9038 29.4C89.6504 29.72 90.0238 30.2533 90.0238 31C90.0238 31.4267 89.8638 31.8533 89.5438 32.28C89.2238 32.6 89.0104 32.7067 88.9038 32.6C89.5438 33.0267 89.8638 33.56 89.8638 34.2C89.8638 34.9467 89.5438 35.48 88.9038 35.8C89.5438 36.12 89.8638 36.6533 89.8638 37.4C89.8638 38.1467 89.4904 38.68 88.7438 39C89.4904 39.32 89.8638 39.8533 89.8638 40.6C89.8638 41.3467 89.4904 41.88 88.7438 42.2C89.4904 42.52 89.8638 43.0533 89.8638 43.8C89.8638 44.5467 89.4371 45.08 88.5838 45.4C89.4371 45.72 89.8638 46.2533 89.8638 47C89.8638 47.8533 89.4371 48.3867 88.5838 48.6C89.3304 48.92 89.7038 49.4533 89.7038 50.2C89.7038 50.6267 89.5438 51 89.2238 51.32C88.9038 51.64 88.6371 51.8 88.4237 51.8C89.2771 52.0133 89.7038 52.5467 89.7038 53.4C89.7038 54.4667 89.1704 55 88.1038 55C87.6771 55 87.3038 54.84 86.9838 54.52C86.6638 54.2 86.5038 53.9333 86.5038 53.72C86.2904 54.5733 85.7571 55 84.9038 55C84.4771 55 84.1038 54.84 83.7838 54.52C83.4638 54.2 83.3038 53.9333 83.3038 53.72C83.0904 54.5733 82.5571 55 81.7038 55C81.2771 55 80.9038 54.84 80.5838 54.52C80.2638 54.2 80.1038 53.9333 80.1038 53.72C79.8904 54.5733 79.3571 55 78.5038 55C78.0771 55 77.7038 54.84 77.3838 54.52C77.0638 54.2 76.9038 53.9333 76.9038 53.72C76.6904 54.5733 76.1571 55 75.3038 55C74.8771 55 74.5038 54.84 74.1838 54.52C73.8638 54.2 73.7038 53.9333 73.7038 53.72C73.4904 54.5733 72.9571 55 72.1038 55C71.6771 55 71.3038 54.84 70.9838 54.52C70.6638 54.2 70.5038 53.9333 70.5038 53.72C70.2904 54.5733 69.7571 55 68.9038 55C68.4771 55 68.1038 54.84 67.7838 54.52C67.4638 54.2 67.3038 53.9333 67.3038 53.72C67.0904 54.5733 66.5571 55 65.7038 55C64.6371 55 64.1038 54.4667 64.1038 53.4C64.1038 52.9733 64.2638 52.6 64.5838 52.28C64.9038 51.96 65.1704 51.8 65.3838 51.8C64.5304 51.5867 64.1038 51.0533 64.1038 50.2C64.1038 49.4533 64.4771 48.92 65.2238 48.6C64.3704 48.3867 63.9438 47.8533 63.9438 47C63.9438 46.2533 64.3704 45.72 65.2238 45.4C64.3704 45.08 63.9438 44.5467 63.9438 43.8C63.9438 43.0533 64.3171 42.52 65.0638 42.2C64.3171 41.88 63.9438 41.3467 63.9438 40.6C63.9438 39.8533 64.3171 39.32 65.0638 39C64.3171 38.68 63.9438 38.1467 63.9438 37.4C63.9438 36.6533 64.3171 36.12 65.0638 35.8C64.3171 35.48 63.9438 34.9467 63.9438 34.2C63.9438 33.4533 64.2638 32.92 64.9038 32.6C64.2638 32.28 63.9438 31.7467 63.9438 31C63.9438 30.36 64.2638 29.8267 64.9038 29.4C64.1571 29.08 63.7838 28.5467 63.7838 27.8C63.7838 27.3733 63.9438 27 64.2638 26.68C64.6904 26.2533 64.9571 26.04 65.0638 26.04C64.4238 25.72 64.1038 25.24 64.1038 24.6C64.1038 24.1733 64.2638 23.8 64.5838 23.48C64.9038 23.16 65.2238 23 65.5438 23L64.1038 21.56L62.5038 23L60.9038 21.4L59.3038 23L57.7038 21.4L56.4238 22.84H57.8638V26.36V29.56V32.76V35.96V39.16H57.7038V42.2V45.4V48.6V51.8H54.5038V48.6H51.3038V45.4V42.2V40.76L49.7038 42.2L48.1038 40.6L46.5038 42.2L48.1038 43.8L46.5038 45.4L44.9038 43.8L43.3038 45.4L44.9038 47L43.3038 48.6L41.7038 47L40.1038 48.6L38.5038 47L36.9038 48.6ZM51.1438 3.64H52.7438L51.3038 2.2L49.8638 3.64H51.1438ZM54.3438 3.64H55.9438L54.5038 2.2L53.0638 3.64H54.3438ZM57.5438 3.64H59.1438L57.7038 2.2L56.2638 3.64H57.5438ZM60.7438 3.64H62.3438L60.9038 2.2L59.4638 3.64H60.7438ZM63.9438 3.64H65.5438L64.1038 2.2L62.6638 3.64H63.9438ZM67.1438 3.64H68.7438L67.3038 2.2L65.8638 3.64H67.1438ZM89.5438 10.04H86.6638V7.15999H89.5438V10.04ZM86.3438 10.04H83.4638V7.15999H86.3438V10.04ZM83.1438 10.04H80.2638V7.15999H83.1438V10.04ZM79.9438 10.04H77.0638V7.15999H79.9438V10.04ZM76.7438 10.04H73.8638V7.15999H76.7438V10.04ZM44.5838 7.32H43.6238L44.9038 9.88L46.1838 7.32H44.5838ZM46.8238 7.32L47.9438 9.56V7.32H46.8238ZM89.5438 13.24H86.6638V10.36H89.5438V13.24ZM86.3438 13.24H83.4638V10.36H86.3438V13.24ZM83.1438 13.24H80.2638V10.36H83.1438V13.24ZM79.9438 13.24H77.0638V10.36H79.9438V13.24ZM76.7438 13.24H73.8638V10.36H76.7438V13.24ZM73.5438 13.24H70.6638V10.36H73.5438V13.24ZM44.5838 10.52H43.6238L44.9038 13.08L46.1838 10.52H44.5838ZM46.8238 10.52L47.9438 12.92V10.52H46.8238ZM48.2638 23.16H46.9838L48.1038 24.44L49.5438 23L48.1038 21.4L49.5438 19.8L47.9438 18.2L49.5438 16.6L47.9438 15L49.5438 13.56H48.2638L48.4238 13.72H46.8238L48.4238 16.92H46.8238L48.4238 20.12H46.8238L48.2638 23.16ZM51.1438 13.56H49.8638L51.3038 14.84L52.7438 13.56H51.1438ZM54.3438 13.56H53.0638L54.5038 14.84L55.9438 13.56H54.3438ZM57.5438 13.56H56.2638L57.7038 14.84L59.1438 13.56H57.5438ZM60.7438 13.56H59.4638L60.9038 14.84L62.3438 13.56H60.7438ZM63.9438 13.56H62.6638L64.1038 14.84L65.5438 13.56H63.9438ZM67.1438 13.56H65.8638L67.3038 14.84L68.7438 13.56H67.1438ZM69.0638 13.56L70.5038 14.84V13.56H69.0638ZM41.3837 13.72H40.4238L41.7038 16.28L42.9838 13.72H41.3837ZM44.5838 13.72H43.6238L44.9038 16.28L46.1838 13.72H44.5838ZM49.8638 16.6L51.3038 18.04L52.7438 16.6L51.3038 15.16L49.8638 16.6ZM53.0638 16.6L54.5038 18.04L55.9438 16.6L54.5038 15.16L53.0638 16.6ZM56.2638 16.6L57.7038 18.04L59.1438 16.6L57.7038 15.16L56.2638 16.6ZM59.4638 16.6L60.9038 18.04L62.3438 16.6L60.9038 15.16L59.4638 16.6ZM62.6638 16.6L64.1038 18.04L65.5438 16.6L64.1038 15.16L62.6638 16.6ZM65.8638 16.6L67.3038 18.04L68.7438 16.6L67.3038 15.16L65.8638 16.6ZM70.5038 16.6V15.16L69.0638 16.6L70.5038 18.04V16.6ZM38.1838 16.92H37.2238L38.5038 19.48L39.7838 16.92H38.1838ZM41.3837 16.92H40.4238L41.7038 19.48L42.9838 16.92H41.3837ZM44.5838 16.92H43.6238L44.9038 19.48L46.1838 16.92H44.5838ZM49.8638 19.8L51.3038 21.4L52.7438 19.8L51.3038 18.36L49.8638 19.8ZM53.0638 19.8L54.5038 21.4L55.9438 19.8L54.5038 18.36L53.0638 19.8ZM56.2638 19.8L57.7038 21.4L59.1438 19.8L57.7038 18.36L56.2638 19.8ZM59.4638 19.8L60.9038 21.4L62.3438 19.8L60.9038 18.36L59.4638 19.8ZM62.6638 19.8L64.1038 21.24L65.5438 19.8L64.1038 18.36L62.6638 19.8ZM65.8638 19.8L67.3038 21.24L68.7438 19.8L67.3038 18.36L65.8638 19.8ZM70.5038 19.8V18.36L69.0638 19.8L70.5038 21.24V19.8ZM34.9838 20.12H34.0238L35.3038 22.84L36.5837 20.12H34.9838ZM38.1838 20.12H37.2238L38.5038 22.84L39.7838 20.12H38.1838ZM41.3837 20.12H40.4238L41.7038 22.84L42.9838 20.12H41.3837ZM44.5838 20.12H43.6238L44.9038 22.84L46.1838 20.12H44.5838ZM51.1438 22.84H52.5838L51.3038 21.4L49.8638 23L51.1438 24.12V22.84ZM54.3438 22.84H55.7838L54.5038 21.4L53.2238 22.84H54.3438ZM65.8638 23C66.1838 23 66.5038 23.16 66.8238 23.48C67.1438 23.8 67.3038 24.0667 67.3038 24.28C67.5171 23.4267 67.9971 23 68.7438 23L67.3038 21.56L65.8638 23ZM70.5038 23V21.56L69.0638 23C69.3838 23 69.7038 23.16 70.0238 23.48C70.3438 23.8 70.5038 24.0667 70.5038 24.28C70.7171 23.32 71.1438 22.8933 71.7838 23H70.5038ZM73.7038 23H72.4238C73.3838 23.2133 73.8104 23.64 73.7038 24.28C73.9171 23.64 74.3438 23.2133 74.9838 23H73.7038ZM76.9038 23H75.6238C76.5838 23.2133 77.0104 23.64 76.9038 24.28C77.1171 23.64 77.5438 23.2133 78.1838 23H76.9038ZM80.1038 23H78.8237C79.7837 23.2133 80.2104 23.64 80.1038 24.28C80.3171 23.64 80.7438 23.2133 81.3838 23H80.1038ZM83.3038 23H82.0238C82.9838 23.2133 83.4104 23.64 83.3038 24.28C83.5171 23.64 83.9438 23.2133 84.5838 23H83.3038ZM86.5038 23H85.2238C86.1838 23.2133 86.6104 23.64 86.5038 24.28C86.7171 23.64 87.0904 23.2133 87.6238 23H86.5038ZM38.3438 23.16H37.3838L38.5038 24.44L39.6238 23.16H38.3438ZM41.5438 23.16H40.5838L41.7038 24.44L42.8238 23.16H41.5438ZM44.7438 23.16H43.7838L44.9038 24.44L46.0238 23.16H44.7438ZM33.7038 23.32L34.9838 25.88H32.4238L33.7038 23.32ZM62.5038 25.88L61.2238 24.6L62.5038 23.32L63.7838 24.6L62.5038 25.88ZM59.3038 25.88L58.0238 24.6L59.3038 23.32L60.5838 24.6L59.3038 25.88ZM30.5038 25.88L29.2238 24.6L30.5038 23.32L31.7838 24.6L30.5038 25.88ZM37.0638 26.2L38.5038 27.64L39.9438 26.2L38.5038 24.76L37.0638 26.2ZM40.2638 26.2L41.7038 27.64L43.1438 26.2L41.7038 24.76L40.2638 26.2ZM43.4638 26.2L44.9038 27.64L46.3438 26.2L44.9038 24.76L43.4638 26.2ZM46.6638 26.2L48.1038 27.64L49.5438 26.2L48.1038 24.76L46.6638 26.2ZM66.3438 26.04C66.7704 26.2533 67.0904 26.5733 67.3038 27C67.5171 26.68 67.7304 26.4667 67.9438 26.36C68.1571 26.1467 68.2638 26.04 68.2638 26.04C67.5171 25.72 67.1971 25.3467 67.3038 24.92C67.1971 25.4533 66.8771 25.8267 66.3438 26.04ZM69.5438 26.04C69.9704 26.2533 70.2904 26.5733 70.5038 27C70.7171 26.68 70.9304 26.4667 71.1438 26.36C71.3571 26.1467 71.4638 26.04 71.4638 26.04C70.7171 25.72 70.3971 25.3467 70.5038 24.92C70.3971 25.4533 70.0771 25.8267 69.5438 26.04ZM72.7438 26.04C73.1704 26.2533 73.4904 26.5733 73.7038 27C73.9171 26.68 74.1304 26.4667 74.3438 26.36C74.5571 26.1467 74.6638 26.04 74.6638 26.04C73.9171 25.72 73.5971 25.3467 73.7038 24.92C73.5971 25.4533 73.2771 25.8267 72.7438 26.04ZM75.9438 26.04C76.3704 26.2533 76.6904 26.5733 76.9038 27C77.1171 26.68 77.3304 26.4667 77.5438 26.36C77.7571 26.1467 77.8638 26.04 77.8638 26.04C77.1171 25.72 76.7971 25.3467 76.9038 24.92C76.7971 25.4533 76.4771 25.8267 75.9438 26.04ZM79.1438 26.04C79.5704 26.2533 79.8904 26.5733 80.1038 27C80.3171 26.68 80.5304 26.4667 80.7438 26.36C80.9571 26.1467 81.0638 26.04 81.0638 26.04C80.3171 25.72 79.9971 25.3467 80.1038 24.92C79.9971 25.4533 79.6771 25.8267 79.1438 26.04ZM82.3438 26.04C82.7704 26.2533 83.0904 26.5733 83.3038 27C83.5171 26.68 83.7304 26.4667 83.9438 26.36C84.1571 26.1467 84.2638 26.04 84.2638 26.04C83.5171 25.72 83.1971 25.3467 83.3038 24.92C83.1971 25.4533 82.8771 25.8267 82.3438 26.04ZM85.5438 26.04C85.9704 26.2533 86.2904 26.5733 86.5038 27C86.7171 26.68 86.9304 26.4667 87.1438 26.36C87.3571 26.1467 87.4638 26.04 87.4638 26.04C86.7171 25.72 86.3971 25.3467 86.5038 24.92C86.3971 25.4533 86.0771 25.8267 85.5438 26.04ZM51.1438 26.36V25.08L49.8638 26.2L51.1438 27.48V26.36ZM33.7038 26.52L34.9838 29.08H32.4238L33.7038 26.52ZM62.5038 29.08L61.2238 27.8L62.5038 26.52L63.7838 27.8L62.5038 29.08ZM59.3038 29.08L58.0238 27.8L59.3038 26.52L60.5838 27.8L59.3038 29.08ZM30.5038 29.08L29.2238 27.8L30.5038 26.52L31.7838 27.8L30.5038 29.08ZM27.3038 29.08L26.0238 27.8L27.3038 26.52L28.5838 27.8L27.3038 29.08ZM37.0638 29.4L38.5038 30.84L39.9438 29.4L38.5038 27.96L37.0638 29.4ZM40.2638 29.4L41.7038 30.84L43.1438 29.4L41.7038 27.96L40.2638 29.4ZM43.4638 29.4L44.9038 30.84L46.3438 29.4L44.9038 27.96L43.4638 29.4ZM46.6638 29.4L48.1038 30.84L49.5438 29.4L48.1038 27.96L46.6638 29.4ZM51.1438 29.56V28.12L49.8638 29.4L51.1438 30.68V29.56ZM66.5038 29.4C66.8238 29.6133 67.0371 29.8267 67.1438 30.04C67.3571 30.2533 67.4104 30.3067 67.3038 30.2C67.5171 29.88 67.7838 29.6133 68.1038 29.4C67.7838 29.2933 67.5171 29.0267 67.3038 28.6C67.0904 29.0267 66.8238 29.2933 66.5038 29.4ZM69.7038 29.4C70.0238 29.6133 70.2371 29.8267 70.3438 30.04C70.5571 30.2533 70.6104 30.3067 70.5038 30.2C70.7171 29.88 70.9838 29.6133 71.3038 29.4C70.9838 29.2933 70.7171 29.0267 70.5038 28.6C70.2904 29.0267 70.0238 29.2933 69.7038 29.4ZM72.9038 29.4C73.2238 29.6133 73.4371 29.8267 73.5438 30.04C73.7571 30.2533 73.8104 30.3067 73.7038 30.2C73.9171 29.88 74.1838 29.6133 74.5038 29.4C74.1838 29.2933 73.9171 29.0267 73.7038 28.6C73.4904 29.0267 73.2238 29.2933 72.9038 29.4ZM76.1038 29.4C76.4238 29.6133 76.6371 29.8267 76.7438 30.04C76.9571 30.2533 77.0104 30.3067 76.9038 30.2C77.1171 29.88 77.3838 29.6133 77.7038 29.4C77.3838 29.2933 77.1171 29.0267 76.9038 28.6C76.6904 29.0267 76.4238 29.2933 76.1038 29.4ZM79.3038 29.4C79.6238 29.6133 79.8371 29.8267 79.9438 30.04C80.1571 30.2533 80.2104 30.3067 80.1038 30.2C80.3171 29.88 80.5838 29.6133 80.9038 29.4C80.5838 29.2933 80.3171 29.0267 80.1038 28.6C79.8904 29.0267 79.6238 29.2933 79.3038 29.4ZM82.5037 29.4C82.8238 29.6133 83.0371 29.8267 83.1438 30.04C83.3571 30.2533 83.4104 30.3067 83.3038 30.2C83.5171 29.88 83.7838 29.6133 84.1038 29.4C83.7838 29.2933 83.5171 29.0267 83.3038 28.6C83.0904 29.0267 82.8238 29.2933 82.5037 29.4ZM85.7038 29.4C86.0238 29.6133 86.2371 29.8267 86.3438 30.04C86.5571 30.2533 86.6104 30.3067 86.5038 30.2C86.7171 29.88 86.9838 29.6133 87.3038 29.4C86.9838 29.2933 86.7171 29.0267 86.5038 28.6C86.2904 29.0267 86.0238 29.2933 85.7038 29.4ZM33.7038 29.72L34.9838 32.28H32.4238L33.7038 29.72ZM62.5038 32.12L61.3838 31L62.5038 29.88L63.6238 31L62.5038 32.12ZM59.3038 32.12L58.1838 31L59.3038 29.88L60.4238 31L59.3038 32.12ZM30.5038 32.12L29.3838 31L30.5038 29.88L31.6238 31L30.5038 32.12ZM27.3038 32.12L26.1838 31L27.3038 29.88L28.4238 31L27.3038 32.12ZM24.1038 32.12L22.9838 31L24.1038 29.88L25.2238 31L24.1038 32.12ZM37.0638 32.6L38.5038 34.04L39.9438 32.6L38.5038 31.16L37.0638 32.6ZM40.2638 32.6L41.7038 34.04L43.1438 32.6L41.7038 31.16L40.2638 32.6ZM43.4638 32.6L44.9038 34.04L46.3438 32.6L44.9038 31.16L43.4638 32.6ZM46.6638 32.6L48.1038 34.04L49.5438 32.6L48.1038 31.16L46.6638 32.6ZM51.1438 32.76V31.32L49.8638 32.6L51.1438 33.88V32.76ZM66.5038 32.6C66.8238 32.8133 67.0904 33.08 67.3038 33.4C67.5171 33.08 67.7838 32.8133 68.1038 32.6C67.7838 32.4933 67.5171 32.3333 67.3038 32.12C67.1971 31.8 67.1971 31.6933 67.3038 31.8C67.0904 32.12 66.8771 32.3867 66.6638 32.6C66.4504 32.7067 66.3971 32.7067 66.5038 32.6ZM69.7038 32.6C70.0238 32.8133 70.2904 33.08 70.5038 33.4C70.7171 33.08 70.9838 32.8133 71.3038 32.6C70.9838 32.4933 70.7171 32.3333 70.5038 32.12C70.3971 31.8 70.3971 31.6933 70.5038 31.8C70.2904 32.12 70.0771 32.3867 69.8638 32.6C69.6504 32.7067 69.5971 32.7067 69.7038 32.6ZM72.9038 32.6C73.2238 32.8133 73.4904 33.08 73.7038 33.4C73.9171 33.08 74.1838 32.8133 74.5038 32.6C74.1838 32.4933 73.9171 32.3333 73.7038 32.12C73.5971 31.8 73.5971 31.6933 73.7038 31.8C73.4904 32.12 73.2771 32.3867 73.0638 32.6C72.8504 32.7067 72.7971 32.7067 72.9038 32.6ZM76.1038 32.6C76.4238 32.8133 76.6904 33.08 76.9038 33.4C77.1171 33.08 77.3838 32.8133 77.7038 32.6C77.3838 32.4933 77.1171 32.3333 76.9038 32.12C76.7971 31.8 76.7971 31.6933 76.9038 31.8C76.6904 32.12 76.4771 32.3867 76.2638 32.6C76.0504 32.7067 75.9971 32.7067 76.1038 32.6ZM79.3038 32.6C79.6238 32.8133 79.8904 33.08 80.1038 33.4C80.3171 33.08 80.5838 32.8133 80.9038 32.6C80.5838 32.4933 80.3171 32.3333 80.1038 32.12C79.9971 31.8 79.9971 31.6933 80.1038 31.8C79.8904 32.12 79.6771 32.3867 79.4638 32.6C79.2504 32.7067 79.1971 32.7067 79.3038 32.6ZM82.5037 32.6C82.8238 32.8133 83.0904 33.08 83.3038 33.4C83.5171 33.08 83.7838 32.8133 84.1038 32.6C83.7838 32.4933 83.5171 32.3333 83.3038 32.12C83.1971 31.8 83.1971 31.6933 83.3038 31.8C83.0904 32.12 82.8771 32.3867 82.6638 32.6C82.4504 32.7067 82.3971 32.7067 82.5037 32.6ZM85.7038 32.6C86.0238 32.8133 86.2904 33.08 86.5038 33.4C86.7171 33.08 86.9838 32.8133 87.3038 32.6C86.9838 32.4933 86.7171 32.3333 86.5038 32.12C86.3971 31.8 86.3971 31.6933 86.5038 31.8C86.2904 32.12 86.0771 32.3867 85.8638 32.6C85.6504 32.7067 85.5971 32.7067 85.7038 32.6ZM33.7038 32.92L34.9838 35.48H32.4238L33.7038 32.92ZM62.5038 35.32L61.3838 34.2L62.5038 33.08L63.6238 34.2L62.5038 35.32ZM59.3038 35.32L58.1838 34.2L59.3038 33.08L60.4238 34.2L59.3038 35.32ZM30.5038 35.32L29.3838 34.2L30.5038 33.08L31.6238 34.2L30.5038 35.32ZM27.3038 35.32L26.1838 34.2L27.3038 33.08L28.4238 34.2L27.3038 35.32ZM24.1038 35.32L22.9838 34.2L24.1038 33.08L25.2238 34.2L24.1038 35.32ZM20.9038 35.32L19.7838 34.2L20.9038 33.08L22.0238 34.2L20.9038 35.32ZM37.0638 35.8L38.5038 37.24L39.9438 35.8L38.5038 34.36L37.0638 35.8ZM40.2638 35.8L41.7038 37.24L43.1438 35.8L41.7038 34.36L40.2638 35.8ZM43.4638 35.8L44.9038 37.24L46.3438 35.8L44.9038 34.36L43.4638 35.8ZM46.6638 35.8L48.1038 37.24L49.5438 35.8L48.1038 34.36L46.6638 35.8ZM51.1438 35.96V34.52L49.8638 35.8L51.1438 37.24V35.96ZM66.3438 35.8C66.7704 36.0133 67.0904 36.3333 67.3038 36.76C67.5171 36.3333 67.7838 36.0133 68.1038 35.8C67.7838 35.5867 67.5171 35.32 67.3038 35C67.0904 35.32 66.7704 35.5867 66.3438 35.8ZM69.5438 35.8C69.9704 36.0133 70.2904 36.3333 70.5038 36.76C70.7171 36.3333 70.9838 36.0133 71.3038 35.8C70.9838 35.5867 70.7171 35.32 70.5038 35C70.2904 35.32 69.9704 35.5867 69.5438 35.8ZM72.9038 35.8C73.2238 36.0133 73.4904 36.3333 73.7038 36.76C73.9171 36.3333 74.1838 36.0133 74.5038 35.8C74.1838 35.5867 73.9171 35.32 73.7038 35C73.4904 35.32 73.2238 35.5867 72.9038 35.8ZM76.1038 35.8C76.4238 36.0133 76.6904 36.3333 76.9038 36.76C77.1171 36.3333 77.3838 36.0133 77.7038 35.8C77.3838 35.5867 77.1171 35.32 76.9038 35C76.6904 35.32 76.4238 35.5867 76.1038 35.8ZM79.3038 35.8C79.6238 36.0133 79.8904 36.3333 80.1038 36.76C80.3171 36.3333 80.5838 36.0133 80.9038 35.8C80.5838 35.5867 80.3171 35.32 80.1038 35C79.8904 35.32 79.6238 35.5867 79.3038 35.8ZM82.5037 35.8C82.8238 36.0133 83.0904 36.3333 83.3038 36.76C83.5171 36.3333 83.7838 36.0133 84.1038 35.8C83.7838 35.5867 83.5171 35.32 83.3038 35C83.0904 35.32 82.8238 35.5867 82.5037 35.8ZM85.7038 35.8C86.0238 36.0133 86.2904 36.3333 86.5038 36.76C86.7171 36.3333 86.9838 36.0133 87.3038 35.8C86.9838 35.5867 86.7171 35.32 86.5038 35C86.2904 35.32 86.0238 35.5867 85.7038 35.8ZM33.7038 36.12L34.9838 38.68H32.4238L33.7038 36.12ZM62.5038 38.52L61.3838 37.4L62.5038 36.28L63.6238 37.4L62.5038 38.52ZM59.3038 38.52L58.1838 37.4L59.3038 36.28L60.4238 37.4L59.3038 38.52ZM30.5038 38.52L29.3838 37.4L30.5038 36.28L31.6238 37.4L30.5038 38.52ZM27.3038 38.52L26.1838 37.4L27.3038 36.28L28.4238 37.4L27.3038 38.52ZM24.1038 38.52L22.9838 37.4L24.1038 36.28L25.2238 37.4L24.1038 38.52ZM20.9038 38.52L19.7838 37.4L20.9038 36.28L22.0238 37.4L20.9038 38.52ZM36.9038 39L38.5038 40.6L39.9438 39L38.5038 37.56L36.9038 39ZM40.2638 39L41.7038 40.6L43.1438 39L41.7038 37.56L40.2638 39ZM43.4638 39L44.9038 40.6L46.3438 39L44.9038 37.56L43.4638 39ZM46.6638 39L48.1038 40.6L49.5438 39L48.1038 37.56L46.6638 39ZM51.1438 39.16V37.56L49.8638 39L51.3038 40.44V39.16H51.1438ZM66.3438 39C66.7704 39.2133 67.0904 39.5333 67.3038 39.96C67.5171 39.5333 67.8371 39.2133 68.2638 39C67.8371 38.7867 67.5171 38.4667 67.3038 38.04C67.0904 38.4667 66.7704 38.7867 66.3438 39ZM69.5438 39C69.9704 39.2133 70.2904 39.5333 70.5038 39.96C70.7171 39.5333 71.0371 39.2133 71.4638 39C71.0371 38.7867 70.7171 38.4667 70.5038 38.04C70.2904 38.4667 69.9704 38.7867 69.5438 39ZM72.7438 39C73.1704 39.2133 73.4904 39.5333 73.7038 39.96C73.9171 39.5333 74.2371 39.2133 74.6638 39C74.2371 38.7867 73.9171 38.4667 73.7038 38.04C73.4904 38.4667 73.1704 38.7867 72.7438 39ZM75.9438 39C76.3704 39.2133 76.6904 39.5333 76.9038 39.96C77.1171 39.5333 77.4371 39.2133 77.8638 39C77.4371 38.7867 77.1171 38.4667 76.9038 38.04C76.6904 38.4667 76.3704 38.7867 75.9438 39ZM79.1438 39C79.5704 39.2133 79.8904 39.5333 80.1038 39.96C80.3171 39.5333 80.6371 39.2133 81.0638 39C80.6371 38.7867 80.3171 38.4667 80.1038 38.04C79.8904 38.4667 79.5704 38.7867 79.1438 39ZM82.3438 39C82.7704 39.2133 83.0904 39.5333 83.3038 39.96C83.5171 39.5333 83.8371 39.2133 84.2638 39C83.8371 38.7867 83.5171 38.4667 83.3038 38.04C83.0904 38.4667 82.7704 38.7867 82.3438 39ZM85.5438 39C85.9704 39.2133 86.2904 39.5333 86.5038 39.96C86.7171 39.5333 87.0371 39.2133 87.4638 39C87.0371 38.7867 86.7171 38.4667 86.5038 38.04C86.2904 38.4667 85.9704 38.7867 85.5438 39ZM33.7038 39.48L34.8238 41.72H32.5838L33.7038 39.48ZM62.5038 41.72L61.3838 40.6L62.5038 39.48L63.6238 40.6L62.5038 41.72ZM59.3038 41.72L58.1838 40.6L59.3038 39.48L60.4238 40.6L59.3038 41.72ZM30.5038 41.72L29.3838 40.6L30.5038 39.48L31.6238 40.6L30.5038 41.72ZM27.3038 41.72L26.1838 40.6L27.3038 39.48L28.4238 40.6L27.3038 41.72ZM24.1038 41.72L22.9838 40.6L24.1038 39.48L25.2238 40.6L24.1038 41.72ZM20.9038 41.72L19.7838 40.6L20.9038 39.48L22.0238 40.6L20.9038 41.72ZM17.7038 41.72L16.5838 40.6L17.7038 39.48L18.8238 40.6L17.7038 41.72ZM36.9038 42.2L38.5038 43.8L40.1038 42.2L38.5038 40.6L36.9038 42.2ZM40.1038 42.2L41.7038 43.8L43.3038 42.2L41.7038 40.6L40.1038 42.2ZM43.3038 42.2L44.9038 43.8L46.5038 42.2L44.9038 40.6L43.3038 42.2ZM66.3438 42.2C66.7704 42.4133 67.0904 42.7333 67.3038 43.16C67.5171 42.7333 67.8371 42.4133 68.2638 42.2C67.8371 41.9867 67.5171 41.6667 67.3038 41.24C67.0904 41.6667 66.7704 41.9867 66.3438 42.2ZM69.5438 42.2C69.9704 42.4133 70.2904 42.7333 70.5038 43.16C70.7171 42.7333 71.0371 42.4133 71.4638 42.2C71.0371 41.9867 70.7171 41.6667 70.5038 41.24C70.2904 41.6667 69.9704 41.9867 69.5438 42.2ZM72.7438 42.2C73.1704 42.4133 73.4904 42.7333 73.7038 43.16C73.9171 42.7333 74.2371 42.4133 74.6638 42.2C74.2371 41.9867 73.9171 41.6667 73.7038 41.24C73.4904 41.6667 73.1704 41.9867 72.7438 42.2ZM75.9438 42.2C76.3704 42.4133 76.6904 42.7333 76.9038 43.16C77.1171 42.7333 77.4371 42.4133 77.8638 42.2C77.4371 41.9867 77.1171 41.6667 76.9038 41.24C76.6904 41.6667 76.3704 41.9867 75.9438 42.2ZM79.1438 42.2C79.5704 42.4133 79.8904 42.7333 80.1038 43.16C80.3171 42.7333 80.6371 42.4133 81.0638 42.2C80.6371 41.9867 80.3171 41.6667 80.1038 41.24C79.8904 41.6667 79.5704 41.9867 79.1438 42.2ZM82.3438 42.2C82.7704 42.4133 83.0904 42.7333 83.3038 43.16C83.5171 42.7333 83.8371 42.4133 84.2638 42.2C83.8371 41.9867 83.5171 41.6667 83.3038 41.24C83.0904 41.6667 82.7704 41.9867 82.3438 42.2ZM85.5438 42.2C85.9704 42.4133 86.2904 42.7333 86.5038 43.16C86.7171 42.7333 87.0371 42.4133 87.4638 42.2C87.0371 41.9867 86.7171 41.6667 86.5038 41.24C86.2904 41.6667 85.9704 41.9867 85.5438 42.2ZM33.7038 42.68L34.8238 44.92H32.5838L33.7038 42.68ZM62.5038 44.92L61.3838 43.8L62.5038 42.68L63.6238 43.8L62.5038 44.92ZM59.3038 44.92L58.1838 43.8L59.3038 42.68L60.4238 43.8L59.3038 44.92ZM30.5038 44.92L29.3838 43.8L30.5038 42.68L31.6238 43.8L30.5038 44.92ZM27.3038 44.92L26.1838 43.8L27.3038 42.68L28.4238 43.8L27.3038 44.92ZM24.1038 44.92L22.9838 43.8L24.1038 42.68L25.2238 43.8L24.1038 44.92ZM20.9038 44.92L19.7838 43.8L20.9038 42.68L22.0238 43.8L20.9038 44.92ZM17.7038 44.92L16.5838 43.8L17.7038 42.68L18.8238 43.8L17.7038 44.92ZM14.5038 44.92L13.3838 43.8L14.5038 42.68L15.6238 43.8L14.5038 44.92ZM36.9038 45.4L38.5038 47L40.1038 45.4L38.5038 43.8L36.9038 45.4ZM40.1038 45.4L41.7038 47L43.3038 45.4L41.7038 43.8L40.1038 45.4ZM66.1838 45.4C66.7171 45.6133 67.0904 45.9867 67.3038 46.52C67.5171 45.9867 67.8904 45.6133 68.4238 45.4C67.8904 45.1867 67.5171 44.8667 67.3038 44.44C67.0904 44.8667 66.7171 45.1867 66.1838 45.4ZM69.3838 45.4C69.9171 45.6133 70.2904 45.9867 70.5038 46.52C70.7171 45.9867 71.0904 45.6133 71.6238 45.4C71.0904 45.1867 70.7171 44.8667 70.5038 44.44C70.2904 44.8667 69.9171 45.1867 69.3838 45.4ZM72.5838 45.4C73.1171 45.6133 73.4904 45.9867 73.7038 46.52C73.9171 45.9867 74.2904 45.6133 74.8238 45.4C74.2904 45.1867 73.9171 44.8667 73.7038 44.44C73.4904 44.8667 73.1171 45.1867 72.5838 45.4ZM75.7838 45.4C76.3171 45.6133 76.6904 45.9867 76.9038 46.52C77.1171 45.9867 77.4904 45.6133 78.0238 45.4C77.4904 45.1867 77.1171 44.8667 76.9038 44.44C76.6904 44.8667 76.3171 45.1867 75.7838 45.4ZM78.9838 45.4C79.5171 45.6133 79.8904 45.9867 80.1038 46.52C80.3171 45.9867 80.6904 45.6133 81.2238 45.4C80.6904 45.1867 80.3171 44.8667 80.1038 44.44C79.8904 44.8667 79.5171 45.1867 78.9838 45.4ZM82.1838 45.4C82.7171 45.6133 83.0904 45.9867 83.3038 46.52C83.5171 45.9867 83.8904 45.6133 84.4238 45.4C83.8904 45.1867 83.5171 44.8667 83.3038 44.44C83.0904 44.8667 82.7171 45.1867 82.1838 45.4ZM85.3838 45.4C85.9171 45.6133 86.2904 45.9867 86.5038 46.52C86.7171 45.9867 87.0904 45.6133 87.6238 45.4C87.0904 45.1867 86.7171 44.8667 86.5038 44.44C86.2904 44.8667 85.9171 45.1867 85.3838 45.4ZM33.7038 45.88L34.8238 48.12H32.5838L33.7038 45.88ZM62.5038 48.12L61.3838 47L62.5038 45.88L63.6238 47L62.5038 48.12ZM59.3038 48.12L58.1838 47L59.3038 45.88L60.4238 47L59.3038 48.12ZM30.5038 48.12L29.3838 47L30.5038 45.88L31.6238 47L30.5038 48.12ZM27.3038 48.12L26.1838 47L27.3038 45.88L28.4238 47L27.3038 48.12ZM24.1038 48.12L22.9838 47L24.1038 45.88L25.2238 47L24.1038 48.12ZM20.9038 48.12L19.7838 47L20.9038 45.88L22.0238 47L20.9038 48.12ZM17.7038 48.12L16.5838 47L17.7038 45.88L18.8238 47L17.7038 48.12ZM14.5038 48.12L13.3838 47L14.5038 45.88L15.6238 47L14.5038 48.12ZM11.3038 48.12L10.1838 47L11.3038 45.88L12.4238 47L11.3038 48.12ZM66.1838 48.6C66.7171 48.8133 67.0904 49.1867 67.3038 49.72C67.5171 49.1867 67.8904 48.8133 68.4238 48.6C67.8904 48.3867 67.5171 48.0133 67.3038 47.48C67.0904 48.0133 66.7171 48.3867 66.1838 48.6ZM69.3838 48.6C69.9171 48.8133 70.2904 49.1867 70.5038 49.72C70.7171 49.1867 71.0904 48.8133 71.6238 48.6C71.0904 48.3867 70.7171 48.0133 70.5038 47.48C70.2904 48.0133 69.9171 48.3867 69.3838 48.6ZM72.5838 48.6C73.1171 48.8133 73.4904 49.1867 73.7038 49.72C73.9171 49.1867 74.2904 48.8133 74.8238 48.6C74.2904 48.3867 73.9171 48.0133 73.7038 47.48C73.4904 48.0133 73.1171 48.3867 72.5838 48.6ZM75.7838 48.6C76.3171 48.8133 76.6904 49.1867 76.9038 49.72C77.1171 49.1867 77.4904 48.8133 78.0238 48.6C77.4904 48.3867 77.1171 48.0133 76.9038 47.48C76.6904 48.0133 76.3171 48.3867 75.7838 48.6ZM78.9838 48.6C79.5171 48.8133 79.8904 49.1867 80.1038 49.72C80.3171 49.1867 80.6904 48.8133 81.2238 48.6C80.6904 48.3867 80.3171 48.0133 80.1038 47.48C79.8904 48.0133 79.5171 48.3867 78.9838 48.6ZM82.1838 48.6C82.7171 48.8133 83.0904 49.1867 83.3038 49.72C83.5171 49.1867 83.8904 48.8133 84.4238 48.6C83.8904 48.3867 83.5171 48.0133 83.3038 47.48C83.0904 48.0133 82.7171 48.3867 82.1838 48.6ZM85.3838 48.6C85.9171 48.8133 86.2904 49.1867 86.5038 49.72C86.7171 49.1867 87.0904 48.8133 87.6238 48.6C87.0904 48.3867 86.7171 48.0133 86.5038 47.48C86.2904 48.0133 85.9171 48.3867 85.3838 48.6ZM54.5038 51.8H51.3038V48.6H54.5038V51.8ZM43.3038 48.6L44.9038 51.8H41.7038L43.3038 48.6ZM40.1038 48.6L41.7038 51.8H38.5038L40.1038 48.6ZM36.9038 48.6L38.5038 51.8H35.3038L36.9038 48.6ZM33.7038 49.08L34.8238 51.32H32.5838L33.7038 49.08ZM62.5038 51.16L61.5438 50.2L62.5038 49.24L63.4638 50.2L62.5038 51.16ZM59.3038 51.16L58.3438 50.2L59.3038 49.24L60.2638 50.2L59.3038 51.16ZM30.5038 51.16L29.5438 50.2L30.5038 49.24L31.4638 50.2L30.5038 51.16ZM27.3038 51.16L26.3438 50.2L27.3038 49.24L28.2638 50.2L27.3038 51.16ZM24.1038 51.16L23.1438 50.2L24.1038 49.24L25.0638 50.2L24.1038 51.16ZM20.9038 51.16L19.9438 50.2L20.9038 49.24L21.8638 50.2L20.9038 51.16ZM17.7038 51.16L16.7438 50.2L17.7038 49.24L18.6638 50.2L17.7038 51.16ZM14.5038 51.16L13.5438 50.2L14.5038 49.24L15.4637 50.2L14.5038 51.16ZM11.3038 51.16L10.3438 50.2L11.3038 49.24L12.2638 50.2L11.3038 51.16ZM66.0238 51.8C66.9838 52.0133 67.4104 52.44 67.3038 53.08C67.5171 52.12 67.9438 51.6933 68.5838 51.8C67.9438 51.6933 67.5171 51.32 67.3038 50.68C66.9838 51.5333 66.5571 51.9067 66.0238 51.8ZM69.2238 51.8C70.1838 52.0133 70.6104 52.44 70.5038 53.08C70.7171 52.12 71.1438 51.6933 71.7838 51.8C71.1438 51.6933 70.7171 51.32 70.5038 50.68C70.1838 51.5333 69.7571 51.9067 69.2238 51.8ZM72.4238 51.8C73.3838 52.0133 73.8104 52.44 73.7038 53.08C73.9171 52.12 74.3438 51.6933 74.9838 51.8C74.3438 51.6933 73.9171 51.32 73.7038 50.68C73.3838 51.5333 72.9571 51.9067 72.4238 51.8ZM75.6238 51.8C76.5838 52.0133 77.0104 52.44 76.9038 53.08C77.1171 52.12 77.5438 51.6933 78.1838 51.8C77.5438 51.6933 77.1171 51.32 76.9038 50.68C76.5838 51.5333 76.1571 51.9067 75.6238 51.8ZM78.8237 51.8C79.7837 52.0133 80.2104 52.44 80.1038 53.08C80.3171 52.12 80.7438 51.6933 81.3838 51.8C80.7438 51.6933 80.3171 51.32 80.1038 50.68C79.7838 51.5333 79.3571 51.9067 78.8237 51.8ZM82.0238 51.8C82.9838 52.0133 83.4104 52.44 83.3038 53.08C83.5171 52.12 83.9438 51.6933 84.5838 51.8C83.9438 51.6933 83.5171 51.32 83.3038 50.68C82.9838 51.5333 82.5571 51.9067 82.0238 51.8ZM85.2238 51.8C86.1838 52.0133 86.6104 52.44 86.5038 53.08C86.7171 52.12 87.1438 51.6933 87.7838 51.8C87.1438 51.6933 86.7171 51.32 86.5038 50.68C86.1838 51.5333 85.7571 51.9067 85.2238 51.8ZM57.7038 55H54.5038V51.8H57.7038V55ZM54.5038 55H51.3038V51.8H54.5038V55ZM40.1038 51.8L41.7038 55H38.5038L40.1038 51.8ZM36.9038 51.8L38.5038 55H35.3038L36.9038 51.8ZM33.7038 52.28L34.8238 54.52H32.5838L33.7038 52.28ZM62.5038 54.36L61.5438 53.4L62.5038 52.44L63.4638 53.4L62.5038 54.36ZM59.3038 54.36L58.3438 53.4L59.3038 52.44L60.2638 53.4L59.3038 54.36ZM30.5038 54.36L29.5438 53.4L30.5038 52.44L31.4638 53.4L30.5038 54.36ZM27.3038 54.36L26.3438 53.4L27.3038 52.44L28.2638 53.4L27.3038 54.36ZM24.1038 54.36L23.1438 53.4L24.1038 52.44L25.0638 53.4L24.1038 54.36ZM20.9038 54.36L19.9438 53.4L20.9038 52.44L21.8638 53.4L20.9038 54.36ZM17.7038 54.36L16.7438 53.4L17.7038 52.44L18.6638 53.4L17.7038 54.36ZM14.5038 54.36L13.5438 53.4L14.5038 52.44L15.4637 53.4L14.5038 54.36ZM11.3038 54.36L10.3438 53.4L11.3038 52.44L12.2638 53.4L11.3038 54.36ZM8.10375 54.36L7.14375 53.4L8.10375 52.44L9.06375 53.4L8.10375 54.36ZM57.7038 58.2H54.5038V55H57.7038V58.2ZM54.5038 58.2H51.3038V55H54.5038V58.2ZM36.9038 55L38.5038 58.2H35.3038L36.9038 55ZM88.1038 58.04L86.6638 56.6L88.1038 55.16L89.5438 56.6L88.1038 58.04ZM84.9038 58.04L83.4638 56.6L84.9038 55.16L86.3438 56.6L84.9038 58.04ZM81.7038 58.04L80.2638 56.6L81.7038 55.16L83.1438 56.6L81.7038 58.04ZM78.5038 58.04L77.0638 56.6L78.5038 55.16L79.9438 56.6L78.5038 58.04ZM75.3038 58.04L73.8638 56.6L75.3038 55.16L76.7438 56.6L75.3038 58.04ZM72.1038 58.04L70.6638 56.6L72.1038 55.16L73.5438 56.6L72.1038 58.04ZM68.9038 58.04L67.4638 56.6L68.9038 55.16L70.3438 56.6L68.9038 58.04ZM65.7038 58.04L64.2638 56.6L65.7038 55.16L67.1438 56.6L65.7038 58.04ZM33.7038 55.48L34.8238 57.72H32.5838L33.7038 55.48ZM62.5038 57.56L61.5438 56.6L62.5038 55.64L63.4638 56.6L62.5038 57.56ZM59.3038 57.56L58.3438 56.6L59.3038 55.64L60.2638 56.6L59.3038 57.56ZM30.5038 57.56L29.5438 56.6L30.5038 55.64L31.4638 56.6L30.5038 57.56ZM27.3038 57.56L26.3438 56.6L27.3038 55.64L28.2638 56.6L27.3038 57.56ZM24.1038 57.56L23.1438 56.6L24.1038 55.64L25.0638 56.6L24.1038 57.56ZM20.9038 57.56L19.9438 56.6L20.9038 55.64L21.8638 56.6L20.9038 57.56ZM17.7038 57.56L16.7438 56.6L17.7038 55.64L18.6638 56.6L17.7038 57.56ZM14.5038 57.56L13.5438 56.6L14.5038 55.64L15.4637 56.6L14.5038 57.56ZM11.3038 57.56L10.3438 56.6L11.3038 55.64L12.2638 56.6L11.3038 57.56ZM8.10375 57.56L7.14375 56.6L8.10375 55.64L9.06375 56.6L8.10375 57.56ZM4.90375 57.56L3.94375 56.6L4.90375 55.64L5.86375 56.6L4.90375 57.56ZM57.5438 61.24H54.6638V58.36H57.5438V61.24ZM54.3438 61.24H51.4638V58.36H54.3438V61.24ZM88.1038 61.24L86.6638 59.8L88.1038 58.36L89.5438 59.8L88.1038 61.24ZM84.9038 61.24L83.4638 59.8L84.9038 58.36L86.3438 59.8L84.9038 61.24ZM81.7038 61.24L80.2638 59.8L81.7038 58.36L83.1438 59.8L81.7038 61.24ZM78.5038 61.24L77.0638 59.8L78.5038 58.36L79.9438 59.8L78.5038 61.24ZM75.3038 61.24L73.8638 59.8L75.3038 58.36L76.7438 59.8L75.3038 61.24ZM72.1038 61.24L70.6638 59.8L72.1038 58.36L73.5438 59.8L72.1038 61.24ZM68.9038 61.24L67.4638 59.8L68.9038 58.36L70.3438 59.8L68.9038 61.24ZM65.7038 61.24L64.2638 59.8L65.7038 58.36L67.1438 59.8L65.7038 61.24ZM33.7038 58.84L34.6638 60.76H32.7438L33.7038 58.84ZM62.5038 60.76L61.5438 59.8L62.5038 58.84L63.4638 59.8L62.5038 60.76ZM59.3038 60.76L58.3438 59.8L59.3038 58.84L60.2638 59.8L59.3038 60.76ZM30.5038 60.76L29.5438 59.8L30.5038 58.84L31.4638 59.8L30.5038 60.76ZM27.3038 60.76L26.3438 59.8L27.3038 58.84L28.2638 59.8L27.3038 60.76ZM24.1038 60.76L23.1438 59.8L24.1038 58.84L25.0638 59.8L24.1038 60.76ZM20.9038 60.76L19.9438 59.8L20.9038 58.84L21.8638 59.8L20.9038 60.76ZM17.7038 60.76L16.7438 59.8L17.7038 58.84L18.6638 59.8L17.7038 60.76ZM14.5038 60.76L13.5438 59.8L14.5038 58.84L15.4637 59.8L14.5038 60.76ZM11.3038 60.76L10.3438 59.8L11.3038 58.84L12.2638 59.8L11.3038 60.76ZM8.10375 60.76L7.14375 59.8L8.10375 58.84L9.06375 59.8L8.10375 60.76ZM4.90375 60.76L3.94375 59.8L4.90375 58.84L5.86375 59.8L4.90375 60.76ZM1.70375 60.76L0.74375 59.8L1.70375 58.84L2.66375 59.8L1.70375 60.76ZM57.5438 64.44H54.6638V61.56H57.5438V64.44ZM54.3438 64.44H51.4638V61.56H54.3438V64.44ZM49.7038 61.56L51.1438 64.44H48.2638L49.7038 61.56ZM46.5038 61.56L47.9438 64.44H45.0638L46.5038 61.56ZM43.3038 61.56L44.7438 64.44H41.8638L43.3038 61.56ZM40.1038 61.56L41.5438 64.44H38.6638L40.1038 61.56ZM36.9038 61.56L38.3438 64.44H35.4637L36.9038 61.56ZM88.1038 64.44L86.6638 63L88.1038 61.56L89.5438 63L88.1038 64.44ZM84.9038 64.44L83.4638 63L84.9038 61.56L86.3438 63L84.9038 64.44ZM81.7038 64.44L80.2638 63L81.7038 61.56L83.1438 63L81.7038 64.44ZM78.5038 64.44L77.0638 63L78.5038 61.56L79.9438 63L78.5038 64.44ZM75.3038 64.44L73.8638 63L75.3038 61.56L76.7438 63L75.3038 64.44ZM72.1038 64.44L70.6638 63L72.1038 61.56L73.5438 63L72.1038 64.44ZM68.9038 64.44L67.4638 63L68.9038 61.56L70.3438 63L68.9038 64.44ZM65.7038 64.44L64.2638 63L65.7038 61.56L67.1438 63L65.7038 64.44ZM95.6238 64.12H93.3838V61.88H95.6238V64.12ZM92.4238 64.12H90.1838V61.88H92.4238V64.12ZM104.104 63.96C103.464 63.96 103.144 63.64 103.144 63C103.144 62.36 103.464 62.04 104.104 62.04C104.744 62.04 105.064 62.36 105.064 63C105.064 63.64 104.744 63.96 104.104 63.96ZM100.904 63.96C100.264 63.96 99.9438 63.64 99.9438 63C99.9438 62.36 100.264 62.04 100.904 62.04C101.544 62.04 101.864 62.36 101.864 63C101.864 63.64 101.544 63.96 100.904 63.96ZM97.7038 63.96C97.0638 63.96 96.7438 63.64 96.7438 63C96.7438 62.36 97.0638 62.04 97.7038 62.04C98.3438 62.04 98.6638 62.36 98.6638 63C98.6638 63.64 98.3438 63.96 97.7038 63.96ZM33.7038 62.04L34.6638 63.96H32.7438L33.7038 62.04ZM62.5038 63.96L61.5438 63L62.5038 62.04L63.4638 63L62.5038 63.96ZM59.3038 63.96L58.3438 63L59.3038 62.04L60.2638 63L59.3038 63.96ZM30.5038 63.96L29.5438 63L30.5038 62.04L31.4638 63L30.5038 63.96ZM27.3038 63.96L26.3438 63L27.3038 62.04L28.2638 63L27.3038 63.96ZM24.1038 63.96L23.1438 63L24.1038 62.04L25.0638 63L24.1038 63.96ZM20.9038 63.96L19.9438 63L20.9038 62.04L21.8638 63L20.9038 63.96ZM17.7038 63.96L16.7438 63L17.7038 62.04L18.6638 63L17.7038 63.96ZM14.5038 63.96L13.5438 63L14.5038 62.04L15.4637 63L14.5038 63.96ZM11.3038 63.96L10.3438 63L11.3038 62.04L12.2638 63L11.3038 63.96ZM8.10375 63.96L7.14375 63L8.10375 62.04L9.06375 63L8.10375 63.96ZM4.90375 63.96L3.94375 63L4.90375 62.04L5.86375 63L4.90375 63.96ZM1.70375 63.96L0.74375 63L1.70375 62.04L2.66375 63L1.70375 63.96ZM57.5438 67.64H54.6638V64.76H57.5438V67.64ZM54.3438 67.64H51.4638V64.76H54.3438V67.64ZM49.7038 64.76L51.1438 67.64H48.2638L49.7038 64.76ZM46.5038 64.76L47.9438 67.64H45.0638L46.5038 64.76ZM43.3038 64.76L44.7438 67.64H41.8638L43.3038 64.76ZM40.1038 64.76L41.5438 67.64H38.6638L40.1038 64.76ZM36.9038 64.76L38.3438 67.64H35.4637L36.9038 64.76ZM88.1038 67.64L86.6638 66.2L88.1038 64.76L89.5438 66.2L88.1038 67.64ZM84.9038 67.64L83.4638 66.2L84.9038 64.76L86.3438 66.2L84.9038 67.64ZM81.7038 67.64L80.2638 66.2L81.7038 64.76L83.1438 66.2L81.7038 67.64ZM78.5038 67.64L77.0638 66.2L78.5038 64.76L79.9438 66.2L78.5038 67.64ZM75.3038 67.64L73.8638 66.2L75.3038 64.76L76.7438 66.2L75.3038 67.64ZM72.1038 67.64L70.6638 66.2L72.1038 64.76L73.5438 66.2L72.1038 67.64ZM68.9038 67.64L67.4638 66.2L68.9038 64.76L70.3438 66.2L68.9038 67.64ZM65.7038 67.64L64.2638 66.2L65.7038 64.76L67.1438 66.2L65.7038 67.64ZM95.6238 67.32H93.3838V65.08H95.6238V67.32ZM92.4238 67.32H90.1838V65.08H92.4238V67.32ZM107.304 67.16C106.664 67.16 106.344 66.84 106.344 66.2C106.344 65.56 106.664 65.24 107.304 65.24C107.944 65.24 108.264 65.56 108.264 66.2C108.264 66.84 107.944 67.16 107.304 67.16ZM104.104 67.16C103.464 67.16 103.144 66.84 103.144 66.2C103.144 65.56 103.464 65.24 104.104 65.24C104.744 65.24 105.064 65.56 105.064 66.2C105.064 66.84 104.744 67.16 104.104 67.16ZM100.904 67.16C100.264 67.16 99.9438 66.84 99.9438 66.2C99.9438 65.56 100.264 65.24 100.904 65.24C101.544 65.24 101.864 65.56 101.864 66.2C101.864 66.84 101.544 67.16 100.904 67.16ZM97.7038 67.16C97.0638 67.16 96.7438 66.84 96.7438 66.2C96.7438 65.56 97.0638 65.24 97.7038 65.24C98.3438 65.24 98.6638 65.56 98.6638 66.2C98.6638 66.84 98.3438 67.16 97.7038 67.16ZM33.7038 65.24L34.6638 67.16H32.7438L33.7038 65.24ZM62.5038 67.16L61.5438 66.2L62.5038 65.24L63.4638 66.2L62.5038 67.16ZM59.3038 67.16L58.3438 66.2L59.3038 65.24L60.2638 66.2L59.3038 67.16ZM30.5038 67L29.7038 66.2L30.5038 65.24L31.4638 66.2L30.5038 67ZM27.3038 67L26.5038 66.2L27.3038 65.4L28.1038 66.2L27.3038 67ZM24.1038 67L23.3038 66.2L24.1038 65.4L24.9038 66.2L24.1038 67ZM20.9038 67L20.1038 66.2L20.9038 65.4L21.7038 66.2L20.9038 67ZM17.7038 67L16.9038 66.2L17.7038 65.4L18.5038 66.2L17.7038 67ZM14.5038 67L13.7038 66.2L14.5038 65.4L15.3038 66.2L14.5038 67ZM11.3038 67L10.5038 66.2L11.3038 65.4L12.1038 66.2L11.3038 67ZM8.10375 67L7.30375 66.2L8.10375 65.4L8.90375 66.2L8.10375 67ZM4.90375 67L4.10375 66.2L4.90375 65.4L5.70375 66.2L4.90375 67ZM1.70375 67L0.90375 66.2L1.70375 65.4L2.50375 66.2L1.70375 67ZM57.5438 70.84H54.6638V67.96H57.5438V70.84ZM54.3438 70.84H51.4638V67.96H54.3438V70.84ZM49.7038 67.96L51.1438 70.84H48.2638L49.7038 67.96ZM46.5038 67.96L47.9438 70.84H45.0638L46.5038 67.96ZM43.3038 67.96L44.7438 70.84H41.8638L43.3038 67.96ZM40.1038 67.96L41.5438 70.84H38.6638L40.1038 67.96ZM36.9038 67.96L38.3438 70.84H35.4637L36.9038 67.96ZM88.1038 70.68L86.8238 69.4L88.1038 68.12L89.3838 69.4L88.1038 70.68ZM84.9038 70.68L83.6238 69.4L84.9038 68.12L86.1838 69.4L84.9038 70.68ZM81.7038 70.68L80.4238 69.4L81.7038 68.12L82.9838 69.4L81.7038 70.68ZM78.5038 70.68L77.2238 69.4L78.5038 68.12L79.7838 69.4L78.5038 70.68ZM75.3038 70.68L74.0238 69.4L75.3038 68.12L76.5837 69.4L75.3038 70.68ZM72.1038 70.68L70.8238 69.4L72.1038 68.12L73.3838 69.4L72.1038 70.68ZM68.9038 70.68L67.6238 69.4L68.9038 68.12L70.1838 69.4L68.9038 70.68ZM65.7038 70.68L64.4238 69.4L65.7038 68.12L66.9838 69.4L65.7038 70.68ZM95.4638 70.36H93.5438V68.44H95.4638V70.36ZM92.2638 70.36H90.3438V68.44H92.2638V70.36ZM107.304 70.36C106.664 70.36 106.344 70.04 106.344 69.4C106.344 68.76 106.664 68.44 107.304 68.44C107.944 68.44 108.264 68.76 108.264 69.4C108.264 70.04 107.944 70.36 107.304 70.36ZM104.104 70.36C103.464 70.36 103.144 70.04 103.144 69.4C103.144 68.76 103.464 68.44 104.104 68.44C104.744 68.44 105.064 68.76 105.064 69.4C105.064 70.04 104.744 70.36 104.104 70.36ZM100.904 70.36C100.264 70.36 99.9438 70.04 99.9438 69.4C99.9438 68.76 100.264 68.44 100.904 68.44C101.544 68.44 101.864 68.76 101.864 69.4C101.864 70.04 101.544 70.36 100.904 70.36ZM97.7038 70.36C97.0638 70.36 96.7438 70.04 96.7438 69.4C96.7438 68.76 97.0638 68.44 97.7038 68.44C98.3438 68.44 98.6638 68.76 98.6638 69.4C98.6638 70.04 98.3438 70.36 97.7038 70.36ZM33.7038 68.44L34.6638 70.36H32.7438L33.7038 68.44ZM62.5038 70.2L61.7038 69.4L62.5038 68.6L63.3038 69.4L62.5038 70.2ZM59.3038 70.2L58.5038 69.4L59.3038 68.6L60.1038 69.4L59.3038 70.2ZM30.5038 70.2L29.7038 69.4L30.5038 68.6L31.3038 69.4L30.5038 70.2ZM27.3038 70.2L26.5038 69.4L27.3038 68.6L28.1038 69.4L27.3038 70.2ZM24.1038 70.2L23.3038 69.4L24.1038 68.6L24.9038 69.4L24.1038 70.2ZM20.9038 70.2L20.1038 69.4L20.9038 68.6L21.7038 69.4L20.9038 70.2ZM17.7038 70.2L16.9038 69.4L17.7038 68.6L18.5038 69.4L17.7038 70.2ZM14.5038 70.2L13.7038 69.4L14.5038 68.6L15.3038 69.4L14.5038 70.2ZM11.3038 70.2L10.5038 69.4L11.3038 68.6L12.1038 69.4L11.3038 70.2ZM8.10375 70.2L7.30375 69.4L8.10375 68.6L8.90375 69.4L8.10375 70.2ZM4.90375 70.2L4.10375 69.4L4.90375 68.6L5.70375 69.4L4.90375 70.2ZM1.70375 70.2L0.90375 69.4L1.70375 68.6L2.50375 69.4L1.70375 70.2ZM57.5438 74.04H54.6638V71.16H57.5438V74.04ZM54.3438 74.04H51.4638V71.16H54.3438V74.04ZM49.7038 71.16L51.1438 74.04H48.2638L49.7038 71.16ZM46.5038 71.16L47.9438 74.04H45.0638L46.5038 71.16ZM43.3038 71.16L44.7438 74.04H41.8638L43.3038 71.16ZM40.1038 71.16L41.5438 74.04H38.6638L40.1038 71.16ZM36.9038 71.16L38.3438 74.04H35.4637L36.9038 71.16ZM88.1038 73.88L86.8238 72.6L88.1038 71.32L89.3838 72.6L88.1038 73.88ZM84.9038 73.88L83.6238 72.6L84.9038 71.32L86.1838 72.6L84.9038 73.88ZM81.7038 73.88L80.4238 72.6L81.7038 71.32L82.9838 72.6L81.7038 73.88ZM78.5038 73.88L77.2238 72.6L78.5038 71.32L79.7838 72.6L78.5038 73.88ZM75.3038 73.88L74.0238 72.6L75.3038 71.32L76.5837 72.6L75.3038 73.88ZM72.1038 73.88L70.8238 72.6L72.1038 71.32L73.3838 72.6L72.1038 73.88ZM68.9038 73.88L67.6238 72.6L68.9038 71.32L70.1838 72.6L68.9038 73.88ZM65.7038 73.88L64.4238 72.6L65.7038 71.32L66.9838 72.6L65.7038 73.88ZM95.4638 73.56H93.5438V71.64H95.4638V73.56ZM92.2638 73.56H90.3438V71.64H92.2638V73.56ZM107.304 73.56C106.664 73.56 106.344 73.24 106.344 72.6C106.344 71.96 106.664 71.64 107.304 71.64C107.944 71.64 108.264 71.96 108.264 72.6C108.264 73.24 107.944 73.56 107.304 73.56ZM104.104 73.56C103.464 73.56 103.144 73.24 103.144 72.6C103.144 71.96 103.464 71.64 104.104 71.64C104.744 71.64 105.064 71.96 105.064 72.6C105.064 73.24 104.744 73.56 104.104 73.56ZM100.904 73.56C100.264 73.56 99.9438 73.24 99.9438 72.6C99.9438 71.96 100.264 71.64 100.904 71.64C101.544 71.64 101.864 71.96 101.864 72.6C101.864 73.24 101.544 73.56 100.904 73.56ZM97.7038 73.56C97.0638 73.56 96.7438 73.24 96.7438 72.6C96.7438 71.96 97.0638 71.64 97.7038 71.64C98.3438 71.64 98.6638 71.96 98.6638 72.6C98.6638 73.24 98.3438 73.56 97.7038 73.56ZM33.7038 71.64L34.6638 73.56H32.7438L33.7038 71.64ZM62.5038 73.4L61.7038 72.6L62.5038 71.8L63.3038 72.6L62.5038 73.4ZM59.3038 73.4L58.5038 72.6L59.3038 71.8L60.1038 72.6L59.3038 73.4ZM30.5038 73.4L29.7038 72.6L30.5038 71.8L31.3038 72.6L30.5038 73.4ZM27.3038 73.4L26.5038 72.6L27.3038 71.8L28.1038 72.6L27.3038 73.4ZM24.1038 73.4L23.3038 72.6L24.1038 71.8L24.9038 72.6L24.1038 73.4ZM20.9038 73.4L20.1038 72.6L20.9038 71.8L21.7038 72.6L20.9038 73.4ZM17.7038 73.4L16.9038 72.6L17.7038 71.8L18.5038 72.6L17.7038 73.4ZM14.5038 73.4L13.7038 72.6L14.5038 71.8L15.3038 72.6L14.5038 73.4ZM11.3038 73.4L10.5038 72.6L11.3038 71.8L12.1038 72.6L11.3038 73.4ZM8.10375 73.4L7.30375 72.6L8.10375 71.8L8.90375 72.6L8.10375 73.4ZM4.90375 73.4L4.10375 72.6L4.90375 71.8L5.70375 72.6L4.90375 73.4ZM1.70375 73.4L0.90375 72.6L1.70375 71.8L2.50375 72.6L1.70375 73.4ZM57.5438 77.24H54.6638V74.36H57.5438V77.24ZM54.3438 77.24H51.4638V74.36H54.3438V77.24ZM49.7038 74.36L51.1438 77.24H48.2638L49.7038 74.36ZM46.5038 74.36L47.9438 77.08H45.2238L46.5038 74.36ZM43.3038 74.52L44.5838 77.08H42.0238L43.3038 74.52ZM40.1038 74.52L41.3837 77.08H38.8238L40.1038 74.52ZM36.9038 74.52L38.1838 77.08H35.6238L36.9038 74.52ZM88.1038 77.08L86.8238 75.8L88.1038 74.52L89.3838 75.8L88.1038 77.08ZM84.9038 77.08L83.6238 75.8L84.9038 74.52L86.1838 75.8L84.9038 77.08ZM81.7038 77.08L80.4238 75.8L81.7038 74.52L82.9838 75.8L81.7038 77.08ZM78.5038 77.08L77.2238 75.8L78.5038 74.52L79.7838 75.8L78.5038 77.08ZM75.3038 77.08L74.0238 75.8L75.3038 74.52L76.5837 75.8L75.3038 77.08ZM72.1038 77.08L70.8238 75.8L72.1038 74.52L73.3838 75.8L72.1038 77.08ZM68.9038 77.08L67.6238 75.8L68.9038 74.52L70.1838 75.8L68.9038 77.08ZM65.7038 77.08L64.4238 75.8L65.7038 74.52L66.9838 75.8L65.7038 77.08ZM107.304 74.84L108.264 76.76H106.344L107.304 74.84ZM104.104 74.84L105.064 76.76H103.144L104.104 74.84ZM100.904 74.84L101.864 76.76H99.9438L100.904 74.84ZM97.7038 74.84L98.6638 76.76H96.7438L97.7038 74.84ZM95.4638 76.76H93.5438V74.84H95.4638V76.76ZM92.2638 76.76H90.3438V74.84H92.2638V76.76ZM33.7038 75L34.5038 76.6H32.9038L33.7038 75ZM62.5038 76.6L61.7038 75.8L62.5038 75L63.3038 75.8L62.5038 76.6ZM59.3038 76.6L58.5038 75.8L59.3038 75L60.1038 75.8L59.3038 76.6ZM30.5038 76.6L29.7038 75.8L30.5038 75L31.3038 75.8L30.5038 76.6ZM27.3038 76.6L26.5038 75.8L27.3038 75L28.1038 75.8L27.3038 76.6ZM24.1038 76.6L23.3038 75.8L24.1038 75L24.9038 75.8L24.1038 76.6ZM20.9038 76.6L20.1038 75.8L20.9038 75L21.7038 75.8L20.9038 76.6ZM17.7038 76.6L16.9038 75.8L17.7038 75L18.5038 75.8L17.7038 76.6ZM14.5038 76.6L13.7038 75.8L14.5038 75L15.3038 75.8L14.5038 76.6ZM11.3038 76.6L10.5038 75.8L11.3038 75L12.1038 75.8L11.3038 76.6ZM8.10375 76.6L7.30375 75.8L8.10375 75L8.90375 75.8L8.10375 76.6ZM4.90375 76.6L4.10375 75.8L4.90375 75L5.70375 75.8L4.90375 76.6ZM1.70375 76.6L0.90375 75.8L1.70375 75L2.50375 75.8L1.70375 76.6ZM57.3838 80.28H54.8238V77.72H57.3838V80.28ZM54.1838 80.28H51.6238V77.72H54.1838V80.28ZM49.7038 77.72L50.9838 80.28H48.4238L49.7038 77.72ZM46.5038 77.72L47.7838 80.28H45.2238L46.5038 77.72ZM43.3038 77.72L44.5838 80.28H42.0238L43.3038 77.72ZM40.1038 77.72L41.3837 80.28H38.8238L40.1038 77.72ZM36.9038 77.72L38.1838 80.28H35.6238L36.9038 77.72ZM88.1038 80.28L86.8238 79L88.1038 77.72L89.3838 79L88.1038 80.28ZM84.9038 80.28L83.6238 79L84.9038 77.72L86.1838 79L84.9038 80.28ZM81.7038 80.28L80.4238 79L81.7038 77.72L82.9838 79L81.7038 80.28ZM78.5038 80.28L77.2238 79L78.5038 77.72L79.7838 79L78.5038 80.28ZM75.3038 80.28L74.0238 79L75.3038 77.72L76.5837 79L75.3038 80.28ZM72.1038 80.28L70.8238 79L72.1038 77.72L73.3838 79L72.1038 80.28ZM68.9038 80.28L67.6238 79L68.9038 77.72L70.1838 79L68.9038 80.28ZM65.7038 80.28L64.4238 79L65.7038 77.72L66.9838 79L65.7038 80.28ZM107.304 78.04L108.264 79.96H106.344L107.304 78.04ZM104.104 78.04L105.064 79.96H103.144L104.104 78.04ZM100.904 78.04L101.864 79.96H99.9438L100.904 78.04ZM97.7038 78.04L98.6638 79.96H96.7438L97.7038 78.04ZM95.4638 79.96H93.5438V78.04H95.4638V79.96ZM92.2638 79.96H90.3438V78.04H92.2638V79.96ZM33.7038 78.2L34.5038 79.8H32.9038L33.7038 78.2ZM62.5038 79.8L61.7038 79L62.5038 78.2L63.3038 79L62.5038 79.8ZM59.3038 79.8L58.5038 79L59.3038 78.2L60.1038 79L59.3038 79.8ZM30.5038 79.8L29.7038 79L30.5038 78.2L31.3038 79L30.5038 79.8ZM27.3038 79.8L26.5038 79L27.3038 78.2L28.1038 79L27.3038 79.8ZM24.1038 79.8L23.3038 79L24.1038 78.2L24.9038 79L24.1038 79.8ZM20.9038 79.8L20.1038 79L20.9038 78.2L21.7038 79L20.9038 79.8ZM17.7038 79.8L16.9038 79L17.7038 78.2L18.5038 79L17.7038 79.8ZM14.5038 79.8L13.7038 79L14.5038 78.2L15.3038 79L14.5038 79.8ZM11.3038 79.8L10.5038 79L11.3038 78.2L12.1038 79L11.3038 79.8ZM8.10375 79.8L7.30375 79L8.10375 78.2L8.90375 79L8.10375 79.8ZM4.90375 79.8L4.10375 79L4.90375 78.2L5.70375 79L4.90375 79.8ZM1.70375 79.8L0.90375 79L1.70375 78.2L2.50375 79L1.70375 79.8ZM57.3838 83.48H54.8238V80.92H57.3838V83.48ZM54.1838 83.48H51.6238V80.92H54.1838V83.48ZM49.7038 80.92L50.9838 83.48H48.4238L49.7038 80.92ZM46.5038 80.92L47.7838 83.48H45.2238L46.5038 80.92ZM43.3038 80.92L44.5838 83.48H42.0238L43.3038 80.92ZM40.1038 80.92L41.3837 83.48H38.8238L40.1038 80.92ZM36.9038 80.92L38.1838 83.48H35.6238L36.9038 80.92ZM88.1038 83.48L86.8238 82.2L88.1038 80.92L89.3838 82.2L88.1038 83.48ZM84.9038 83.48L83.6238 82.2L84.9038 80.92L86.1838 82.2L84.9038 83.48ZM81.7038 83.48L80.4238 82.2L81.7038 80.92L82.9838 82.2L81.7038 83.48ZM78.5038 83.48L77.2238 82.2L78.5038 80.92L79.7838 82.2L78.5038 83.48ZM75.3038 83.48L74.0238 82.2L75.3038 80.92L76.5837 82.2L75.3038 83.48ZM72.1038 83.48L70.8238 82.2L72.1038 80.92L73.3838 82.2L72.1038 83.48ZM68.9038 83.48L67.6238 82.2L68.9038 80.92L70.1838 82.2L68.9038 83.48ZM65.7038 83.48L64.4238 82.2L65.7038 80.92L66.9838 82.2L65.7038 83.48ZM107.304 81.24L108.264 83.16H106.344L107.304 81.24ZM104.104 81.24L105.064 83.16H103.144L104.104 81.24ZM100.904 81.24L101.864 83.16H99.9438L100.904 81.24ZM97.7038 81.24L98.6638 83.16H96.7438L97.7038 81.24ZM95.4638 83.16H93.5438V81.24H95.4638V83.16ZM92.2638 83.16H90.3438V81.24H92.2638V83.16ZM33.7038 81.4L34.5038 83H32.9038L33.7038 81.4ZM62.5038 83L61.7038 82.2L62.5038 81.4L63.3038 82.2L62.5038 83ZM59.3038 83L58.5038 82.2L59.3038 81.4L60.1038 82.2L59.3038 83ZM30.5038 83L29.7038 82.2L30.5038 81.4L31.3038 82.2L30.5038 83ZM27.3038 83L26.5038 82.2L27.3038 81.4L28.1038 82.2L27.3038 83ZM24.1038 83L23.3038 82.2L24.1038 81.4L24.9038 82.2L24.1038 83ZM20.9038 83L20.1038 82.2L20.9038 81.4L21.7038 82.2L20.9038 83ZM17.7038 83L16.9038 82.2L17.7038 81.4L18.5038 82.2L17.7038 83ZM14.5038 83L13.7038 82.2L14.5038 81.4L15.3038 82.2L14.5038 83ZM11.3038 83L10.5038 82.2L11.3038 81.4L12.1038 82.2L11.3038 83ZM8.10375 83L7.30375 82.2L8.10375 81.4L8.90375 82.2L8.10375 83ZM4.90375 83L4.10375 82.2L4.90375 81.4L5.70375 82.2L4.90375 83ZM1.70375 83L0.90375 82.2L1.70375 81.4L2.50375 82.2L1.70375 83ZM57.3838 86.68H54.8238V84.12H57.3838V86.68ZM54.1838 86.68H51.6238V84.12H54.1838V86.68ZM49.7038 84.12L50.9838 86.68H48.4238L49.7038 84.12ZM46.5038 84.12L47.7838 86.68H45.2238L46.5038 84.12ZM43.3038 84.12L44.5838 86.68H42.0238L43.3038 84.12ZM40.1038 84.12L41.3837 86.68H38.8238L40.1038 84.12ZM36.9038 84.12L38.1838 86.68H35.6238L36.9038 84.12ZM88.1038 86.68L86.8238 85.4L88.1038 84.12L89.3838 85.4L88.1038 86.68ZM84.9038 86.68L83.6238 85.4L84.9038 84.12L86.1838 85.4L84.9038 86.68ZM81.7038 86.68L80.4238 85.4L81.7038 84.12L82.9838 85.4L81.7038 86.68ZM78.5038 86.68L77.2238 85.4L78.5038 84.12L79.7838 85.4L78.5038 86.68ZM75.3038 86.68L74.0238 85.4L75.3038 84.12L76.5837 85.4L75.3038 86.68ZM72.1038 86.68L70.8238 85.4L72.1038 84.12L73.3838 85.4L72.1038 86.68ZM68.9038 86.68L67.6238 85.4L68.9038 84.12L70.1838 85.4L68.9038 86.68ZM65.7038 86.68L64.4238 85.4L65.7038 84.12L66.9838 85.4L65.7038 86.68ZM107.304 84.44L108.264 86.36H106.344L107.304 84.44ZM104.104 84.44L105.064 86.36H103.144L104.104 84.44ZM100.904 84.44L101.864 86.36H99.9438L100.904 84.44ZM97.7038 84.44L98.6638 86.36H96.7438L97.7038 84.44ZM95.4638 86.36H93.5438V84.44H95.4638V86.36ZM92.2638 86.36H90.3438V84.44H92.2638V86.36ZM33.7038 84.6L34.5038 86.2H32.9038L33.7038 84.6ZM62.5038 86.04L61.8638 85.4L62.5038 84.6L63.3038 85.4L62.5038 86.04ZM59.3038 86.04L58.6638 85.4L59.3038 84.76L59.9438 85.4L59.3038 86.04ZM30.5038 86.04L29.8638 85.4L30.5038 84.76L31.1438 85.4L30.5038 86.04ZM27.3038 86.04L26.6638 85.4L27.3038 84.76L27.9438 85.4L27.3038 86.04ZM24.1038 86.04L23.4638 85.4L24.1038 84.76L24.7438 85.4L24.1038 86.04ZM20.9038 86.04L20.2638 85.4L20.9038 84.76L21.5438 85.4L20.9038 86.04ZM17.7038 86.04L17.0638 85.4L17.7038 84.76L18.3438 85.4L17.7038 86.04ZM14.5038 86.04L13.8638 85.4L14.5038 84.76L15.1438 85.4L14.5038 86.04ZM11.3038 86.04L10.6638 85.4L11.3038 84.76L11.9438 85.4L11.3038 86.04ZM8.10375 86.04L7.46375 85.4L8.10375 84.76L8.74375 85.4L8.10375 86.04ZM4.90375 86.04L4.26375 85.4L4.90375 84.76L5.54375 85.4L4.90375 86.04ZM1.70375 86.04L1.06375 85.4L1.70375 84.76L2.34375 85.4L1.70375 86.04ZM57.3838 89.88H54.8238V87.32H57.3838V89.88ZM54.1838 89.88H51.6238V87.32H54.1838V89.88ZM49.7038 87.32L50.9838 89.88H48.4238L49.7038 87.32ZM46.5038 87.32L47.7838 89.88H45.2238L46.5038 87.32ZM43.3038 87.32L44.5838 89.88H42.0238L43.3038 87.32ZM40.1038 87.32L41.3837 89.88H38.8238L40.1038 87.32ZM36.9038 87.32L38.1838 89.88H35.6238L36.9038 87.32ZM88.1038 89.72L86.9838 88.6L88.1038 87.48L89.2238 88.6L88.1038 89.72ZM84.9038 89.72L83.7838 88.6L84.9038 87.48L86.0238 88.6L84.9038 89.72ZM81.7038 89.72L80.5838 88.6L81.7038 87.48L82.8238 88.6L81.7038 89.72ZM78.5038 89.72L77.3838 88.6L78.5038 87.48L79.6238 88.6L78.5038 89.72ZM75.3038 89.72L74.1838 88.6L75.3038 87.48L76.4238 88.6L75.3038 89.72ZM72.1038 89.72L70.9838 88.6L72.1038 87.48L73.2238 88.6L72.1038 89.72ZM68.9038 89.72L67.7838 88.6L68.9038 87.48L70.0238 88.6L68.9038 89.72ZM65.7038 89.72L64.5838 88.6L65.7038 87.48L66.8238 88.6L65.7038 89.72ZM107.304 87.8L108.104 89.4H106.504L107.304 87.8ZM104.104 87.8L104.904 89.4H103.304L104.104 87.8ZM100.904 87.8L101.704 89.4H100.104L100.904 87.8ZM97.7038 87.8L98.5038 89.4H96.9038L97.7038 87.8ZM95.3038 89.4H93.7038V87.8H95.3038V89.4ZM92.1038 89.4H90.5038V87.8H92.1038V89.4ZM33.7038 87.8L34.5038 89.4H32.9038L33.7038 87.8ZM62.5038 89.24L61.8638 88.6L62.5038 87.96L63.1438 88.6L62.5038 89.24ZM59.3038 89.24L58.6638 88.6L59.3038 87.96L59.9438 88.6L59.3038 89.24ZM30.5038 89.24L29.8638 88.6L30.5038 87.96L31.1438 88.6L30.5038 89.24ZM27.3038 89.24L26.6638 88.6L27.3038 87.96L27.9438 88.6L27.3038 89.24ZM24.1038 89.24L23.4638 88.6L24.1038 87.96L24.7438 88.6L24.1038 89.24ZM20.9038 89.24L20.2638 88.6L20.9038 87.96L21.5438 88.6L20.9038 89.24ZM17.7038 89.24L17.0638 88.6L17.7038 87.96L18.3438 88.6L17.7038 89.24ZM14.5038 89.24L13.8638 88.6L14.5038 87.96L15.1438 88.6L14.5038 89.24ZM11.3038 89.24L10.6638 88.6L11.3038 87.96L11.9438 88.6L11.3038 89.24ZM8.10375 89.24L7.46375 88.6L8.10375 87.96L8.74375 88.6L8.10375 89.24ZM4.90375 89.24L4.26375 88.6L4.90375 87.96L5.54375 88.6L4.90375 89.24ZM1.70375 89.24L1.06375 88.6L1.70375 87.96L2.34375 88.6L1.70375 89.24ZM57.3838 93.08H54.8238V90.52H57.3838V93.08ZM54.1838 93.08H51.6238V90.52H54.1838V93.08ZM49.7038 90.52L50.9838 93.08H48.4238L49.7038 90.52ZM46.5038 90.52L47.7838 93.08H45.2238L46.5038 90.52ZM43.3038 90.52L44.5838 93.08H42.0238L43.3038 90.52ZM40.1038 90.52L41.3837 93.08H38.8238L40.1038 90.52ZM36.9038 90.52L38.1838 93.08H35.6238L36.9038 90.52ZM88.1038 92.92L86.9838 91.8L88.1038 90.68L89.2238 91.8L88.1038 92.92ZM84.9038 92.92L83.7838 91.8L84.9038 90.68L86.0238 91.8L84.9038 92.92ZM81.7038 92.92L80.5838 91.8L81.7038 90.68L82.8238 91.8L81.7038 92.92ZM78.5038 92.92L77.3838 91.8L78.5038 90.68L79.6238 91.8L78.5038 92.92ZM75.3038 92.92L74.1838 91.8L75.3038 90.68L76.4238 91.8L75.3038 92.92ZM72.1038 92.92L70.9838 91.8L72.1038 90.68L73.2238 91.8L72.1038 92.92ZM68.9038 92.92L67.7838 91.8L68.9038 90.68L70.0238 91.8L68.9038 92.92ZM65.7038 92.92L64.5838 91.8L65.7038 90.68L66.8238 91.8L65.7038 92.92ZM104.104 91L104.904 92.6H103.304L104.104 91ZM100.904 91L101.704 92.6H100.104L100.904 91ZM97.7038 91L98.5038 92.6H96.9038L97.7038 91ZM95.3038 92.6H93.7038V91H95.3038V92.6ZM92.1038 92.6H90.5038V91H92.1038V92.6ZM33.7038 91L34.5038 92.6H32.9038L33.7038 91ZM62.5038 92.44L61.8638 91.8L62.5038 91.16L63.1438 91.8L62.5038 92.44ZM59.3038 92.44L58.6638 91.8L59.3038 91.16L59.9438 91.8L59.3038 92.44ZM30.5038 92.44L29.8638 91.8L30.5038 91.16L31.1438 91.8L30.5038 92.44ZM27.3038 92.44L26.6638 91.8L27.3038 91.16L27.9438 91.8L27.3038 92.44ZM24.1038 92.44L23.4638 91.8L24.1038 91.16L24.7438 91.8L24.1038 92.44ZM20.9038 92.44L20.2638 91.8L20.9038 91.16L21.5438 91.8L20.9038 92.44ZM17.7038 92.44L17.0638 91.8L17.7038 91.16L18.3438 91.8L17.7038 92.44ZM14.5038 92.44L13.8638 91.8L14.5038 91.16L15.1438 91.8L14.5038 92.44ZM11.3038 92.44L10.6638 91.8L11.3038 91.16L11.9438 91.8L11.3038 92.44ZM8.10375 92.44L7.46375 91.8L8.10375 91.16L8.74375 91.8L8.10375 92.44ZM4.90375 92.44L4.26375 91.8L4.90375 91.16L5.54375 91.8L4.90375 92.44ZM1.70375 92.44L1.06375 91.8L1.70375 91.16L2.34375 91.8L1.70375 92.44ZM57.2238 96.12H54.9838V93.88H57.2238V96.12ZM54.0238 96.12H51.7838V93.88H54.0238V96.12ZM88.1038 96.12L86.9838 95L88.1038 93.88L89.2238 95L88.1038 96.12ZM84.9038 96.12L83.7838 95L84.9038 93.88L86.0238 95L84.9038 96.12ZM81.7038 96.12L80.5838 95L81.7038 93.88L82.8238 95L81.7038 96.12ZM78.5038 96.12L77.3838 95L78.5038 93.88L79.6238 95L78.5038 96.12ZM75.3038 96.12L74.1838 95L75.3038 93.88L76.4238 95L75.3038 96.12ZM72.1038 96.12L70.9838 95L72.1038 93.88L73.2238 95L72.1038 96.12ZM68.9038 96.12L67.7838 95L68.9038 93.88L70.0238 95L68.9038 96.12ZM65.7038 96.12L64.5838 95L65.7038 93.88L66.8238 95L65.7038 96.12ZM62.5038 95.64L61.8638 95L62.5038 94.36L63.1438 95L62.5038 95.64ZM59.3038 95.64L58.6638 95L59.3038 94.36L59.9438 95L59.3038 95.64ZM57.2238 99.32H54.9838V97.08H57.2238V99.32ZM54.0238 99.32H51.7838V97.08H54.0238V99.32ZM88.1038 99.32L86.9838 98.2L88.1038 97.08L89.2238 98.2L88.1038 99.32ZM84.9038 99.32L83.7838 98.2L84.9038 97.08L86.0238 98.2L84.9038 99.32ZM81.7038 99.32L80.5838 98.2L81.7038 97.08L82.8238 98.2L81.7038 99.32ZM78.5038 99.32L77.3838 98.2L78.5038 97.08L79.6238 98.2L78.5038 99.32ZM75.3038 99.32L74.1838 98.2L75.3038 97.08L76.4238 98.2L75.3038 99.32ZM72.1038 99.32L70.9838 98.2L72.1038 97.08L73.2238 98.2L72.1038 99.32ZM68.9038 99.32L67.7838 98.2L68.9038 97.08L70.0238 98.2L68.9038 99.32ZM65.7038 99.32L64.5838 98.2L65.7038 97.08L66.8238 98.2L65.7038 99.32ZM62.5038 98.84L61.8638 98.2L62.5038 97.56L63.1438 98.2L62.5038 98.84ZM59.3038 98.84L58.6638 98.2L59.3038 97.56L59.9438 98.2L59.3038 98.84ZM57.2238 102.52H54.9838V100.28H57.2238V102.52ZM54.0238 102.52H51.7838V100.28H54.0238V102.52ZM88.1038 102.52L86.9838 101.4L88.1038 100.28L89.2238 101.4L88.1038 102.52ZM84.9038 102.52L83.7838 101.4L84.9038 100.28L86.0238 101.4L84.9038 102.52ZM81.7038 102.52L80.5838 101.4L81.7038 100.28L82.8238 101.4L81.7038 102.52ZM78.5038 102.52L77.3838 101.4L78.5038 100.28L79.6238 101.4L78.5038 102.52ZM75.3038 102.52L74.1838 101.4L75.3038 100.28L76.4238 101.4L75.3038 102.52ZM72.1038 102.52L70.9838 101.4L72.1038 100.28L73.2238 101.4L72.1038 102.52ZM68.9038 102.52L67.7838 101.4L68.9038 100.28L70.0238 101.4L68.9038 102.52ZM65.7038 102.52L64.5838 101.4L65.7038 100.28L66.8238 101.4L65.7038 102.52ZM62.5038 102.04L61.8638 101.4L62.5038 100.76L63.1438 101.4L62.5038 102.04ZM59.3038 102.04L58.6638 101.4L59.3038 100.76L59.9438 101.4L59.3038 102.04ZM57.2238 105.72H54.9838V103.48H57.2238V105.72ZM54.0238 105.72H51.7838V103.48H54.0238V105.72ZM88.1038 105.56L87.1438 104.6L88.1038 103.64L89.0638 104.6L88.1038 105.56ZM84.9038 105.56L83.9438 104.6L84.9038 103.64L85.8638 104.6L84.9038 105.56ZM81.7038 105.56L80.7438 104.6L81.7038 103.64L82.6638 104.6L81.7038 105.56ZM78.5038 105.56L77.5438 104.6L78.5038 103.64L79.4638 104.6L78.5038 105.56ZM75.3038 105.56L74.3438 104.6L75.3038 103.64L76.2638 104.6L75.3038 105.56ZM72.1038 105.56L71.1438 104.6L72.1038 103.64L73.0638 104.6L72.1038 105.56ZM68.9038 105.56L67.9438 104.6L68.9038 103.64L69.8638 104.6L68.9038 105.56ZM65.7038 105.56L64.7438 104.6L65.7038 103.64L66.6638 104.6L65.7038 105.56ZM62.5038 105.08L62.0238 104.6L62.5038 104.12L62.9838 104.6L62.5038 105.08ZM59.3038 105.08L58.8238 104.6L59.3038 104.12L59.7838 104.6L59.3038 105.08ZM57.2238 108.92H54.9838V106.68H57.2238V108.92ZM54.0238 108.92H51.7838V106.68H54.0238V108.92ZM88.1038 108.76L87.1438 107.8L88.1038 106.84L89.0638 107.8L88.1038 108.76ZM84.9038 108.76L83.9438 107.8L84.9038 106.84L85.8638 107.8L84.9038 108.76ZM81.7038 108.76L80.7438 107.8L81.7038 106.84L82.6638 107.8L81.7038 108.76ZM78.5038 108.76L77.5438 107.8L78.5038 106.84L79.4638 107.8L78.5038 108.76ZM75.3038 108.76L74.3438 107.8L75.3038 106.84L76.2638 107.8L75.3038 108.76ZM72.1038 108.76L71.1438 107.8L72.1038 106.84L73.0638 107.8L72.1038 108.76ZM68.9038 108.76L67.9438 107.8L68.9038 106.84L69.8638 107.8L68.9038 108.76ZM65.7038 108.76L64.7438 107.8L65.7038 106.84L66.6638 107.8L65.7038 108.76ZM62.5038 108.28L62.0238 107.8L62.5038 107.32L62.9838 107.8L62.5038 108.28ZM59.3038 108.28L58.8238 107.8L59.3038 107.32L59.7838 107.8L59.3038 108.28Z" fill="url(#paint0_linear_4278_2669)"/>
<defs>
<linearGradient id="paint0_linear_4278_2669" x1="53" y1="-24" x2="53" y2="136" gradientUnits="userSpaceOnUse">
<stop stop-color="#F7E7FF"/>
<stop offset="1" stop-color="#EBC7FF"/>
</linearGradient>
</defs>
</svg>
