<svg width="102" height="113" viewBox="0 0 102 113" fill="none" xmlns="http://www.w3.org/2000/svg">
<path d="M22.2113 17.32H19.0113V14.12H20.2913L19.0113 12.84L17.4113 14.44L15.8113 12.84L14.2113 14.44L12.6113 12.84L11.0113 14.44L9.09125 12.52L10.6913 10.92L9.09125 9.32L10.5313 7.71999L8.93125 6.11999L11.0113 4.03999L12.6113 5.64L14.0513 4.36L12.6113 2.92L14.2113 1.32L15.8113 2.92L17.4113 1.32L19.0113 2.92L20.6113 1.32L22.2113 2.92L23.8113 1.32L25.4113 2.92L27.0113 1.32L28.6113 2.92L30.2113 1.32L31.8113 2.92L33.4113 1.32L35.0113 2.92L36.6113 1.32L38.2113 2.92L39.8113 1.32L41.4113 2.92L43.0113 1.32L44.6113 2.92L46.2113 1.32L47.8113 2.92L49.4113 1.32L51.0113 2.92L52.6113 1.32L54.2113 2.92L55.8113 1.32L57.4113 2.92L59.0113 1.32L60.6113 2.92L62.2113 1.32L63.8113 2.92L65.4113 1.32L67.0113 2.92L68.6113 1.32L70.2113 2.92L71.8113 1.32L73.4113 2.92L75.0113 1.32L76.6113 2.92L78.2113 1.32L79.8113 2.92L81.4113 1.32L83.0113 2.92L84.6113 1.32L85.8913 2.43999C86.2113 1.37333 86.8513 0.839994 87.8113 0.839994C88.4513 0.839994 88.9846 1.15999 89.4113 1.79999C89.8379 1.15999 90.3713 0.839994 91.0113 0.839994C91.5446 0.839994 92.0246 1.05333 92.4513 1.48C92.8779 1.90666 93.0913 2.38666 93.0913 2.92C93.0913 3.45333 92.8779 3.93333 92.4513 4.36C92.0246 4.78666 91.7046 4.94666 91.4913 4.83999L92.6113 6.11999L91.0113 7.71999L89.4113 6.11999L87.8113 7.71999L86.2113 6.11999L84.6113 7.71999L83.0113 6.11999L81.4113 7.71999L79.8113 6.11999C79.7046 7.18666 79.2246 7.71999 78.3713 7.71999C79.3313 7.82666 79.8113 8.36 79.8113 9.32C79.8113 10.3867 79.2779 10.92 78.2113 10.92C77.1446 10.92 76.6113 10.44 76.6113 9.48C76.5046 10.44 75.9713 10.92 75.0113 10.92C73.9446 10.92 73.4113 10.44 73.4113 9.48C73.3046 10.44 72.7713 10.92 71.8113 10.92C70.7446 10.92 70.2113 10.44 70.2113 9.48C70.1046 10.44 69.5713 10.92 68.6113 10.92C67.5446 10.92 67.0113 10.44 67.0113 9.48C66.9046 10.44 66.3713 10.92 65.4113 10.92C64.3446 10.92 63.8113 10.3867 63.8113 9.32C63.7046 10.3867 63.1713 10.92 62.2113 10.92C61.1446 10.92 60.6113 10.3867 60.6113 9.32C60.5046 10.3867 59.9713 10.92 59.0113 10.92C57.9446 10.92 57.4113 10.3867 57.4113 9.32C57.3046 10.3867 56.7713 10.92 55.8113 10.92C55.3846 10.92 55.0113 10.76 54.6913 10.44C54.3713 10.12 54.2113 9.85333 54.2113 9.64L52.9313 10.92L54.2113 12.2C54.5313 11.3467 55.0646 10.92 55.8113 10.92C56.8779 10.92 57.4113 11.4533 57.4113 12.52C57.4113 13.5867 56.8779 14.12 55.8113 14.12L57.4113 17.16L59.0113 14.12C57.9446 14.12 57.4113 13.5867 57.4113 12.52C57.4113 11.4533 57.9446 10.92 59.0113 10.92C60.0779 10.92 60.6113 11.4533 60.6113 12.52C60.6113 13.5867 60.0779 14.12 59.0113 14.12L60.6113 17.16L62.2113 14.12C61.1446 14.12 60.6113 13.5867 60.6113 12.52C60.6113 11.4533 61.1446 10.92 62.2113 10.92C63.2779 10.92 63.8113 11.4533 63.8113 12.52C63.8113 13.5867 63.2779 14.12 62.2113 14.12L63.8113 17.16L65.4113 14.12C64.3446 14.12 63.8113 13.5867 63.8113 12.52C63.8113 11.4533 64.3446 10.92 65.4113 10.92C66.4779 10.92 67.0113 11.4533 67.0113 12.52C67.0113 13.5867 66.4779 14.12 65.4113 14.12L67.0113 17.16L68.6113 14.12C67.5446 14.12 67.0113 13.5867 67.0113 12.52C67.0113 11.4533 67.5446 10.92 68.6113 10.92C69.6779 10.92 70.2113 11.4533 70.2113 12.52C70.2113 13.5867 69.6779 14.12 68.6113 14.12L70.2113 17.16L71.8113 14.12C70.7446 14.12 70.2113 13.5867 70.2113 12.52C70.2113 11.4533 70.7446 10.92 71.8113 10.92C72.8779 10.92 73.4113 11.4533 73.4113 12.52C73.4113 13.5867 72.8779 14.12 71.8113 14.12L73.4113 17.16L75.0113 14.12C73.9446 14.12 73.4113 13.5867 73.4113 12.52C73.4113 11.4533 73.9446 10.92 75.0113 10.92C76.0779 10.92 76.6113 11.4533 76.6113 12.52C76.6113 13.5867 76.0779 14.12 75.0113 14.12L76.6113 17.16L78.2113 14.12C77.1446 14.12 76.6113 13.5867 76.6113 12.52C76.6113 11.4533 77.1446 10.92 78.2113 10.92C79.2779 10.92 79.8113 11.4533 79.8113 12.52C79.8113 13.5867 79.2779 14.12 78.2113 14.12L79.8113 17.16L81.4113 13.96L83.0113 17.16L84.6113 13.96L86.2113 17.16L87.8113 13.96L89.4113 17.16L91.0113 13.96L92.7713 17.48H91.1713L92.7713 20.68H91.1713L92.6113 23.72H91.0113L92.6113 26.92H89.4113H86.2113H83.0113H79.8113H76.6113H73.4113H70.2113H67.0113H63.8113H60.6113H57.4113H54.2113L55.8113 23.72H54.2113L55.8113 20.68H54.0513L55.6513 17.48H54.0513L55.8113 14.12C55.3846 14.12 55.0113 13.96 54.6913 13.64C54.3713 13.32 54.2113 13.0533 54.2113 12.84L52.7713 14.28L54.2113 15.72L52.6113 17.32L51.0113 15.72L52.4513 14.28L51.0113 12.84L49.5713 14.28L51.0113 15.72L49.4113 17.32L47.8113 15.72L49.2513 14.28L47.8113 12.84L46.3713 14.28L47.8113 15.72L46.2113 17.32L44.6113 15.72L46.0513 14.28L44.6113 12.84L43.1713 14.28L44.6113 15.72L43.0113 17.32L41.4113 15.72L42.8513 14.28L41.4113 12.84L39.9713 14.28L41.4113 15.72L39.8113 17.32L38.2113 15.72L39.6513 14.28L38.2113 12.84L36.7712 14.28L38.2113 15.72L36.6113 17.32L35.0113 15.72L36.4513 14.28L35.0113 12.84L33.5713 14.28L35.0113 15.72L33.4113 17.32L31.8113 15.72L33.2513 14.28L31.8113 12.84L30.3713 14.28L31.8113 15.72L30.2113 17.32L28.6113 15.72L30.0513 14.28L28.6113 12.84L27.3313 14.12H28.6113V17.32H25.4113V14.12H26.6913L25.4113 12.84L24.1313 14.12H25.4113V17.32H22.2113V14.12H23.4913L22.2113 12.84L20.9313 14.12H22.2113V17.32ZM14.3713 4.36L15.8113 5.64L17.2513 4.36L15.8113 2.92L14.3713 4.36ZM17.5713 4.36L19.0113 5.64L20.4513 4.36L19.0113 2.92L17.5713 4.36ZM20.7713 4.36L22.2113 5.64L23.6513 4.36L22.2113 2.92L20.7713 4.36ZM23.9713 4.36L25.4113 5.64L26.8513 4.36L25.4113 2.92L23.9713 4.36ZM27.1713 4.36L28.6113 5.64L30.0513 4.36L28.6113 2.92L27.1713 4.36ZM30.3713 4.36L31.8113 5.64L33.2513 4.36L31.8113 2.92L30.3713 4.36ZM33.5713 4.36L35.0113 5.64L36.2913 4.36L35.0113 2.92L33.5713 4.36ZM36.9313 4.36L38.2113 5.64L39.4913 4.36L38.2113 2.92L36.9313 4.36ZM40.1313 4.36L41.4113 5.64L42.6913 4.36L41.4113 2.92L40.1313 4.36ZM43.3313 4.36L44.6113 5.64L45.8913 4.36L44.6113 2.92L43.3313 4.36ZM46.5313 4.36L47.8113 5.64L49.0913 4.36L47.8113 2.92L46.5313 4.36ZM49.7313 4.36L51.0113 5.64L52.2913 4.36L51.0113 2.92L49.7313 4.36ZM52.9313 4.36L54.2113 5.8C54.5313 4.94666 55.0646 4.51999 55.8113 4.51999L54.2113 2.92L52.9313 4.36ZM55.9713 4.51999C56.9313 4.51999 57.4113 4.99999 57.4113 5.96C57.6246 4.99999 58.1046 4.51999 58.8513 4.51999L57.4113 2.92L55.9713 4.51999ZM59.1713 4.51999C60.1313 4.51999 60.6113 4.99999 60.6113 5.96C60.8246 4.99999 61.3046 4.51999 62.0513 4.51999L60.6113 2.92L59.1713 4.51999ZM62.3713 4.51999C63.4379 4.62666 63.9179 5.10666 63.8113 5.96C64.0246 4.99999 64.5046 4.51999 65.2513 4.51999L63.8113 2.92L62.3713 4.51999ZM65.5713 4.51999C66.6379 4.62666 67.1179 5.05333 67.0113 5.8C67.2246 4.94666 67.7046 4.51999 68.4513 4.51999L67.0113 2.92L65.5713 4.51999ZM68.7713 4.51999C69.8379 4.62666 70.3179 5.05333 70.2113 5.8C70.4246 4.94666 70.9046 4.51999 71.6513 4.51999L70.2113 2.92L68.7713 4.51999ZM71.9713 4.51999C73.0379 4.62666 73.5179 5.05333 73.4113 5.8C73.6246 4.94666 74.1046 4.51999 74.8513 4.51999L73.4113 2.92L71.9713 4.51999ZM75.1713 4.51999C76.2379 4.62666 76.7179 5.05333 76.6113 5.8C76.8246 4.94666 77.3046 4.51999 78.0513 4.51999L76.6113 2.92L75.1713 4.51999ZM78.3713 4.51999C79.3313 4.62666 79.8113 5.15999 79.8113 6.11999L81.4113 4.51999L79.8113 2.92L78.3713 4.51999ZM81.4113 4.51999L83.0113 6.11999L84.6113 4.51999L83.0113 2.92L81.4113 4.51999ZM84.6113 4.51999L86.2113 6.11999L87.3313 4.83999C86.9046 4.73333 86.5313 4.51999 86.2113 4.2C85.8913 3.88 85.7846 3.61333 85.8913 3.39999L84.6113 4.51999ZM88.2913 4.83999L89.4113 6.11999L90.5313 4.83999C90.1046 4.83999 89.7313 4.57332 89.4113 4.03999C88.8779 4.78666 88.5046 5.05333 88.2913 4.83999ZM55.9713 7.71999C56.9313 7.82666 57.4113 8.36 57.4113 9.32C57.5179 8.25333 57.9979 7.71999 58.8513 7.71999C57.8913 7.61333 57.4113 7.13333 57.4113 6.27999C57.1979 7.23999 56.7179 7.71999 55.9713 7.71999ZM59.1713 7.71999C60.1313 7.82666 60.6113 8.36 60.6113 9.32C60.7179 8.25333 61.1979 7.71999 62.0513 7.71999C61.0913 7.61333 60.6113 7.13333 60.6113 6.27999C60.3979 7.23999 59.9179 7.71999 59.1713 7.71999ZM62.3713 7.71999C63.3313 7.82666 63.8113 8.36 63.8113 9.32C63.9179 8.25333 64.3979 7.71999 65.2513 7.71999C64.2913 7.61333 63.8113 7.13333 63.8113 6.27999C63.5979 7.23999 63.1179 7.71999 62.3713 7.71999ZM65.5713 7.71999C66.5313 7.82666 67.0113 8.30666 67.0113 9.15999C67.1179 8.19999 67.5979 7.71999 68.4513 7.71999C67.3846 7.61333 66.9046 7.18666 67.0113 6.44C66.7979 7.29333 66.3179 7.71999 65.5713 7.71999ZM68.7713 7.71999C69.7313 7.82666 70.2113 8.30666 70.2113 9.15999C70.3179 8.19999 70.7979 7.71999 71.6513 7.71999C70.5846 7.61333 70.1046 7.18666 70.2113 6.44C69.9979 7.29333 69.5179 7.71999 68.7713 7.71999ZM71.9713 7.71999C72.9313 7.82666 73.4113 8.30666 73.4113 9.15999C73.5179 8.19999 73.9979 7.71999 74.8513 7.71999C73.7846 7.61333 73.3046 7.18666 73.4113 6.44C73.1979 7.29333 72.7179 7.71999 71.9713 7.71999ZM75.1713 7.71999C76.1313 7.82666 76.6113 8.30666 76.6113 9.15999C76.7179 8.19999 77.1979 7.71999 78.0513 7.71999C76.9846 7.61333 76.5046 7.18666 76.6113 6.44C76.3979 7.29333 75.9179 7.71999 75.1713 7.71999ZM53.0913 7.71999L54.2113 8.99999C54.5313 8.14666 55.0113 7.71999 55.6513 7.71999C54.9046 7.61333 54.4246 7.18666 54.2113 6.44L53.0913 7.71999ZM11.4913 7.71999L12.6113 8.99999L13.7313 7.71999L12.6113 6.6L11.4913 7.71999ZM14.6913 7.71999L15.8113 8.99999L16.9313 7.71999L15.8113 6.6L14.6913 7.71999ZM17.8913 7.71999L19.0113 8.99999L20.1313 7.71999L19.0113 6.6L17.8913 7.71999ZM21.0913 7.71999L22.2113 8.99999L23.3313 7.71999L22.2113 6.6L21.0913 7.71999ZM24.2913 7.71999L25.4113 8.99999L26.5313 7.71999L25.4113 6.6L24.2913 7.71999ZM27.4913 7.71999L28.6113 8.99999L29.7313 7.71999L28.6113 6.6L27.4913 7.71999ZM30.6913 7.71999L31.8113 8.99999L32.9313 7.71999L31.8113 6.6L30.6913 7.71999ZM33.8913 7.71999L35.0113 8.84L36.1313 7.71999L35.0113 6.6L33.8913 7.71999ZM37.0913 7.71999L38.2113 8.84L39.3313 7.71999L38.2113 6.6L37.0913 7.71999ZM40.2913 7.71999L41.4113 8.84L42.5313 7.71999L41.4113 6.6L40.2913 7.71999ZM43.4913 7.71999L44.6113 8.84L45.7313 7.71999L44.6113 6.6L43.4913 7.71999ZM46.6913 7.71999L47.8113 8.84L48.9313 7.71999L47.8113 6.6L46.6913 7.71999ZM49.8913 7.71999L51.0113 8.84L52.1313 7.71999L51.0113 6.6L49.8913 7.71999ZM91.0113 8.04L92.2913 10.6H89.7313L91.0113 8.04ZM87.8113 8.04L89.0913 10.6H86.5313L87.8113 8.04ZM84.6113 8.04L85.8913 10.6H83.3313L84.6113 8.04ZM81.4113 8.04L82.6912 10.6H80.1313L81.4113 8.04ZM11.3313 10.92L12.6113 12.2L13.8913 10.92L12.6113 9.64L11.3313 10.92ZM14.5312 10.92L15.8113 12.2L17.0913 10.92L15.8113 9.64L14.5312 10.92ZM17.7313 10.92L19.0113 12.2L20.2913 10.92L19.0113 9.64L17.7313 10.92ZM20.9313 10.92L22.2113 12.2L23.4913 10.92L22.2113 9.64L20.9313 10.92ZM24.1313 10.92L25.4113 12.2L26.6913 10.92L25.4113 9.64L24.1313 10.92ZM27.3313 10.92L28.6113 12.2L29.8913 10.92L28.6113 9.64L27.3313 10.92ZM30.5313 10.92L31.8113 12.2L33.0913 10.92L31.8113 9.64L30.5313 10.92ZM33.7313 10.92L35.0113 12.2L36.2913 10.92L35.0113 9.79999L33.7313 10.92ZM36.9313 10.92L38.2113 12.2L39.4913 10.92L38.2113 9.79999L36.9313 10.92ZM40.1313 10.92L41.4113 12.2L42.6913 10.92L41.4113 9.79999L40.1313 10.92ZM43.3313 10.92L44.6113 12.2L45.8913 10.92L44.6113 9.79999L43.3313 10.92ZM46.5313 10.92L47.8113 12.2L49.0913 10.92L47.8113 9.79999L46.5313 10.92ZM49.7313 10.92L51.0113 12.2L52.2913 10.92L51.0113 9.79999L49.7313 10.92ZM91.0113 11.24L92.2913 13.8H89.7313L91.0113 11.24ZM87.8113 11.24L89.0913 13.8H86.5313L87.8113 11.24ZM84.6113 11.24L85.8913 13.8H83.3313L84.6113 11.24ZM81.4113 11.24L82.6912 13.8H80.1313L81.4113 11.24ZM17.4113 16.84L16.2913 15.72L17.4113 14.6L18.5313 15.72L17.4113 16.84ZM14.2113 16.84L13.0913 15.72L14.2113 14.6L15.3313 15.72L14.2113 16.84ZM11.0113 16.84L9.89125 15.72L11.0113 14.6L12.1313 15.72L11.0113 16.84ZM52.6113 20.52L51.0113 18.92L52.6113 17.32L54.2113 18.92L52.6113 20.52ZM49.4113 20.52L47.8113 18.92L49.4113 17.32L51.0113 18.92L49.4113 20.52ZM46.2113 20.52L44.6113 18.92L46.2113 17.32L47.8113 18.92L46.2113 20.52ZM43.0113 20.52L41.4113 18.92L43.0113 17.32L44.6113 18.92L43.0113 20.52ZM39.8113 20.52L38.2113 18.92L39.8113 17.32L41.4113 18.92L39.8113 20.52ZM36.6113 20.52L35.0113 18.92L36.6113 17.32L38.2113 18.92L36.6113 20.52ZM33.4113 20.52L31.8113 18.92L33.4113 17.32L35.0113 18.92L33.4113 20.52ZM30.2113 20.36L28.7713 18.92L30.2113 17.32L31.8113 18.92L30.2113 20.36ZM28.4513 20.36H25.5713V17.48H28.4513V20.36ZM25.2513 20.36H22.3713V17.48H25.2513V20.36ZM22.0513 20.36H19.1713V17.48H22.0513V20.36ZM57.2513 17.48H55.9713L57.4113 20.36L58.8513 17.48H57.2513ZM60.4513 17.48H59.1713L60.6113 20.36L62.0513 17.48H60.4513ZM63.6513 17.48H62.3713L63.8113 20.36L65.2513 17.48H63.6513ZM66.8513 17.48H65.5713L67.0113 20.36L68.4513 17.48H66.8513ZM70.0513 17.48H68.7713L70.2113 20.36L71.6513 17.48H70.0513ZM73.2513 17.48H71.9713L73.4113 20.36L74.8513 17.48H73.2513ZM76.4513 17.48H75.1713L76.6113 20.36L78.0513 17.48H76.4513ZM79.6513 17.48H78.3713L79.8113 20.36L81.2513 17.48H79.6513ZM82.8513 17.48H81.5713L83.0113 20.36L84.4513 17.48H82.8513ZM86.0513 17.48H84.7713L86.2113 20.36L87.6513 17.48H86.0513ZM89.2513 17.48H87.9713L89.4113 20.36L90.8513 17.48H89.2513ZM17.4113 20.04L16.2913 18.92L17.4113 17.8L18.5313 18.92L17.4113 20.04ZM14.2113 20.04L13.0913 18.92L14.2113 17.8L15.3313 18.92L14.2113 20.04ZM11.0113 20.04L9.89125 18.92L11.0113 17.8L12.1313 18.92L11.0113 20.04ZM57.2513 20.68H55.8113L57.4113 23.72L59.0113 20.68H57.2513ZM60.4513 20.68H59.0113L60.6113 23.72L62.2113 20.68H60.4513ZM63.6513 20.68H62.2113L63.8113 23.72L65.4113 20.68H63.6513ZM66.8513 20.68H65.4113L67.0113 23.72L68.6113 20.68H66.8513ZM70.0513 20.68H68.6113L70.2113 23.72L71.8113 20.68H70.0513ZM73.2513 20.68H71.8113L73.4113 23.72L75.0113 20.68H73.2513ZM76.4513 20.68H75.0113L76.6113 23.72L78.2113 20.68H76.4513ZM79.6513 20.68H78.2113L79.8113 23.72L81.4113 20.68H79.6513ZM82.8513 20.68H81.4113L83.0113 23.72L84.4513 20.68H82.8513ZM86.0513 20.68H84.7713L86.2113 23.72L87.6513 20.68H86.0513ZM89.2513 20.68H87.9713L89.4113 23.72L90.8513 20.68H89.2513ZM52.6113 23.56L51.1713 22.12L52.6113 20.68L54.0513 22.12L52.6113 23.56ZM49.4113 23.56L47.9713 22.12L49.4113 20.68L50.8513 22.12L49.4113 23.56ZM46.2113 23.56L44.7713 22.12L46.2113 20.68L47.6513 22.12L46.2113 23.56ZM43.0113 23.56L41.5712 22.12L43.0113 20.68L44.4513 22.12L43.0113 23.56ZM39.8113 23.56L38.3713 22.12L39.8113 20.68L41.2513 22.12L39.8113 23.56ZM36.6113 23.56L35.1713 22.12L36.6113 20.68L38.0513 22.12L36.6113 23.56ZM33.4113 23.56L31.9713 22.12L33.4113 20.68L34.8513 22.12L33.4113 23.56ZM30.2113 23.56L28.7713 22.12L30.2113 20.68L31.6513 22.12L30.2113 23.56ZM28.4513 23.56H25.5713V20.68H28.4513V23.56ZM25.2513 23.56H22.3713V20.68H25.2513V23.56ZM22.0513 23.56H19.1713V20.68H22.0513V23.56ZM17.4113 23.24L16.2913 22.12L17.4113 21L18.5313 22.12L17.4113 23.24ZM14.2113 23.24L13.0913 22.12L14.2113 21L15.3313 22.12L14.2113 23.24ZM11.0113 23.24L9.89125 22.12L11.0113 21L12.1313 22.12L11.0113 23.24ZM57.4113 23.72H55.8113L57.4113 26.92L59.0113 23.72H57.4113ZM60.6113 23.72H59.0113L60.6113 26.92L62.2113 23.72H60.6113ZM63.8113 23.72H62.2113L63.8113 26.92L65.4113 23.72H63.8113ZM67.0113 23.72H65.4113L67.0113 26.92L68.6113 23.72H67.0113ZM70.2113 23.72H68.6113L70.2113 26.92L71.8113 23.72H70.2113ZM73.4113 23.72H71.8113L73.4113 26.92L75.0113 23.72H73.4113ZM76.6113 23.72H75.0113L76.6113 26.92L78.2113 23.72H76.6113ZM79.8113 23.72H78.2113L79.8113 26.92L81.4113 23.72H79.8113ZM83.0113 23.72H81.4113L83.0113 26.92L84.6113 23.72H83.0113ZM86.2113 23.72H84.6113L86.2113 26.92L87.8113 23.72H86.2113ZM89.4113 23.72H87.8113L89.4113 26.92L91.0113 23.72H89.4113ZM17.4113 58.92C16.3446 58.92 15.8113 58.3867 15.8113 57.32C15.8113 56.2533 16.2913 55.72 17.2513 55.72C16.2913 55.6133 15.8113 55.08 15.8113 54.12C15.8113 53.6933 15.9713 53.32 16.2913 53C16.6113 52.68 16.8779 52.52 17.0913 52.52C16.2379 52.3067 15.8113 51.7733 15.8113 50.92C15.8113 50.0667 16.2379 49.5333 17.0913 49.32C16.2379 49.1067 15.8113 48.5733 15.8113 47.72C15.8113 46.6533 16.3446 46.12 17.4113 46.12C18.1579 46.12 18.6913 46.4933 19.0113 47.24C19.3313 46.3867 19.8646 45.96 20.6113 45.96C21.3579 45.96 21.8913 46.3867 22.2113 47.24C22.5313 46.3867 23.0646 45.96 23.8113 45.96C24.5579 45.96 25.0913 46.3867 25.4113 47.24C25.7313 46.3867 26.2646 45.96 27.0113 45.96C27.7579 45.96 28.2913 46.3867 28.6113 47.24C28.9313 46.3867 29.4113 46.0133 30.0513 46.12L28.4513 44.52L30.0513 42.92L28.4513 41.32L30.0513 39.72L28.4513 38.12L30.0513 36.52L28.4513 34.92L30.0513 33.32L28.4513 31.72V33.16H25.5713V30.28H28.4513V31.72L30.0513 30.12L28.4513 28.68V29.96H25.5713V27.08H28.4513V28.36L30.2113 26.76L28.7713 25.32L30.2113 23.88L31.6513 25.32L30.2113 26.76L31.8113 28.2L33.4113 26.76L31.9713 25.32L33.4113 23.88L34.8513 25.32L33.4113 26.76L35.0113 28.2L36.6113 26.76L35.1713 25.32L36.6113 23.88L38.0513 25.32L36.6113 26.76L38.2113 28.2L39.8113 26.76L38.3713 25.32L39.8113 23.88L41.2513 25.32L39.8113 26.76L41.4113 28.2L43.0113 26.76L41.5712 25.32L43.0113 23.88L44.4513 25.32L43.0113 26.76L44.6113 28.2L46.2113 26.76L44.7713 25.32L46.2113 23.88L47.6513 25.32L46.2113 26.76L47.8113 28.2L49.4113 26.76L47.9713 25.32L49.4113 23.88L50.8513 25.32L49.4113 26.76L51.0113 28.2L52.6113 26.76L51.1713 25.32L52.6113 23.88L54.0513 25.32L52.6113 26.76L54.5313 28.52L52.7713 30.12L54.3713 31.72L52.6113 33.48L51.0113 31.88L49.4113 33.48L47.8113 31.88L46.2113 33.48L44.6113 31.88L43.0113 33.48L41.4113 31.88L39.9713 33.32L41.5712 34.92L39.9713 36.52L41.5712 38.12L39.9713 39.72L41.5712 41.32L39.9713 42.92L41.4113 44.36L43.0113 42.76L44.6113 44.36L46.0513 42.92L44.4513 41.32L46.2113 39.56L47.8113 41.16L49.4113 39.56L51.0113 41.16L52.6113 39.56L54.3713 41.32L52.7713 42.92L54.3713 44.52L52.7713 46.12H54.2113H57.4113V49.32H54.2113H51.0113H47.8113H44.6113H41.4113V46.12H42.8513L41.4113 44.68L39.8113 46.28L38.2113 44.68L36.6113 46.28L35.0113 44.68L33.4113 46.28L31.8113 44.68L30.3713 46.12C31.4379 46.2267 31.9713 46.76 31.9713 47.72C31.9713 48.5733 31.5446 49.1067 30.6913 49.32C31.4379 49.5333 31.8113 50.0667 31.8113 50.92C31.8113 51.3467 31.6513 51.72 31.3313 52.04C31.0113 52.36 30.7446 52.52 30.5313 52.52C31.3846 52.7333 31.8113 53.2667 31.8113 54.12C31.8113 54.5467 31.6513 54.92 31.3313 55.24C31.0113 55.56 30.6913 55.72 30.3713 55.72C31.3313 55.8267 31.8113 56.36 31.8113 57.32C31.8113 58.3867 31.2779 58.92 30.2113 58.92C29.1446 58.92 28.6113 58.3867 28.6113 57.32C28.6113 58.3867 28.0779 58.92 27.0113 58.92C25.9446 58.92 25.4113 58.3867 25.4113 57.32C25.4113 58.3867 24.8779 58.92 23.8113 58.92C22.7446 58.92 22.2113 58.3867 22.2113 57.32C22.2113 58.3867 21.6779 58.92 20.6113 58.92C19.5446 58.92 19.0113 58.3867 19.0113 57.32C19.0113 58.3867 18.4779 58.92 17.4113 58.92ZM28.4513 26.76H25.5713V23.88H28.4513V26.76ZM25.2513 26.76H22.3713V23.88H25.2513V26.76ZM22.0513 26.76H19.1713V23.88H22.0513V26.76ZM17.4113 26.44L16.2913 25.32L17.4113 24.2L18.5313 25.32L17.4113 26.44ZM14.2113 26.44L13.0913 25.32L14.2113 24.2L15.3313 25.32L14.2113 26.44ZM11.0113 26.44L9.89125 25.32L11.0113 24.2L12.1313 25.32L11.0113 26.44ZM25.2513 29.96H22.3713V27.08H25.2513V29.96ZM22.0513 29.96H19.1713V27.08H22.0513V29.96ZM91.0113 27.4L92.1313 29.64H89.8913L91.0113 27.4ZM87.8113 27.4L88.9313 29.64H86.6913L87.8113 27.4ZM84.6113 27.4L85.7313 29.64H83.4913L84.6113 27.4ZM81.4113 27.4L82.5313 29.64H80.2913L81.4113 27.4ZM78.2113 27.4L79.3313 29.64H77.0913L78.2113 27.4ZM75.0113 27.4L76.1313 29.64H73.8913L75.0113 27.4ZM71.8113 27.4L72.9313 29.64H70.6913L71.8113 27.4ZM68.6113 27.4L69.7313 29.64H67.4913L68.6113 27.4ZM65.4113 27.4L66.5313 29.64H64.2913L65.4113 27.4ZM62.2113 27.4L63.3313 29.64H61.0913L62.2113 27.4ZM59.0113 27.4L60.1313 29.64H57.8913L59.0113 27.4ZM55.8113 27.4L56.9313 29.64H54.6913L55.8113 27.4ZM17.4113 29.48L16.4513 28.52L17.4113 27.56L18.3713 28.52L17.4113 29.48ZM14.2113 29.48L13.2513 28.52L14.2113 27.56L15.1713 28.52L14.2113 29.48ZM11.0113 29.48L10.0513 28.52L11.0113 27.56L11.9713 28.52L11.0113 29.48ZM30.3713 30.12L31.8113 31.56L33.2513 30.12L31.8113 28.84L30.3713 30.12ZM33.5713 30.12L35.0113 31.56L36.4513 30.12L35.0113 28.84L33.5713 30.12ZM36.7712 30.12L38.2113 31.56L39.6513 30.12L38.2113 28.84L36.7712 30.12ZM39.9713 30.12L41.4113 31.56L42.8513 30.12L41.4113 28.84L39.9713 30.12ZM43.1713 30.12L44.6113 31.56L46.0513 30.12L44.6113 28.84L43.1713 30.12ZM46.3713 30.12L47.8113 31.56L49.2513 30.12L47.8113 28.84L46.3713 30.12ZM49.5713 30.12L51.0113 31.56L52.4513 30.12L51.0113 28.84L49.5713 30.12ZM25.2513 33.16H22.3713V30.28H25.2513V33.16ZM22.0513 33.16H19.1713V30.28H22.0513V33.16ZM87.8113 30.76L88.7713 32.68H86.8513L87.8113 30.76ZM84.6113 30.76L85.5713 32.68H83.6513L84.6113 30.76ZM81.4113 30.76L82.3713 32.68H80.4513L81.4113 30.76ZM78.2113 30.76L79.1713 32.68H77.2513L78.2113 30.76ZM75.0113 30.76L75.9713 32.68H74.0513L75.0113 30.76ZM71.8113 30.76L72.7713 32.68H70.8513L71.8113 30.76ZM68.6113 30.76L69.5713 32.68H67.6513L68.6113 30.76ZM65.4113 30.76L66.3713 32.68H64.4513L65.4113 30.76ZM62.2113 30.76L63.1713 32.68H61.2513L62.2113 30.76ZM59.0113 30.76L59.9713 32.68H58.0513L59.0113 30.76ZM55.8113 30.76L56.7713 32.68H54.8513L55.8113 30.76ZM17.4113 32.68L16.4513 31.72L17.4113 30.76L18.3713 31.72L17.4113 32.68ZM14.2113 32.68L13.2513 31.72L14.2113 30.76L15.1713 31.72L14.2113 32.68ZM11.0113 32.68L10.0513 31.72L11.0113 30.76L11.9713 31.72L11.0113 32.68ZM7.81125 32.68L6.85125 31.72L7.81125 30.76L8.77125 31.72L7.81125 32.68ZM30.3713 33.32L31.8113 34.76L33.2513 33.32L31.8113 31.88L30.3713 33.32ZM33.5713 33.32L35.0113 34.76L36.4513 33.32L35.0113 31.88L33.5713 33.32ZM36.7712 33.32L38.2113 34.76L39.6513 33.32L38.2113 31.88L36.7712 33.32ZM28.4513 36.36H25.5713V33.48H28.4513V36.36ZM25.2513 36.36H22.3713V33.48H25.2513V36.36ZM22.0513 36.36H19.1713V33.48H22.0513V36.36ZM17.4113 35.88L16.4513 34.92L17.4113 33.96L18.3713 34.92L17.4113 35.88ZM14.2113 35.88L13.2513 34.92L14.2113 33.96L15.1713 34.92L14.2113 35.88ZM11.0113 35.88L10.0513 34.92L11.0113 33.96L11.9713 34.92L11.0113 35.88ZM7.81125 35.88L6.85125 34.92L7.81125 33.96L8.77125 34.92L7.81125 35.88ZM30.3713 36.52L31.8113 37.96L33.2513 36.52L31.8113 35.08L30.3713 36.52ZM33.5713 36.52L35.0113 37.96L36.4513 36.52L35.0113 35.08L33.5713 36.52ZM36.7712 36.52L38.2113 37.96L39.6513 36.52L38.2113 35.08L36.7712 36.52ZM28.4513 39.56H25.5713V36.68H28.4513V39.56ZM25.2513 39.4H22.5313V36.68H25.2513V39.4ZM21.8913 39.4H19.3313V36.84H21.8913V39.4ZM17.4113 39.08L16.4513 38.12L17.4113 37.16L18.3713 38.12L17.4113 39.08ZM14.2113 39.08L13.2513 38.12L14.2113 37.16L15.1713 38.12L14.2113 39.08ZM11.0113 39.08L10.0513 38.12L11.0113 37.16L11.9713 38.12L11.0113 39.08ZM7.81125 39.08L6.85125 38.12L7.81125 37.16L8.77125 38.12L7.81125 39.08ZM30.3713 39.72L31.8113 41.16L33.2513 39.72L31.8113 38.28L30.3713 39.72ZM33.5713 39.72L35.0113 41.16L36.4513 39.72L35.0113 38.28L33.5713 39.72ZM36.7712 39.72L38.2113 41.16L39.6513 39.72L38.2113 38.28L36.7712 39.72ZM28.2913 42.6H25.7313V40.04H28.2913V42.6ZM25.0913 42.6H22.5313V40.04H25.0913V42.6ZM21.8913 42.6H19.3313V40.04H21.8913V42.6ZM75.0113 40.36L75.9713 42.28H74.0513L75.0113 40.36ZM71.8113 40.36L72.7713 42.28H70.8513L71.8113 40.36ZM68.6113 40.36L69.5713 42.28H67.6513L68.6113 40.36ZM65.4113 40.36L66.3713 42.28H64.4513L65.4113 40.36ZM62.2113 40.36L63.1713 42.28H61.2513L62.2113 40.36ZM59.0113 40.36L59.9713 42.28H58.0513L59.0113 40.36ZM55.8113 40.36L56.7713 42.28H54.8513L55.8113 40.36ZM17.4113 42.28L16.4513 41.32L17.4113 40.36L18.3713 41.32L17.4113 42.28ZM14.2113 42.28L13.2513 41.32L14.2113 40.36L15.1713 41.32L14.2113 42.28ZM11.0113 42.28L10.0513 41.32L11.0113 40.36L11.9713 41.32L11.0113 42.28ZM7.81125 42.28L6.85125 41.32L7.81125 40.36L8.77125 41.32L7.81125 42.28ZM30.3713 42.92L31.8113 44.36L33.2513 42.92L31.8113 41.48L30.3713 42.92ZM33.5713 42.92L35.0113 44.36L36.4513 42.92L35.0113 41.48L33.5713 42.92ZM36.7712 42.92L38.2113 44.36L39.6513 42.92L38.2113 41.48L36.7712 42.92ZM46.3713 42.92L47.8113 44.36L49.2513 42.92L47.8113 41.48L46.3713 42.92ZM49.5713 42.92L51.0113 44.36L52.4513 42.92L51.0113 41.48L49.5713 42.92ZM28.2913 45.8H25.7313V43.24H28.2913V45.8ZM25.0913 45.8H22.5313V43.24H25.0913V45.8ZM21.8913 45.8H19.3313V43.24H21.8913V45.8ZM81.4113 43.56L82.3713 45.48H80.4513L81.4113 43.56ZM78.2113 43.56L79.1713 45.48H77.2513L78.2113 43.56ZM75.0113 43.56L75.9713 45.48H74.0513L75.0113 43.56ZM71.8113 43.56L72.7713 45.48H70.8513L71.8113 43.56ZM68.6113 43.56L69.5713 45.48H67.6513L68.6113 43.56ZM65.4113 43.56L66.3713 45.48H64.4513L65.4113 43.56ZM62.2113 43.56L63.1713 45.48H61.2513L62.2113 43.56ZM59.0113 43.56L59.9713 45.48H58.0513L59.0113 43.56ZM55.8113 43.56L56.7713 45.48H54.8513L55.8113 43.56ZM17.4113 45.48L16.4513 44.52L17.4113 43.56L18.3713 44.52L17.4113 45.48ZM14.2113 45.48L13.2513 44.52L14.2113 43.56L15.1713 44.52L14.2113 45.48ZM11.0113 45.48L10.0513 44.52L11.0113 43.56L11.9713 44.52L11.0113 45.48ZM7.81125 45.48L6.85125 44.52L7.81125 43.56L8.77125 44.52L7.81125 45.48ZM44.6113 46.12H46.0513L44.6113 44.68L43.1713 46.12H44.6113ZM47.8113 46.12H49.2513L47.8113 44.68L46.3713 46.12H47.8113ZM51.0113 46.12H52.4513L51.0113 44.68L49.5713 46.12H51.0113ZM84.6113 49.32L83.0113 47.72L84.6113 46.12L86.2113 47.72L84.6113 49.32ZM81.4113 49.32L79.8113 47.72L81.4113 46.12L83.0113 47.72L81.4113 49.32ZM78.2113 49.32L76.6113 47.72L78.2113 46.12L79.8113 47.72L78.2113 49.32ZM75.0113 49.32L73.4113 47.72L75.0113 46.12L76.6113 47.72L75.0113 49.32ZM71.8113 49.32L70.2113 47.72L71.8113 46.12L73.4113 47.72L71.8113 49.32ZM68.6113 49.32L67.0113 47.72L68.6113 46.12L70.2113 47.72L68.6113 49.32ZM65.4113 49.32L63.8113 47.72L65.4113 46.12L67.0113 47.72L65.4113 49.32ZM62.2113 49.32L60.6113 47.72L62.2113 46.12L63.8113 47.72L62.2113 49.32ZM59.0113 49.32L57.4113 47.72L59.0113 46.12L60.6113 47.72L59.0113 49.32ZM15.6512 49.16H12.7713V46.28H15.6512V49.16ZM12.4513 49.16H9.57125V46.28H12.4513V49.16ZM9.25125 49.16H6.37125V46.28H9.25125V49.16ZM39.8113 46.76L40.7713 48.68H38.8513L39.8113 46.76ZM36.6113 46.76L37.5713 48.68H35.6512L36.6113 46.76ZM33.4113 46.76L34.3713 48.68H32.4513L33.4113 46.76ZM17.7313 49.32C18.6913 49.5333 19.1179 49.96 19.0113 50.6C19.2246 49.96 19.6513 49.5333 20.2913 49.32C19.6513 49.2133 19.2246 48.84 19.0113 48.2C18.7979 48.7333 18.3713 49.1067 17.7313 49.32ZM20.9313 49.32C21.8913 49.5333 22.3179 49.96 22.2113 50.6C22.4246 49.96 22.8513 49.5333 23.4913 49.32C22.8513 49.1067 22.4246 48.7333 22.2113 48.2C21.9979 48.7333 21.5713 49.1067 20.9313 49.32ZM24.1313 49.32C25.0913 49.64 25.5179 50.0667 25.4113 50.6C25.6246 49.96 26.0513 49.5333 26.6913 49.32C26.0513 49.1067 25.6246 48.7333 25.4113 48.2C25.1979 48.7333 24.7713 49.1067 24.1313 49.32ZM27.4913 49.32C28.3446 49.64 28.7179 50.0667 28.6113 50.6C28.8246 49.96 29.1979 49.5333 29.7313 49.32C29.1979 49.1067 28.8246 48.7333 28.6113 48.2C28.3979 48.7333 28.0246 49.1067 27.4913 49.32ZM15.6512 52.36H12.7713V49.48H15.6512V52.36ZM12.4513 52.36H9.57125V49.48H12.4513V52.36ZM9.25125 52.36H6.37125V49.48H9.25125V52.36ZM91.0113 52.2L89.7313 50.92L91.0113 49.64L92.2913 50.92L91.0113 52.2ZM87.8113 52.2L86.5313 50.92L87.8113 49.64L89.0913 50.92L87.8113 52.2ZM84.6113 52.2L83.3313 50.92L84.6113 49.64L85.8913 50.92L84.6113 52.2ZM81.4113 52.2L80.1313 50.92L81.4113 49.64L82.6912 50.92L81.4113 52.2ZM78.2113 52.2L76.9313 50.92L78.2113 49.64L79.4913 50.92L78.2113 52.2ZM75.0113 52.2L73.7313 50.92L75.0113 49.64L76.2913 50.92L75.0113 52.2ZM71.8113 52.2L70.5313 50.92L71.8113 49.64L73.0913 50.92L71.8113 52.2ZM68.6113 52.2L67.3313 50.92L68.6113 49.64L69.8913 50.92L68.6113 52.2ZM65.4113 52.2L64.1313 50.92L65.4113 49.64L66.6913 50.92L65.4113 52.2ZM62.2113 52.2L60.9313 50.92L62.2113 49.64L63.4913 50.92L62.2113 52.2ZM59.0113 52.2L57.7313 50.92L59.0113 49.64L60.2913 50.92L59.0113 52.2ZM55.8113 52.04L54.6913 50.92L55.8113 49.8L56.9313 50.92L55.8113 52.04ZM52.6113 52.04L51.4913 50.92L52.6113 49.8L53.7313 50.92L52.6113 52.04ZM49.4113 52.04L48.2913 50.92L49.4113 49.8L50.5313 50.92L49.4113 52.04ZM46.2113 52.04L45.0913 50.92L46.2113 49.8L47.3313 50.92L46.2113 52.04ZM43.0113 52.04L41.8913 50.92L43.0113 49.8L44.1313 50.92L43.0113 52.04ZM39.8113 50.12L40.6113 51.72H39.0113L39.8113 50.12ZM36.6113 50.12L37.4113 51.72H35.8113L36.6113 50.12ZM33.4113 50.12L34.2113 51.72H32.6113L33.4113 50.12ZM17.7313 52.52C18.5846 52.7333 19.0113 53.2133 19.0113 53.96C19.2246 52.8933 19.6513 52.4133 20.2913 52.52C19.3313 52.3067 18.9046 51.88 19.0113 51.24C18.7979 52.2 18.3713 52.6267 17.7313 52.52ZM20.9313 52.52C21.7846 52.7333 22.2113 53.2133 22.2113 53.96C22.4246 52.8933 22.8513 52.4133 23.4913 52.52C22.5313 52.3067 22.1046 51.88 22.2113 51.24C21.9979 52.2 21.5713 52.6267 20.9313 52.52ZM24.1313 52.52C24.9846 52.7333 25.4113 53.2133 25.4113 53.96C25.6246 52.8933 26.0513 52.4133 26.6913 52.52C25.7313 52.3067 25.3046 51.88 25.4113 51.24C25.1979 52.2 24.7713 52.6267 24.1313 52.52ZM27.3313 52.52C28.1846 52.7333 28.6113 53.2133 28.6113 53.96C28.8246 52.8933 29.2513 52.4133 29.8913 52.52C28.9313 52.3067 28.5046 51.88 28.6113 51.24C28.3979 52.2 27.9713 52.6267 27.3313 52.52ZM15.6512 55.56H12.7713V52.68H15.6512V55.56ZM12.4513 55.56H9.57125V52.68H12.4513V55.56ZM9.25125 55.56H6.37125V52.68H9.25125V55.56ZM91.0113 55.4L89.7313 54.12L91.0113 52.84L92.2913 54.12L91.0113 55.4ZM87.8113 55.4L86.5313 54.12L87.8113 52.84L89.0913 54.12L87.8113 55.4ZM84.6113 55.4L83.3313 54.12L84.6113 52.84L85.8913 54.12L84.6113 55.4ZM81.4113 55.4L80.1313 54.12L81.4113 52.84L82.6912 54.12L81.4113 55.4ZM78.2113 55.4L76.9313 54.12L78.2113 52.84L79.4913 54.12L78.2113 55.4ZM75.0113 55.4L73.7313 54.12L75.0113 52.84L76.2913 54.12L75.0113 55.4ZM71.8113 55.4L70.5313 54.12L71.8113 52.84L73.0913 54.12L71.8113 55.4ZM68.6113 55.4L67.3313 54.12L68.6113 52.84L69.8913 54.12L68.6113 55.4ZM65.4113 55.4L64.1313 54.12L65.4113 52.84L66.6913 54.12L65.4113 55.4ZM62.2113 55.4L60.9313 54.12L62.2113 52.84L63.4913 54.12L62.2113 55.4ZM59.0113 55.4L57.7313 54.12L59.0113 52.84L60.2913 54.12L59.0113 55.4ZM55.8113 55.24L54.6913 54.12L55.8113 53L56.9313 54.12L55.8113 55.24ZM52.6113 55.24L51.4913 54.12L52.6113 53L53.7313 54.12L52.6113 55.24ZM49.4113 55.24L48.2913 54.12L49.4113 53L50.5313 54.12L49.4113 55.24ZM46.2113 55.24L45.0913 54.12L46.2113 53L47.3313 54.12L46.2113 55.24ZM43.0113 55.24L41.8913 54.12L43.0113 53L44.1313 54.12L43.0113 55.24ZM39.8113 53.32L40.6113 54.92H39.0113L39.8113 53.32ZM36.6113 53.32L37.4113 54.92H35.8113L36.6113 53.32ZM33.4113 53.32L34.2113 54.92H32.6113L33.4113 53.32ZM17.5713 55.72C18.5313 55.8267 19.0113 56.36 19.0113 57.32C19.0113 56.2533 19.4913 55.72 20.4513 55.72C19.4913 55.6133 19.0113 55.1333 19.0113 54.28C18.7979 55.24 18.3179 55.72 17.5713 55.72ZM20.7713 55.72C21.7313 55.8267 22.2113 56.36 22.2113 57.32C22.2113 56.2533 22.6913 55.72 23.6513 55.72C22.6913 55.6133 22.2113 55.1333 22.2113 54.28C21.9979 55.24 21.5179 55.72 20.7713 55.72ZM23.9713 55.72C24.9313 55.8267 25.4113 56.36 25.4113 57.32C25.4113 56.2533 25.8913 55.72 26.8513 55.72C25.8913 55.6133 25.4113 55.1333 25.4113 54.28C25.1979 55.24 24.7179 55.72 23.9713 55.72ZM27.1713 55.72C28.1313 55.8267 28.6113 56.36 28.6113 57.32C28.6113 56.2533 29.0913 55.72 30.0513 55.72C29.0913 55.6133 28.6113 55.1333 28.6113 54.28C28.3979 55.24 27.9179 55.72 27.1713 55.72ZM89.2513 58.76H86.3713V55.88H89.2513V58.76ZM86.0513 58.76H83.1713V55.88H86.0513V58.76ZM82.8513 58.76H79.9713V55.88H82.8513V58.76ZM79.6513 58.76H76.7712V55.88H79.6513V58.76ZM76.4513 58.76H73.5713V55.88H76.4513V58.76ZM73.2513 58.76H70.3713V55.88H73.2513V58.76ZM70.0513 58.76H67.1713V55.88H70.0513V58.76ZM66.8513 58.76H63.9713V55.88H66.8513V58.76ZM63.6513 58.76H60.7713V55.88H63.6513V58.76ZM60.4513 58.76H57.5713V55.88H60.4513V58.76ZM15.4913 58.6H12.9313V56.04H15.4913V58.6ZM12.2913 58.6H9.73125V56.04H12.2913V58.6ZM9.09125 58.6H6.53125V56.04H9.09125V58.6ZM94.2113 58.44L93.0913 57.32L94.2113 56.2L95.3313 57.32L94.2113 58.44ZM91.0113 58.44L89.8913 57.32L91.0113 56.2L92.1313 57.32L91.0113 58.44ZM55.8113 58.44L54.6913 57.32L55.8113 56.2L56.9313 57.32L55.8113 58.44ZM52.6113 58.44L51.4913 57.32L52.6113 56.2L53.7313 57.32L52.6113 58.44ZM49.4113 58.44L48.2913 57.32L49.4113 56.2L50.5313 57.32L49.4113 58.44ZM46.2113 58.44L45.0913 57.32L46.2113 56.2L47.3313 57.32L46.2113 58.44ZM43.0113 58.44L41.8913 57.32L43.0113 56.2L44.1313 57.32L43.0113 58.44ZM39.8113 56.52L40.6113 58.12H39.0113L39.8113 56.52ZM36.6113 56.52L37.4113 58.12H35.8113L36.6113 56.52ZM33.4113 56.52L34.2113 58.12H32.6113L33.4113 56.52ZM30.2113 62.12C29.1446 62.12 28.6113 61.5867 28.6113 60.52C28.6113 59.4533 29.1446 58.92 30.2113 58.92C31.2779 58.92 31.8113 59.4533 31.8113 60.52C31.8113 61.5867 31.2779 62.12 30.2113 62.12ZM27.0113 62.12C25.9446 62.12 25.4113 61.5867 25.4113 60.52C25.4113 59.4533 25.9446 58.92 27.0113 58.92C28.0779 58.92 28.6113 59.4533 28.6113 60.52C28.6113 61.5867 28.0779 62.12 27.0113 62.12ZM23.8113 62.12C22.7446 62.12 22.2113 61.5867 22.2113 60.52C22.2113 59.4533 22.7446 58.92 23.8113 58.92C24.8779 58.92 25.4113 59.4533 25.4113 60.52C25.4113 61.5867 24.8779 62.12 23.8113 62.12ZM20.6113 62.12C19.5446 62.12 19.0113 61.5867 19.0113 60.52C19.0113 59.4533 19.5446 58.92 20.6113 58.92C21.6779 58.92 22.2113 59.4533 22.2113 60.52C22.2113 61.5867 21.6779 62.12 20.6113 62.12ZM17.4113 62.12C16.3446 62.12 15.8113 61.5867 15.8113 60.52C15.8113 59.4533 16.3446 58.92 17.4113 58.92C18.4779 58.92 19.0113 59.4533 19.0113 60.52C19.0113 61.5867 18.4779 62.12 17.4113 62.12ZM89.2513 61.96H86.3713V59.08H89.2513V61.96ZM86.0513 61.96H83.1713V59.08H86.0513V61.96ZM82.8513 61.96H79.9713V59.08H82.8513V61.96ZM79.6513 61.96H76.7712V59.08H79.6513V61.96ZM76.4513 61.96H73.5713V59.08H76.4513V61.96ZM73.2513 61.96H70.3713V59.08H73.2513V61.96ZM70.0513 61.96H67.1713V59.08H70.0513V61.96ZM66.8513 61.96H63.9713V59.08H66.8513V61.96ZM63.6513 61.96H60.7713V59.08H63.6513V61.96ZM60.4513 61.96H57.5713V59.08H60.4513V61.96ZM15.4913 61.8H12.9313V59.24H15.4913V61.8ZM12.2913 61.8H9.73125V59.24H12.2913V61.8ZM9.09125 61.8H6.53125V59.24H9.09125V61.8ZM5.89125 61.8H3.33125V59.24H5.89125V61.8ZM97.4113 59.4L98.5313 61.64H96.2913L97.4113 59.4ZM94.2113 59.4L95.3313 61.64H93.0913L94.2113 59.4ZM91.0113 59.4L92.1313 61.64H89.8913L91.0113 59.4ZM55.8113 61.64L54.6913 60.52L55.8113 59.4L56.9313 60.52L55.8113 61.64ZM52.6113 61.64L51.4913 60.52L52.6113 59.4L53.7313 60.52L52.6113 61.64ZM49.4113 61.64L48.2913 60.52L49.4113 59.4L50.5313 60.52L49.4113 61.64ZM46.2113 61.64L45.0913 60.52L46.2113 59.4L47.3313 60.52L46.2113 61.64ZM43.0113 61.64L41.8913 60.52L43.0113 59.4L44.1313 60.52L43.0113 61.64ZM39.8113 59.72L40.6113 61.32H39.0113L39.8113 59.72ZM36.6113 59.72L37.4113 61.32H35.8113L36.6113 59.72ZM33.4113 59.72L34.2113 61.32H32.6113L33.4113 59.72ZM30.2113 65.32C29.1446 65.32 28.6113 64.7867 28.6113 63.72C28.6113 62.6533 29.1446 62.12 30.2113 62.12C31.2779 62.12 31.8113 62.6533 31.8113 63.72C31.8113 64.7867 31.2779 65.32 30.2113 65.32ZM27.0113 65.32C25.9446 65.32 25.4113 64.7867 25.4113 63.72C25.4113 62.6533 25.9446 62.12 27.0113 62.12C28.0779 62.12 28.6113 62.6533 28.6113 63.72C28.6113 64.7867 28.0779 65.32 27.0113 65.32ZM23.8113 65.32C22.7446 65.32 22.2113 64.7867 22.2113 63.72C22.2113 62.6533 22.7446 62.12 23.8113 62.12C24.8779 62.12 25.4113 62.6533 25.4113 63.72C25.4113 64.7867 24.8779 65.32 23.8113 65.32ZM20.6113 65.32C19.5446 65.32 19.0113 64.7867 19.0113 63.72C19.0113 62.6533 19.5446 62.12 20.6113 62.12C21.6779 62.12 22.2113 62.6533 22.2113 63.72C22.2113 64.7867 21.6779 65.32 20.6113 65.32ZM17.4113 65.32C16.3446 65.32 15.8113 64.7867 15.8113 63.72C15.8113 62.6533 16.3446 62.12 17.4113 62.12C18.4779 62.12 19.0113 62.6533 19.0113 63.72C19.0113 64.7867 18.4779 65.32 17.4113 65.32ZM89.2513 65.16H86.3713V62.28H89.2513V65.16ZM86.0513 65.16H83.1713V62.28H86.0513V65.16ZM82.8513 65.16H79.9713V62.28H82.8513V65.16ZM79.6513 65.16H76.7712V62.28H79.6513V65.16ZM76.4513 65.16H73.5713V62.28H76.4513V65.16ZM73.2513 65.16H70.3713V62.28H73.2513V65.16ZM70.0513 65.16H67.1713V62.28H70.0513V65.16ZM66.8513 65.16H63.9713V62.28H66.8513V65.16ZM63.6513 65.16H60.7713V62.28H63.6513V65.16ZM60.4513 65.16H57.5713V62.28H60.4513V65.16ZM15.4913 65H12.9313V62.44H15.4913V65ZM12.2913 65H9.73125V62.44H12.2913V65ZM9.09125 65H6.53125V62.44H9.09125V65ZM5.89125 65H3.33125V62.44H5.89125V65ZM97.4113 62.6L98.5313 64.84H96.2913L97.4113 62.6ZM94.2113 62.6L95.3313 64.84H93.0913L94.2113 62.6ZM91.0113 62.6L92.1313 64.84H89.8913L91.0113 62.6ZM55.8113 64.84L54.6913 63.72L55.8113 62.6L56.9313 63.72L55.8113 64.84ZM52.6113 64.84L51.4913 63.72L52.6113 62.6L53.7313 63.72L52.6113 64.84ZM49.4113 64.84L48.2913 63.72L49.4113 62.6L50.5313 63.72L49.4113 64.84ZM46.2113 64.84L45.0913 63.72L46.2113 62.6L47.3313 63.72L46.2113 64.84ZM43.0113 64.84L41.8913 63.72L43.0113 62.6L44.1313 63.72L43.0113 64.84ZM39.8113 62.92L40.6113 64.52H39.0113L39.8113 62.92ZM36.6113 62.92L37.4113 64.52H35.8113L36.6113 62.92ZM33.4113 62.92L34.2113 64.52H32.6113L33.4113 62.92ZM30.2113 68.52C29.1446 68.52 28.6113 67.9867 28.6113 66.92C28.6113 65.8533 29.1446 65.32 30.2113 65.32C31.2779 65.32 31.8113 65.8533 31.8113 66.92C31.8113 67.9867 31.2779 68.52 30.2113 68.52ZM27.0113 68.52C25.9446 68.52 25.4113 67.9867 25.4113 66.92C25.4113 65.8533 25.9446 65.32 27.0113 65.32C28.0779 65.32 28.6113 65.8533 28.6113 66.92C28.6113 67.9867 28.0779 68.52 27.0113 68.52ZM23.8113 68.52C22.7446 68.52 22.2113 67.9867 22.2113 66.92C22.2113 65.8533 22.7446 65.32 23.8113 65.32C24.8779 65.32 25.4113 65.8533 25.4113 66.92C25.4113 67.9867 24.8779 68.52 23.8113 68.52ZM20.6113 68.52C19.5446 68.52 19.0113 67.9867 19.0113 66.92C19.0113 65.8533 19.5446 65.32 20.6113 65.32C21.6779 65.32 22.2113 65.8533 22.2113 66.92C22.2113 67.9867 21.6779 68.52 20.6113 68.52ZM17.4113 68.52C16.3446 68.52 15.8113 67.9867 15.8113 66.92C15.8113 65.8533 16.3446 65.32 17.4113 65.32C18.4779 65.32 19.0113 65.8533 19.0113 66.92C19.0113 67.9867 18.4779 68.52 17.4113 68.52ZM89.2513 68.36H86.3713V65.48H89.2513V68.36ZM86.0513 68.36H83.1713V65.48H86.0513V68.36ZM82.8513 68.36H79.9713V65.48H82.8513V68.36ZM79.6513 68.36H76.7712V65.48H79.6513V68.36ZM76.4513 68.36H73.5713V65.48H76.4513V68.36ZM73.2513 68.36H70.3713V65.48H73.2513V68.36ZM70.0513 68.36H67.1713V65.48H70.0513V68.36ZM66.8513 68.36H63.9713V65.48H66.8513V68.36ZM63.6513 68.36H60.7713V65.48H63.6513V68.36ZM60.4513 68.36H57.5713V65.48H60.4513V68.36ZM15.4913 68.2H12.9313V65.64H15.4913V68.2ZM12.2913 68.2H9.73125V65.64H12.2913V68.2ZM9.09125 68.2H6.53125V65.64H9.09125V68.2ZM97.4113 65.8L98.5313 68.04H96.2913L97.4113 65.8ZM94.2113 65.8L95.3313 68.04H93.0913L94.2113 65.8ZM91.0113 65.8L92.1313 68.04H89.8913L91.0113 65.8ZM39.8113 66.12L40.6113 67.72H39.0113L39.8113 66.12ZM36.6113 66.12L37.4113 67.72H35.8113L36.6113 66.12ZM33.4113 66.12L34.2113 67.72H32.6113L33.4113 66.12ZM89.0913 71.4H86.5313V68.84H89.0913V71.4ZM85.8913 71.4H83.3313V68.84H85.8913V71.4ZM82.6912 71.4H80.1313V68.84H82.6912V71.4ZM79.4913 71.4H76.9313V68.84H79.4913V71.4ZM76.2913 71.4H73.7313V68.84H76.2913V71.4ZM73.0913 71.4H70.5313V68.84H73.0913V71.4ZM69.8913 71.4H67.3313V68.84H69.8913V71.4ZM66.6913 71.4H64.1313V68.84H66.6913V71.4ZM63.4913 71.4H60.9313V68.84H63.4913V71.4ZM60.2913 71.4H57.7313V68.84H60.2913V71.4ZM97.4113 69.16L98.3713 71.08H96.4513L97.4113 69.16ZM94.2113 69.16L95.1713 71.08H93.2513L94.2113 69.16ZM91.0113 69.16L91.9713 71.08H90.0513L91.0113 69.16ZM89.0913 74.6H86.5313V72.04H89.0913V74.6ZM85.8913 74.6H83.3313V72.04H85.8913V74.6ZM82.6912 74.6H80.1313V72.04H82.6912V74.6ZM79.4913 74.6H76.9313V72.04H79.4913V74.6ZM76.2913 74.6H73.7313V72.04H76.2913V74.6ZM73.0913 74.6H70.5313V72.04H73.0913V74.6ZM69.8913 74.6H67.3313V72.04H69.8913V74.6ZM66.6913 74.6H64.1313V72.04H66.6913V74.6ZM63.4913 74.6H60.9313V72.04H63.4913V74.6ZM100.611 72.36L101.571 74.28H99.6513L100.611 72.36ZM97.4113 72.36L98.3713 74.28H96.4513L97.4113 72.36ZM94.2113 72.36L95.1713 74.28H93.2513L94.2113 72.36ZM91.0113 72.36L91.9713 74.28H90.0513L91.0113 72.36ZM30.2113 77.96C29.2513 77.96 28.7713 77.48 28.7713 76.52C28.7713 75.56 29.2513 75.08 30.2113 75.08C31.1713 75.08 31.6513 75.56 31.6513 76.52C31.6513 77.48 31.1713 77.96 30.2113 77.96ZM27.0113 77.96C26.0513 77.96 25.5713 77.48 25.5713 76.52C25.5713 75.56 26.0513 75.08 27.0113 75.08C27.9713 75.08 28.4513 75.56 28.4513 76.52C28.4513 77.48 27.9713 77.96 27.0113 77.96ZM23.8113 77.96C22.8513 77.96 22.3713 77.48 22.3713 76.52C22.3713 75.56 22.8513 75.08 23.8113 75.08C24.7713 75.08 25.2513 75.56 25.2513 76.52C25.2513 77.48 24.7713 77.96 23.8113 77.96ZM20.6113 77.96C19.6513 77.96 19.1713 77.48 19.1713 76.52C19.1713 75.56 19.6513 75.08 20.6113 75.08C21.5713 75.08 22.0513 75.56 22.0513 76.52C22.0513 77.48 21.5713 77.96 20.6113 77.96ZM17.4113 77.96C16.4513 77.96 15.9713 77.48 15.9713 76.52C15.9713 75.56 16.4513 75.08 17.4113 75.08C18.3713 75.08 18.8513 75.56 18.8513 76.52C18.8513 77.48 18.3713 77.96 17.4113 77.96ZM89.0913 77.8H86.5313V75.24H89.0913V77.8ZM85.8913 77.8H83.3313V75.24H85.8913V77.8ZM82.6912 77.8H80.1313V75.24H82.6912V77.8ZM79.4913 77.8H76.9313V75.24H79.4913V77.8ZM76.2913 77.8H73.7313V75.24H76.2913V77.8ZM73.0913 77.8H70.5313V75.24H73.0913V77.8ZM69.8913 77.8H67.3313V75.24H69.8913V77.8ZM66.6913 77.8H64.1313V75.24H66.6913V77.8ZM63.4913 77.8H60.9313V75.24H63.4913V77.8ZM15.4913 77.8H12.9313V75.24H15.4913V77.8ZM12.2913 77.64H9.89125V75.24H12.2913V77.64ZM8.93125 77.64H6.69125V75.4H8.93125V77.64ZM5.73125 77.64H3.49125V75.4H5.73125V77.64ZM2.53125 77.64H0.29125V75.4H2.53125V77.64ZM100.611 75.56L101.571 77.48H99.6513L100.611 75.56ZM97.4113 75.56L98.3713 77.48H96.4513L97.4113 75.56ZM94.2113 75.56L95.1713 77.48H93.2513L94.2113 75.56ZM91.0113 75.56L91.9713 77.48H90.0513L91.0113 75.56ZM36.6113 77.32C36.0779 77.32 35.8113 77.0533 35.8113 76.52C35.8113 75.9867 36.0779 75.72 36.6113 75.72C37.1446 75.72 37.4113 75.9867 37.4113 76.52C37.4113 77.0533 37.1446 77.32 36.6113 77.32ZM33.4113 77.32C32.8779 77.32 32.6113 77.0533 32.6113 76.52C32.6113 75.9867 32.8779 75.72 33.4113 75.72C33.9446 75.72 34.2113 75.9867 34.2113 76.52C34.2113 77.0533 33.9446 77.32 33.4113 77.32ZM30.2113 81.16C29.2513 81.16 28.7713 80.68 28.7713 79.72C28.7713 78.76 29.2513 78.28 30.2113 78.28C31.1713 78.28 31.6513 78.76 31.6513 79.72C31.6513 80.68 31.1713 81.16 30.2113 81.16ZM27.0113 81.16C26.0513 81.16 25.5713 80.68 25.5713 79.72C25.5713 78.76 26.0513 78.28 27.0113 78.28C27.9713 78.28 28.4513 78.76 28.4513 79.72C28.4513 80.68 27.9713 81.16 27.0113 81.16ZM23.8113 81.16C22.8513 81.16 22.3713 80.68 22.3713 79.72C22.3713 78.76 22.8513 78.28 23.8113 78.28C24.7713 78.28 25.2513 78.76 25.2513 79.72C25.2513 80.68 24.7713 81.16 23.8113 81.16ZM20.6113 81.16C19.6513 81.16 19.1713 80.68 19.1713 79.72C19.1713 78.76 19.6513 78.28 20.6113 78.28C21.5713 78.28 22.0513 78.76 22.0513 79.72C22.0513 80.68 21.5713 81.16 20.6113 81.16ZM17.4113 81.16C16.4513 81.16 15.9713 80.68 15.9713 79.72C15.9713 78.76 16.4513 78.28 17.4113 78.28C18.3713 78.28 18.8513 78.76 18.8513 79.72C18.8513 80.68 18.3713 81.16 17.4113 81.16ZM89.0913 81H86.5313V78.44H89.0913V81ZM85.8913 81H83.3313V78.44H85.8913V81ZM82.6912 81H80.1313V78.44H82.6912V81ZM79.4913 81H76.9313V78.44H79.4913V81ZM76.2913 81H73.7313V78.44H76.2913V81ZM73.0913 81H70.5313V78.44H73.0913V81ZM69.8913 81H67.3313V78.44H69.8913V81ZM66.6913 81H64.1313V78.44H66.6913V81ZM63.4913 81H60.9313V78.44H63.4913V81ZM60.2913 81H57.7313V78.44H60.2913V81ZM15.3313 80.84H13.0913V78.6H15.3313V80.84ZM12.1313 80.84H9.89125V78.6H12.1313V80.84ZM8.93125 80.84H6.69125V78.6H8.93125V80.84ZM5.73125 80.84H3.49125V78.6H5.73125V80.84ZM2.53125 80.84H0.29125V78.6H2.53125V80.84ZM97.4113 78.76L98.3713 80.68H96.4513L97.4113 78.76ZM94.2113 78.76L95.1713 80.68H93.2513L94.2113 78.76ZM91.0113 78.76L91.9713 80.68H90.0513L91.0113 78.76ZM39.8113 80.36C39.3846 80.36 39.1713 80.1467 39.1713 79.72C39.1713 79.2933 39.3846 79.08 39.8113 79.08C40.2379 79.08 40.4513 79.2933 40.4513 79.72C40.4513 80.1467 40.2379 80.36 39.8113 80.36ZM36.6113 80.36C36.1846 80.36 35.9713 80.1467 35.9713 79.72C35.9713 79.2933 36.1846 79.08 36.6113 79.08C37.0379 79.08 37.2513 79.2933 37.2513 79.72C37.2513 80.1467 37.0379 80.36 36.6113 80.36ZM33.4113 80.36C32.9846 80.36 32.7713 80.1467 32.7713 79.72C32.7713 79.2933 32.9846 79.08 33.4113 79.08C33.8379 79.08 34.0513 79.2933 34.0513 79.72C34.0513 80.1467 33.8379 80.36 33.4113 80.36ZM30.2113 84.36C29.2513 84.36 28.7713 83.88 28.7713 82.92C28.7713 81.96 29.2513 81.48 30.2113 81.48C31.1713 81.48 31.6513 81.96 31.6513 82.92C31.6513 83.88 31.1713 84.36 30.2113 84.36ZM27.0113 84.36C26.0513 84.36 25.5713 83.88 25.5713 82.92C25.5713 81.96 26.0513 81.48 27.0113 81.48C27.9713 81.48 28.4513 81.96 28.4513 82.92C28.4513 83.88 27.9713 84.36 27.0113 84.36ZM23.8113 84.36C22.8513 84.36 22.3713 83.88 22.3713 82.92C22.3713 81.96 22.8513 81.48 23.8113 81.48C24.7713 81.48 25.2513 81.96 25.2513 82.92C25.2513 83.88 24.7713 84.36 23.8113 84.36ZM20.6113 84.36C19.6513 84.36 19.1713 83.88 19.1713 82.92C19.1713 81.96 19.6513 81.48 20.6113 81.48C21.5713 81.48 22.0513 81.96 22.0513 82.92C22.0513 83.88 21.5713 84.36 20.6113 84.36ZM17.4113 84.36C16.4513 84.36 15.9713 83.88 15.9713 82.92C15.9713 81.96 16.4513 81.48 17.4113 81.48C18.3713 81.48 18.8513 81.96 18.8513 82.92C18.8513 83.88 18.3713 84.36 17.4113 84.36ZM89.0913 84.2H86.5313V81.64H89.0913V84.2ZM85.8913 84.2H83.3313V81.64H85.8913V84.2ZM82.6912 84.2H80.1313V81.64H82.6912V84.2ZM79.4913 84.2H76.9313V81.64H79.4913V84.2ZM76.2913 84.2H73.7313V81.64H76.2913V84.2ZM73.0913 84.2H70.5313V81.64H73.0913V84.2ZM69.8913 84.2H67.3313V81.64H69.8913V84.2ZM66.6913 84.2H64.1313V81.64H66.6913V84.2ZM63.4913 84.2H60.9313V81.64H63.4913V84.2ZM60.2913 84.2H57.7313V81.64H60.2913V84.2ZM43.0113 84.2C42.1579 84.2 41.7313 83.7733 41.7313 82.92C41.7313 82.0667 42.1579 81.64 43.0113 81.64C43.8646 81.64 44.2913 82.0667 44.2913 82.92C44.2913 83.7733 43.8646 84.2 43.0113 84.2ZM15.3313 84.04H13.0913V81.8H15.3313V84.04ZM12.1313 84.04H9.89125V81.8H12.1313V84.04ZM8.93125 84.04H6.69125V81.8H8.93125V84.04ZM5.73125 84.04H3.49125V81.8H5.73125V84.04ZM2.53125 84.04H0.29125V81.8H2.53125V84.04ZM97.4113 81.96L98.3713 83.88H96.4513L97.4113 81.96ZM94.2113 81.96L95.1713 83.88H93.2513L94.2113 81.96ZM91.0113 81.96L91.9713 83.88H90.0513L91.0113 81.96ZM55.8113 83.72L55.0113 82.92L55.8113 82.12L56.6113 82.92L55.8113 83.72ZM39.8113 83.56C39.3846 83.56 39.1713 83.3467 39.1713 82.92C39.1713 82.4933 39.3846 82.28 39.8113 82.28C40.2379 82.28 40.4513 82.4933 40.4513 82.92C40.4513 83.3467 40.2379 83.56 39.8113 83.56ZM36.6113 83.56C36.1846 83.56 35.9713 83.3467 35.9713 82.92C35.9713 82.4933 36.1846 82.28 36.6113 82.28C37.0379 82.28 37.2513 82.4933 37.2513 82.92C37.2513 83.3467 37.0379 83.56 36.6113 83.56ZM33.4113 83.56C32.9846 83.56 32.7713 83.3467 32.7713 82.92C32.7713 82.4933 32.9846 82.28 33.4113 82.28C33.8379 82.28 34.0513 82.4933 34.0513 82.92C34.0513 83.3467 33.8379 83.56 33.4113 83.56ZM30.2113 87.56C29.2513 87.56 28.7713 87.08 28.7713 86.12C28.7713 85.16 29.2513 84.68 30.2113 84.68C31.1713 84.68 31.6513 85.16 31.6513 86.12C31.6513 87.08 31.1713 87.56 30.2113 87.56ZM27.0113 87.56C26.0513 87.56 25.5713 87.08 25.5713 86.12C25.5713 85.16 26.0513 84.68 27.0113 84.68C27.9713 84.68 28.4513 85.16 28.4513 86.12C28.4513 87.08 27.9713 87.56 27.0113 87.56ZM23.8113 87.56C22.8513 87.56 22.3713 87.08 22.3713 86.12C22.3713 85.16 22.8513 84.68 23.8113 84.68C24.7713 84.68 25.2513 85.16 25.2513 86.12C25.2513 87.08 24.7713 87.56 23.8113 87.56ZM20.6113 87.56C19.6513 87.56 19.1713 87.08 19.1713 86.12C19.1713 85.16 19.6513 84.68 20.6113 84.68C21.5713 84.68 22.0513 85.16 22.0513 86.12C22.0513 87.08 21.5713 87.56 20.6113 87.56ZM17.4113 87.56C16.4513 87.56 15.9713 87.08 15.9713 86.12C15.9713 85.16 16.4513 84.68 17.4113 84.68C18.3713 84.68 18.8513 85.16 18.8513 86.12C18.8513 87.08 18.3713 87.56 17.4113 87.56ZM89.0913 87.4H86.5313V84.84H89.0913V87.4ZM85.8913 87.4H83.3313V84.84H85.8913V87.4ZM82.6912 87.4H80.1313V84.84H82.6912V87.4ZM79.4913 87.4H76.9313V84.84H79.4913V87.4ZM76.2913 87.4H73.7313V84.84H76.2913V87.4ZM73.0913 87.4H70.5313V84.84H73.0913V87.4ZM69.8913 87.4H67.3313V84.84H69.8913V87.4ZM66.6913 87.4H64.1313V84.84H66.6913V87.4ZM63.4913 87.4H60.9313V84.84H63.4913V87.4ZM60.2913 87.4H57.7313V84.84H60.2913V87.4ZM49.4113 87.4C48.5579 87.4 48.1313 86.9733 48.1313 86.12C48.1313 85.2667 48.5579 84.84 49.4113 84.84C50.2646 84.84 50.6913 85.2667 50.6913 86.12C50.6913 86.9733 50.2646 87.4 49.4113 87.4ZM46.2113 87.4C45.3579 87.4 44.9313 86.9733 44.9313 86.12C44.9313 85.2667 45.3579 84.84 46.2113 84.84C47.0646 84.84 47.4913 85.2667 47.4913 86.12C47.4913 86.9733 47.0646 87.4 46.2113 87.4ZM43.0113 87.4C42.1579 87.4 41.7313 86.9733 41.7313 86.12C41.7313 85.2667 42.1579 84.84 43.0113 84.84C43.8646 84.84 44.2913 85.2667 44.2913 86.12C44.2913 86.9733 43.8646 87.4 43.0113 87.4ZM15.3313 87.24H13.0913V85H15.3313V87.24ZM12.1313 87.24H9.89125V85H12.1313V87.24ZM8.93125 87.24H6.69125V85H8.93125V87.24ZM5.73125 87.24H3.49125V85H5.73125V87.24ZM2.53125 87.24H0.29125V85H2.53125V87.24ZM97.4113 85.16L98.3713 87.08H96.4513L97.4113 85.16ZM94.2113 85.16L95.1713 87.08H93.2513L94.2113 85.16ZM91.0113 85.16L91.9713 87.08H90.0513L91.0113 85.16ZM55.8113 86.92L55.0113 86.12L55.8113 85.32L56.6113 86.12L55.8113 86.92ZM52.6113 86.92L51.8113 86.12L52.6113 85.32L53.4113 86.12L52.6113 86.92ZM39.8113 86.76C39.3846 86.76 39.1713 86.5467 39.1713 86.12C39.1713 85.6933 39.3846 85.48 39.8113 85.48C40.2379 85.48 40.4513 85.6933 40.4513 86.12C40.4513 86.5467 40.2379 86.76 39.8113 86.76ZM36.6113 86.76C36.1846 86.76 35.9713 86.5467 35.9713 86.12C35.9713 85.6933 36.1846 85.48 36.6113 85.48C37.0379 85.48 37.2513 85.6933 37.2513 86.12C37.2513 86.5467 37.0379 86.76 36.6113 86.76ZM33.4113 86.76C32.9846 86.76 32.7713 86.5467 32.7713 86.12C32.7713 85.6933 32.9846 85.48 33.4113 85.48C33.8379 85.48 34.0513 85.6933 34.0513 86.12C34.0513 86.5467 33.8379 86.76 33.4113 86.76ZM30.2113 90.6C29.3579 90.6 28.9313 90.1733 28.9313 89.32C28.9313 88.4667 29.3579 88.04 30.2113 88.04C31.0646 88.04 31.4913 88.4667 31.4913 89.32C31.4913 90.1733 31.0646 90.6 30.2113 90.6ZM27.0113 90.6C26.1579 90.6 25.7313 90.1733 25.7313 89.32C25.7313 88.4667 26.1579 88.04 27.0113 88.04C27.8646 88.04 28.2913 88.4667 28.2913 89.32C28.2913 90.1733 27.8646 90.6 27.0113 90.6ZM23.8113 90.6C22.9579 90.6 22.5313 90.1733 22.5313 89.32C22.5313 88.4667 22.9579 88.04 23.8113 88.04C24.6646 88.04 25.0913 88.4667 25.0913 89.32C25.0913 90.1733 24.6646 90.6 23.8113 90.6ZM20.6113 90.6C19.7579 90.6 19.3313 90.1733 19.3313 89.32C19.3313 88.4667 19.7579 88.04 20.6113 88.04C21.4646 88.04 21.8913 88.4667 21.8913 89.32C21.8913 90.1733 21.4646 90.6 20.6113 90.6ZM17.4113 90.6C16.5579 90.6 16.1313 90.1733 16.1313 89.32C16.1313 88.4667 16.5579 88.04 17.4113 88.04C18.2646 88.04 18.6913 88.4667 18.6913 89.32C18.6913 90.1733 18.2646 90.6 17.4113 90.6ZM88.9313 90.44H86.6913V88.2H88.9313V90.44ZM85.7313 90.44H83.4913V88.2H85.7313V90.44ZM82.5313 90.44H80.2913V88.2H82.5313V90.44ZM79.3313 90.44H77.0913V88.2H79.3313V90.44ZM76.1313 90.44H73.8913V88.2H76.1313V90.44ZM72.9313 90.44H70.6913V88.2H72.9313V90.44ZM69.7313 90.44H67.4913V88.2H69.7313V90.44ZM66.5313 90.44H64.2913V88.2H66.5313V90.44ZM63.3313 90.44H61.0913V88.2H63.3313V90.44ZM60.1313 90.44H57.8913V88.2H60.1313V90.44ZM49.4113 90.44C48.6646 90.44 48.2913 90.0667 48.2913 89.32C48.2913 88.5733 48.6646 88.2 49.4113 88.2C50.1579 88.2 50.5313 88.5733 50.5313 89.32C50.5313 90.0667 50.1579 90.44 49.4113 90.44ZM46.2113 90.44C45.4646 90.44 45.0913 90.0667 45.0913 89.32C45.0913 88.5733 45.4646 88.2 46.2113 88.2C46.9579 88.2 47.3313 88.5733 47.3313 89.32C47.3313 90.0667 46.9579 90.44 46.2113 90.44ZM43.0113 90.44C42.2646 90.44 41.8913 90.0667 41.8913 89.32C41.8913 88.5733 42.2646 88.2 43.0113 88.2C43.7579 88.2 44.1313 88.5733 44.1313 89.32C44.1313 90.0667 43.7579 90.44 43.0113 90.44ZM15.3313 90.44H13.0913V88.2H15.3313V90.44ZM12.1313 90.44H9.89125V88.2H12.1313V90.44ZM8.93125 90.44H6.69125V88.2H8.93125V90.44ZM5.73125 90.44H3.49125V88.2H5.73125V90.44ZM2.53125 90.44H0.29125V88.2H2.53125V90.44ZM97.4113 88.52L98.2113 90.12H96.6113L97.4113 88.52ZM94.2113 88.52L95.0113 90.12H93.4113L94.2113 88.52ZM91.0113 88.52L91.8113 90.12H90.2113L91.0113 88.52ZM55.8113 90.12L55.0113 89.32L55.8113 88.52L56.6113 89.32L55.8113 90.12ZM52.6113 90.12L51.8113 89.32L52.6113 88.52L53.4113 89.32L52.6113 90.12ZM39.8113 89.96C39.3846 89.96 39.1713 89.7467 39.1713 89.32C39.1713 88.8933 39.3846 88.68 39.8113 88.68C40.2379 88.68 40.4513 88.8933 40.4513 89.32C40.4513 89.7467 40.2379 89.96 39.8113 89.96ZM36.6113 89.96C36.1846 89.96 35.9713 89.7467 35.9713 89.32C35.9713 88.8933 36.1846 88.68 36.6113 88.68C37.0379 88.68 37.2513 88.8933 37.2513 89.32C37.2513 89.7467 37.0379 89.96 36.6113 89.96ZM33.4113 89.96C32.9846 89.96 32.7713 89.7467 32.7713 89.32C32.7713 88.8933 32.9846 88.68 33.4113 88.68C33.8379 88.68 34.0513 88.8933 34.0513 89.32C34.0513 89.7467 33.8379 89.96 33.4113 89.96ZM30.2113 93.8C29.3579 93.8 28.9313 93.3733 28.9313 92.52C28.9313 91.6667 29.3579 91.24 30.2113 91.24C31.0646 91.24 31.4913 91.6667 31.4913 92.52C31.4913 93.3733 31.0646 93.8 30.2113 93.8ZM27.0113 93.8C26.1579 93.8 25.7313 93.3733 25.7313 92.52C25.7313 91.6667 26.1579 91.24 27.0113 91.24C27.8646 91.24 28.2913 91.6667 28.2913 92.52C28.2913 93.3733 27.8646 93.8 27.0113 93.8ZM23.8113 93.8C22.9579 93.8 22.5313 93.3733 22.5313 92.52C22.5313 91.6667 22.9579 91.24 23.8113 91.24C24.6646 91.24 25.0913 91.6667 25.0913 92.52C25.0913 93.3733 24.6646 93.8 23.8113 93.8ZM20.6113 93.8C19.7579 93.8 19.3313 93.3733 19.3313 92.52C19.3313 91.6667 19.7579 91.24 20.6113 91.24C21.4646 91.24 21.8913 91.6667 21.8913 92.52C21.8913 93.3733 21.4646 93.8 20.6113 93.8ZM17.4113 93.8C16.5579 93.8 16.1313 93.3733 16.1313 92.52C16.1313 91.6667 16.5579 91.24 17.4113 91.24C18.2646 91.24 18.6913 91.6667 18.6913 92.52C18.6913 93.3733 18.2646 93.8 17.4113 93.8ZM88.9313 93.64H86.6913V91.4H88.9313V93.64ZM85.7313 93.64H83.4913V91.4H85.7313V93.64ZM82.5313 93.64H80.2913V91.4H82.5313V93.64ZM79.3313 93.64H77.0913V91.4H79.3313V93.64ZM76.1313 93.64H73.8913V91.4H76.1313V93.64ZM72.9313 93.64H70.6913V91.4H72.9313V93.64ZM69.7313 93.64H67.4913V91.4H69.7313V93.64ZM66.5313 93.64H64.2913V91.4H66.5313V93.64ZM63.3313 93.64H61.0913V91.4H63.3313V93.64ZM60.1313 93.64H57.8913V91.4H60.1313V93.64ZM49.4113 93.64C48.6646 93.64 48.2913 93.2667 48.2913 92.52C48.2913 91.7733 48.6646 91.4 49.4113 91.4C50.1579 91.4 50.5313 91.7733 50.5313 92.52C50.5313 93.2667 50.1579 93.64 49.4113 93.64ZM46.2113 93.64C45.4646 93.64 45.0913 93.2667 45.0913 92.52C45.0913 91.7733 45.4646 91.4 46.2113 91.4C46.9579 91.4 47.3313 91.7733 47.3313 92.52C47.3313 93.2667 46.9579 93.64 46.2113 93.64ZM43.0113 93.64C42.2646 93.64 41.8913 93.2667 41.8913 92.52C41.8913 91.7733 42.2646 91.4 43.0113 91.4C43.7579 91.4 44.1313 91.7733 44.1313 92.52C44.1313 93.2667 43.7579 93.64 43.0113 93.64ZM15.3313 93.64H13.0913V91.4H15.3313V93.64ZM12.1313 93.64H9.89125V91.4H12.1313V93.64ZM8.93125 93.64H6.69125V91.4H8.93125V93.64ZM5.73125 93.64H3.49125V91.4H5.73125V93.64ZM94.2113 91.72L95.0113 93.32H93.4113L94.2113 91.72ZM91.0113 91.72L91.8113 93.32H90.2113L91.0113 91.72ZM55.8113 93.32L55.0113 92.52L55.8113 91.72L56.6113 92.52L55.8113 93.32ZM52.6113 93.32L51.8113 92.52L52.6113 91.72L53.4113 92.52L52.6113 93.32ZM39.8113 93.16C39.3846 93.16 39.1713 92.9467 39.1713 92.52C39.1713 92.0933 39.3846 91.88 39.8113 91.88C40.2379 91.88 40.4513 92.0933 40.4513 92.52C40.4513 92.9467 40.2379 93.16 39.8113 93.16ZM36.6113 93.16C36.1846 93.16 35.9713 92.9467 35.9713 92.52C35.9713 92.0933 36.1846 91.88 36.6113 91.88C37.0379 91.88 37.2513 92.0933 37.2513 92.52C37.2513 92.9467 37.0379 93.16 36.6113 93.16ZM33.4113 93.16C32.9846 93.16 32.7713 92.9467 32.7713 92.52C32.7713 92.0933 32.9846 91.88 33.4113 91.88C33.8379 91.88 34.0513 92.0933 34.0513 92.52C34.0513 92.9467 33.8379 93.16 33.4113 93.16ZM30.2113 97C29.3579 97 28.9313 96.5733 28.9313 95.72C28.9313 94.8667 29.3579 94.44 30.2113 94.44C31.0646 94.44 31.4913 94.8667 31.4913 95.72C31.4913 96.5733 31.0646 97 30.2113 97ZM27.0113 97C26.1579 97 25.7313 96.5733 25.7313 95.72C25.7313 94.8667 26.1579 94.44 27.0113 94.44C27.8646 94.44 28.2913 94.8667 28.2913 95.72C28.2913 96.5733 27.8646 97 27.0113 97ZM23.8113 97C22.9579 97 22.5313 96.5733 22.5313 95.72C22.5313 94.8667 22.9579 94.44 23.8113 94.44C24.6646 94.44 25.0913 94.8667 25.0913 95.72C25.0913 96.5733 24.6646 97 23.8113 97ZM20.6113 97C19.7579 97 19.3313 96.5733 19.3313 95.72C19.3313 94.8667 19.7579 94.44 20.6113 94.44C21.4646 94.44 21.8913 94.8667 21.8913 95.72C21.8913 96.5733 21.4646 97 20.6113 97ZM17.4113 97C16.5579 97 16.1313 96.5733 16.1313 95.72C16.1313 94.8667 16.5579 94.44 17.4113 94.44C18.2646 94.44 18.6913 94.8667 18.6913 95.72C18.6913 96.5733 18.2646 97 17.4113 97ZM88.9313 96.84H86.6913V94.6H88.9313V96.84ZM85.7313 96.84H83.4913V94.6H85.7313V96.84ZM82.5313 96.84H80.2913V94.6H82.5313V96.84ZM79.3313 96.84H77.0913V94.6H79.3313V96.84ZM76.1313 96.84H73.8913V94.6H76.1313V96.84ZM72.9313 96.84H70.6913V94.6H72.9313V96.84ZM69.7313 96.84H67.4913V94.6H69.7313V96.84ZM66.5313 96.84H64.2913V94.6H66.5313V96.84ZM63.3313 96.84H61.0913V94.6H63.3313V96.84ZM60.1313 96.84H57.8913V94.6H60.1313V96.84ZM49.4113 96.84C48.6646 96.84 48.2913 96.4667 48.2913 95.72C48.2913 94.9733 48.6646 94.6 49.4113 94.6C50.1579 94.6 50.5313 94.9733 50.5313 95.72C50.5313 96.4667 50.1579 96.84 49.4113 96.84ZM46.2113 96.84C45.4646 96.84 45.0913 96.4667 45.0913 95.72C45.0913 94.9733 45.4646 94.6 46.2113 94.6C46.9579 94.6 47.3313 94.9733 47.3313 95.72C47.3313 96.4667 46.9579 96.84 46.2113 96.84ZM43.0113 96.84C42.2646 96.84 41.8913 96.4667 41.8913 95.72C41.8913 94.9733 42.2646 94.6 43.0113 94.6C43.7579 94.6 44.1313 94.9733 44.1313 95.72C44.1313 96.4667 43.7579 96.84 43.0113 96.84ZM15.3313 96.84H13.0913V94.6H15.3313V96.84ZM12.1313 96.84H9.89125V94.6H12.1313V96.84ZM8.93125 96.84H6.69125V94.6H8.93125V96.84ZM5.73125 96.68H3.65125V94.6H5.73125V96.68ZM94.2113 94.92L95.0113 96.52H93.4113L94.2113 94.92ZM91.0113 94.92L91.8113 96.52H90.2113L91.0113 94.92ZM55.8113 96.52L55.0113 95.72L55.8113 94.92L56.6113 95.72L55.8113 96.52ZM52.6113 96.52L51.8113 95.72L52.6113 94.92L53.4113 95.72L52.6113 96.52ZM39.8113 96.36C39.3846 96.36 39.1713 96.1467 39.1713 95.72C39.1713 95.2933 39.3846 95.08 39.8113 95.08C40.2379 95.08 40.4513 95.2933 40.4513 95.72C40.4513 96.1467 40.2379 96.36 39.8113 96.36ZM36.6113 96.36C36.1846 96.36 35.9713 96.1467 35.9713 95.72C35.9713 95.2933 36.1846 95.08 36.6113 95.08C37.0379 95.08 37.2513 95.2933 37.2513 95.72C37.2513 96.1467 37.0379 96.36 36.6113 96.36ZM33.4113 96.36C32.9846 96.36 32.7713 96.1467 32.7713 95.72C32.7713 95.2933 32.9846 95.08 33.4113 95.08C33.8379 95.08 34.0513 95.2933 34.0513 95.72C34.0513 96.1467 33.8379 96.36 33.4113 96.36ZM30.2113 100.2C29.3579 100.2 28.9313 99.7733 28.9313 98.92C28.9313 98.0667 29.3579 97.64 30.2113 97.64C31.0646 97.64 31.4913 98.0667 31.4913 98.92C31.4913 99.7733 31.0646 100.2 30.2113 100.2ZM27.0113 100.2C26.1579 100.2 25.7313 99.7733 25.7313 98.92C25.7313 98.0667 26.1579 97.64 27.0113 97.64C27.8646 97.64 28.2913 98.0667 28.2913 98.92C28.2913 99.7733 27.8646 100.2 27.0113 100.2ZM23.8113 100.2C22.9579 100.2 22.5313 99.7733 22.5313 98.92C22.5313 98.0667 22.9579 97.64 23.8113 97.64C24.6646 97.64 25.0913 98.0667 25.0913 98.92C25.0913 99.7733 24.6646 100.2 23.8113 100.2ZM20.6113 100.2C19.7579 100.2 19.3313 99.7733 19.3313 98.92C19.3313 98.0667 19.7579 97.64 20.6113 97.64C21.4646 97.64 21.8913 98.0667 21.8913 98.92C21.8913 99.7733 21.4646 100.2 20.6113 100.2ZM17.4113 100.2C16.5579 100.2 16.1313 99.7733 16.1313 98.92C16.1313 98.0667 16.5579 97.64 17.4113 97.64C18.2646 97.64 18.6913 98.0667 18.6913 98.92C18.6913 99.7733 18.2646 100.2 17.4113 100.2ZM88.9313 100.04H86.6913V97.8H88.9313V100.04ZM85.7313 100.04H83.4913V97.8H85.7313V100.04ZM82.5313 100.04H80.2913V97.8H82.5313V100.04ZM79.3313 100.04H77.0913V97.8H79.3313V100.04ZM76.1313 100.04H73.8913V97.8H76.1313V100.04ZM72.9313 100.04H70.6913V97.8H72.9313V100.04ZM69.7313 100.04H67.4913V97.8H69.7313V100.04ZM66.5313 100.04H64.2913V97.8H66.5313V100.04ZM63.3313 100.04H61.0913V97.8H63.3313V100.04ZM60.1313 100.04H57.8913V97.8H60.1313V100.04ZM49.4113 100.04C48.6646 100.04 48.2913 99.6667 48.2913 98.92C48.2913 98.1733 48.6646 97.8 49.4113 97.8C50.1579 97.8 50.5313 98.1733 50.5313 98.92C50.5313 99.6667 50.1579 100.04 49.4113 100.04ZM46.2113 100.04C45.4646 100.04 45.0913 99.6667 45.0913 98.92C45.0913 98.1733 45.4646 97.8 46.2113 97.8C46.9579 97.8 47.3313 98.1733 47.3313 98.92C47.3313 99.6667 46.9579 100.04 46.2113 100.04ZM43.0113 100.04C42.2646 100.04 41.8913 99.6667 41.8913 98.92C41.8913 98.1733 42.2646 97.8 43.0113 97.8C43.7579 97.8 44.1313 98.1733 44.1313 98.92C44.1313 99.6667 43.7579 100.04 43.0113 100.04ZM15.1713 99.88H13.2513V97.96H15.1713V99.88ZM11.9713 99.88H10.0513V97.96H11.9713V99.88ZM8.77125 99.88H6.85125V97.96H8.77125V99.88ZM91.0113 98.12L91.8113 99.72H90.2113L91.0113 98.12ZM55.8113 99.56L55.1713 98.92L55.8113 98.28L56.4513 98.92L55.8113 99.56ZM52.6113 99.56L51.9713 98.92L52.6113 98.28L53.2513 98.92L52.6113 99.56ZM39.8113 99.4C39.4913 99.4 39.3313 99.24 39.3313 98.92C39.3313 98.6 39.4913 98.44 39.8113 98.44C40.1313 98.44 40.2913 98.6 40.2913 98.92C40.2913 99.24 40.1313 99.4 39.8113 99.4ZM36.6113 99.4C36.2913 99.4 36.1313 99.24 36.1313 98.92C36.1313 98.6 36.2913 98.44 36.6113 98.44C36.9313 98.44 37.0913 98.6 37.0913 98.92C37.0913 99.24 36.9313 99.4 36.6113 99.4ZM33.4113 99.4C33.0913 99.4 32.9313 99.24 32.9313 98.92C32.9313 98.6 33.0913 98.44 33.4113 98.44C33.7313 98.44 33.8913 98.6 33.8913 98.92C33.8913 99.24 33.7313 99.4 33.4113 99.4ZM30.2113 103.4C29.3579 103.4 28.9313 102.973 28.9313 102.12C28.9313 101.267 29.3579 100.84 30.2113 100.84C31.0646 100.84 31.4913 101.267 31.4913 102.12C31.4913 102.973 31.0646 103.4 30.2113 103.4ZM27.0113 103.4C26.1579 103.4 25.7313 102.973 25.7313 102.12C25.7313 101.267 26.1579 100.84 27.0113 100.84C27.8646 100.84 28.2913 101.267 28.2913 102.12C28.2913 102.973 27.8646 103.4 27.0113 103.4ZM23.8113 103.4C22.9579 103.4 22.5313 102.973 22.5313 102.12C22.5313 101.267 22.9579 100.84 23.8113 100.84C24.6646 100.84 25.0913 101.267 25.0913 102.12C25.0913 102.973 24.6646 103.4 23.8113 103.4ZM20.6113 103.4C19.7579 103.4 19.3313 102.973 19.3313 102.12C19.3313 101.267 19.7579 100.84 20.6113 100.84C21.4646 100.84 21.8913 101.267 21.8913 102.12C21.8913 102.973 21.4646 103.4 20.6113 103.4ZM17.4113 103.4C16.5579 103.4 16.1313 102.973 16.1313 102.12C16.1313 101.267 16.5579 100.84 17.4113 100.84C18.2646 100.84 18.6913 101.267 18.6913 102.12C18.6913 102.973 18.2646 103.4 17.4113 103.4ZM88.9313 103.24H86.6913V101H88.9313V103.24ZM85.7313 103.24H83.4913V101H85.7313V103.24ZM82.5313 103.24H80.2913V101H82.5313V103.24ZM79.3313 103.24H77.0913V101H79.3313V103.24ZM76.1313 103.24H73.8913V101H76.1313V103.24ZM72.9313 103.24H70.6913V101H72.9313V103.24ZM69.7313 103.24H67.4913V101H69.7313V103.24ZM66.5313 103.24H64.2913V101H66.5313V103.24ZM63.3313 103.24H61.0913V101H63.3313V103.24ZM60.1313 103.24H57.8913V101H60.1313V103.24ZM49.4113 103.24C48.6646 103.24 48.2913 102.867 48.2913 102.12C48.2913 101.373 48.6646 101 49.4113 101C50.1579 101 50.5313 101.373 50.5313 102.12C50.5313 102.867 50.1579 103.24 49.4113 103.24ZM46.2113 103.24C45.4646 103.24 45.0913 102.867 45.0913 102.12C45.0913 101.373 45.4646 101 46.2113 101C46.9579 101 47.3313 101.373 47.3313 102.12C47.3313 102.867 46.9579 103.24 46.2113 103.24ZM43.0113 103.24C42.2646 103.24 41.8913 102.867 41.8913 102.12C41.8913 101.373 42.2646 101 43.0113 101C43.7579 101 44.1313 101.373 44.1313 102.12C44.1313 102.867 43.7579 103.24 43.0113 103.24ZM15.1713 103.08H13.2513V101.16H15.1713V103.08ZM11.9713 103.08H10.0513V101.16H11.9713V103.08ZM55.8113 102.76L55.1713 102.12L55.8113 101.48L56.4513 102.12L55.8113 102.76ZM52.6113 102.76L51.9713 102.12L52.6113 101.48L53.2513 102.12L52.6113 102.76ZM39.8113 102.6C39.4913 102.6 39.3313 102.44 39.3313 102.12C39.3313 101.8 39.4913 101.64 39.8113 101.64C40.1313 101.64 40.2913 101.8 40.2913 102.12C40.2913 102.44 40.1313 102.6 39.8113 102.6ZM36.6113 102.6C36.2913 102.6 36.1313 102.44 36.1313 102.12C36.1313 101.8 36.2913 101.64 36.6113 101.64C36.9313 101.64 37.0913 101.8 37.0913 102.12C37.0913 102.44 36.9313 102.6 36.6113 102.6ZM33.4113 102.6C33.0913 102.6 32.9313 102.44 32.9313 102.12C32.9313 101.8 33.0913 101.64 33.4113 101.64C33.7313 101.64 33.8913 101.8 33.8913 102.12C33.8913 102.44 33.7313 102.6 33.4113 102.6ZM30.2113 106.6C29.3579 106.6 28.9313 106.173 28.9313 105.32C28.9313 104.467 29.3579 104.04 30.2113 104.04C31.0646 104.04 31.4913 104.467 31.4913 105.32C31.4913 106.173 31.0646 106.6 30.2113 106.6ZM27.0113 106.6C26.1579 106.6 25.7313 106.173 25.7313 105.32C25.7313 104.467 26.1579 104.04 27.0113 104.04C27.8646 104.04 28.2913 104.467 28.2913 105.32C28.2913 106.173 27.8646 106.6 27.0113 106.6ZM23.8113 106.6C22.9579 106.6 22.5313 106.173 22.5313 105.32C22.5313 104.467 22.9579 104.04 23.8113 104.04C24.6646 104.04 25.0913 104.467 25.0913 105.32C25.0913 106.173 24.6646 106.6 23.8113 106.6ZM20.6113 106.6C19.7579 106.6 19.3313 106.173 19.3313 105.32C19.3313 104.467 19.7579 104.04 20.6113 104.04C21.4646 104.04 21.8913 104.467 21.8913 105.32C21.8913 106.173 21.4646 106.6 20.6113 106.6ZM17.4113 106.6C16.5579 106.6 16.1313 106.173 16.1313 105.32C16.1313 104.467 16.5579 104.04 17.4113 104.04C18.2646 104.04 18.6913 104.467 18.6913 105.32C18.6913 106.173 18.2646 106.6 17.4113 106.6ZM85.7313 106.44H83.4913V104.2H85.7313V106.44ZM82.5313 106.44H80.2913V104.2H82.5313V106.44ZM79.3313 106.44H77.0913V104.2H79.3313V106.44ZM76.1313 106.44H73.8913V104.2H76.1313V106.44ZM72.9313 106.44H70.6913V104.2H72.9313V106.44ZM69.7313 106.44H67.4913V104.2H69.7313V106.44ZM66.5313 106.44H64.2913V104.2H66.5313V106.44ZM63.3313 106.44H61.0913V104.2H63.3313V106.44ZM60.1313 106.44H57.8913V104.2H60.1313V106.44ZM49.4113 106.44C48.6646 106.44 48.2913 106.067 48.2913 105.32C48.2913 104.573 48.6646 104.2 49.4113 104.2C50.1579 104.2 50.5313 104.573 50.5313 105.32C50.5313 106.067 50.1579 106.44 49.4113 106.44ZM46.2113 106.44C45.4646 106.44 45.0913 106.067 45.0913 105.32C45.0913 104.573 45.4646 104.2 46.2113 104.2C46.9579 104.2 47.3313 104.573 47.3313 105.32C47.3313 106.067 46.9579 106.44 46.2113 106.44ZM43.0113 106.44C42.2646 106.44 41.8913 106.067 41.8913 105.32C41.8913 104.573 42.2646 104.2 43.0113 104.2C43.7579 104.2 44.1313 104.573 44.1313 105.32C44.1313 106.067 43.7579 106.44 43.0113 106.44ZM15.1713 106.28H13.2513V104.36H15.1713V106.28ZM55.8113 105.96L55.1713 105.32L55.8113 104.68L56.4513 105.32L55.8113 105.96ZM52.6113 105.96L51.9713 105.32L52.6113 104.68L53.2513 105.32L52.6113 105.96ZM39.8113 105.8C39.4913 105.8 39.3313 105.64 39.3313 105.32C39.3313 105 39.4913 104.84 39.8113 104.84C40.1313 104.84 40.2913 105 40.2913 105.32C40.2913 105.64 40.1313 105.8 39.8113 105.8ZM36.6113 105.8C36.2913 105.8 36.1313 105.64 36.1313 105.32C36.1313 105 36.2913 104.84 36.6113 104.84C36.9313 104.84 37.0913 105 37.0913 105.32C37.0913 105.64 36.9313 105.8 36.6113 105.8ZM33.4113 105.8C33.0913 105.8 32.9313 105.64 32.9313 105.32C32.9313 105 33.0913 104.84 33.4113 104.84C33.7313 104.84 33.8913 105 33.8913 105.32C33.8913 105.64 33.7313 105.8 33.4113 105.8ZM30.2113 109.64C29.4646 109.64 29.0913 109.267 29.0913 108.52C29.0913 107.773 29.4646 107.4 30.2113 107.4C30.9579 107.4 31.3313 107.773 31.3313 108.52C31.3313 109.267 30.9579 109.64 30.2113 109.64ZM27.0113 109.64C26.2646 109.64 25.8913 109.267 25.8913 108.52C25.8913 107.773 26.2646 107.4 27.0113 107.4C27.7579 107.4 28.1313 107.773 28.1313 108.52C28.1313 109.267 27.7579 109.64 27.0113 109.64ZM23.8113 109.64C23.0646 109.64 22.6913 109.267 22.6913 108.52C22.6913 107.773 23.0646 107.4 23.8113 107.4C24.5579 107.4 24.9313 107.773 24.9313 108.52C24.9313 109.267 24.5579 109.64 23.8113 109.64ZM20.6113 109.64C19.8646 109.64 19.4913 109.267 19.4913 108.52C19.4913 107.773 19.8646 107.4 20.6113 107.4C21.3579 107.4 21.7313 107.773 21.7313 108.52C21.7313 109.267 21.3579 109.64 20.6113 109.64ZM79.1713 109.48H77.2513V107.56H79.1713V109.48ZM75.9713 109.48H74.0513V107.56H75.9713V109.48ZM72.7713 109.48H70.8513V107.56H72.7713V109.48ZM69.5713 109.48H67.6513V107.56H69.5713V109.48ZM66.3713 109.48H64.4513V107.56H66.3713V109.48ZM63.1713 109.48H61.2513V107.56H63.1713V109.48ZM59.9713 109.48H58.0513V107.56H59.9713V109.48ZM49.4113 109.48C48.7713 109.48 48.4513 109.16 48.4513 108.52C48.4513 107.88 48.7713 107.56 49.4113 107.56C50.0513 107.56 50.3713 107.88 50.3713 108.52C50.3713 109.16 50.0513 109.48 49.4113 109.48ZM46.2113 109.48C45.5713 109.48 45.2513 109.16 45.2513 108.52C45.2513 107.88 45.5713 107.56 46.2113 107.56C46.8513 107.56 47.1713 107.88 47.1713 108.52C47.1713 109.16 46.8513 109.48 46.2113 109.48ZM43.0113 109.48C42.3713 109.48 42.0513 109.16 42.0513 108.52C42.0513 107.88 42.3713 107.56 43.0113 107.56C43.6513 107.56 43.9713 107.88 43.9713 108.52C43.9713 109.16 43.6513 109.48 43.0113 109.48ZM55.8113 109.16L55.1713 108.52L55.8113 107.88L56.4513 108.52L55.8113 109.16ZM52.6113 109.16L51.9713 108.52L52.6113 107.88L53.2513 108.52L52.6113 109.16ZM39.8113 109C39.4913 109 39.3313 108.84 39.3313 108.52C39.3313 108.2 39.4913 108.04 39.8113 108.04C40.1313 108.04 40.2913 108.2 40.2913 108.52C40.2913 108.84 40.1313 109 39.8113 109ZM36.6113 109C36.2913 109 36.1313 108.84 36.1313 108.52C36.1313 108.2 36.2913 108.04 36.6113 108.04C36.9313 108.04 37.0913 108.2 37.0913 108.52C37.0913 108.84 36.9313 109 36.6113 109ZM33.4113 109C33.0913 109 32.9313 108.84 32.9313 108.52C32.9313 108.2 33.0913 108.04 33.4113 108.04C33.7313 108.04 33.8913 108.2 33.8913 108.52C33.8913 108.84 33.7313 109 33.4113 109ZM30.2113 112.84C29.4646 112.84 29.0913 112.467 29.0913 111.72C29.0913 110.973 29.4646 110.6 30.2113 110.6C30.9579 110.6 31.3313 110.973 31.3313 111.72C31.3313 112.467 30.9579 112.84 30.2113 112.84ZM27.0113 112.84C26.2646 112.84 25.8913 112.467 25.8913 111.72C25.8913 110.973 26.2646 110.6 27.0113 110.6C27.7579 110.6 28.1313 110.973 28.1313 111.72C28.1313 112.467 27.7579 112.84 27.0113 112.84ZM69.5713 112.68H67.6513V110.76H69.5713V112.68ZM66.3713 112.68H64.4513V110.76H66.3713V112.68ZM63.1713 112.68H61.2513V110.76H63.1713V112.68ZM59.9713 112.68H58.0513V110.76H59.9713V112.68ZM49.4113 112.68C48.7713 112.68 48.4513 112.36 48.4513 111.72C48.4513 111.08 48.7713 110.76 49.4113 110.76C50.0513 110.76 50.3713 111.08 50.3713 111.72C50.3713 112.36 50.0513 112.68 49.4113 112.68ZM46.2113 112.68C45.5713 112.68 45.2513 112.36 45.2513 111.72C45.2513 111.08 45.5713 110.76 46.2113 110.76C46.8513 110.76 47.1713 111.08 47.1713 111.72C47.1713 112.36 46.8513 112.68 46.2113 112.68ZM43.0113 112.68C42.3713 112.68 42.0513 112.36 42.0513 111.72C42.0513 111.08 42.3713 110.76 43.0113 110.76C43.6513 110.76 43.9713 111.08 43.9713 111.72C43.9713 112.36 43.6513 112.68 43.0113 112.68ZM55.8113 112.36L55.1713 111.72L55.8113 111.08L56.4513 111.72L55.8113 112.36ZM52.6113 112.36L51.9713 111.72L52.6113 111.08L53.2513 111.72L52.6113 112.36ZM39.8113 112.2C39.4913 112.2 39.3313 112.04 39.3313 111.72C39.3313 111.4 39.4913 111.24 39.8113 111.24C40.1313 111.24 40.2913 111.4 40.2913 111.72C40.2913 112.04 40.1313 112.2 39.8113 112.2ZM36.6113 112.2C36.2913 112.2 36.1313 112.04 36.1313 111.72C36.1313 111.4 36.2913 111.24 36.6113 111.24C36.9313 111.24 37.0913 111.4 37.0913 111.72C37.0913 112.04 36.9313 112.2 36.6113 112.2ZM33.4113 112.2C33.0913 112.2 32.9313 112.04 32.9313 111.72C32.9313 111.4 33.0913 111.24 33.4113 111.24C33.7313 111.24 33.8913 111.4 33.8913 111.72C33.8913 112.04 33.7313 112.2 33.4113 112.2Z" fill="url(#paint0_linear_4278_2671)"/>
<defs>
<linearGradient id="paint0_linear_4278_2671" x1="49.5" y1="-22" x2="49.5" y2="138" gradientUnits="userSpaceOnUse">
<stop stop-color="#F7E7FF"/>
<stop offset="1" stop-color="#EBC7FF"/>
</linearGradient>
</defs>
</svg>
