<svg width="103" height="112" viewBox="0 0 103 112" fill="none" xmlns="http://www.w3.org/2000/svg">
<path d="M78.4188 0.15999L79.8588 3.03999H76.9788L78.4188 0.15999ZM75.2188 0.15999L76.6588 3.03999H73.7788L75.2188 0.15999ZM73.4588 3.03999H70.5788V0.15999H73.4588V3.03999ZM70.2588 3.03999H67.3788V0.15999H70.2588V3.03999ZM67.0588 3.03999H64.1788V0.15999H67.0588V3.03999ZM63.8588 3.03999H60.9788V0.15999H63.8588V3.03999ZM60.6588 3.03999H57.7788V0.15999H60.6588V3.03999ZM57.4588 3.03999H54.5788V0.15999H57.4588V3.03999ZM54.2588 3.03999H51.3788V0.15999H54.2588V3.03999ZM51.0588 3.03999H48.1788V0.15999H51.0588V3.03999ZM47.8588 3.03999H44.9788V0.15999H47.8588V3.03999ZM44.6588 3.03999H41.7788V0.15999H44.6588V3.03999ZM78.4188 3.36L79.8588 6.24H76.9788L78.4188 3.36ZM75.2188 3.36L76.6588 6.24H73.7788L75.2188 3.36ZM73.4588 6.24H70.5788V3.36H73.4588V6.24ZM70.2588 6.24H67.3788V3.36H70.2588V6.24ZM67.0588 6.24H64.1788V3.36H67.0588V6.24ZM63.8588 6.24H60.9788V3.36H63.8588V6.24ZM60.6588 6.24H57.7788V3.36H60.6588V6.24ZM57.4588 6.24H54.5788V3.36H57.4588V6.24ZM54.2588 6.24H51.3788V3.36H54.2588V6.24ZM51.0588 6.24H48.1788V3.36H51.0588V6.24ZM47.8588 6.24H44.9788V3.36H47.8588V6.24ZM44.6588 6.24H41.7788V3.36H44.6588V6.24ZM41.4588 6.24H38.5788V3.36H41.4588V6.24ZM78.4188 6.55999L79.8588 9.43999H76.9788L78.4188 6.55999ZM75.2188 6.55999L76.6588 9.43999H73.7788L75.2188 6.55999ZM73.4588 9.43999H70.5788V6.55999H73.4588V9.43999ZM70.2588 9.43999H67.3788V6.55999H70.2588V9.43999ZM67.0588 9.43999H64.1788V6.55999H67.0588V9.43999ZM63.8588 9.43999H60.9788V6.55999H63.8588V9.43999ZM60.6588 9.43999H57.7788V6.55999H60.6588V9.43999ZM57.4588 9.43999H54.5788V6.55999H57.4588V9.43999ZM54.2588 9.43999H51.3788V6.55999H54.2588V9.43999ZM51.0588 9.43999H48.1788V6.55999H51.0588V9.43999ZM47.8588 9.43999H44.9788V6.55999H47.8588V9.43999ZM44.6588 9.43999H41.7788V6.55999H44.6588V9.43999ZM41.4588 9.43999H38.5788V6.55999H41.4588V9.43999ZM38.2588 9.43999H35.3788V6.55999H38.2588V9.43999ZM51.2188 19.2H48.0188V16V12.8V9.59999H51.2188V10.88C51.4321 10.0267 51.9654 9.59999 52.8188 9.59999C53.8854 9.59999 54.4188 10.1333 54.4188 11.2C54.4188 12.2667 53.8854 12.8 52.8188 12.8C52.3921 12.8 52.0188 12.64 51.6988 12.32C51.3788 12 51.2188 11.7333 51.2188 11.52V12.8V16V19.2ZM59.2188 12.8C58.1521 12.8 57.6188 12.2667 57.6188 11.2C57.6188 10.1333 58.1521 9.59999 59.2188 9.59999C60.2854 9.59999 60.8188 10.1333 60.8188 11.2C60.8188 12.2667 60.2854 12.8 59.2188 12.8ZM56.0188 12.8C54.9521 12.8 54.4188 12.2667 54.4188 11.2C54.4188 10.1333 54.9521 9.59999 56.0188 9.59999C57.0854 9.59999 57.6188 10.1333 57.6188 11.2C57.6188 12.2667 57.0854 12.8 56.0188 12.8ZM46.4188 12.64L44.9788 11.2L46.4188 9.75999L47.8588 11.2L46.4188 12.64ZM43.2188 12.64L41.7788 11.2L43.2188 9.75999L44.6588 11.2L43.2188 12.64ZM40.0188 12.64L38.5788 11.2L40.0188 9.75999L41.4588 11.2L40.0188 12.64ZM36.8188 12.64L35.3788 11.2L36.8188 9.75999L38.2588 11.2L36.8188 12.64ZM75.2188 12.32L74.0988 11.2L75.2188 10.08L76.3388 11.2L75.2188 12.32ZM72.0188 12.32L70.8988 11.2L72.0188 10.08L73.1388 11.2L72.0188 12.32ZM68.8188 12.32L67.6988 11.2L68.8188 10.08L69.9388 11.2L68.8188 12.32ZM65.6188 12.32L64.4988 11.2L65.6188 10.08L66.7388 11.2L65.6188 12.32ZM62.4188 12.32L61.2988 11.2L62.4188 10.08L63.5388 11.2L62.4188 12.32ZM59.2188 16C58.1521 16 57.6188 15.4667 57.6188 14.4C57.6188 13.3333 58.1521 12.8 59.2188 12.8C60.2854 12.8 60.8188 13.3333 60.8188 14.4C60.8188 15.4667 60.2854 16 59.2188 16ZM56.0188 16C54.9521 16 54.4188 15.4667 54.4188 14.4C54.4188 13.3333 54.9521 12.8 56.0188 12.8C57.0854 12.8 57.6188 13.3333 57.6188 14.4C57.6188 15.4667 57.0854 16 56.0188 16ZM52.8188 16C51.7521 16 51.2188 15.4667 51.2188 14.4C51.2188 13.3333 51.7521 12.8 52.8188 12.8C53.8854 12.8 54.4188 13.3333 54.4188 14.4C54.4188 15.4667 53.8854 16 52.8188 16ZM46.4188 15.84L44.9788 14.4L46.4188 12.96L47.8588 14.4L46.4188 15.84ZM43.2188 15.84L41.7788 14.4L43.2188 12.96L44.6588 14.4L43.2188 15.84ZM40.0188 15.84L38.5788 14.4L40.0188 12.96L41.4588 14.4L40.0188 15.84ZM36.8188 15.84L35.3788 14.4L36.8188 12.96L38.2588 14.4L36.8188 15.84ZM33.6188 15.84L32.1788 14.4L33.6188 12.96L35.0588 14.4L33.6188 15.84ZM72.0188 15.52L70.8988 14.4L72.0188 13.28L73.1388 14.4L72.0188 15.52ZM68.8188 15.52L67.6988 14.4L68.8188 13.28L69.9388 14.4L68.8188 15.52ZM65.6188 15.52L64.4988 14.4L65.6188 13.28L66.7388 14.4L65.6188 15.52ZM62.4188 15.52L61.2988 14.4L62.4188 13.28L63.5388 14.4L62.4188 15.52ZM59.2188 19.2C58.1521 19.2 57.6188 18.6667 57.6188 17.6C57.6188 16.5333 58.1521 16 59.2188 16C60.2854 16 60.8188 16.5333 60.8188 17.6C60.8188 18.6667 60.2854 19.2 59.2188 19.2ZM56.0188 19.2C54.9521 19.2 54.4188 18.6667 54.4188 17.6C54.4188 16.5333 54.9521 16 56.0188 16C57.0854 16 57.6188 16.5333 57.6188 17.6C57.6188 18.6667 57.0854 19.2 56.0188 19.2ZM52.8188 19.2C51.7521 19.2 51.2188 18.6667 51.2188 17.6C51.2188 16.5333 51.7521 16 52.8188 16C53.8854 16 54.4188 16.5333 54.4188 17.6C54.4188 18.6667 53.8854 19.2 52.8188 19.2ZM46.4188 19.04L44.9788 17.6L46.4188 16.16L47.8588 17.6L46.4188 19.04ZM43.2188 19.04L41.7788 17.6L43.2188 16.16L44.6588 17.6L43.2188 19.04ZM40.0188 19.04L38.5788 17.6L40.0188 16.16L41.4588 17.6L40.0188 19.04ZM36.8188 19.04L35.3788 17.6L36.8188 16.16L38.2588 17.6L36.8188 19.04ZM33.6188 19.04L32.1788 17.6L33.6188 16.16L35.0588 17.6L33.6188 19.04ZM30.4188 19.04L28.9788 17.6L30.4188 16.16L31.8588 17.6L30.4188 19.04ZM72.0188 18.72L70.8988 17.6L72.0188 16.48L73.1388 17.6L72.0188 18.72ZM68.8188 18.72L67.6988 17.6L68.8188 16.48L69.9388 17.6L68.8188 18.72ZM65.6188 18.72L64.4988 17.6L65.6188 16.48L66.7388 17.6L65.6188 18.72ZM62.4188 18.72L61.2988 17.6L62.4188 16.48L63.5388 17.6L62.4188 18.72ZM51.2188 22.4H48.0188V19.2H51.2188V22.4ZM59.2188 22.24C58.2588 22.24 57.7788 21.76 57.7788 20.8C57.7788 19.84 58.2588 19.36 59.2188 19.36C60.1788 19.36 60.6588 19.84 60.6588 20.8C60.6588 21.76 60.1788 22.24 59.2188 22.24ZM56.0188 22.24C55.0588 22.24 54.5788 21.76 54.5788 20.8C54.5788 19.84 55.0588 19.36 56.0188 19.36C56.9788 19.36 57.4588 19.84 57.4588 20.8C57.4588 21.76 56.9788 22.24 56.0188 22.24ZM52.8188 22.24C51.8588 22.24 51.3788 21.76 51.3788 20.8C51.3788 19.84 51.8588 19.36 52.8188 19.36C53.7788 19.36 54.2588 19.84 54.2588 20.8C54.2588 21.76 53.7788 22.24 52.8188 22.24ZM46.4188 22.24L44.9788 20.8L46.4188 19.36L47.8588 20.8L46.4188 22.24ZM43.2188 22.24L41.7788 20.8L43.2188 19.36L44.6588 20.8L43.2188 22.24ZM40.0188 22.24L38.5788 20.8L40.0188 19.36L41.4588 20.8L40.0188 22.24ZM36.8188 22.24L35.3788 20.8L36.8188 19.36L38.2588 20.8L36.8188 22.24ZM33.6188 22.24L32.1788 20.8L33.6188 19.36L35.0588 20.8L33.6188 22.24ZM30.4188 22.24L28.9788 20.8L30.4188 19.36L31.8588 20.8L30.4188 22.24ZM27.2188 22.24L25.7788 20.8L27.2188 19.36L28.6588 20.8L27.2188 22.24ZM68.8188 21.92L67.6988 20.8L68.8188 19.68L69.9388 20.8L68.8188 21.92ZM65.6188 21.92L64.4988 20.8L65.6188 19.68L66.7388 20.8L65.6188 21.92ZM62.4188 21.92L61.2988 20.8L62.4188 19.68L63.5388 20.8L62.4188 21.92ZM65.6188 22.4L67.2188 25.6H64.0188L65.6188 22.4ZM62.4188 22.4L64.0188 25.6H60.8188L62.4188 22.4ZM60.8188 25.6H57.6188V22.4H60.8188V25.6ZM57.6188 25.6H54.4188V22.4H57.6188V25.6ZM54.4188 25.6H51.2188V22.4H54.4188V25.6ZM51.2188 25.6H48.0188V22.4H51.2188V25.6ZM46.4188 25.44L44.9788 24L46.4188 22.56L47.8588 24L46.4188 25.44ZM43.2188 25.44L41.7788 24L43.2188 22.56L44.6588 24L43.2188 25.44ZM40.0188 25.44L38.5788 24L40.0188 22.56L41.4588 24L40.0188 25.44ZM36.8188 25.44L35.3788 24L36.8188 22.56L38.2588 24L36.8188 25.44ZM33.6188 25.44L32.1788 24L33.6188 22.56L35.0588 24L33.6188 25.44ZM30.4188 25.44L28.9788 24L30.4188 22.56L31.8588 24L30.4188 25.44ZM27.2188 25.44L25.7788 24L27.2188 22.56L28.6588 24L27.2188 25.44ZM62.4188 25.6L64.0188 28.8H60.8188L62.4188 25.6ZM60.8188 28.8H57.6188V25.6H60.8188V28.8ZM57.6188 28.8H54.4188V25.6H57.6188V28.8ZM54.4188 28.8H51.2188V25.6H54.4188V28.8ZM51.2188 28.8H48.0188V25.6H51.2188V28.8ZM46.4188 28.64L44.9788 27.2L46.4188 25.76L47.8588 27.2L46.4188 28.64ZM43.2188 28.64L41.7788 27.2L43.2188 25.76L44.6588 27.2L43.2188 28.64ZM40.0188 28.64L38.5788 27.2L40.0188 25.76L41.4588 27.2L40.0188 28.64ZM36.8188 28.64L35.3788 27.2L36.8188 25.76L38.2588 27.2L36.8188 28.64ZM33.6188 28.64L32.1788 27.2L33.6188 25.76L35.0588 27.2L33.6188 28.64ZM30.4188 28.64L28.9788 27.2L30.4188 25.76L31.8588 27.2L30.4188 28.64ZM27.2188 28.48L25.9388 27.2L27.2188 25.76L28.6588 27.2L27.2188 28.48ZM24.0188 28.48L22.7388 27.2L24.0188 25.92L25.2988 27.2L24.0188 28.48ZM62.4188 28.96L63.8588 31.84H60.9788L62.4188 28.96ZM60.6588 31.84H57.7788V28.96H60.6588V31.84ZM57.4588 31.84H54.5788V28.96H57.4588V31.84ZM54.2588 31.84H51.3788V28.96H54.2588V31.84ZM51.0588 31.84H48.1788V28.96H51.0588V31.84ZM46.4188 31.68L45.1388 30.4L46.4188 29.12L47.6988 30.4L46.4188 31.68ZM43.2188 31.68L41.9388 30.4L43.2188 29.12L44.4988 30.4L43.2188 31.68ZM40.0188 31.68L38.7388 30.4L40.0188 29.12L41.2988 30.4L40.0188 31.68ZM36.8188 31.68L35.5388 30.4L36.8188 29.12L38.0988 30.4L36.8188 31.68ZM33.6188 31.68L32.3388 30.4L33.6188 29.12L34.8988 30.4L33.6188 31.68ZM30.4188 31.68L29.1388 30.4L30.4188 29.12L31.6988 30.4L30.4188 31.68ZM27.2188 31.68L25.9388 30.4L27.2188 29.12L28.4988 30.4L27.2188 31.68ZM24.0188 31.68L22.7388 30.4L24.0188 29.12L25.2988 30.4L24.0188 31.68ZM20.8188 31.68L19.5388 30.4L20.8188 29.12L22.0988 30.4L20.8188 31.68ZM68.8188 32.16L70.2588 35.04H67.3788L68.8188 32.16ZM65.6188 32.16L67.0588 35.04H64.1788L65.6188 32.16ZM62.4188 32.16L63.8588 35.04H60.9788L62.4188 32.16ZM60.6588 35.04H57.7788V32.16H60.6588V35.04ZM57.4588 35.04H54.5788V32.16H57.4588V35.04ZM54.2588 35.04H51.3788V32.16H54.2588V35.04ZM51.0588 35.04H48.1788V32.16H51.0588V35.04ZM46.4188 34.88L45.1388 33.6L46.4188 32.32L47.6988 33.6L46.4188 34.88ZM43.2188 34.88L41.9388 33.6L43.2188 32.32L44.4988 33.6L43.2188 34.88ZM40.0188 34.88L38.7388 33.6L40.0188 32.32L41.2988 33.6L40.0188 34.88ZM36.8188 34.88L35.5388 33.6L36.8188 32.32L38.0988 33.6L36.8188 34.88ZM33.6188 34.88L32.3388 33.6L33.6188 32.32L34.8988 33.6L33.6188 34.88ZM30.4188 34.88L29.1388 33.6L30.4188 32.32L31.6988 33.6L30.4188 34.88ZM27.2188 34.88L25.9388 33.6L27.2188 32.32L28.4988 33.6L27.2188 34.88ZM24.0188 34.88L22.7388 33.6L24.0188 32.32L25.2988 33.6L24.0188 34.88ZM20.8188 34.88L19.5388 33.6L20.8188 32.32L22.0988 33.6L20.8188 34.88ZM17.6188 34.88L16.3387 33.6L17.6188 32.32L18.8988 33.6L17.6188 34.88ZM75.2188 35.36L76.6588 38.24H73.7788L75.2188 35.36ZM72.0188 35.36L73.4588 38.24H70.5788L72.0188 35.36ZM68.8188 35.36L70.2588 38.24H67.3788L68.8188 35.36ZM65.6188 35.36L67.0588 38.24H64.1788L65.6188 35.36ZM62.4188 35.36L63.8588 38.24H60.9788L62.4188 35.36ZM60.6588 38.24H57.7788V35.36H60.6588V38.24ZM57.4588 38.24H54.5788V35.36H57.4588V38.24ZM54.2588 38.24H51.3788V35.36H54.2588V38.24ZM51.0588 38.24H48.1788V35.36H51.0588V38.24ZM46.4188 38.08L45.1388 36.8L46.4188 35.52L47.6988 36.8L46.4188 38.08ZM43.2188 38.08L41.9388 36.8L43.2188 35.52L44.4988 36.8L43.2188 38.08ZM40.0188 38.08L38.7388 36.8L40.0188 35.52L41.2988 36.8L40.0188 38.08ZM36.8188 38.08L35.5388 36.8L36.8188 35.52L38.0988 36.8L36.8188 38.08ZM33.6188 38.08L32.3388 36.8L33.6188 35.52L34.8988 36.8L33.6188 38.08ZM30.4188 38.08L29.1388 36.8L30.4188 35.52L31.6988 36.8L30.4188 38.08ZM27.2188 38.08L25.9388 36.8L27.2188 35.52L28.4988 36.8L27.2188 38.08ZM24.0188 38.08L22.7388 36.8L24.0188 35.52L25.2988 36.8L24.0188 38.08ZM20.8188 38.08L19.5388 36.8L20.8188 35.52L22.0988 36.8L20.8188 38.08ZM17.6188 38.08L16.3387 36.8L17.6188 35.52L18.8988 36.8L17.6188 38.08ZM14.4188 38.08L13.1388 36.8L14.4188 35.52L15.6988 36.8L14.4188 38.08ZM81.6188 38.56L83.0588 41.44H80.1788L81.6188 38.56ZM78.4188 38.56L79.8588 41.44H76.9788L78.4188 38.56ZM75.2188 38.56L76.6588 41.44H73.7788L75.2188 38.56ZM72.0188 38.56L73.4588 41.44H70.5788L72.0188 38.56ZM68.8188 38.56L70.2588 41.44H67.3788L68.8188 38.56ZM65.6188 38.56L67.0588 41.44H64.1788L65.6188 38.56ZM62.4188 38.56L63.8588 41.44H60.9788L62.4188 38.56ZM60.6588 41.44H57.7788V38.56H60.6588V41.44ZM57.4588 41.44H54.5788V38.56H57.4588V41.44ZM54.2588 41.44H51.3788V38.56H54.2588V41.44ZM51.0588 41.44H48.1788V38.56H51.0588V41.44ZM46.4188 41.28L45.1388 40L46.4188 38.72L47.6988 40L46.4188 41.28ZM43.2188 41.28L41.9388 40L43.2188 38.72L44.4988 40L43.2188 41.28ZM40.0188 41.28L38.7388 40L40.0188 38.72L41.2988 40L40.0188 41.28ZM36.8188 41.28L35.5388 40L36.8188 38.72L38.0988 40L36.8188 41.28ZM33.6188 41.28L32.3388 40L33.6188 38.72L34.8988 40L33.6188 41.28ZM30.4188 41.28L29.1388 40L30.4188 38.72L31.6988 40L30.4188 41.28ZM27.2188 41.28L25.9388 40L27.2188 38.72L28.4988 40L27.2188 41.28ZM24.0188 41.28L22.7388 40L24.0188 38.72L25.2988 40L24.0188 41.28ZM20.8188 41.28L19.5388 40L20.8188 38.72L22.0988 40L20.8188 41.28ZM17.6188 41.28L16.3387 40L17.6188 38.72L18.8988 40L17.6188 41.28ZM14.4188 41.28L13.1388 40L14.4188 38.72L15.6988 40L14.4188 41.28ZM88.0188 41.76L89.4588 44.64H86.5788L88.0188 41.76ZM84.8188 41.76L86.2588 44.64H83.3787L84.8188 41.76ZM81.6188 41.76L83.0588 44.64H80.1788L81.6188 41.76ZM78.4188 41.76L79.8588 44.64H76.9788L78.4188 41.76ZM75.2188 41.76L76.6588 44.64H73.7788L75.2188 41.76ZM72.0188 41.76L73.4588 44.64H70.5788L72.0188 41.76ZM68.8188 41.76L70.2588 44.64H67.3788L68.8188 41.76ZM65.6188 41.76L67.0588 44.64H64.1788L65.6188 41.76ZM62.4188 41.76L63.8588 44.64H60.9788L62.4188 41.76ZM60.6588 44.64H57.7788V41.76H60.6588V44.64ZM57.4588 44.64H54.5788V41.76H57.4588V44.64ZM54.2588 44.64H51.3788V41.76H54.2588V44.64ZM51.0588 44.64H48.1788V41.76H51.0588V44.64ZM46.4188 44.48L45.1388 43.2L46.4188 41.92L47.6988 43.2L46.4188 44.48ZM43.2188 44.48L41.9388 43.2L43.2188 41.92L44.4988 43.2L43.2188 44.48ZM40.0188 44.48L38.7388 43.2L40.0188 41.92L41.2988 43.2L40.0188 44.48ZM36.8188 44.48L35.5388 43.2L36.8188 41.92L38.0988 43.2L36.8188 44.48ZM33.6188 44.48L32.3388 43.2L33.6188 41.92L34.8988 43.2L33.6188 44.48ZM30.4188 44.48L29.1388 43.2L30.4188 41.92L31.6988 43.2L30.4188 44.48ZM27.2188 44.48L25.9388 43.2L27.2188 41.92L28.4988 43.2L27.2188 44.48ZM24.0188 44.48L22.7388 43.2L24.0188 41.92L25.2988 43.2L24.0188 44.48ZM20.8188 44.48L19.5388 43.2L20.8188 41.92L22.0988 43.2L20.8188 44.48ZM17.6188 44.48L16.3387 43.2L17.6188 41.92L18.8988 43.2L17.6188 44.48ZM14.4188 44.48L13.1388 43.2L14.4188 41.92L15.6988 43.2L14.4188 44.48ZM11.2188 44.48L9.93875 43.2L11.2188 41.92L12.4988 43.2L11.2188 44.48ZM88.0188 44.96L89.4588 47.84H86.5788L88.0188 44.96ZM84.8188 44.96L86.2588 47.84H83.3787L84.8188 44.96ZM81.6188 44.96L83.0588 47.84H80.1788L81.6188 44.96ZM78.4188 44.96L79.8588 47.84H76.9788L78.4188 44.96ZM75.2188 44.96L76.6588 47.84H73.7788L75.2188 44.96ZM72.0188 44.96L73.4588 47.84H70.5788L72.0188 44.96ZM68.8188 44.96L70.2588 47.84H67.3788L68.8188 44.96ZM65.6188 44.96L67.0588 47.84H64.1788L65.6188 44.96ZM62.4188 44.96L63.8588 47.84H60.9788L62.4188 44.96ZM60.6588 47.84H57.7788V44.96H60.6588V47.84ZM57.4588 47.84H54.5788V44.96H57.4588V47.84ZM54.2588 47.84H51.3788V44.96H54.2588V47.84ZM51.0588 47.84H48.1788V44.96H51.0588V47.84ZM46.4188 47.68L45.1388 46.4L46.4188 45.12L47.6988 46.4L46.4188 47.68ZM43.2188 47.68L41.9388 46.4L43.2188 45.12L44.4988 46.4L43.2188 47.68ZM40.0188 47.68L38.7388 46.4L40.0188 45.12L41.2988 46.4L40.0188 47.68ZM36.8188 47.68L35.5388 46.4L36.8188 45.12L38.0988 46.4L36.8188 47.68ZM33.6188 47.68L32.3388 46.4L33.6188 45.12L34.8988 46.4L33.6188 47.68ZM30.4188 47.68L29.1388 46.4L30.4188 45.12L31.6988 46.4L30.4188 47.68ZM27.2188 47.68L25.9388 46.4L27.2188 45.12L28.4988 46.4L27.2188 47.68ZM24.0188 47.68L22.7388 46.4L24.0188 45.12L25.2988 46.4L24.0188 47.68ZM20.8188 47.52L19.6988 46.4L20.8188 45.12L22.0988 46.4L20.8188 47.52ZM17.6188 47.52L16.4988 46.4L17.6188 45.28L18.7387 46.4L17.6188 47.52ZM14.4188 47.52L13.2988 46.4L14.4188 45.28L15.5388 46.4L14.4188 47.52ZM11.2188 47.52L10.0988 46.4L11.2188 45.28L12.3388 46.4L11.2188 47.52ZM8.01875 47.52L6.89875 46.4L8.01875 45.28L9.13875 46.4L8.01875 47.52ZM91.2188 47.52C90.4721 47.52 90.0988 47.1467 90.0988 46.4C90.0988 45.6533 90.4721 45.28 91.2188 45.28C91.9654 45.28 92.3388 45.6533 92.3388 46.4C92.3388 47.1467 91.9654 47.52 91.2188 47.52ZM88.0188 48.32L89.2987 50.88H86.7388L88.0188 48.32ZM84.8188 48.32L86.0988 50.88H83.5388L84.8188 48.32ZM81.6188 48.32L82.8988 50.88H80.3388L81.6188 48.32ZM78.4188 48.32L79.6987 50.88H77.1388L78.4188 48.32ZM75.2188 48.32L76.4988 50.88H73.9388L75.2188 48.32ZM72.0188 48.32L73.2988 50.88H70.7388L72.0188 48.32ZM68.8188 48.32L70.0988 50.88H67.5388L68.8188 48.32ZM65.6188 48.32L66.8988 50.88H64.3388L65.6188 48.32ZM62.4188 48.32L63.6988 50.88H61.1388L62.4188 48.32ZM60.4988 50.88H57.9388V48.32H60.4988V50.88ZM57.2988 50.88H54.7388V48.32H57.2988V50.88ZM54.0988 50.88H51.5388V48.32H54.0988V50.88ZM50.8988 50.88H48.3388V48.32H50.8988V50.88ZM46.4188 50.72L45.2988 49.6L46.4188 48.48L47.5388 49.6L46.4188 50.72ZM43.2188 50.72L42.0988 49.6L43.2188 48.48L44.3388 49.6L43.2188 50.72ZM40.0188 50.72L38.8988 49.6L40.0188 48.48L41.1388 49.6L40.0188 50.72ZM36.8188 50.72L35.6988 49.6L36.8188 48.48L37.9388 49.6L36.8188 50.72ZM33.6188 50.72L32.4988 49.6L33.6188 48.48L34.7388 49.6L33.6188 50.72ZM30.4188 50.72L29.2988 49.6L30.4188 48.48L31.5388 49.6L30.4188 50.72ZM27.2188 50.72L26.0988 49.6L27.2188 48.48L28.3388 49.6L27.2188 50.72ZM24.0188 50.72L22.8988 49.6L24.0188 48.48L25.1388 49.6L24.0188 50.72ZM20.8188 50.72L19.6988 49.6L20.8188 48.48L21.9388 49.6L20.8188 50.72ZM17.6188 50.72L16.4988 49.6L17.6188 48.48L18.7387 49.6L17.6188 50.72ZM14.4188 50.72L13.2988 49.6L14.4188 48.48L15.5388 49.6L14.4188 50.72ZM11.2188 50.72L10.0988 49.6L11.2188 48.48L12.3388 49.6L11.2188 50.72ZM8.01875 50.72L6.89875 49.6L8.01875 48.48L9.13875 49.6L8.01875 50.72ZM94.4188 50.56C93.7788 50.56 93.4588 50.24 93.4588 49.6C93.4588 48.96 93.7788 48.64 94.4188 48.64C95.0588 48.64 95.3788 48.96 95.3788 49.6C95.3788 50.24 95.0588 50.56 94.4188 50.56ZM91.2188 50.56C90.5788 50.56 90.2588 50.24 90.2588 49.6C90.2588 48.96 90.5788 48.64 91.2188 48.64C91.8588 48.64 92.1788 48.96 92.1788 49.6C92.1788 50.24 91.8588 50.56 91.2188 50.56ZM88.0188 51.52L89.2987 54.08H86.7388L88.0188 51.52ZM84.8188 51.52L86.0988 54.08H83.5388L84.8188 51.52ZM81.6188 51.52L82.8988 54.08H80.3388L81.6188 51.52ZM78.4188 51.52L79.6987 54.08H77.1388L78.4188 51.52ZM75.2188 51.52L76.4988 54.08H73.9388L75.2188 51.52ZM72.0188 51.52L73.2988 54.08H70.7388L72.0188 51.52ZM68.8188 51.52L70.0988 54.08H67.5388L68.8188 51.52ZM65.6188 51.52L66.8988 54.08H64.3388L65.6188 51.52ZM62.4188 51.52L63.6988 54.08H61.1388L62.4188 51.52ZM60.4988 54.08H57.9388V51.52H60.4988V54.08ZM57.2988 54.08H54.7388V51.52H57.2988V54.08ZM54.0988 54.08H51.5388V51.52H54.0988V54.08ZM50.8988 54.08H48.3388V51.52H50.8988V54.08ZM46.4188 53.92L45.2988 52.8L46.4188 51.68L47.5388 52.8L46.4188 53.92ZM43.2188 53.92L42.0988 52.8L43.2188 51.68L44.3388 52.8L43.2188 53.92ZM40.0188 53.92L38.8988 52.8L40.0188 51.68L41.1388 52.8L40.0188 53.92ZM36.8188 53.92L35.6988 52.8L36.8188 51.68L37.9388 52.8L36.8188 53.92ZM33.6188 53.92L32.4988 52.8L33.6188 51.68L34.7388 52.8L33.6188 53.92ZM30.4188 53.92L29.2988 52.8L30.4188 51.68L31.5388 52.8L30.4188 53.92ZM27.2188 53.92L26.0988 52.8L27.2188 51.68L28.3388 52.8L27.2188 53.92ZM24.0188 53.92L22.8988 52.8L24.0188 51.68L25.1388 52.8L24.0188 53.92ZM20.8188 53.92L19.6988 52.8L20.8188 51.68L21.9388 52.8L20.8188 53.92ZM17.6188 53.92L16.4988 52.8L17.6188 51.68L18.7387 52.8L17.6188 53.92ZM14.4188 53.92L13.2988 52.8L14.4188 51.68L15.5388 52.8L14.4188 53.92ZM11.2188 53.92L10.0988 52.8L11.2188 51.68L12.3388 52.8L11.2188 53.92ZM8.01875 53.92L6.89875 52.8L8.01875 51.68L9.13875 52.8L8.01875 53.92ZM4.81875 53.92L3.69875 52.8L4.81875 51.68L5.93875 52.8L4.81875 53.92ZM94.4188 53.76C93.7788 53.76 93.4588 53.44 93.4588 52.8C93.4588 52.16 93.7788 51.84 94.4188 51.84C95.0588 51.84 95.3788 52.16 95.3788 52.8C95.3788 53.44 95.0588 53.76 94.4188 53.76ZM91.2188 53.76C90.5788 53.76 90.2588 53.44 90.2588 52.8C90.2588 52.16 90.5788 51.84 91.2188 51.84C91.8588 51.84 92.1788 52.16 92.1788 52.8C92.1788 53.44 91.8588 53.76 91.2188 53.76ZM88.0188 54.72L89.2987 57.28H86.7388L88.0188 54.72ZM84.8188 54.72L86.0988 57.28H83.5388L84.8188 54.72ZM81.6188 54.72L82.8988 57.28H80.3388L81.6188 54.72ZM78.4188 54.72L79.6987 57.28H77.1388L78.4188 54.72ZM75.2188 54.72L76.4988 57.28H73.9388L75.2188 54.72ZM72.0188 54.72L73.2988 57.28H70.7388L72.0188 54.72ZM68.8188 54.72L70.0988 57.28H67.5388L68.8188 54.72ZM65.6188 54.72L66.8988 57.28H64.3388L65.6188 54.72ZM62.4188 54.72L63.6988 57.28H61.1388L62.4188 54.72ZM60.4988 57.28H57.9388V54.72H60.4988V57.28ZM57.2988 57.28H54.7388V54.72H57.2988V57.28ZM54.0988 57.28H51.5388V54.72H54.0988V57.28ZM50.8988 57.28H48.3388V54.72H50.8988V57.28ZM46.4188 57.12L45.2988 56L46.4188 54.88L47.5388 56L46.4188 57.12ZM43.2188 57.12L42.0988 56L43.2188 54.88L44.3388 56L43.2188 57.12ZM40.0188 57.12L38.8988 56L40.0188 54.88L41.1388 56L40.0188 57.12ZM36.8188 57.12L35.6988 56L36.8188 54.88L37.9388 56L36.8188 57.12ZM33.6188 57.12L32.4988 56L33.6188 54.88L34.7388 56L33.6188 57.12ZM30.4188 57.12L29.2988 56L30.4188 54.88L31.5388 56L30.4188 57.12ZM27.2188 57.12L26.0988 56L27.2188 54.88L28.3388 56L27.2188 57.12ZM24.0188 57.12L22.8988 56L24.0188 54.88L25.1388 56L24.0188 57.12ZM20.8188 57.12L19.6988 56L20.8188 54.88L21.9388 56L20.8188 57.12ZM17.6188 57.12L16.4988 56L17.6188 54.88L18.7387 56L17.6188 57.12ZM14.4188 57.12L13.2988 56L14.4188 54.88L15.5388 56L14.4188 57.12ZM11.2188 57.12L10.0988 56L11.2188 54.88L12.3388 56L11.2188 57.12ZM8.01875 57.12L6.89875 56L8.01875 54.88L9.13875 56L8.01875 57.12ZM4.81875 57.12L3.69875 56L4.81875 54.88L5.93875 56L4.81875 57.12ZM97.6188 56.96C96.9788 56.96 96.6588 56.64 96.6588 56C96.6588 55.36 96.9788 55.04 97.6188 55.04C98.2588 55.04 98.5788 55.36 98.5788 56C98.5788 56.64 98.2588 56.96 97.6188 56.96ZM94.4188 56.96C93.7788 56.96 93.4588 56.64 93.4588 56C93.4588 55.36 93.7788 55.04 94.4188 55.04C95.0588 55.04 95.3788 55.36 95.3788 56C95.3788 56.64 95.0588 56.96 94.4188 56.96ZM91.2188 56.96C90.5788 56.96 90.2588 56.64 90.2588 56C90.2588 55.36 90.5788 55.04 91.2188 55.04C91.8588 55.04 92.1788 55.36 92.1788 56C92.1788 56.64 91.8588 56.96 91.2188 56.96ZM94.4188 60.8L92.8188 59.2L94.4188 57.6L96.0188 59.2L94.4188 60.8ZM91.2188 60.8L89.6188 59.2L91.2188 57.6L92.8188 59.2L91.2188 60.8ZM47.8588 60.64H44.9788V57.76H47.8588V60.64ZM44.6588 60.64H41.7788V57.76H44.6588V60.64ZM33.6188 60.64C32.6588 60.64 32.1788 60.16 32.1788 59.2C32.1788 58.24 32.6588 57.76 33.6188 57.76C34.5788 57.76 35.0588 58.24 35.0588 59.2C35.0588 60.16 34.5788 60.64 33.6188 60.64ZM30.4188 60.64C29.4588 60.64 28.9788 60.16 28.9788 59.2C28.9788 58.24 29.4588 57.76 30.4188 57.76C31.3788 57.76 31.8588 58.24 31.8588 59.2C31.8588 60.16 31.3788 60.64 30.4188 60.64ZM27.2188 60.64C26.2588 60.64 25.7788 60.16 25.7788 59.2C25.7788 58.24 26.2588 57.76 27.2188 57.76C28.1788 57.76 28.6588 58.24 28.6588 59.2C28.6588 60.16 28.1788 60.64 27.2188 60.64ZM24.0188 60.64C23.0588 60.64 22.5788 60.16 22.5788 59.2C22.5788 58.24 23.0588 57.76 24.0188 57.76C24.9788 57.76 25.4588 58.24 25.4588 59.2C25.4588 60.16 24.9788 60.64 24.0188 60.64ZM20.8188 60.64C19.8588 60.64 19.3788 60.16 19.3788 59.2C19.3788 58.24 19.8588 57.76 20.8188 57.76C21.7788 57.76 22.2588 58.24 22.2588 59.2C22.2588 60.16 21.7788 60.64 20.8188 60.64ZM17.6188 60.64C16.6588 60.64 16.1788 60.16 16.1788 59.2C16.1788 58.24 16.6588 57.76 17.6188 57.76C18.5788 57.76 19.0588 58.24 19.0588 59.2C19.0588 60.16 18.5788 60.64 17.6188 60.64ZM14.4188 60.64C13.4588 60.64 12.9788 60.16 12.9788 59.2C12.9788 58.24 13.4588 57.76 14.4188 57.76C15.3788 57.76 15.8588 58.24 15.8588 59.2C15.8588 60.16 15.3788 60.64 14.4188 60.64ZM11.2188 60.64C10.2588 60.64 9.77875 60.16 9.77875 59.2C9.77875 58.24 10.2588 57.76 11.2188 57.76C12.1788 57.76 12.6588 58.24 12.6588 59.2C12.6588 60.16 12.1788 60.64 11.2188 60.64ZM8.01875 60.64C7.05875 60.64 6.57875 60.16 6.57875 59.2C6.57875 58.24 7.05875 57.76 8.01875 57.76C8.97875 57.76 9.45875 58.24 9.45875 59.2C9.45875 60.16 8.97875 60.64 8.01875 60.64ZM4.81875 60.64C3.85875 60.64 3.37875 60.16 3.37875 59.2C3.37875 58.24 3.85875 57.76 4.81875 57.76C5.77875 57.76 6.25875 58.24 6.25875 59.2C6.25875 60.16 5.77875 60.64 4.81875 60.64ZM1.61875 60.64C0.65875 60.64 0.17875 60.16 0.17875 59.2C0.17875 58.24 0.65875 57.76 1.61875 57.76C2.57875 57.76 3.05875 58.24 3.05875 59.2C3.05875 60.16 2.57875 60.64 1.61875 60.64ZM97.6188 60.48C96.7654 60.48 96.3388 60.0533 96.3388 59.2C96.3388 58.3467 96.7654 57.92 97.6188 57.92C98.4721 57.92 98.8988 58.3467 98.8988 59.2C98.8988 60.0533 98.4721 60.48 97.6188 60.48ZM89.2987 60.48H86.7388V57.92H89.2987V60.48ZM86.0988 60.48H83.5388V57.92H86.0988V60.48ZM82.8988 60.48H80.3388V57.92H82.8988V60.48ZM79.6987 60.48H77.1388V57.92H79.6987V60.48ZM76.4988 60.48H73.9388V57.92H76.4988V60.48ZM73.2988 60.48H70.7388V57.92H73.2988V60.48ZM70.0988 60.48H67.5388V57.92H70.0988V60.48ZM66.8988 60.48H64.3388V57.92H66.8988V60.48ZM62.4188 60.48C61.5654 60.48 61.1388 60.0533 61.1388 59.2C61.1388 58.3467 61.5654 57.92 62.4188 57.92C63.2721 57.92 63.6988 58.3467 63.6988 59.2C63.6988 60.0533 63.2721 60.48 62.4188 60.48ZM59.2188 60.48C58.3654 60.48 57.9388 60.0533 57.9388 59.2C57.9388 58.3467 58.3654 57.92 59.2188 57.92C60.0721 57.92 60.4988 58.3467 60.4988 59.2C60.4988 60.0533 60.0721 60.48 59.2188 60.48ZM56.0188 60.48C55.1654 60.48 54.7388 60.0533 54.7388 59.2C54.7388 58.3467 55.1654 57.92 56.0188 57.92C56.8721 57.92 57.2988 58.3467 57.2988 59.2C57.2988 60.0533 56.8721 60.48 56.0188 60.48ZM52.8188 60.48C51.9654 60.48 51.5388 60.0533 51.5388 59.2C51.5388 58.3467 51.9654 57.92 52.8188 57.92C53.6721 57.92 54.0988 58.3467 54.0988 59.2C54.0988 60.0533 53.6721 60.48 52.8188 60.48ZM49.6188 60.48C48.7654 60.48 48.3388 60.0533 48.3388 59.2C48.3388 58.3467 48.7654 57.92 49.6188 57.92C50.4721 57.92 50.8988 58.3467 50.8988 59.2C50.8988 60.0533 50.4721 60.48 49.6188 60.48ZM40.0188 58.24L40.9788 60.16H39.0588L40.0188 58.24ZM36.8188 58.24L37.7788 60.16H35.8588L36.8188 58.24ZM94.4188 64L92.8188 62.4L94.4188 60.8L96.0188 62.4L94.4188 64ZM91.2188 64L89.6188 62.4L91.2188 60.8L92.8188 62.4L91.2188 64ZM44.6588 63.84H41.7788V60.96H44.6588V63.84ZM33.6188 63.84C32.6588 63.84 32.1788 63.36 32.1788 62.4C32.1788 61.44 32.6588 60.96 33.6188 60.96C34.5788 60.96 35.0588 61.44 35.0588 62.4C35.0588 63.36 34.5788 63.84 33.6188 63.84ZM30.4188 63.84C29.4588 63.84 28.9788 63.36 28.9788 62.4C28.9788 61.44 29.4588 60.96 30.4188 60.96C31.3788 60.96 31.8588 61.44 31.8588 62.4C31.8588 63.36 31.3788 63.84 30.4188 63.84ZM27.2188 63.84C26.2588 63.84 25.7788 63.36 25.7788 62.4C25.7788 61.44 26.2588 60.96 27.2188 60.96C28.1788 60.96 28.6588 61.44 28.6588 62.4C28.6588 63.36 28.1788 63.84 27.2188 63.84ZM24.0188 63.84C23.0588 63.84 22.5788 63.36 22.5788 62.4C22.5788 61.44 23.0588 60.96 24.0188 60.96C24.9788 60.96 25.4588 61.44 25.4588 62.4C25.4588 63.36 24.9788 63.84 24.0188 63.84ZM20.8188 63.84C19.8588 63.84 19.3788 63.36 19.3788 62.4C19.3788 61.44 19.8588 60.96 20.8188 60.96C21.7788 60.96 22.2588 61.44 22.2588 62.4C22.2588 63.36 21.7788 63.84 20.8188 63.84ZM17.6188 63.84C16.6588 63.84 16.1788 63.36 16.1788 62.4C16.1788 61.44 16.6588 60.96 17.6188 60.96C18.5788 60.96 19.0588 61.44 19.0588 62.4C19.0588 63.36 18.5788 63.84 17.6188 63.84ZM14.4188 63.84C13.4588 63.84 12.9788 63.36 12.9788 62.4C12.9788 61.44 13.4588 60.96 14.4188 60.96C15.3788 60.96 15.8588 61.44 15.8588 62.4C15.8588 63.36 15.3788 63.84 14.4188 63.84ZM11.2188 63.84C10.2588 63.84 9.77875 63.36 9.77875 62.4C9.77875 61.44 10.2588 60.96 11.2188 60.96C12.1788 60.96 12.6588 61.44 12.6588 62.4C12.6588 63.36 12.1788 63.84 11.2188 63.84ZM8.01875 63.84C7.05875 63.84 6.57875 63.36 6.57875 62.4C6.57875 61.44 7.05875 60.96 8.01875 60.96C8.97875 60.96 9.45875 61.44 9.45875 62.4C9.45875 63.36 8.97875 63.84 8.01875 63.84ZM4.81875 63.84C3.85875 63.84 3.37875 63.36 3.37875 62.4C3.37875 61.44 3.85875 60.96 4.81875 60.96C5.77875 60.96 6.25875 61.44 6.25875 62.4C6.25875 63.36 5.77875 63.84 4.81875 63.84ZM1.61875 63.84C0.65875 63.84 0.17875 63.36 0.17875 62.4C0.17875 61.44 0.65875 60.96 1.61875 60.96C2.57875 60.96 3.05875 61.44 3.05875 62.4C3.05875 63.36 2.57875 63.84 1.61875 63.84ZM100.819 63.68C99.9654 63.68 99.5388 63.2533 99.5388 62.4C99.5388 61.5467 99.9654 61.12 100.819 61.12C101.672 61.12 102.099 61.5467 102.099 62.4C102.099 63.2533 101.672 63.68 100.819 63.68ZM97.6188 63.68C96.7654 63.68 96.3388 63.2533 96.3388 62.4C96.3388 61.5467 96.7654 61.12 97.6188 61.12C98.4721 61.12 98.8988 61.5467 98.8988 62.4C98.8988 63.2533 98.4721 63.68 97.6188 63.68ZM89.2987 63.68H86.7388V61.12H89.2987V63.68ZM86.0988 63.68H83.5388V61.12H86.0988V63.68ZM82.8988 63.68H80.3388V61.12H82.8988V63.68ZM79.6987 63.68H77.1388V61.12H79.6987V63.68ZM76.4988 63.68H73.9388V61.12H76.4988V63.68ZM73.2988 63.68H70.7388V61.12H73.2988V63.68ZM70.0988 63.68H67.5388V61.12H70.0988V63.68ZM66.8988 63.68H64.3388V61.12H66.8988V63.68ZM62.4188 61.12L63.6988 63.68H61.1388L62.4188 61.12ZM59.2188 61.12L60.4988 63.68H57.9388L59.2188 61.12ZM56.0188 61.12L57.2988 63.68H54.7388L56.0188 61.12ZM40.0188 61.44L40.9788 63.36H39.0588L40.0188 61.44ZM36.8188 61.44L37.7788 63.36H35.8588L36.8188 61.44ZM94.4188 67.2L92.8188 65.6L94.4188 64L96.0188 65.6L94.4188 67.2ZM91.2188 67.2L89.6188 65.6L91.2188 64L92.8188 65.6L91.2188 67.2ZM33.6188 67.04C32.6588 67.04 32.1788 66.56 32.1788 65.6C32.1788 64.64 32.6588 64.16 33.6188 64.16C34.5788 64.16 35.0588 64.64 35.0588 65.6C35.0588 66.56 34.5788 67.04 33.6188 67.04ZM30.4188 67.04C29.4588 67.04 28.9788 66.56 28.9788 65.6C28.9788 64.64 29.4588 64.16 30.4188 64.16C31.3788 64.16 31.8588 64.64 31.8588 65.6C31.8588 66.56 31.3788 67.04 30.4188 67.04ZM27.2188 67.04C26.2588 67.04 25.7788 66.56 25.7788 65.6C25.7788 64.64 26.2588 64.16 27.2188 64.16C28.1788 64.16 28.6588 64.64 28.6588 65.6C28.6588 66.56 28.1788 67.04 27.2188 67.04ZM24.0188 67.04C23.0588 67.04 22.5788 66.56 22.5788 65.6C22.5788 64.64 23.0588 64.16 24.0188 64.16C24.9788 64.16 25.4588 64.64 25.4588 65.6C25.4588 66.56 24.9788 67.04 24.0188 67.04ZM20.8188 67.04C19.8588 67.04 19.3788 66.56 19.3788 65.6C19.3788 64.64 19.8588 64.16 20.8188 64.16C21.7788 64.16 22.2588 64.64 22.2588 65.6C22.2588 66.56 21.7788 67.04 20.8188 67.04ZM17.6188 67.04C16.6588 67.04 16.1788 66.56 16.1788 65.6C16.1788 64.64 16.6588 64.16 17.6188 64.16C18.5788 64.16 19.0588 64.64 19.0588 65.6C19.0588 66.56 18.5788 67.04 17.6188 67.04ZM14.4188 67.04C13.4588 67.04 12.9788 66.56 12.9788 65.6C12.9788 64.64 13.4588 64.16 14.4188 64.16C15.3788 64.16 15.8588 64.64 15.8588 65.6C15.8588 66.56 15.3788 67.04 14.4188 67.04ZM11.2188 67.04C10.2588 67.04 9.77875 66.56 9.77875 65.6C9.77875 64.64 10.2588 64.16 11.2188 64.16C12.1788 64.16 12.6588 64.64 12.6588 65.6C12.6588 66.56 12.1788 67.04 11.2188 67.04ZM8.01875 67.04C7.05875 67.04 6.57875 66.56 6.57875 65.6C6.57875 64.64 7.05875 64.16 8.01875 64.16C8.97875 64.16 9.45875 64.64 9.45875 65.6C9.45875 66.56 8.97875 67.04 8.01875 67.04ZM4.81875 67.04C3.85875 67.04 3.37875 66.56 3.37875 65.6C3.37875 64.64 3.85875 64.16 4.81875 64.16C5.77875 64.16 6.25875 64.64 6.25875 65.6C6.25875 66.56 5.77875 67.04 4.81875 67.04ZM1.61875 67.04C0.65875 67.04 0.17875 66.56 0.17875 65.6C0.17875 64.64 0.65875 64.16 1.61875 64.16C2.57875 64.16 3.05875 64.64 3.05875 65.6C3.05875 66.56 2.57875 67.04 1.61875 67.04ZM100.819 66.88C99.9654 66.88 99.5388 66.4533 99.5388 65.6C99.5388 64.7467 99.9654 64.32 100.819 64.32C101.672 64.32 102.099 64.7467 102.099 65.6C102.099 66.4533 101.672 66.88 100.819 66.88ZM97.6188 66.88C96.7654 66.88 96.3388 66.4533 96.3388 65.6C96.3388 64.7467 96.7654 64.32 97.6188 64.32C98.4721 64.32 98.8988 64.7467 98.8988 65.6C98.8988 66.4533 98.4721 66.88 97.6188 66.88ZM89.2987 66.88H86.7388V64.32H89.2987V66.88ZM86.0988 66.88H83.5388V64.32H86.0988V66.88ZM82.8988 66.88H80.3388V64.32H82.8988V66.88ZM79.6987 66.88H77.1388V64.32H79.6987V66.88ZM76.4988 66.88H73.9388V64.32H76.4988V66.88ZM73.2988 66.88H70.7388V64.32H73.2988V66.88ZM70.0988 66.88H67.5388V64.32H70.0988V66.88ZM66.8988 66.88H64.3388V64.32H66.8988V66.88ZM62.4188 64.32L63.6988 66.88H61.1388L62.4188 64.32ZM40.0188 64.64L40.9788 66.56H39.0588L40.0188 64.64ZM36.8188 64.64L37.7788 66.56H35.8588L36.8188 64.64ZM94.4188 70.24L92.9788 68.8L94.4188 67.36L95.8588 68.8L94.4188 70.24ZM91.2188 70.24L89.7788 68.8L91.2188 67.36L92.6588 68.8L91.2188 70.24ZM33.6188 70.24C32.6588 70.24 32.1788 69.76 32.1788 68.8C32.1788 67.84 32.6588 67.36 33.6188 67.36C34.5788 67.36 35.0588 67.84 35.0588 68.8C35.0588 69.76 34.5788 70.24 33.6188 70.24ZM30.4188 70.24C29.4588 70.24 28.9788 69.76 28.9788 68.8C28.9788 67.84 29.4588 67.36 30.4188 67.36C31.3788 67.36 31.8588 67.84 31.8588 68.8C31.8588 69.76 31.3788 70.24 30.4188 70.24ZM27.2188 70.24C26.2588 70.24 25.7788 69.76 25.7788 68.8C25.7788 67.84 26.2588 67.36 27.2188 67.36C28.1788 67.36 28.6588 67.84 28.6588 68.8C28.6588 69.76 28.1788 70.24 27.2188 70.24ZM24.0188 70.24C23.0588 70.24 22.5788 69.76 22.5788 68.8C22.5788 67.84 23.0588 67.36 24.0188 67.36C24.9788 67.36 25.4588 67.84 25.4588 68.8C25.4588 69.76 24.9788 70.24 24.0188 70.24ZM20.8188 70.24C19.8588 70.24 19.3788 69.76 19.3788 68.8C19.3788 67.84 19.8588 67.36 20.8188 67.36C21.7788 67.36 22.2588 67.84 22.2588 68.8C22.2588 69.76 21.7788 70.24 20.8188 70.24ZM17.6188 70.24C16.6588 70.24 16.1788 69.76 16.1788 68.8C16.1788 67.84 16.6588 67.36 17.6188 67.36C18.5788 67.36 19.0588 67.84 19.0588 68.8C19.0588 69.76 18.5788 70.24 17.6188 70.24ZM14.4188 70.24C13.4588 70.24 12.9788 69.76 12.9788 68.8C12.9788 67.84 13.4588 67.36 14.4188 67.36C15.3788 67.36 15.8588 67.84 15.8588 68.8C15.8588 69.76 15.3788 70.24 14.4188 70.24ZM11.2188 70.24C10.2588 70.24 9.77875 69.76 9.77875 68.8C9.77875 67.84 10.2588 67.36 11.2188 67.36C12.1788 67.36 12.6588 67.84 12.6588 68.8C12.6588 69.76 12.1788 70.24 11.2188 70.24ZM8.01875 70.24C7.05875 70.24 6.57875 69.76 6.57875 68.8C6.57875 67.84 7.05875 67.36 8.01875 67.36C8.97875 67.36 9.45875 67.84 9.45875 68.8C9.45875 69.76 8.97875 70.24 8.01875 70.24ZM4.81875 70.24C3.85875 70.24 3.37875 69.76 3.37875 68.8C3.37875 67.84 3.85875 67.36 4.81875 67.36C5.77875 67.36 6.25875 67.84 6.25875 68.8C6.25875 69.76 5.77875 70.24 4.81875 70.24ZM1.61875 70.24C0.65875 70.24 0.17875 69.76 0.17875 68.8C0.17875 67.84 0.65875 67.36 1.61875 67.36C2.57875 67.36 3.05875 67.84 3.05875 68.8C3.05875 69.76 2.57875 70.24 1.61875 70.24ZM100.819 70.08C99.9654 70.08 99.5388 69.6533 99.5388 68.8C99.5388 67.9467 99.9654 67.52 100.819 67.52C101.672 67.52 102.099 67.9467 102.099 68.8C102.099 69.6533 101.672 70.08 100.819 70.08ZM97.6188 70.08C96.7654 70.08 96.3388 69.6533 96.3388 68.8C96.3388 67.9467 96.7654 67.52 97.6188 67.52C98.4721 67.52 98.8988 67.9467 98.8988 68.8C98.8988 69.6533 98.4721 70.08 97.6188 70.08ZM89.2987 70.08H86.7388V67.52H89.2987V70.08ZM86.0988 70.08H83.5388V67.52H86.0988V70.08ZM82.8988 70.08H80.3388V67.52H82.8988V70.08ZM79.6987 70.08H77.1388V67.52H79.6987V70.08ZM76.4988 70.08H73.9388V67.52H76.4988V70.08ZM73.2988 70.08H70.7388V67.52H73.2988V70.08ZM70.0988 70.08H67.5388V67.52H70.0988V70.08ZM66.8988 70.08H64.3388V67.52H66.8988V70.08ZM62.4188 67.68L63.5388 69.92H61.2988L62.4188 67.68ZM40.0188 68L40.8188 69.6H39.2188L40.0188 68ZM36.8188 68L37.6188 69.6H36.0188L36.8188 68ZM94.4188 73.44L92.9788 72L94.4188 70.56L95.8588 72L94.4188 73.44ZM91.2188 73.44L89.7788 72L91.2188 70.56L92.6588 72L91.2188 73.44ZM33.6188 73.44C32.6588 73.44 32.1788 72.96 32.1788 72C32.1788 71.04 32.6588 70.56 33.6188 70.56C34.5788 70.56 35.0588 71.04 35.0588 72C35.0588 72.96 34.5788 73.44 33.6188 73.44ZM30.4188 73.44C29.4588 73.44 28.9788 72.96 28.9788 72C28.9788 71.04 29.4588 70.56 30.4188 70.56C31.3788 70.56 31.8588 71.04 31.8588 72C31.8588 72.96 31.3788 73.44 30.4188 73.44ZM27.2188 73.44C26.2588 73.44 25.7788 72.96 25.7788 72C25.7788 71.04 26.2588 70.56 27.2188 70.56C28.1788 70.56 28.6588 71.04 28.6588 72C28.6588 72.96 28.1788 73.44 27.2188 73.44ZM24.0188 73.44C23.0588 73.44 22.5788 72.96 22.5788 72C22.5788 71.04 23.0588 70.56 24.0188 70.56C24.9788 70.56 25.4588 71.04 25.4588 72C25.4588 72.96 24.9788 73.44 24.0188 73.44ZM20.8188 73.44C19.8588 73.44 19.3788 72.96 19.3788 72C19.3788 71.04 19.8588 70.56 20.8188 70.56C21.7788 70.56 22.2588 71.04 22.2588 72C22.2588 72.96 21.7788 73.44 20.8188 73.44ZM17.6188 73.44C16.6588 73.44 16.1788 72.96 16.1788 72C16.1788 71.04 16.6588 70.56 17.6188 70.56C18.5788 70.56 19.0588 71.04 19.0588 72C19.0588 72.96 18.5788 73.44 17.6188 73.44ZM14.4188 73.44C13.4588 73.44 12.9788 72.96 12.9788 72C12.9788 71.04 13.4588 70.56 14.4188 70.56C15.3788 70.56 15.8588 71.04 15.8588 72C15.8588 72.96 15.3788 73.44 14.4188 73.44ZM11.2188 73.44C10.2588 73.44 9.77875 72.96 9.77875 72C9.77875 71.04 10.2588 70.56 11.2188 70.56C12.1788 70.56 12.6588 71.04 12.6588 72C12.6588 72.96 12.1788 73.44 11.2188 73.44ZM8.01875 73.44C7.05875 73.44 6.57875 72.96 6.57875 72C6.57875 71.04 7.05875 70.56 8.01875 70.56C8.97875 70.56 9.45875 71.04 9.45875 72C9.45875 72.96 8.97875 73.44 8.01875 73.44ZM4.81875 73.44C3.85875 73.44 3.37875 72.96 3.37875 72C3.37875 71.04 3.85875 70.56 4.81875 70.56C5.77875 70.56 6.25875 71.04 6.25875 72C6.25875 72.96 5.77875 73.44 4.81875 73.44ZM1.61875 73.44C0.65875 73.44 0.17875 72.96 0.17875 72C0.17875 71.04 0.65875 70.56 1.61875 70.56C2.57875 70.56 3.05875 71.04 3.05875 72C3.05875 72.96 2.57875 73.44 1.61875 73.44ZM100.819 73.28C99.9654 73.28 99.5388 72.8533 99.5388 72C99.5388 71.1467 99.9654 70.72 100.819 70.72C101.672 70.72 102.099 71.1467 102.099 72C102.099 72.8533 101.672 73.28 100.819 73.28ZM97.6188 73.28C96.7654 73.28 96.3388 72.8533 96.3388 72C96.3388 71.1467 96.7654 70.72 97.6188 70.72C98.4721 70.72 98.8988 71.1467 98.8988 72C98.8988 72.8533 98.4721 73.28 97.6188 73.28ZM89.2987 73.28H86.7388V70.72H89.2987V73.28ZM86.0988 73.28H83.5388V70.72H86.0988V73.28ZM82.8988 73.28H80.3388V70.72H82.8988V73.28ZM79.6987 73.28H77.1388V70.72H79.6987V73.28ZM76.4988 73.28H73.9388V70.72H76.4988V73.28ZM73.2988 73.28H70.7388V70.72H73.2988V73.28ZM70.0988 73.28H67.5388V70.72H70.0988V73.28ZM66.8988 73.28H64.3388V70.72H66.8988V73.28ZM62.4188 70.88L63.5388 73.12H61.2988L62.4188 70.88ZM36.8188 71.2L37.6188 72.8H36.0188L36.8188 71.2ZM94.4188 76.64L92.9788 75.2L94.4188 73.76L95.8588 75.2L94.4188 76.64ZM91.2188 76.64L89.7788 75.2L91.2188 73.76L92.6588 75.2L91.2188 76.64ZM33.6188 76.64C32.6588 76.64 32.1788 76.16 32.1788 75.2C32.1788 74.24 32.6588 73.76 33.6188 73.76C34.5788 73.76 35.0588 74.24 35.0588 75.2C35.0588 76.16 34.5788 76.64 33.6188 76.64ZM30.4188 76.64C29.4588 76.64 28.9788 76.16 28.9788 75.2C28.9788 74.24 29.4588 73.76 30.4188 73.76C31.3788 73.76 31.8588 74.24 31.8588 75.2C31.8588 76.16 31.3788 76.64 30.4188 76.64ZM27.2188 76.64C26.2588 76.64 25.7788 76.16 25.7788 75.2C25.7788 74.24 26.2588 73.76 27.2188 73.76C28.1788 73.76 28.6588 74.24 28.6588 75.2C28.6588 76.16 28.1788 76.64 27.2188 76.64ZM24.0188 76.64C23.0588 76.64 22.5788 76.16 22.5788 75.2C22.5788 74.24 23.0588 73.76 24.0188 73.76C24.9788 73.76 25.4588 74.24 25.4588 75.2C25.4588 76.16 24.9788 76.64 24.0188 76.64ZM20.8188 76.64C19.8588 76.64 19.3788 76.16 19.3788 75.2C19.3788 74.24 19.8588 73.76 20.8188 73.76C21.7788 73.76 22.2588 74.24 22.2588 75.2C22.2588 76.16 21.7788 76.64 20.8188 76.64ZM17.6188 76.64C16.6588 76.64 16.1788 76.16 16.1788 75.2C16.1788 74.24 16.6588 73.76 17.6188 73.76C18.5788 73.76 19.0588 74.24 19.0588 75.2C19.0588 76.16 18.5788 76.64 17.6188 76.64ZM14.4188 76.64C13.4588 76.64 12.9788 76.16 12.9788 75.2C12.9788 74.24 13.4588 73.76 14.4188 73.76C15.3788 73.76 15.8588 74.24 15.8588 75.2C15.8588 76.16 15.3788 76.64 14.4188 76.64ZM11.2188 76.48C10.3654 76.48 9.93875 76.0533 9.93875 75.2C9.93875 74.24 10.3654 73.76 11.2188 73.76C12.1788 73.76 12.6588 74.24 12.6588 75.2C12.6588 76.0533 12.1788 76.48 11.2188 76.48ZM8.01875 76.48C7.16542 76.48 6.73875 76.0533 6.73875 75.2C6.73875 74.3467 7.16542 73.92 8.01875 73.92C8.87208 73.92 9.29875 74.3467 9.29875 75.2C9.29875 76.0533 8.87208 76.48 8.01875 76.48ZM4.81875 76.48C3.96542 76.48 3.53875 76.0533 3.53875 75.2C3.53875 74.3467 3.96542 73.92 4.81875 73.92C5.67208 73.92 6.09875 74.3467 6.09875 75.2C6.09875 76.0533 5.67208 76.48 4.81875 76.48ZM1.61875 76.48C0.765417 76.48 0.33875 76.0533 0.33875 75.2C0.33875 74.3467 0.765417 73.92 1.61875 73.92C2.47208 73.92 2.89875 74.3467 2.89875 75.2C2.89875 76.0533 2.47208 76.48 1.61875 76.48ZM100.819 76.48C99.9654 76.48 99.5388 76.0533 99.5388 75.2C99.5388 74.3467 99.9654 73.92 100.819 73.92C101.672 73.92 102.099 74.3467 102.099 75.2C102.099 76.0533 101.672 76.48 100.819 76.48ZM97.6188 76.48C96.7654 76.48 96.3388 76.0533 96.3388 75.2C96.3388 74.3467 96.7654 73.92 97.6188 73.92C98.4721 73.92 98.8988 74.3467 98.8988 75.2C98.8988 76.0533 98.4721 76.48 97.6188 76.48ZM89.2987 76.48H86.7388V73.92H89.2987V76.48ZM86.0988 76.48H83.5388V73.92H86.0988V76.48ZM82.8988 76.48H80.3388V73.92H82.8988V76.48ZM79.6987 76.48H77.1388V73.92H79.6987V76.48ZM76.4988 76.48H73.9388V73.92H76.4988V76.48ZM73.2988 76.48H70.7388V73.92H73.2988V76.48ZM70.0988 76.48H67.5388V73.92H70.0988V76.48ZM66.8988 76.48H64.3388V73.92H66.8988V76.48ZM62.4188 74.08L63.5388 76.32H61.2988L62.4188 74.08ZM40.0188 74.4L40.8188 76H39.2188L40.0188 74.4ZM36.8188 74.4L37.6188 76H36.0188L36.8188 74.4ZM94.4188 79.84L92.9788 78.4L94.4188 76.96L95.8588 78.4L94.4188 79.84ZM91.2188 79.84L89.7788 78.4L91.2188 76.96L92.6588 78.4L91.2188 79.84ZM33.6188 79.68C32.7654 79.68 32.3388 79.2533 32.3388 78.4C32.3388 77.5467 32.7654 77.12 33.6188 77.12C34.4721 77.12 34.8988 77.5467 34.8988 78.4C34.8988 79.2533 34.4721 79.68 33.6188 79.68ZM30.4188 79.68C29.5654 79.68 29.1388 79.2533 29.1388 78.4C29.1388 77.5467 29.5654 77.12 30.4188 77.12C31.2721 77.12 31.6988 77.5467 31.6988 78.4C31.6988 79.2533 31.2721 79.68 30.4188 79.68ZM27.2188 79.68C26.3654 79.68 25.9388 79.2533 25.9388 78.4C25.9388 77.5467 26.3654 77.12 27.2188 77.12C28.0721 77.12 28.4988 77.5467 28.4988 78.4C28.4988 79.2533 28.0721 79.68 27.2188 79.68ZM24.0188 79.68C23.1654 79.68 22.7388 79.2533 22.7388 78.4C22.7388 77.5467 23.1654 77.12 24.0188 77.12C24.8721 77.12 25.2988 77.5467 25.2988 78.4C25.2988 79.2533 24.8721 79.68 24.0188 79.68ZM20.8188 79.68C19.9654 79.68 19.5388 79.2533 19.5388 78.4C19.5388 77.5467 19.9654 77.12 20.8188 77.12C21.6721 77.12 22.0988 77.5467 22.0988 78.4C22.0988 79.2533 21.6721 79.68 20.8188 79.68ZM17.6188 79.68C16.7654 79.68 16.3387 79.2533 16.3387 78.4C16.3387 77.5467 16.7654 77.12 17.6188 77.12C18.4721 77.12 18.8988 77.5467 18.8988 78.4C18.8988 79.2533 18.4721 79.68 17.6188 79.68ZM14.4188 79.68C13.5654 79.68 13.1388 79.2533 13.1388 78.4C13.1388 77.5467 13.5654 77.12 14.4188 77.12C15.2721 77.12 15.6988 77.5467 15.6988 78.4C15.6988 79.2533 15.2721 79.68 14.4188 79.68ZM11.2188 79.68C10.3654 79.68 9.93875 79.2533 9.93875 78.4C9.93875 77.5467 10.3654 77.12 11.2188 77.12C12.0721 77.12 12.4988 77.5467 12.4988 78.4C12.4988 79.2533 12.0721 79.68 11.2188 79.68ZM8.01875 79.68C7.16542 79.68 6.73875 79.2533 6.73875 78.4C6.73875 77.5467 7.16542 77.12 8.01875 77.12C8.87208 77.12 9.29875 77.5467 9.29875 78.4C9.29875 79.2533 8.87208 79.68 8.01875 79.68ZM4.81875 79.68C3.96542 79.68 3.53875 79.2533 3.53875 78.4C3.53875 77.5467 3.96542 77.12 4.81875 77.12C5.67208 77.12 6.09875 77.5467 6.09875 78.4C6.09875 79.2533 5.67208 79.68 4.81875 79.68ZM1.61875 79.68C0.765417 79.68 0.33875 79.2533 0.33875 78.4C0.33875 77.5467 0.765417 77.12 1.61875 77.12C2.47208 77.12 2.89875 77.5467 2.89875 78.4C2.89875 79.2533 2.47208 79.68 1.61875 79.68ZM89.1388 79.52H86.8988V77.28H89.1388V79.52ZM85.9388 79.52H83.6988V77.28H85.9388V79.52ZM82.7388 79.52H80.4988V77.28H82.7388V79.52ZM79.5388 79.52H77.2988V77.28H79.5388V79.52ZM76.3388 79.52H74.0988V77.28H76.3388V79.52ZM73.1388 79.52H70.8988V77.28H73.1388V79.52ZM69.9388 79.52H67.6988V77.28H69.9388V79.52ZM66.7388 79.52H64.4988V77.28H66.7388V79.52ZM100.819 77.28L101.939 79.52H99.6988L100.819 77.28ZM97.6188 77.28L98.7388 79.52H96.4988L97.6188 77.28ZM62.4188 77.28L63.5388 79.52H61.2988L62.4188 77.28ZM40.0188 77.6L40.8188 79.2H39.2188L40.0188 77.6ZM36.8188 77.6L37.6188 79.2H36.0188L36.8188 77.6ZM94.4188 83.04L92.9788 81.6L94.4188 80.16L95.8588 81.6L94.4188 83.04ZM91.2188 83.04L89.7788 81.6L91.2188 80.16L92.6588 81.6L91.2188 83.04ZM33.6188 82.88C32.7654 82.88 32.3388 82.4533 32.3388 81.6C32.3388 80.7467 32.7654 80.32 33.6188 80.32C34.4721 80.32 34.8988 80.7467 34.8988 81.6C34.8988 82.4533 34.4721 82.88 33.6188 82.88ZM30.4188 82.88C29.5654 82.88 29.1388 82.4533 29.1388 81.6C29.1388 80.7467 29.5654 80.32 30.4188 80.32C31.2721 80.32 31.6988 80.7467 31.6988 81.6C31.6988 82.4533 31.2721 82.88 30.4188 82.88ZM27.2188 82.88C26.3654 82.88 25.9388 82.4533 25.9388 81.6C25.9388 80.7467 26.3654 80.32 27.2188 80.32C28.0721 80.32 28.4988 80.7467 28.4988 81.6C28.4988 82.4533 28.0721 82.88 27.2188 82.88ZM24.0188 82.88C23.1654 82.88 22.7388 82.4533 22.7388 81.6C22.7388 80.7467 23.1654 80.32 24.0188 80.32C24.8721 80.32 25.2988 80.7467 25.2988 81.6C25.2988 82.4533 24.8721 82.88 24.0188 82.88ZM20.8188 82.88C19.9654 82.88 19.5388 82.4533 19.5388 81.6C19.5388 80.7467 19.9654 80.32 20.8188 80.32C21.6721 80.32 22.0988 80.7467 22.0988 81.6C22.0988 82.4533 21.6721 82.88 20.8188 82.88ZM17.6188 82.88C16.7654 82.88 16.3387 82.4533 16.3387 81.6C16.3387 80.7467 16.7654 80.32 17.6188 80.32C18.4721 80.32 18.8988 80.7467 18.8988 81.6C18.8988 82.4533 18.4721 82.88 17.6188 82.88ZM14.4188 82.88C13.5654 82.88 13.1388 82.4533 13.1388 81.6C13.1388 80.7467 13.5654 80.32 14.4188 80.32C15.2721 80.32 15.6988 80.7467 15.6988 81.6C15.6988 82.4533 15.2721 82.88 14.4188 82.88ZM11.2188 82.88C10.3654 82.88 9.93875 82.4533 9.93875 81.6C9.93875 80.7467 10.3654 80.32 11.2188 80.32C12.0721 80.32 12.4988 80.7467 12.4988 81.6C12.4988 82.4533 12.0721 82.88 11.2188 82.88ZM8.01875 82.88C7.16542 82.88 6.73875 82.4533 6.73875 81.6C6.73875 80.7467 7.16542 80.32 8.01875 80.32C8.87208 80.32 9.29875 80.7467 9.29875 81.6C9.29875 82.4533 8.87208 82.88 8.01875 82.88ZM4.81875 82.88C3.96542 82.88 3.53875 82.4533 3.53875 81.6C3.53875 80.7467 3.96542 80.32 4.81875 80.32C5.67208 80.32 6.09875 80.7467 6.09875 81.6C6.09875 82.4533 5.67208 82.88 4.81875 82.88ZM1.61875 82.88C0.765417 82.88 0.33875 82.4533 0.33875 81.6C0.33875 80.7467 0.765417 80.32 1.61875 80.32C2.47208 80.32 2.89875 80.7467 2.89875 81.6C2.89875 82.4533 2.47208 82.88 1.61875 82.88ZM89.1388 82.72H86.8988V80.48H89.1388V82.72ZM85.9388 82.72H83.6988V80.48H85.9388V82.72ZM82.7388 82.72H80.4988V80.48H82.7388V82.72ZM79.5388 82.72H77.2988V80.48H79.5388V82.72ZM76.3388 82.72H74.0988V80.48H76.3388V82.72ZM73.1388 82.72H70.8988V80.48H73.1388V82.72ZM69.9388 82.72H67.6988V80.48H69.9388V82.72ZM66.7388 82.72H64.4988V80.48H66.7388V82.72ZM100.819 80.48L101.939 82.72H99.6988L100.819 80.48ZM97.6188 80.48L98.7388 82.72H96.4988L97.6188 80.48ZM62.4188 80.48L63.5388 82.72H61.2988L62.4188 80.48ZM59.2188 80.48L60.3388 82.72H58.0988L59.2188 80.48ZM56.0188 80.48L57.1388 82.72H54.8988L56.0188 80.48ZM40.0188 80.8L40.8188 82.4H39.2188L40.0188 80.8ZM36.8188 80.8L37.6188 82.4H36.0188L36.8188 80.8ZM46.4188 82.24C45.9921 82.24 45.7788 82.0267 45.7788 81.6C45.7788 81.1733 45.9921 80.96 46.4188 80.96C46.8454 80.96 47.0588 81.1733 47.0588 81.6C47.0588 82.0267 46.8454 82.24 46.4188 82.24ZM43.2188 82.24C42.7921 82.24 42.5788 82.0267 42.5788 81.6C42.5788 81.1733 42.7921 80.96 43.2188 80.96C43.6454 80.96 43.8588 81.1733 43.8588 81.6C43.8588 82.0267 43.6454 82.24 43.2188 82.24ZM94.4188 86.24L92.9788 84.8L94.4188 83.36L95.8588 84.8L94.4188 86.24ZM91.2188 86.24L89.7788 84.8L91.2188 83.36L92.6588 84.8L91.2188 86.24ZM33.6188 86.08C32.7654 86.08 32.3388 85.6533 32.3388 84.8C32.3388 83.9467 32.7654 83.52 33.6188 83.52C34.4721 83.52 34.8988 83.9467 34.8988 84.8C34.8988 85.6533 34.4721 86.08 33.6188 86.08ZM30.4188 86.08C29.5654 86.08 29.1388 85.6533 29.1388 84.8C29.1388 83.9467 29.5654 83.52 30.4188 83.52C31.2721 83.52 31.6988 83.9467 31.6988 84.8C31.6988 85.6533 31.2721 86.08 30.4188 86.08ZM27.2188 86.08C26.3654 86.08 25.9388 85.6533 25.9388 84.8C25.9388 83.9467 26.3654 83.52 27.2188 83.52C28.0721 83.52 28.4988 83.9467 28.4988 84.8C28.4988 85.6533 28.0721 86.08 27.2188 86.08ZM24.0188 86.08C23.1654 86.08 22.7388 85.6533 22.7388 84.8C22.7388 83.9467 23.1654 83.52 24.0188 83.52C24.8721 83.52 25.2988 83.9467 25.2988 84.8C25.2988 85.6533 24.8721 86.08 24.0188 86.08ZM20.8188 86.08C19.9654 86.08 19.5388 85.6533 19.5388 84.8C19.5388 83.9467 19.9654 83.52 20.8188 83.52C21.6721 83.52 22.0988 83.9467 22.0988 84.8C22.0988 85.6533 21.6721 86.08 20.8188 86.08ZM17.6188 86.08C16.7654 86.08 16.3387 85.6533 16.3387 84.8C16.3387 83.9467 16.7654 83.52 17.6188 83.52C18.4721 83.52 18.8988 83.9467 18.8988 84.8C18.8988 85.6533 18.4721 86.08 17.6188 86.08ZM14.4188 86.08C13.5654 86.08 13.1388 85.6533 13.1388 84.8C13.1388 83.9467 13.5654 83.52 14.4188 83.52C15.2721 83.52 15.6988 83.9467 15.6988 84.8C15.6988 85.6533 15.2721 86.08 14.4188 86.08ZM11.2188 86.08C10.3654 86.08 9.93875 85.6533 9.93875 84.8C9.93875 83.9467 10.3654 83.52 11.2188 83.52C12.0721 83.52 12.4988 83.9467 12.4988 84.8C12.4988 85.6533 12.0721 86.08 11.2188 86.08ZM8.01875 86.08C7.16542 86.08 6.73875 85.6533 6.73875 84.8C6.73875 83.9467 7.16542 83.52 8.01875 83.52C8.87208 83.52 9.29875 83.9467 9.29875 84.8C9.29875 85.6533 8.87208 86.08 8.01875 86.08ZM4.81875 86.08C3.96542 86.08 3.53875 85.6533 3.53875 84.8C3.53875 83.9467 3.96542 83.52 4.81875 83.52C5.67208 83.52 6.09875 83.9467 6.09875 84.8C6.09875 85.6533 5.67208 86.08 4.81875 86.08ZM1.61875 86.08C0.765417 86.08 0.33875 85.6533 0.33875 84.8C0.33875 83.9467 0.765417 83.52 1.61875 83.52C2.47208 83.52 2.89875 83.9467 2.89875 84.8C2.89875 85.6533 2.47208 86.08 1.61875 86.08ZM89.1388 85.92H86.8988V83.68H89.1388V85.92ZM85.9388 85.92H83.6988V83.68H85.9388V85.92ZM82.7388 85.92H80.4988V83.68H82.7388V85.92ZM79.5388 85.92H77.2988V83.68H79.5388V85.92ZM76.3388 85.92H74.0988V83.68H76.3388V85.92ZM73.1388 85.92H70.8988V83.68H73.1388V85.92ZM69.9388 85.92H67.6988V83.68H69.9388V85.92ZM66.7388 85.92H64.4988V83.68H66.7388V85.92ZM97.6188 83.68L98.7388 85.92H96.4988L97.6188 83.68ZM57.1388 85.92H54.8988V83.68H57.1388V85.92ZM53.9388 85.92H51.6988V83.68H53.9388V85.92ZM50.7388 85.92H48.4988V83.68H50.7388V85.92ZM62.4188 85.6C61.8854 85.6 61.6188 85.3333 61.6188 84.8C61.6188 84.2667 61.8854 84 62.4188 84C62.9521 84 63.2188 84.2667 63.2188 84.8C63.2188 85.3333 62.9521 85.6 62.4188 85.6ZM59.2188 85.6C58.6854 85.6 58.4188 85.3333 58.4188 84.8C58.4188 84.2667 58.6854 84 59.2188 84C59.7521 84 60.0188 84.2667 60.0188 84.8C60.0188 85.3333 59.7521 85.6 59.2188 85.6ZM40.0188 84L40.8188 85.6H39.2188L40.0188 84ZM36.8188 84L37.6188 85.6H36.0188L36.8188 84ZM46.4188 85.44C45.9921 85.44 45.7788 85.2267 45.7788 84.8C45.7788 84.3733 45.9921 84.16 46.4188 84.16C46.8454 84.16 47.0588 84.3733 47.0588 84.8C47.0588 85.2267 46.8454 85.44 46.4188 85.44ZM43.2188 85.44C42.7921 85.44 42.5788 85.2267 42.5788 84.8C42.5788 84.3733 42.7921 84.16 43.2188 84.16C43.6454 84.16 43.8588 84.3733 43.8588 84.8C43.8588 85.2267 43.6454 85.44 43.2188 85.44ZM94.4188 89.28L93.1388 88L94.4188 86.72L95.6988 88L94.4188 89.28ZM91.2188 89.28L89.9388 88L91.2188 86.72L92.4988 88L91.2188 89.28ZM33.6188 89.28C32.7654 89.28 32.3388 88.8533 32.3388 88C32.3388 87.1467 32.7654 86.72 33.6188 86.72C34.4721 86.72 34.8988 87.1467 34.8988 88C34.8988 88.8533 34.4721 89.28 33.6188 89.28ZM30.4188 89.28C29.5654 89.28 29.1388 88.8533 29.1388 88C29.1388 87.1467 29.5654 86.72 30.4188 86.72C31.2721 86.72 31.6988 87.1467 31.6988 88C31.6988 88.8533 31.2721 89.28 30.4188 89.28ZM27.2188 89.28C26.3654 89.28 25.9388 88.8533 25.9388 88C25.9388 87.1467 26.3654 86.72 27.2188 86.72C28.0721 86.72 28.4988 87.1467 28.4988 88C28.4988 88.8533 28.0721 89.28 27.2188 89.28ZM24.0188 89.28C23.1654 89.28 22.7388 88.8533 22.7388 88C22.7388 87.1467 23.1654 86.72 24.0188 86.72C24.8721 86.72 25.2988 87.1467 25.2988 88C25.2988 88.8533 24.8721 89.28 24.0188 89.28ZM20.8188 89.28C19.9654 89.28 19.5388 88.8533 19.5388 88C19.5388 87.1467 19.9654 86.72 20.8188 86.72C21.6721 86.72 22.0988 87.1467 22.0988 88C22.0988 88.8533 21.6721 89.28 20.8188 89.28ZM17.6188 89.28C16.7654 89.28 16.3387 88.8533 16.3387 88C16.3387 87.1467 16.7654 86.72 17.6188 86.72C18.4721 86.72 18.8988 87.1467 18.8988 88C18.8988 88.8533 18.4721 89.28 17.6188 89.28ZM14.4188 89.28C13.5654 89.28 13.1388 88.8533 13.1388 88C13.1388 87.1467 13.5654 86.72 14.4188 86.72C15.2721 86.72 15.6988 87.1467 15.6988 88C15.6988 88.8533 15.2721 89.28 14.4188 89.28ZM11.2188 89.28C10.3654 89.28 9.93875 88.8533 9.93875 88C9.93875 87.1467 10.3654 86.72 11.2188 86.72C12.0721 86.72 12.4988 87.1467 12.4988 88C12.4988 88.8533 12.0721 89.28 11.2188 89.28ZM8.01875 89.28C7.16542 89.28 6.73875 88.8533 6.73875 88C6.73875 87.1467 7.16542 86.72 8.01875 86.72C8.87208 86.72 9.29875 87.1467 9.29875 88C9.29875 88.8533 8.87208 89.28 8.01875 89.28ZM4.81875 89.28C3.96542 89.28 3.53875 88.8533 3.53875 88C3.53875 87.1467 3.96542 86.72 4.81875 86.72C5.67208 86.72 6.09875 87.1467 6.09875 88C6.09875 88.8533 5.67208 89.28 4.81875 89.28ZM1.61875 89.28C0.765417 89.28 0.33875 88.8533 0.33875 88C0.33875 87.1467 0.765417 86.72 1.61875 86.72C2.47208 86.72 2.89875 87.1467 2.89875 88C2.89875 88.8533 2.47208 89.28 1.61875 89.28ZM89.1388 89.12H86.8988V86.88H89.1388V89.12ZM85.9388 89.12H83.6988V86.88H85.9388V89.12ZM82.7388 89.12H80.4988V86.88H82.7388V89.12ZM79.5388 89.12H77.2988V86.88H79.5388V89.12ZM76.3388 89.12H74.0988V86.88H76.3388V89.12ZM73.1388 89.12H70.8988V86.88H73.1388V89.12ZM69.9388 89.12H67.6988V86.88H69.9388V89.12ZM66.7388 89.12H64.4988V86.88H66.7388V89.12ZM97.6188 87.04L98.5788 88.96H96.6588L97.6188 87.04ZM56.9788 88.96H55.0588V87.04H56.9788V88.96ZM53.7788 88.96H51.8588V87.04H53.7788V88.96ZM50.5788 88.96H48.6588V87.04H50.5788V88.96ZM62.4188 88.64C61.9921 88.64 61.7788 88.4267 61.7788 88C61.7788 87.5733 61.9921 87.36 62.4188 87.36C62.8454 87.36 63.0588 87.5733 63.0588 88C63.0588 88.4267 62.8454 88.64 62.4188 88.64ZM59.2188 88.64C58.7921 88.64 58.5788 88.4267 58.5788 88C58.5788 87.5733 58.7921 87.36 59.2188 87.36C59.6454 87.36 59.8588 87.5733 59.8588 88C59.8588 88.4267 59.6454 88.64 59.2188 88.64ZM40.0188 87.36L40.6588 88.64H39.3788L40.0188 87.36ZM36.8188 87.36L37.4587 88.64H36.1788L36.8188 87.36ZM46.4188 88.48C46.0988 88.48 45.9388 88.32 45.9388 88C45.9388 87.68 46.0988 87.52 46.4188 87.52C46.7388 87.52 46.8988 87.68 46.8988 88C46.8988 88.32 46.7388 88.48 46.4188 88.48ZM43.2188 88.48C42.8988 88.48 42.7388 88.32 42.7388 88C42.7388 87.68 42.8988 87.52 43.2188 87.52C43.5388 87.52 43.6988 87.68 43.6988 88C43.6988 88.32 43.5388 88.48 43.2188 88.48ZM94.4188 92.48L93.1388 91.2L94.4188 89.92L95.6988 91.2L94.4188 92.48ZM91.2188 92.48L89.9388 91.2L91.2188 89.92L92.4988 91.2L91.2188 92.48ZM33.6188 92.48C32.7654 92.48 32.3388 92.0533 32.3388 91.2C32.3388 90.3467 32.7654 89.92 33.6188 89.92C34.4721 89.92 34.8988 90.3467 34.8988 91.2C34.8988 92.0533 34.4721 92.48 33.6188 92.48ZM30.4188 92.48C29.5654 92.48 29.1388 92.0533 29.1388 91.2C29.1388 90.3467 29.5654 89.92 30.4188 89.92C31.2721 89.92 31.6988 90.3467 31.6988 91.2C31.6988 92.0533 31.2721 92.48 30.4188 92.48ZM27.2188 92.48C26.3654 92.48 25.9388 92.0533 25.9388 91.2C25.9388 90.3467 26.3654 89.92 27.2188 89.92C28.0721 89.92 28.4988 90.3467 28.4988 91.2C28.4988 92.0533 28.0721 92.48 27.2188 92.48ZM24.0188 92.48C23.1654 92.48 22.7388 92.0533 22.7388 91.2C22.7388 90.3467 23.1654 89.92 24.0188 89.92C24.8721 89.92 25.2988 90.3467 25.2988 91.2C25.2988 92.0533 24.8721 92.48 24.0188 92.48ZM20.8188 92.48C19.9654 92.48 19.5388 92.0533 19.5388 91.2C19.5388 90.3467 19.9654 89.92 20.8188 89.92C21.6721 89.92 22.0988 90.3467 22.0988 91.2C22.0988 92.0533 21.6721 92.48 20.8188 92.48ZM17.6188 92.48C16.7654 92.48 16.3387 92.0533 16.3387 91.2C16.3387 90.3467 16.7654 89.92 17.6188 89.92C18.4721 89.92 18.8988 90.3467 18.8988 91.2C18.8988 92.0533 18.4721 92.48 17.6188 92.48ZM14.4188 92.48C13.5654 92.48 13.1388 92.0533 13.1388 91.2C13.1388 90.3467 13.5654 89.92 14.4188 89.92C15.2721 89.92 15.6988 90.3467 15.6988 91.2C15.6988 92.0533 15.2721 92.48 14.4188 92.48ZM11.2188 92.48C10.3654 92.48 9.93875 92.0533 9.93875 91.2C9.93875 90.3467 10.3654 89.92 11.2188 89.92C12.0721 89.92 12.4988 90.3467 12.4988 91.2C12.4988 92.0533 12.0721 92.48 11.2188 92.48ZM8.01875 92.48C7.16542 92.48 6.73875 92.0533 6.73875 91.2C6.73875 90.3467 7.16542 89.92 8.01875 89.92C8.87208 89.92 9.29875 90.3467 9.29875 91.2C9.29875 92.0533 8.87208 92.48 8.01875 92.48ZM4.81875 92.48C3.96542 92.48 3.53875 92.0533 3.53875 91.2C3.53875 90.3467 3.96542 89.92 4.81875 89.92C5.67208 89.92 6.09875 90.3467 6.09875 91.2C6.09875 92.0533 5.67208 92.48 4.81875 92.48ZM89.1388 92.32H86.8988V90.08H89.1388V92.32ZM85.9388 92.32H83.6988V90.08H85.9388V92.32ZM82.7388 92.32H80.4988V90.08H82.7388V92.32ZM79.5388 92.32H77.2988V90.08H79.5388V92.32ZM76.3388 92.32H74.0988V90.08H76.3388V92.32ZM73.1388 92.32H70.8988V90.08H73.1388V92.32ZM69.9388 92.32H67.6988V90.08H69.9388V92.32ZM66.7388 92.32H64.4988V90.08H66.7388V92.32ZM56.9788 92.16H55.0588V90.24H56.9788V92.16ZM53.7788 92.16H51.8588V90.24H53.7788V92.16ZM50.5788 92.16H48.6588V90.24H50.5788V92.16ZM62.4188 91.84C61.9921 91.84 61.7788 91.6267 61.7788 91.2C61.7788 90.7733 61.9921 90.56 62.4188 90.56C62.8454 90.56 63.0588 90.7733 63.0588 91.2C63.0588 91.6267 62.8454 91.84 62.4188 91.84ZM59.2188 91.84C58.7921 91.84 58.5788 91.6267 58.5788 91.2C58.5788 90.7733 58.7921 90.56 59.2188 90.56C59.6454 90.56 59.8588 90.7733 59.8588 91.2C59.8588 91.6267 59.6454 91.84 59.2188 91.84ZM40.0188 90.56L40.6588 91.84H39.3788L40.0188 90.56ZM36.8188 90.56L37.4587 91.84H36.1788L36.8188 90.56ZM46.4188 91.68C46.0988 91.68 45.9388 91.52 45.9388 91.2C45.9388 90.88 46.0988 90.72 46.4188 90.72C46.7388 90.72 46.8988 90.88 46.8988 91.2C46.8988 91.52 46.7388 91.68 46.4188 91.68ZM43.2188 91.68C42.8988 91.68 42.7388 91.52 42.7388 91.2C42.7388 90.88 42.8988 90.72 43.2188 90.72C43.5388 90.72 43.6988 90.88 43.6988 91.2C43.6988 91.52 43.5388 91.68 43.2188 91.68ZM94.4188 95.68L93.1388 94.4L94.4188 93.12L95.6988 94.4L94.4188 95.68ZM91.2188 95.68L89.9388 94.4L91.2188 93.12L92.4988 94.4L91.2188 95.68ZM33.6188 95.68C32.7654 95.68 32.3388 95.2533 32.3388 94.4C32.3388 93.5467 32.7654 93.12 33.6188 93.12C34.4721 93.12 34.8988 93.5467 34.8988 94.4C34.8988 95.2533 34.4721 95.68 33.6188 95.68ZM30.4188 95.68C29.5654 95.68 29.1388 95.2533 29.1388 94.4C29.1388 93.5467 29.5654 93.12 30.4188 93.12C31.2721 93.12 31.6988 93.5467 31.6988 94.4C31.6988 95.2533 31.2721 95.68 30.4188 95.68ZM27.2188 95.68C26.3654 95.68 25.9388 95.2533 25.9388 94.4C25.9388 93.5467 26.3654 93.12 27.2188 93.12C28.0721 93.12 28.4988 93.5467 28.4988 94.4C28.4988 95.2533 28.0721 95.68 27.2188 95.68ZM24.0188 95.68C23.1654 95.68 22.7388 95.2533 22.7388 94.4C22.7388 93.5467 23.1654 93.12 24.0188 93.12C24.8721 93.12 25.2988 93.5467 25.2988 94.4C25.2988 95.2533 24.8721 95.68 24.0188 95.68ZM20.8188 95.68C19.9654 95.68 19.5388 95.2533 19.5388 94.4C19.5388 93.5467 19.9654 93.12 20.8188 93.12C21.6721 93.12 22.0988 93.5467 22.0988 94.4C22.0988 95.2533 21.6721 95.68 20.8188 95.68ZM17.6188 95.68C16.7654 95.68 16.3387 95.2533 16.3387 94.4C16.3387 93.5467 16.7654 93.12 17.6188 93.12C18.4721 93.12 18.8988 93.5467 18.8988 94.4C18.8988 95.2533 18.4721 95.68 17.6188 95.68ZM14.4188 95.68C13.5654 95.68 13.1388 95.2533 13.1388 94.4C13.1388 93.5467 13.5654 93.12 14.4188 93.12C15.2721 93.12 15.6988 93.5467 15.6988 94.4C15.6988 95.2533 15.2721 95.68 14.4188 95.68ZM11.2188 95.68C10.3654 95.68 9.93875 95.2533 9.93875 94.4C9.93875 93.5467 10.3654 93.12 11.2188 93.12C12.0721 93.12 12.4988 93.5467 12.4988 94.4C12.4988 95.2533 12.0721 95.68 11.2188 95.68ZM8.01875 95.68C7.16542 95.68 6.73875 95.2533 6.73875 94.4C6.73875 93.5467 7.16542 93.12 8.01875 93.12C8.87208 93.12 9.29875 93.5467 9.29875 94.4C9.29875 95.2533 8.87208 95.68 8.01875 95.68ZM89.1388 95.52H86.8988V93.28H89.1388V95.52ZM85.9388 95.52H83.6988V93.28H85.9388V95.52ZM82.7388 95.52H80.4988V93.28H82.7388V95.52ZM79.5388 95.52H77.2988V93.28H79.5388V95.52ZM76.3388 95.52H74.0988V93.28H76.3388V95.52ZM73.1388 95.52H70.8988V93.28H73.1388V95.52ZM69.9388 95.52H67.6988V93.28H69.9388V95.52ZM66.7388 95.52H64.4988V93.28H66.7388V95.52ZM56.9788 95.36H55.0588V93.44H56.9788V95.36ZM53.7788 95.36H51.8588V93.44H53.7788V95.36ZM50.5788 95.36H48.6588V93.44H50.5788V95.36ZM62.4188 95.04C61.9921 95.04 61.7788 94.8267 61.7788 94.4C61.7788 93.9733 61.9921 93.76 62.4188 93.76C62.8454 93.76 63.0588 93.9733 63.0588 94.4C63.0588 94.8267 62.8454 95.04 62.4188 95.04ZM59.2188 95.04C58.7921 95.04 58.5788 94.8267 58.5788 94.4C58.5788 93.9733 58.7921 93.76 59.2188 93.76C59.6454 93.76 59.8588 93.9733 59.8588 94.4C59.8588 94.8267 59.6454 95.04 59.2188 95.04ZM40.0188 93.76L40.6588 95.04H39.3788L40.0188 93.76ZM36.8188 93.76L37.4587 95.04H36.1788L36.8188 93.76ZM46.4188 94.88C46.0988 94.88 45.9388 94.72 45.9388 94.4C45.9388 94.08 46.0988 93.92 46.4188 93.92C46.7388 93.92 46.8988 94.08 46.8988 94.4C46.8988 94.72 46.7388 94.88 46.4188 94.88ZM43.2188 94.88C42.8988 94.88 42.7388 94.72 42.7388 94.4C42.7388 94.08 42.8988 93.92 43.2188 93.92C43.5388 93.92 43.6988 94.08 43.6988 94.4C43.6988 94.72 43.5388 94.88 43.2188 94.88ZM91.2188 98.88L89.9388 97.6L91.2188 96.32L92.4988 97.6L91.2188 98.88ZM33.6188 98.72C32.8721 98.72 32.4988 98.3467 32.4988 97.6C32.4988 96.8533 32.8721 96.48 33.6188 96.48C34.3654 96.48 34.7388 96.8533 34.7388 97.6C34.7388 98.3467 34.3654 98.72 33.6188 98.72ZM30.4188 98.72C29.6721 98.72 29.2988 98.3467 29.2988 97.6C29.2988 96.8533 29.6721 96.48 30.4188 96.48C31.1654 96.48 31.5388 96.8533 31.5388 97.6C31.5388 98.3467 31.1654 98.72 30.4188 98.72ZM27.2188 98.72C26.4721 98.72 26.0988 98.3467 26.0988 97.6C26.0988 96.8533 26.4721 96.48 27.2188 96.48C27.9654 96.48 28.3388 96.8533 28.3388 97.6C28.3388 98.3467 27.9654 98.72 27.2188 98.72ZM24.0188 98.72C23.2721 98.72 22.8988 98.3467 22.8988 97.6C22.8988 96.8533 23.2721 96.48 24.0188 96.48C24.7654 96.48 25.1388 96.8533 25.1388 97.6C25.1388 98.3467 24.7654 98.72 24.0188 98.72ZM20.8188 98.72C20.0721 98.72 19.6988 98.3467 19.6988 97.6C19.6988 96.8533 20.0721 96.48 20.8188 96.48C21.5654 96.48 21.9388 96.8533 21.9388 97.6C21.9388 98.3467 21.5654 98.72 20.8188 98.72ZM17.6188 98.72C16.8721 98.72 16.4988 98.3467 16.4988 97.6C16.4988 96.8533 16.8721 96.48 17.6188 96.48C18.3654 96.48 18.7387 96.8533 18.7387 97.6C18.7387 98.3467 18.3654 98.72 17.6188 98.72ZM14.4188 98.72C13.6721 98.72 13.2988 98.3467 13.2988 97.6C13.2988 96.8533 13.6721 96.48 14.4188 96.48C15.1654 96.48 15.5388 96.8533 15.5388 97.6C15.5388 98.3467 15.1654 98.72 14.4188 98.72ZM11.2188 98.72C10.4721 98.72 10.0988 98.3467 10.0988 97.6C10.0988 96.8533 10.4721 96.48 11.2188 96.48C11.9654 96.48 12.3388 96.8533 12.3388 97.6C12.3388 98.3467 11.9654 98.72 11.2188 98.72ZM8.01875 98.72C7.27208 98.72 6.89875 98.3467 6.89875 97.6C6.89875 96.8533 7.27208 96.48 8.01875 96.48C8.76542 96.48 9.13875 96.8533 9.13875 97.6C9.13875 98.3467 8.76542 98.72 8.01875 98.72ZM88.9788 98.56H87.0588V96.64H88.9788V98.56ZM85.7788 98.56H83.8588V96.64H85.7788V98.56ZM82.5788 98.56H80.6588V96.64H82.5788V98.56ZM79.3788 98.56H77.4587V96.64H79.3788V98.56ZM76.1788 98.56H74.2588V96.64H76.1788V98.56ZM72.9788 98.56H71.0588V96.64H72.9788V98.56ZM69.7788 98.56H67.8588V96.64H69.7788V98.56ZM66.5788 98.56H64.6588V96.64H66.5788V98.56ZM56.9788 98.56H55.0588V96.64H56.9788V98.56ZM53.7788 98.56H51.8588V96.64H53.7788V98.56ZM50.5788 98.56H48.6588V96.64H50.5788V98.56ZM62.4188 98.24C61.9921 98.24 61.7788 98.0267 61.7788 97.6C61.7788 97.1733 61.9921 96.96 62.4188 96.96C62.8454 96.96 63.0588 97.1733 63.0588 97.6C63.0588 98.0267 62.8454 98.24 62.4188 98.24ZM59.2188 98.24C58.7921 98.24 58.5788 98.0267 58.5788 97.6C58.5788 97.1733 58.7921 96.96 59.2188 96.96C59.6454 96.96 59.8588 97.1733 59.8588 97.6C59.8588 98.0267 59.6454 98.24 59.2188 98.24ZM40.0188 96.96L40.6588 98.24H39.3788L40.0188 96.96ZM36.8188 96.96L37.4587 98.24H36.1788L36.8188 96.96ZM46.4188 98.08C46.0988 98.08 45.9388 97.92 45.9388 97.6C45.9388 97.28 46.0988 97.12 46.4188 97.12C46.7388 97.12 46.8988 97.28 46.8988 97.6C46.8988 97.92 46.7388 98.08 46.4188 98.08ZM43.2188 98.08C42.8988 98.08 42.7388 97.92 42.7388 97.6C42.7388 97.28 42.8988 97.12 43.2188 97.12C43.5388 97.12 43.6988 97.28 43.6988 97.6C43.6988 97.92 43.5388 98.08 43.2188 98.08ZM33.6188 101.92C32.8721 101.92 32.4988 101.547 32.4988 100.8C32.4988 100.053 32.8721 99.68 33.6188 99.68C34.3654 99.68 34.7388 100.053 34.7388 100.8C34.7388 101.547 34.3654 101.92 33.6188 101.92ZM30.4188 101.92C29.6721 101.92 29.2988 101.547 29.2988 100.8C29.2988 100.053 29.6721 99.68 30.4188 99.68C31.1654 99.68 31.5388 100.053 31.5388 100.8C31.5388 101.547 31.1654 101.92 30.4188 101.92ZM27.2188 101.92C26.4721 101.92 26.0988 101.547 26.0988 100.8C26.0988 100.053 26.4721 99.68 27.2188 99.68C27.9654 99.68 28.3388 100.053 28.3388 100.8C28.3388 101.547 27.9654 101.92 27.2188 101.92ZM24.0188 101.92C23.2721 101.92 22.8988 101.547 22.8988 100.8C22.8988 100.053 23.2721 99.68 24.0188 99.68C24.7654 99.68 25.1388 100.053 25.1388 100.8C25.1388 101.547 24.7654 101.92 24.0188 101.92ZM20.8188 101.92C20.0721 101.92 19.6988 101.547 19.6988 100.8C19.6988 100.053 20.0721 99.68 20.8188 99.68C21.5654 99.68 21.9388 100.053 21.9388 100.8C21.9388 101.547 21.5654 101.92 20.8188 101.92ZM17.6188 101.92C16.8721 101.92 16.4988 101.547 16.4988 100.8C16.4988 100.053 16.8721 99.68 17.6188 99.68C18.3654 99.68 18.7387 100.053 18.7387 100.8C18.7387 101.547 18.3654 101.92 17.6188 101.92ZM14.4188 101.92C13.6721 101.92 13.2988 101.547 13.2988 100.8C13.2988 100.053 13.6721 99.68 14.4188 99.68C15.1654 99.68 15.5388 100.053 15.5388 100.8C15.5388 101.547 15.1654 101.92 14.4188 101.92ZM11.2188 101.92C10.4721 101.92 10.0988 101.547 10.0988 100.8C10.0988 100.053 10.4721 99.68 11.2188 99.68C11.9654 99.68 12.3388 100.053 12.3388 100.8C12.3388 101.547 11.9654 101.92 11.2188 101.92ZM88.9788 101.76H87.0588V99.84H88.9788V101.76ZM85.7788 101.76H83.8588V99.84H85.7788V101.76ZM82.5788 101.76H80.6588V99.84H82.5788V101.76ZM79.3788 101.76H77.4587V99.84H79.3788V101.76ZM76.1788 101.76H74.2588V99.84H76.1788V101.76ZM72.9788 101.76H71.0588V99.84H72.9788V101.76ZM69.7788 101.76H67.8588V99.84H69.7788V101.76ZM66.5788 101.76H64.6588V99.84H66.5788V101.76ZM56.9788 101.76H55.0588V99.84H56.9788V101.76ZM53.7788 101.76H51.8588V99.84H53.7788V101.76ZM50.5788 101.76H48.6588V99.84H50.5788V101.76ZM62.4188 101.44C61.9921 101.44 61.7788 101.227 61.7788 100.8C61.7788 100.373 61.9921 100.16 62.4188 100.16C62.8454 100.16 63.0588 100.373 63.0588 100.8C63.0588 101.227 62.8454 101.44 62.4188 101.44ZM59.2188 101.44C58.7921 101.44 58.5788 101.227 58.5788 100.8C58.5788 100.373 58.7921 100.16 59.2188 100.16C59.6454 100.16 59.8588 100.373 59.8588 100.8C59.8588 101.227 59.6454 101.44 59.2188 101.44ZM40.0188 100.16L40.6588 101.44H39.3788L40.0188 100.16ZM36.8188 100.16L37.4587 101.44H36.1788L36.8188 100.16ZM46.4188 101.28C46.0988 101.28 45.9388 101.12 45.9388 100.8C45.9388 100.48 46.0988 100.32 46.4188 100.32C46.7388 100.32 46.8988 100.48 46.8988 100.8C46.8988 101.12 46.7388 101.28 46.4188 101.28ZM43.2188 101.28C42.8988 101.28 42.7388 101.12 42.7388 100.8C42.7388 100.48 42.8988 100.32 43.2188 100.32C43.5388 100.32 43.6988 100.48 43.6988 100.8C43.6988 101.12 43.5388 101.28 43.2188 101.28ZM33.6188 105.12C32.8721 105.12 32.4988 104.747 32.4988 104C32.4988 103.253 32.8721 102.88 33.6188 102.88C34.3654 102.88 34.7388 103.253 34.7388 104C34.7388 104.747 34.3654 105.12 33.6188 105.12ZM30.4188 105.12C29.6721 105.12 29.2988 104.747 29.2988 104C29.2988 103.253 29.6721 102.88 30.4188 102.88C31.1654 102.88 31.5388 103.253 31.5388 104C31.5388 104.747 31.1654 105.12 30.4188 105.12ZM27.2188 105.12C26.4721 105.12 26.0988 104.747 26.0988 104C26.0988 103.253 26.4721 102.88 27.2188 102.88C27.9654 102.88 28.3388 103.253 28.3388 104C28.3388 104.747 27.9654 105.12 27.2188 105.12ZM24.0188 105.12C23.2721 105.12 22.8988 104.747 22.8988 104C22.8988 103.253 23.2721 102.88 24.0188 102.88C24.7654 102.88 25.1388 103.253 25.1388 104C25.1388 104.747 24.7654 105.12 24.0188 105.12ZM20.8188 105.12C20.0721 105.12 19.6988 104.747 19.6988 104C19.6988 103.253 20.0721 102.88 20.8188 102.88C21.5654 102.88 21.9388 103.253 21.9388 104C21.9388 104.747 21.5654 105.12 20.8188 105.12ZM17.6188 105.12C16.8721 105.12 16.4988 104.747 16.4988 104C16.4988 103.253 16.8721 102.88 17.6188 102.88C18.3654 102.88 18.7387 103.253 18.7387 104C18.7387 104.747 18.3654 105.12 17.6188 105.12ZM85.7788 104.96H83.8588V103.04H85.7788V104.96ZM82.5788 104.96H80.6588V103.04H82.5788V104.96ZM79.3788 104.96H77.4587V103.04H79.3788V104.96ZM76.1788 104.96H74.2588V103.04H76.1788V104.96ZM72.9788 104.96H71.0588V103.04H72.9788V104.96ZM69.7788 104.96H67.8588V103.04H69.7788V104.96ZM66.5788 104.96H64.6588V103.04H66.5788V104.96ZM56.9788 104.96H55.0588V103.04H56.9788V104.96ZM53.7788 104.96H51.8588V103.04H53.7788V104.96ZM50.5788 104.96H48.6588V103.04H50.5788V104.96ZM62.4188 104.64C61.9921 104.64 61.7788 104.427 61.7788 104C61.7788 103.573 61.9921 103.36 62.4188 103.36C62.8454 103.36 63.0588 103.573 63.0588 104C63.0588 104.427 62.8454 104.64 62.4188 104.64ZM59.2188 104.64C58.7921 104.64 58.5788 104.427 58.5788 104C58.5788 103.573 58.7921 103.36 59.2188 103.36C59.6454 103.36 59.8588 103.573 59.8588 104C59.8588 104.427 59.6454 104.64 59.2188 104.64ZM40.0188 103.36L40.6588 104.64H39.3788L40.0188 103.36ZM36.8188 103.36L37.4587 104.64H36.1788L36.8188 103.36ZM46.4188 104.48C46.0988 104.48 45.9388 104.32 45.9388 104C45.9388 103.68 46.0988 103.52 46.4188 103.52C46.7388 103.52 46.8988 103.68 46.8988 104C46.8988 104.32 46.7388 104.48 46.4188 104.48ZM43.2188 104.48C42.8988 104.48 42.7388 104.32 42.7388 104C42.7388 103.68 42.8988 103.52 43.2188 103.52C43.5388 103.52 43.6988 103.68 43.6988 104C43.6988 104.32 43.5388 104.48 43.2188 104.48ZM33.6188 108.32C32.8721 108.32 32.4988 107.947 32.4988 107.2C32.4988 106.453 32.8721 106.08 33.6188 106.08C34.3654 106.08 34.7388 106.453 34.7388 107.2C34.7388 107.947 34.3654 108.32 33.6188 108.32ZM30.4188 108.32C29.6721 108.32 29.2988 107.947 29.2988 107.2C29.2988 106.453 29.6721 106.08 30.4188 106.08C31.1654 106.08 31.5388 106.453 31.5388 107.2C31.5388 107.947 31.1654 108.32 30.4188 108.32ZM27.2188 108.32C26.4721 108.32 26.0988 107.947 26.0988 107.2C26.0988 106.453 26.4721 106.08 27.2188 106.08C27.9654 106.08 28.3388 106.453 28.3388 107.2C28.3388 107.947 27.9654 108.32 27.2188 108.32ZM24.0188 108.32C23.2721 108.32 22.8988 107.947 22.8988 107.2C22.8988 106.453 23.2721 106.08 24.0188 106.08C24.7654 106.08 25.1388 106.453 25.1388 107.2C25.1388 107.947 24.7654 108.32 24.0188 108.32ZM79.3788 108.16H77.4587V106.24H79.3788V108.16ZM76.1788 108.16H74.2588V106.24H76.1788V108.16ZM72.9788 108.16H71.0588V106.24H72.9788V108.16ZM69.7788 108.16H67.8588V106.24H69.7788V108.16ZM66.5788 108.16H64.6588V106.24H66.5788V108.16ZM56.8188 108H55.2188V106.4H56.8188V108ZM53.6188 108H52.0188V106.4H53.6188V108ZM50.4188 108H48.8188V106.4H50.4188V108ZM62.4188 107.68C62.0988 107.68 61.9388 107.52 61.9388 107.2C61.9388 106.88 62.0988 106.72 62.4188 106.72C62.7388 106.72 62.8988 106.88 62.8988 107.2C62.8988 107.52 62.7388 107.68 62.4188 107.68ZM59.2188 107.68C58.8988 107.68 58.7388 107.52 58.7388 107.2C58.7388 106.88 58.8988 106.72 59.2188 106.72C59.5388 106.72 59.6988 106.88 59.6988 107.2C59.6988 107.52 59.5388 107.68 59.2188 107.68ZM40.0188 106.72L40.4988 107.68H39.5388L40.0188 106.72ZM36.8188 106.72L37.2988 107.68H36.3387L36.8188 106.72ZM46.4188 107.52C46.2054 107.52 46.0988 107.413 46.0988 107.2C46.0988 106.987 46.2054 106.88 46.4188 106.88C46.6321 106.88 46.7388 106.987 46.7388 107.2C46.7388 107.413 46.6321 107.52 46.4188 107.52ZM43.2188 107.52C43.0054 107.52 42.8988 107.413 42.8988 107.2C42.8988 106.987 43.0054 106.88 43.2188 106.88C43.4321 106.88 43.5388 106.987 43.5388 107.2C43.5388 107.413 43.4321 107.52 43.2188 107.52ZM33.6188 111.52C32.8721 111.52 32.4988 111.147 32.4988 110.4C32.4988 109.653 32.8721 109.28 33.6188 109.28C34.3654 109.28 34.7388 109.653 34.7388 110.4C34.7388 111.147 34.3654 111.52 33.6188 111.52ZM30.4188 111.52C29.6721 111.52 29.2988 111.147 29.2988 110.4C29.2988 109.653 29.6721 109.28 30.4188 109.28C31.1654 109.28 31.5388 109.653 31.5388 110.4C31.5388 111.147 31.1654 111.52 30.4188 111.52ZM69.7788 111.36H67.8588V109.44H69.7788V111.36ZM66.5788 111.36H64.6588V109.44H66.5788V111.36ZM56.8188 111.2H55.2188V109.6H56.8188V111.2ZM53.6188 111.2H52.0188V109.6H53.6188V111.2ZM50.4188 111.2H48.8188V109.6H50.4188V111.2ZM62.4188 110.88C62.0988 110.88 61.9388 110.72 61.9388 110.4C61.9388 110.08 62.0988 109.92 62.4188 109.92C62.7388 109.92 62.8988 110.08 62.8988 110.4C62.8988 110.72 62.7388 110.88 62.4188 110.88ZM59.2188 110.88C58.8988 110.88 58.7388 110.72 58.7388 110.4C58.7388 110.08 58.8988 109.92 59.2188 109.92C59.5388 109.92 59.6988 110.08 59.6988 110.4C59.6988 110.72 59.5388 110.88 59.2188 110.88ZM40.0188 109.92L40.4988 110.88H39.5388L40.0188 109.92ZM36.8188 109.92L37.2988 110.88H36.3387L36.8188 109.92ZM46.4188 110.72C46.2054 110.72 46.0988 110.613 46.0988 110.4C46.0988 110.187 46.2054 110.08 46.4188 110.08C46.6321 110.08 46.7388 110.187 46.7388 110.4C46.7388 110.613 46.6321 110.72 46.4188 110.72ZM43.2188 110.72C43.0054 110.72 42.8988 110.613 42.8988 110.4C42.8988 110.187 43.0054 110.08 43.2188 110.08C43.4321 110.08 43.5388 110.187 43.5388 110.4C43.5388 110.613 43.4321 110.72 43.2188 110.72Z" fill="url(#paint0_linear_4278_2673)"/>
<defs>
<linearGradient id="paint0_linear_4278_2673" x1="50.5" y1="-23" x2="50.5" y2="137" gradientUnits="userSpaceOnUse">
<stop stop-color="#F7E7FF"/>
<stop offset="1" stop-color="#EBC7FF"/>
</linearGradient>
</defs>
</svg>
