<svg width="74" height="18" viewBox="0 0 74 18" fill="none" xmlns="http://www.w3.org/2000/svg">
<path d="M74 9L59 0.339746V17.6603L74 9ZM6 9V10.5C6.05622 10.5 6.11234 10.5 6.16837 10.5C6.2244 10.5 6.28033 10.5 6.33618 10.5C6.39202 10.5 6.44777 10.5 6.50343 10.5C6.55909 10.5 6.61466 10.5 6.67014 10.5C6.72562 10.5 6.781 10.5 6.83629 10.5C6.89159 10.5 6.94679 10.5 7.0019 10.5C7.05701 10.5 7.11203 10.5 7.16696 10.5C7.22189 10.5 7.27673 10.5 7.33147 10.5C7.38622 10.5 7.44088 10.5 7.49545 10.5C7.55001 10.5 7.60449 10.5 7.65888 10.5C7.71326 10.5 7.76756 10.5 7.82177 10.5C7.87598 10.5 7.93009 10.5 7.98412 10.5C8.03815 10.5 8.09209 10.5 8.14594 10.5C8.19979 10.5 8.25355 10.5 8.30723 10.5C8.3609 10.5 8.41448 10.5 8.46798 10.5C8.52147 10.5 8.57488 10.5 8.6282 10.5C8.68152 10.5 8.73475 10.5 8.7879 10.5C8.84104 10.5 8.8941 10.5 8.94706 10.5C9.00003 10.5 9.05291 10.5 9.10571 10.5C9.1585 10.5 9.21121 10.5 9.26383 10.5C9.31645 10.5 9.36898 10.5 9.42143 10.5C9.47388 10.5 9.52624 10.5 9.57851 10.5C9.63079 10.5 9.68297 10.5 9.73508 10.5C9.78718 10.5 9.8392 10.5 9.89113 10.5C9.94306 10.5 9.9949 10.5 10.0467 10.5C10.0984 10.5 10.1501 10.5 10.2017 10.5C10.2533 10.5 10.3048 10.5 10.3562 10.5C10.4076 10.5 10.459 10.5 10.5102 10.5C10.5615 10.5 10.6126 10.5 10.6637 10.5C10.7148 10.5 10.7658 10.5 10.8167 10.5C10.8676 10.5 10.9185 10.5 10.9692 10.5C11.0199 10.5 11.0706 10.5 11.1212 10.5C11.1718 10.5 11.2223 10.5 11.2727 10.5C11.3231 10.5 11.3734 10.5 11.4237 10.5C11.4739 10.5 11.5241 10.5 11.5742 10.5C11.6243 10.5 11.6743 10.5 11.7242 10.5C11.7741 10.5 11.824 10.5 11.8737 10.5C11.9235 10.5 11.9732 10.5 12.0227 10.5C12.0723 10.5 12.1219 10.5 12.1713 10.5C12.2207 10.5 12.2701 10.5 12.3193 10.5C12.3686 10.5 12.4178 10.5 12.4669 10.5C12.516 10.5 12.5651 10.5 12.614 10.5C12.663 10.5 12.7118 10.5 12.7606 10.5C12.8094 10.5 12.8581 10.5 12.9067 10.5C12.9554 10.5 13.0039 10.5 13.0524 10.5C13.1009 10.5 13.1493 10.5 13.1976 10.5C13.2459 10.5 13.2941 10.5 13.3423 10.5C13.3904 10.5 13.4385 10.5 13.4865 10.5C13.5345 10.5 13.5824 10.5 13.6303 10.5C13.6781 10.5 13.7259 10.5 13.7736 10.5C13.8213 10.5 13.8689 10.5 13.9164 10.5C13.964 10.5 14.0114 10.5 14.0588 10.5C14.1062 10.5 14.1535 10.5 14.2007 10.5C14.2479 10.5 14.2951 10.5 14.3422 10.5C14.3892 10.5 14.4362 10.5 14.4831 10.5C14.5301 10.5 14.5769 10.5 14.6237 10.5C14.6705 10.5 14.7171 10.5 14.7638 10.5C14.8104 10.5 14.8569 10.5 14.9034 10.5C14.9499 10.5 14.9963 10.5 15.0426 10.5C15.0889 10.5 15.1351 10.5 15.1813 10.5C15.2275 10.5 15.2736 10.5 15.3196 10.5C15.3656 10.5 15.4115 10.5 15.4574 10.5C15.5033 10.5 15.5491 10.5 15.5948 10.5C15.6405 10.5 15.6862 10.5 15.7318 10.5C15.7773 10.5 15.8228 10.5 15.8683 10.5C15.9137 10.5 15.9591 10.5 16.0043 10.5C16.0496 10.5 16.0948 10.5 16.14 10.5C16.1851 10.5 16.2302 10.5 16.2752 10.5C16.3202 10.5 16.3651 10.5 16.41 10.5C16.4548 10.5 16.4996 10.5 16.5443 10.5C16.589 10.5 16.6336 10.5 16.6782 10.5C16.7228 10.5 16.7673 10.5 16.8117 10.5C16.8561 10.5 16.9005 10.5 16.9448 10.5C16.989 10.5 17.0332 10.5 17.0774 10.5C17.1215 10.5 17.1656 10.5 17.2096 10.5C17.2536 10.5 17.2975 10.5 17.3414 10.5C17.3853 10.5 17.4291 10.5 17.4728 10.5C17.5165 10.5 17.5602 10.5 17.6037 10.5C17.6473 10.5 17.6909 10.5 17.7343 10.5C17.7777 10.5 17.8211 10.5 17.8644 10.5C17.9077 10.5 17.951 10.5 17.9942 10.5C18.0373 10.5 18.0804 10.5 18.1235 10.5C18.1665 10.5 18.2095 10.5 18.2524 10.5C18.2953 10.5 18.3381 10.5 18.3809 10.5C18.4237 10.5 18.4664 10.5 18.509 10.5C18.5516 10.5 18.5942 10.5 18.6367 10.5C18.6792 10.5 18.7217 10.5 18.764 10.5C18.8064 10.5 18.8487 10.5 18.8909 10.5C18.9332 10.5 18.9753 10.5 19.0174 10.5C19.0595 10.5 19.1016 10.5 19.1436 10.5C19.1855 10.5 19.2274 10.5 19.2693 10.5C19.3111 10.5 19.3529 10.5 19.3946 10.5C19.4363 10.5 19.478 10.5 19.5196 10.5C19.5612 10.5 19.6027 10.5 19.6441 10.5C19.6856 10.5 19.727 10.5 19.7683 10.5C19.8097 10.5 19.8509 10.5 19.8921 10.5C19.9333 10.5 19.9745 10.5 20.0155 10.5C20.0566 10.5 20.0976 10.5 20.1386 10.5C20.1795 10.5 20.2204 10.5 20.2612 10.5C20.3021 10.5 20.3428 10.5 20.3835 10.5C20.4242 10.5 20.4649 10.5 20.5054 10.5C20.546 10.5 20.5865 10.5 20.627 10.5C20.6674 10.5 20.7078 10.5 20.7481 10.5C20.7885 10.5 20.8287 10.5 20.8689 10.5C20.9092 10.5 20.9493 10.5 20.9894 10.5C21.0295 10.5 21.0695 10.5 21.1095 10.5C21.1494 10.5 21.1893 10.5 21.2292 10.5C21.269 10.5 21.3088 10.5 21.3485 10.5C21.3882 10.5 21.4279 10.5 21.4675 10.5C21.5071 10.5 21.5467 10.5 21.5862 10.5C21.6256 10.5 21.6651 10.5 21.7044 10.5C21.7438 10.5 21.7831 10.5 21.8224 10.5C21.8616 10.5 21.9008 10.5 21.9399 10.5C21.9791 10.5 22.0181 10.5 22.0572 10.5C22.0962 10.5 22.1351 10.5 22.174 10.5C22.2129 10.5 22.2518 10.5 22.2906 10.5C22.3294 10.5 22.3681 10.5 22.4068 10.5C22.4454 10.5 22.4841 10.5 22.5226 10.5C22.5612 10.5 22.5997 10.5 22.6381 10.5C22.6766 10.5 22.715 10.5 22.7533 10.5C22.7916 10.5 22.8299 10.5 22.8681 10.5C22.9064 10.5 22.9445 10.5 22.9826 10.5C23.0207 10.5 23.0588 10.5 23.0968 10.5C23.1348 10.5 23.1727 10.5 23.2106 10.5C23.2485 10.5 23.2864 10.5 23.3241 10.5C23.3619 10.5 23.3997 10.5 23.4373 10.5C23.475 10.5 23.5126 10.5 23.5502 10.5C23.5877 10.5 23.6253 10.5 23.6627 10.5C23.7002 10.5 23.7376 10.5 23.7749 10.5C23.8123 10.5 23.8496 10.5 23.8868 10.5C23.9241 10.5 23.9612 10.5 23.9984 10.5C24.0355 10.5 24.0726 10.5 24.1096 10.5C24.1467 10.5 24.1837 10.5 24.2206 10.5C24.2575 10.5 24.2944 10.5 24.3312 10.5C24.368 10.5 24.4048 10.5 24.4415 10.5C24.4782 10.5 24.5149 10.5 24.5515 10.5C24.5882 10.5 24.6247 10.5 24.6612 10.5C24.6978 10.5 24.7342 10.5 24.7706 10.5C24.8071 10.5 24.8434 10.5 24.8797 10.5C24.916 10.5 24.9523 10.5 24.9885 10.5C25.0247 10.5 25.0609 10.5 25.097 10.5C25.1331 10.5 25.1692 10.5 25.2052 10.5C25.2412 10.5 25.2772 10.5 25.3131 10.5C25.349 10.5 25.3849 10.5 25.4207 10.5C25.4565 10.5 25.4923 10.5 25.528 10.5C25.5638 10.5 25.5994 10.5 25.6351 10.5C25.6707 10.5 25.7063 10.5 25.7418 10.5C25.7773 10.5 25.8128 10.5 25.8482 10.5C25.8837 10.5 25.9191 10.5 25.9544 10.5C25.9898 10.5 26.025 10.5 26.0603 10.5C26.0955 10.5 26.1307 10.5 26.1659 10.5C26.201 10.5 26.2362 10.5 26.2712 10.5C26.3063 10.5 26.3413 10.5 26.3763 10.5C26.4112 10.5 26.4461 10.5 26.481 10.5C26.5159 10.5 26.5507 10.5 26.5855 10.5C26.6203 10.5 26.655 10.5 26.6897 10.5C26.7244 10.5 26.7591 10.5 26.7937 10.5C26.8283 10.5 26.8629 10.5 26.8974 10.5C26.9319 10.5 26.9664 10.5 27.0008 10.5C27.0352 10.5 27.0696 10.5 27.104 10.5C27.1383 10.5 27.1726 10.5 27.2068 10.5C27.2411 10.5 27.2753 10.5 27.3095 10.5C27.3436 10.5 27.3778 10.5 27.4118 10.5C27.4459 10.5 27.48 10.5 27.514 10.5C27.548 10.5 27.5819 10.5 27.6158 10.5C27.6497 10.5 27.6836 10.5 27.7174 10.5C27.7513 10.5 27.785 10.5 27.8188 10.5C27.8525 10.5 27.8862 10.5 27.9199 10.5C27.9535 10.5 27.9872 10.5 28.0207 10.5C28.0543 10.5 28.0879 10.5 28.1214 10.5C28.1548 10.5 28.1883 10.5 28.2217 10.5C28.2551 10.5 28.2885 10.5 28.3218 10.5C28.3552 10.5 28.3885 10.5 28.4217 10.5C28.455 10.5 28.4882 10.5 28.5214 10.5C28.5545 10.5 28.5877 10.5 28.6208 10.5C28.6539 10.5 28.6869 10.5 28.72 10.5C28.753 10.5 28.786 10.5 28.8189 10.5C28.8518 10.5 28.8847 10.5 28.9176 10.5C28.9505 10.5 28.9833 10.5 29.0161 10.5C29.0489 10.5 29.0816 10.5 29.1143 10.5C29.147 10.5 29.1797 10.5 29.2124 10.5C29.245 10.5 29.2776 10.5 29.3102 10.5C29.3427 10.5 29.3753 10.5 29.4077 10.5C29.4402 10.5 29.4727 10.5 29.5051 10.5C29.5375 10.5 29.5699 10.5 29.6022 10.5C29.6346 10.5 29.6669 10.5 29.6992 10.5C29.7314 10.5 29.7637 10.5 29.7959 10.5C29.8281 10.5 29.8602 10.5 29.8924 10.5C29.9245 10.5 29.9566 10.5 29.9887 10.5C30.0207 10.5 30.0527 10.5 30.0847 10.5C30.1167 10.5 30.1487 10.5 30.1806 10.5C30.2125 10.5 30.2444 10.5 30.2763 10.5C30.3081 10.5 30.34 10.5 30.3717 10.5C30.4035 10.5 30.4353 10.5 30.467 10.5C30.4987 10.5 30.5304 10.5 30.5621 10.5C30.5937 10.5 30.6253 10.5 30.6569 10.5C30.6885 10.5 30.7201 10.5 30.7516 10.5C30.7831 10.5 30.8146 10.5 30.8461 10.5C30.8775 10.5 30.9089 10.5 30.9403 10.5C30.9717 10.5 31.0031 10.5 31.0344 10.5C31.0658 10.5 31.097 10.5 31.1283 10.5C31.1596 10.5 31.1908 10.5 31.222 10.5C31.2532 10.5 31.2844 10.5 31.3156 10.5C31.3467 10.5 31.3778 10.5 31.4089 10.5C31.44 10.5 31.471 10.5 31.5021 10.5C31.5331 10.5 31.5641 10.5 31.595 10.5C31.626 10.5 31.6569 10.5 31.6878 10.5C31.7188 10.5 31.7496 10.5 31.7805 10.5C31.8113 10.5 31.8421 10.5 31.8729 10.5C31.9037 10.5 31.9345 10.5 31.9652 10.5C31.9959 10.5 32.0266 10.5 32.0573 10.5C32.088 10.5 32.1186 10.5 32.1493 10.5C32.1799 10.5 32.2105 10.5 32.241 10.5C32.2716 10.5 32.3021 10.5 32.3327 10.5C32.3632 10.5 32.3936 10.5 32.4241 10.5C32.4546 10.5 32.485 10.5 32.5154 10.5C32.5458 10.5 32.5762 10.5 32.6065 10.5C32.6369 10.5 32.6672 10.5 32.6975 10.5C32.7278 10.5 32.7581 10.5 32.7883 10.5C32.8186 10.5 32.8488 10.5 32.879 10.5C32.9092 10.5 32.9393 10.5 32.9695 10.5C32.9996 10.5 33.0297 10.5 33.0598 10.5C33.0899 10.5 33.12 10.5 33.15 10.5C33.1801 10.5 33.2101 10.5 33.2401 10.5C33.2701 10.5 33.3001 10.5 33.33 10.5C33.36 10.5 33.3899 10.5 33.4198 10.5C33.4497 10.5 33.4796 10.5 33.5094 10.5C33.5393 10.5 33.5691 10.5 33.5989 10.5C33.6287 10.5 33.6585 10.5 33.6883 10.5C33.7181 10.5 33.7478 10.5 33.7775 10.5C33.8072 10.5 33.8369 10.5 33.8666 10.5C33.8963 10.5 33.9259 10.5 33.9556 10.5C33.9852 10.5 34.0148 10.5 34.0444 10.5C34.074 10.5 34.1036 10.5 34.1331 10.5C34.1626 10.5 34.1922 10.5 34.2217 10.5C34.2512 10.5 34.2807 10.5 34.3101 10.5C34.3396 10.5 34.369 10.5 34.3985 10.5C34.4279 10.5 34.4573 10.5 34.4867 10.5C34.516 10.5 34.5454 10.5 34.5747 10.5C34.6041 10.5 34.6334 10.5 34.6627 10.5C34.692 10.5 34.7213 10.5 34.7506 10.5C34.7798 10.5 34.8091 10.5 34.8383 10.5C34.8676 10.5 34.8968 10.5 34.926 10.5C34.9551 10.5 34.9843 10.5 35.0135 10.5C35.0426 10.5 35.0718 10.5 35.1009 10.5C35.13 10.5 35.1591 10.5 35.1882 10.5C35.2173 10.5 35.2464 10.5 35.2754 10.5C35.3045 10.5 35.3335 10.5 35.3625 10.5C35.3915 10.5 35.4205 10.5 35.4495 10.5C35.4785 10.5 35.5075 10.5 35.5364 10.5C35.5654 10.5 35.5943 10.5 35.6232 10.5C35.6521 10.5 35.681 10.5 35.7099 10.5C35.7388 10.5 35.7677 10.5 35.7966 10.5C35.8254 10.5 35.8543 10.5 35.8831 10.5C35.9119 10.5 35.9407 10.5 35.9695 10.5C35.9983 10.5 36.0271 10.5 36.0559 10.5C36.0846 10.5 36.1134 10.5 36.1421 10.5C36.1709 10.5 36.1996 10.5 36.2283 10.5C36.257 10.5 36.2857 10.5 36.3144 10.5C36.3431 10.5 36.3718 10.5 36.4004 10.5C36.4291 10.5 36.4578 10.5 36.4864 10.5C36.515 10.5 36.5436 10.5 36.5723 10.5C36.6009 10.5 36.6295 10.5 36.658 10.5C36.6866 10.5 36.7152 10.5 36.7438 10.5C36.7723 10.5 36.8009 10.5 36.8294 10.5C36.8579 10.5 36.8865 10.5 36.915 10.5C36.9435 10.5 36.972 10.5 37.0005 10.5C37.029 10.5 37.0575 10.5 37.0859 10.5C37.1144 10.5 37.1429 10.5 37.1713 10.5C37.1998 10.5 37.2282 10.5 37.2566 10.5C37.2851 10.5 37.3135 10.5 37.3419 10.5C37.3703 10.5 37.3987 10.5 37.4271 10.5C37.4555 10.5 37.4839 10.5 37.5123 10.5C37.5406 10.5 37.569 10.5 37.5974 10.5C37.6257 10.5 37.6541 10.5 37.6824 10.5C37.7107 10.5 37.7391 10.5 37.7674 10.5C37.7957 10.5 37.824 10.5 37.8523 10.5C37.8806 10.5 37.9089 10.5 37.9372 10.5C37.9655 10.5 37.9938 10.5 38.0221 10.5C38.0504 10.5 38.0786 10.5 38.1069 10.5C38.1351 10.5 38.1634 10.5 38.1916 10.5C38.2199 10.5 38.2481 10.5 38.2764 10.5C38.3046 10.5 38.3328 10.5 38.3611 10.5C38.3893 10.5 38.4175 10.5 38.4457 10.5C38.4739 10.5 38.5021 10.5 38.5303 10.5C38.5585 10.5 38.5867 10.5 38.6149 10.5C38.6431 10.5 38.6713 10.5 38.6995 10.5C38.7277 10.5 38.7558 10.5 38.784 10.5C38.8122 10.5 38.8403 10.5 38.8685 10.5C38.8967 10.5 38.9248 10.5 38.953 10.5C38.9811 10.5 39.0093 10.5 39.0374 10.5C39.0656 10.5 39.0937 10.5 39.1219 10.5C39.15 10.5 39.1781 10.5 39.2063 10.5C39.2344 10.5 39.2625 10.5 39.2907 10.5C39.3188 10.5 39.3469 10.5 39.3751 10.5C39.4032 10.5 39.4313 10.5 39.4594 10.5C39.4875 10.5 39.5157 10.5 39.5438 10.5C39.5719 10.5 39.6 10.5 39.6281 10.5C39.6562 10.5 39.6843 10.5 39.7125 10.5C39.7406 10.5 39.7687 10.5 39.7968 10.5C39.8249 10.5 39.853 10.5 39.8811 10.5C39.9092 10.5 39.9373 10.5 39.9654 10.5C39.9935 10.5 40.0217 10.5 40.0498 10.5C40.0779 10.5 40.106 10.5 40.1341 10.5C40.1622 10.5 40.1903 10.5 40.2184 10.5C40.2465 10.5 40.2746 10.5 40.3027 10.5C40.3309 10.5 40.359 10.5 40.3871 10.5C40.4152 10.5 40.4433 10.5 40.4714 10.5C40.4995 10.5 40.5277 10.5 40.5558 10.5C40.5839 10.5 40.612 10.5 40.6402 10.5C40.6683 10.5 40.6964 10.5 40.7245 10.5C40.7527 10.5 40.7808 10.5 40.8089 10.5C40.8371 10.5 40.8652 10.5 40.8934 10.5C40.9215 10.5 40.9496 10.5 40.9778 10.5C41.0059 10.5 41.0341 10.5 41.0622 10.5C41.0904 10.5 41.1186 10.5 41.1467 10.5C41.1749 10.5 41.2031 10.5 41.2312 10.5C41.2594 10.5 41.2876 10.5 41.3158 10.5C41.3439 10.5 41.3721 10.5 41.4003 10.5C41.4285 10.5 41.4567 10.5 41.4849 10.5C41.5131 10.5 41.5413 10.5 41.5695 10.5C41.5978 10.5 41.626 10.5 41.6542 10.5C41.6824 10.5 41.7107 10.5 41.7389 10.5C41.7671 10.5 41.7954 10.5 41.8236 10.5C41.8519 10.5 41.8801 10.5 41.9084 10.5C41.9367 10.5 41.9649 10.5 41.9932 10.5C42.0215 10.5 42.0498 10.5 42.0781 10.5C42.1064 10.5 42.1347 10.5 42.163 10.5C42.1913 10.5 42.2196 10.5 42.2479 10.5C42.2763 10.5 42.3046 10.5 42.3329 10.5C42.3613 10.5 42.3896 10.5 42.418 10.5C42.4463 10.5 42.4747 10.5 42.5031 10.5C42.5315 10.5 42.5598 10.5 42.5882 10.5C42.6166 10.5 42.645 10.5 42.6735 10.5C42.7019 10.5 42.7303 10.5 42.7587 10.5C42.7872 10.5 42.8156 10.5 42.8441 10.5C42.8725 10.5 42.901 10.5 42.9295 10.5C42.9579 10.5 42.9864 10.5 43.0149 10.5C43.0434 10.5 43.0719 10.5 43.1004 10.5C43.129 10.5 43.1575 10.5 43.186 10.5C43.2146 10.5 43.2431 10.5 43.2717 10.5C43.3002 10.5 43.3288 10.5 43.3574 10.5C43.386 10.5 43.4146 10.5 43.4432 10.5C43.4718 10.5 43.5005 10.5 43.5291 10.5C43.5577 10.5 43.5864 10.5 43.6151 10.5C43.6437 10.5 43.6724 10.5 43.7011 10.5C43.7298 10.5 43.7585 10.5 43.7872 10.5C43.8159 10.5 43.8447 10.5 43.8734 10.5C43.9021 10.5 43.9309 10.5 43.9597 10.5C43.9885 10.5 44.0172 10.5 44.0461 10.5C44.0749 10.5 44.1037 10.5 44.1325 10.5C44.1613 10.5 44.1902 10.5 44.2191 10.5C44.2479 10.5 44.2768 10.5 44.3057 10.5C44.3346 10.5 44.3635 10.5 44.3924 10.5C44.4213 10.5 44.4503 10.5 44.4792 10.5C44.5082 10.5 44.5372 10.5 44.5662 10.5C44.5952 10.5 44.6242 10.5 44.6532 10.5C44.6822 10.5 44.7112 10.5 44.7403 10.5C44.7694 10.5 44.7984 10.5 44.8275 10.5C44.8566 10.5 44.8857 10.5 44.9149 10.5C44.944 10.5 44.9731 10.5 45.0023 10.5C45.0315 10.5 45.0606 10.5 45.0898 10.5C45.119 10.5 45.1482 10.5 45.1775 10.5C45.2067 10.5 45.236 10.5 45.2652 10.5C45.2945 10.5 45.3238 10.5 45.3531 10.5C45.3824 10.5 45.4118 10.5 45.4411 10.5C45.4705 10.5 45.4998 10.5 45.5292 10.5C45.5586 10.5 45.588 10.5 45.6175 10.5C45.6469 10.5 45.6763 10.5 45.7058 10.5C45.7353 10.5 45.7648 10.5 45.7943 10.5C45.8238 10.5 45.8533 10.5 45.8829 10.5C45.9124 10.5 45.942 10.5 45.9716 10.5C46.0012 10.5 46.0308 10.5 46.0605 10.5C46.0901 10.5 46.1198 10.5 46.1494 10.5C46.1791 10.5 46.2088 10.5 46.2386 10.5C46.2683 10.5 46.298 10.5 46.3278 10.5C46.3576 10.5 46.3874 10.5 46.4172 10.5C46.447 10.5 46.4768 10.5 46.5067 10.5C46.5366 10.5 46.5665 10.5 46.5964 10.5C46.6263 10.5 46.6562 10.5 46.6862 10.5C46.7161 10.5 46.7461 10.5 46.7761 10.5C46.8061 10.5 46.8362 10.5 46.8662 10.5C46.8963 10.5 46.9263 10.5 46.9564 10.5C46.9865 10.5 47.0167 10.5 47.0468 10.5C47.077 10.5 47.1072 10.5 47.1374 10.5C47.1676 10.5 47.1978 10.5 47.2281 10.5C47.2583 10.5 47.2886 10.5 47.3189 10.5C47.3492 10.5 47.3795 10.5 47.4099 10.5C47.4403 10.5 47.4706 10.5 47.501 10.5C47.5315 10.5 47.5619 10.5 47.5924 10.5C47.6228 10.5 47.6533 10.5 47.6838 10.5C47.7144 10.5 47.7449 10.5 47.7755 10.5C47.8061 10.5 47.8367 10.5 47.8673 10.5C47.8979 10.5 47.9286 10.5 47.9593 10.5C47.99 10.5 48.0207 10.5 48.0514 10.5C48.0821 10.5 48.1129 10.5 48.1437 10.5C48.1745 10.5 48.2053 10.5 48.2362 10.5C48.2671 10.5 48.298 10.5 48.3289 10.5C48.3598 10.5 48.3907 10.5 48.4217 10.5C48.4527 10.5 48.4837 10.5 48.5147 10.5C48.5457 10.5 48.5768 10.5 48.6079 10.5C48.639 10.5 48.6701 10.5 48.7013 10.5C48.7324 10.5 48.7636 10.5 48.7948 10.5C48.8261 10.5 48.8573 10.5 48.8886 10.5C48.9199 10.5 48.9512 10.5 48.9825 10.5C49.0139 10.5 49.0452 10.5 49.0766 10.5C49.1081 10.5 49.1395 10.5 49.171 10.5C49.2024 10.5 49.2339 10.5 49.2655 10.5C49.297 10.5 49.3286 10.5 49.3602 10.5C49.3918 10.5 49.4234 10.5 49.4551 10.5C49.4867 10.5 49.5184 10.5 49.5502 10.5C49.5819 10.5 49.6137 10.5 49.6455 10.5C49.6772 10.5 49.7091 10.5 49.741 10.5C49.7728 10.5 49.8047 10.5 49.8367 10.5C49.8686 10.5 49.9006 10.5 49.9326 10.5C49.9646 10.5 49.9966 10.5 50.0287 10.5C50.0607 10.5 50.0929 10.5 50.125 10.5C50.1571 10.5 50.1893 10.5 50.2215 10.5C50.2537 10.5 50.286 10.5 50.3183 10.5C50.3506 10.5 50.3829 10.5 50.4152 10.5C50.4476 10.5 50.48 10.5 50.5124 10.5C50.5449 10.5 50.5773 10.5 50.6098 10.5C50.6423 10.5 50.6749 10.5 50.7075 10.5C50.74 10.5 50.7726 10.5 50.8053 10.5C50.8379 10.5 50.8706 10.5 50.9034 10.5C50.9361 10.5 50.9688 10.5 51.0017 10.5C51.0345 10.5 51.0673 10.5 51.1002 10.5C51.133 10.5 51.166 10.5 51.1989 10.5C51.2319 10.5 51.2649 10.5 51.2979 10.5C51.3309 10.5 51.364 10.5 51.3971 10.5C51.4302 10.5 51.4634 10.5 51.4966 10.5C51.5298 10.5 51.563 10.5 51.5963 10.5C51.6295 10.5 51.6628 10.5 51.6962 10.5C51.7295 10.5 51.7629 10.5 51.7964 10.5C51.8298 10.5 51.8633 10.5 51.8968 10.5C51.9303 10.5 51.9638 10.5 51.9974 10.5C52.031 10.5 52.0646 10.5 52.0983 10.5C52.132 10.5 52.1657 10.5 52.1995 10.5C52.2332 10.5 52.267 10.5 52.3009 10.5C52.3347 10.5 52.3686 10.5 52.4025 10.5C52.4364 10.5 52.4704 10.5 52.5044 10.5C52.5384 10.5 52.5725 10.5 52.6066 10.5C52.6407 10.5 52.6748 10.5 52.709 10.5C52.7432 10.5 52.7774 10.5 52.8117 10.5C52.846 10.5 52.8803 10.5 52.9146 10.5C52.949 10.5 52.9834 10.5 53.0178 10.5C53.0523 10.5 53.0868 10.5 53.1213 10.5C53.1558 10.5 53.1904 10.5 53.225 10.5C53.2596 10.5 53.2943 10.5 53.329 10.5C53.3637 10.5 53.3985 10.5 53.4333 10.5C53.4681 10.5 53.5029 10.5 53.5378 10.5C53.5727 10.5 53.6077 10.5 53.6427 10.5C53.6776 10.5 53.7127 10.5 53.7477 10.5C53.7828 10.5 53.8179 10.5 53.8531 10.5C53.8883 10.5 53.9235 10.5 53.9588 10.5C53.994 10.5 54.0293 10.5 54.0647 10.5C54.1001 10.5 54.1355 10.5 54.1709 10.5C54.2064 10.5 54.2419 10.5 54.2774 10.5C54.313 10.5 54.3486 10.5 54.3842 10.5C54.4198 10.5 54.4555 10.5 54.4913 10.5C54.527 10.5 54.5628 10.5 54.5986 10.5C54.6345 10.5 54.6704 10.5 54.7063 10.5C54.7422 10.5 54.7782 10.5 54.8143 10.5C54.8503 10.5 54.8864 10.5 54.9225 10.5C54.9586 10.5 54.9948 10.5 55.0311 10.5C55.0673 10.5 55.1036 10.5 55.1399 10.5C55.1762 10.5 55.2126 10.5 55.2491 10.5C55.2855 10.5 55.322 10.5 55.3585 10.5C55.395 10.5 55.4316 10.5 55.4683 10.5C55.5049 10.5 55.5416 10.5 55.5783 10.5C55.6151 10.5 55.6519 10.5 55.6887 10.5C55.7256 10.5 55.7624 10.5 55.7994 10.5C55.8363 10.5 55.8733 10.5 55.9104 10.5C55.9474 10.5 55.9845 10.5 56.0217 10.5C56.0589 10.5 56.0961 10.5 56.1333 10.5C56.1706 10.5 56.2079 10.5 56.2453 10.5C56.2826 10.5 56.3201 10.5 56.3575 10.5C56.395 10.5 56.4326 10.5 56.4701 10.5C56.5077 10.5 56.5454 10.5 56.583 10.5C56.6207 10.5 56.6585 10.5 56.6963 10.5C56.7341 10.5 56.7719 10.5 56.8099 10.5C56.8478 10.5 56.8857 10.5 56.9238 10.5C56.9618 10.5 56.9998 10.5 57.038 10.5C57.0761 10.5 57.1143 10.5 57.1525 10.5C57.1908 10.5 57.2291 10.5 57.2674 10.5C57.3058 10.5 57.3442 10.5 57.3827 10.5C57.4211 10.5 57.4597 10.5 57.4982 10.5C57.5368 10.5 57.5755 10.5 57.6141 10.5C57.6528 10.5 57.6916 10.5 57.7304 10.5C57.7692 10.5 57.8081 10.5 57.847 10.5C57.8859 10.5 57.9249 10.5 57.9639 10.5C58.003 10.5 58.0421 10.5 58.0812 10.5C58.1204 10.5 58.1596 10.5 58.1989 10.5C58.2381 10.5 58.2775 10.5 58.3169 10.5C58.3563 10.5 58.3957 10.5 58.4352 10.5C58.4747 10.5 58.5143 10.5 58.5539 10.5C58.5935 10.5 58.6332 10.5 58.673 10.5C58.7127 10.5 58.7525 10.5 58.7924 10.5C58.8322 10.5 58.8722 10.5 58.9122 10.5C58.9521 10.5 58.9922 10.5 59.0323 10.5C59.0724 10.5 59.1126 10.5 59.1528 10.5C59.193 10.5 59.2333 10.5 59.2737 10.5C59.314 10.5 59.3544 10.5 59.3949 10.5C59.4354 10.5 59.4759 10.5 59.5165 10.5C59.5571 10.5 59.5978 10.5 59.6385 10.5C59.6792 10.5 59.72 10.5 59.7608 10.5C59.8017 10.5 59.8426 10.5 59.8836 10.5C59.9245 10.5 59.9656 10.5 60.0067 10.5C60.0478 10.5 60.0889 10.5 60.1302 10.5C60.1714 10.5 60.2127 10.5 60.254 10.5C60.2954 10.5 60.3368 10.5 60.3783 10.5C60.4198 10.5 60.4613 10.5 60.5029 10.5V9V7.5C60.4613 7.5 60.4198 7.5 60.3783 7.5C60.3368 7.5 60.2954 7.5 60.254 7.5C60.2127 7.5 60.1714 7.5 60.1302 7.5C60.0889 7.5 60.0478 7.5 60.0067 7.5C59.9656 7.5 59.9245 7.5 59.8836 7.5C59.8426 7.5 59.8017 7.5 59.7608 7.5C59.72 7.5 59.6792 7.5 59.6385 7.5C59.5978 7.5 59.5571 7.5 59.5165 7.5C59.4759 7.5 59.4354 7.5 59.3949 7.5C59.3544 7.5 59.314 7.5 59.2737 7.5C59.2333 7.5 59.193 7.5 59.1528 7.5C59.1126 7.5 59.0724 7.5 59.0323 7.5C58.9922 7.5 58.9521 7.5 58.9122 7.5C58.8722 7.5 58.8322 7.5 58.7924 7.5C58.7525 7.5 58.7127 7.5 58.673 7.5C58.6332 7.5 58.5935 7.5 58.5539 7.5C58.5143 7.5 58.4747 7.5 58.4352 7.5C58.3957 7.5 58.3563 7.5 58.3169 7.5C58.2775 7.5 58.2381 7.5 58.1989 7.5C58.1596 7.5 58.1204 7.5 58.0812 7.5C58.0421 7.5 58.003 7.5 57.9639 7.5C57.9249 7.5 57.8859 7.5 57.847 7.5C57.8081 7.5 57.7692 7.5 57.7304 7.5C57.6916 7.5 57.6528 7.5 57.6141 7.5C57.5755 7.5 57.5368 7.5 57.4982 7.5C57.4597 7.5 57.4211 7.5 57.3827 7.5C57.3442 7.5 57.3058 7.5 57.2674 7.5C57.2291 7.5 57.1908 7.5 57.1525 7.5C57.1143 7.5 57.0761 7.5 57.038 7.5C56.9998 7.5 56.9618 7.5 56.9238 7.5C56.8857 7.5 56.8478 7.5 56.8099 7.5C56.7719 7.5 56.7341 7.5 56.6963 7.5C56.6585 7.5 56.6207 7.5 56.583 7.5C56.5454 7.5 56.5077 7.5 56.4701 7.5C56.4326 7.5 56.395 7.5 56.3575 7.5C56.3201 7.5 56.2826 7.5 56.2453 7.5C56.2079 7.5 56.1706 7.5 56.1333 7.5C56.0961 7.5 56.0589 7.5 56.0217 7.5C55.9845 7.5 55.9474 7.5 55.9104 7.5C55.8733 7.5 55.8363 7.5 55.7994 7.5C55.7624 7.5 55.7256 7.5 55.6887 7.5C55.6519 7.5 55.6151 7.5 55.5783 7.5C55.5416 7.5 55.5049 7.5 55.4683 7.5C55.4316 7.5 55.395 7.5 55.3585 7.5C55.322 7.5 55.2855 7.5 55.2491 7.5C55.2126 7.5 55.1762 7.5 55.1399 7.5C55.1036 7.5 55.0673 7.5 55.0311 7.5C54.9948 7.5 54.9586 7.5 54.9225 7.5C54.8864 7.5 54.8503 7.5 54.8143 7.5C54.7782 7.5 54.7422 7.5 54.7063 7.5C54.6704 7.5 54.6345 7.5 54.5986 7.5C54.5628 7.5 54.527 7.5 54.4913 7.5C54.4555 7.5 54.4198 7.5 54.3842 7.5C54.3486 7.5 54.313 7.5 54.2774 7.5C54.2419 7.5 54.2064 7.5 54.1709 7.5C54.1355 7.5 54.1001 7.5 54.0647 7.5C54.0293 7.5 53.994 7.5 53.9588 7.5C53.9235 7.5 53.8883 7.5 53.8531 7.5C53.8179 7.5 53.7828 7.5 53.7477 7.5C53.7127 7.5 53.6776 7.5 53.6427 7.5C53.6077 7.5 53.5727 7.5 53.5378 7.5C53.5029 7.5 53.4681 7.5 53.4333 7.5C53.3985 7.5 53.3637 7.5 53.329 7.5C53.2943 7.5 53.2596 7.5 53.225 7.5C53.1904 7.5 53.1558 7.5 53.1213 7.5C53.0868 7.5 53.0523 7.5 53.0178 7.5C52.9834 7.5 52.949 7.5 52.9146 7.5C52.8803 7.5 52.846 7.5 52.8117 7.5C52.7774 7.5 52.7432 7.5 52.709 7.5C52.6748 7.5 52.6407 7.5 52.6066 7.5C52.5725 7.5 52.5384 7.5 52.5044 7.5C52.4704 7.5 52.4364 7.5 52.4025 7.5C52.3686 7.5 52.3347 7.5 52.3009 7.5C52.267 7.5 52.2332 7.5 52.1995 7.5C52.1657 7.5 52.132 7.5 52.0983 7.5C52.0646 7.5 52.031 7.5 51.9974 7.5C51.9638 7.5 51.9303 7.5 51.8968 7.5C51.8633 7.5 51.8298 7.5 51.7964 7.5C51.7629 7.5 51.7295 7.5 51.6962 7.5C51.6628 7.5 51.6295 7.5 51.5963 7.5C51.563 7.5 51.5298 7.5 51.4966 7.5C51.4634 7.5 51.4302 7.5 51.3971 7.5C51.364 7.5 51.3309 7.5 51.2979 7.5C51.2649 7.5 51.2319 7.5 51.1989 7.5C51.166 7.5 51.133 7.5 51.1002 7.5C51.0673 7.5 51.0345 7.5 51.0017 7.5C50.9688 7.5 50.9361 7.5 50.9034 7.5C50.8706 7.5 50.8379 7.5 50.8053 7.5C50.7726 7.5 50.74 7.5 50.7075 7.5C50.6749 7.5 50.6423 7.5 50.6098 7.5C50.5773 7.5 50.5449 7.5 50.5124 7.5C50.48 7.5 50.4476 7.5 50.4152 7.5C50.3829 7.5 50.3506 7.5 50.3183 7.5C50.286 7.5 50.2537 7.5 50.2215 7.5C50.1893 7.5 50.1571 7.5 50.125 7.5C50.0929 7.5 50.0607 7.5 50.0287 7.5C49.9966 7.5 49.9646 7.5 49.9326 7.5C49.9006 7.5 49.8686 7.5 49.8367 7.5C49.8047 7.5 49.7728 7.5 49.741 7.5C49.7091 7.5 49.6772 7.5 49.6455 7.5C49.6137 7.5 49.5819 7.5 49.5502 7.5C49.5184 7.5 49.4867 7.5 49.4551 7.5C49.4234 7.5 49.3918 7.5 49.3602 7.5C49.3286 7.5 49.297 7.5 49.2655 7.5C49.2339 7.5 49.2024 7.5 49.171 7.5C49.1395 7.5 49.1081 7.5 49.0766 7.5C49.0452 7.5 49.0139 7.5 48.9825 7.5C48.9512 7.5 48.9199 7.5 48.8886 7.5C48.8573 7.5 48.8261 7.5 48.7948 7.5C48.7636 7.5 48.7324 7.5 48.7013 7.5C48.6701 7.5 48.639 7.5 48.6079 7.5C48.5768 7.5 48.5457 7.5 48.5147 7.5C48.4837 7.5 48.4527 7.5 48.4217 7.5C48.3907 7.5 48.3598 7.5 48.3289 7.5C48.298 7.5 48.2671 7.5 48.2362 7.5C48.2053 7.5 48.1745 7.5 48.1437 7.5C48.1129 7.5 48.0821 7.5 48.0514 7.5C48.0207 7.5 47.99 7.5 47.9593 7.5C47.9286 7.5 47.8979 7.5 47.8673 7.5C47.8367 7.5 47.8061 7.5 47.7755 7.5C47.7449 7.5 47.7144 7.5 47.6838 7.5C47.6533 7.5 47.6228 7.5 47.5924 7.5C47.5619 7.5 47.5315 7.5 47.501 7.5C47.4706 7.5 47.4403 7.5 47.4099 7.5C47.3795 7.5 47.3492 7.5 47.3189 7.5C47.2886 7.5 47.2583 7.5 47.2281 7.5C47.1978 7.5 47.1676 7.5 47.1374 7.5C47.1072 7.5 47.077 7.5 47.0468 7.5C47.0167 7.5 46.9865 7.5 46.9564 7.5C46.9263 7.5 46.8963 7.5 46.8662 7.5C46.8362 7.5 46.8061 7.5 46.7761 7.5C46.7461 7.5 46.7161 7.5 46.6862 7.5C46.6562 7.5 46.6263 7.5 46.5964 7.5C46.5665 7.5 46.5366 7.5 46.5067 7.5C46.4768 7.5 46.447 7.5 46.4172 7.5C46.3874 7.5 46.3576 7.5 46.3278 7.5C46.298 7.5 46.2683 7.5 46.2386 7.5C46.2088 7.5 46.1791 7.5 46.1494 7.5C46.1198 7.5 46.0901 7.5 46.0605 7.5C46.0308 7.5 46.0012 7.5 45.9716 7.5C45.942 7.5 45.9124 7.5 45.8829 7.5C45.8533 7.5 45.8238 7.5 45.7943 7.5C45.7648 7.5 45.7353 7.5 45.7058 7.5C45.6763 7.5 45.6469 7.5 45.6175 7.5C45.588 7.5 45.5586 7.5 45.5292 7.5C45.4998 7.5 45.4705 7.5 45.4411 7.5C45.4118 7.5 45.3824 7.5 45.3531 7.5C45.3238 7.5 45.2945 7.5 45.2652 7.5C45.236 7.5 45.2067 7.5 45.1775 7.5C45.1482 7.5 45.119 7.5 45.0898 7.5C45.0606 7.5 45.0315 7.5 45.0023 7.5C44.9731 7.5 44.944 7.5 44.9149 7.5C44.8857 7.5 44.8566 7.5 44.8275 7.5C44.7984 7.5 44.7694 7.5 44.7403 7.5C44.7112 7.5 44.6822 7.5 44.6532 7.5C44.6242 7.5 44.5952 7.5 44.5662 7.5C44.5372 7.5 44.5082 7.5 44.4792 7.5C44.4503 7.5 44.4213 7.5 44.3924 7.5C44.3635 7.5 44.3346 7.5 44.3057 7.5C44.2768 7.5 44.2479 7.5 44.2191 7.5C44.1902 7.5 44.1613 7.5 44.1325 7.5C44.1037 7.5 44.0749 7.5 44.0461 7.5C44.0172 7.5 43.9885 7.5 43.9597 7.5C43.9309 7.5 43.9021 7.5 43.8734 7.5C43.8447 7.5 43.8159 7.5 43.7872 7.5C43.7585 7.5 43.7298 7.5 43.7011 7.5C43.6724 7.5 43.6437 7.5 43.6151 7.5C43.5864 7.5 43.5577 7.5 43.5291 7.5C43.5005 7.5 43.4718 7.5 43.4432 7.5C43.4146 7.5 43.386 7.5 43.3574 7.5C43.3288 7.5 43.3002 7.5 43.2717 7.5C43.2431 7.5 43.2146 7.5 43.186 7.5C43.1575 7.5 43.129 7.5 43.1004 7.5C43.0719 7.5 43.0434 7.5 43.0149 7.5C42.9864 7.5 42.9579 7.5 42.9295 7.5C42.901 7.5 42.8725 7.5 42.8441 7.5C42.8156 7.5 42.7872 7.5 42.7587 7.5C42.7303 7.5 42.7019 7.5 42.6735 7.5C42.645 7.5 42.6166 7.5 42.5882 7.5C42.5598 7.5 42.5315 7.5 42.5031 7.5C42.4747 7.5 42.4463 7.5 42.418 7.5C42.3896 7.5 42.3613 7.5 42.3329 7.5C42.3046 7.5 42.2763 7.5 42.2479 7.5C42.2196 7.5 42.1913 7.5 42.163 7.5C42.1347 7.5 42.1064 7.5 42.0781 7.5C42.0498 7.5 42.0215 7.5 41.9932 7.5C41.9649 7.5 41.9367 7.5 41.9084 7.5C41.8801 7.5 41.8519 7.5 41.8236 7.5C41.7954 7.5 41.7671 7.5 41.7389 7.5C41.7107 7.5 41.6824 7.5 41.6542 7.5C41.626 7.5 41.5978 7.5 41.5695 7.5C41.5413 7.5 41.5131 7.5 41.4849 7.5C41.4567 7.5 41.4285 7.5 41.4003 7.5C41.3721 7.5 41.3439 7.5 41.3158 7.5C41.2876 7.5 41.2594 7.5 41.2312 7.5C41.2031 7.5 41.1749 7.5 41.1467 7.5C41.1186 7.5 41.0904 7.5 41.0622 7.5C41.0341 7.5 41.0059 7.5 40.9778 7.5C40.9496 7.5 40.9215 7.5 40.8934 7.5C40.8652 7.5 40.8371 7.5 40.8089 7.5C40.7808 7.5 40.7527 7.5 40.7245 7.5C40.6964 7.5 40.6683 7.5 40.6402 7.5C40.612 7.5 40.5839 7.5 40.5558 7.5C40.5277 7.5 40.4995 7.5 40.4714 7.5C40.4433 7.5 40.4152 7.5 40.3871 7.5C40.359 7.5 40.3309 7.5 40.3027 7.5C40.2746 7.5 40.2465 7.5 40.2184 7.5C40.1903 7.5 40.1622 7.5 40.1341 7.5C40.106 7.5 40.0779 7.5 40.0498 7.5C40.0217 7.5 39.9935 7.5 39.9654 7.5C39.9373 7.5 39.9092 7.5 39.8811 7.5C39.853 7.5 39.8249 7.5 39.7968 7.5C39.7687 7.5 39.7406 7.5 39.7125 7.5C39.6843 7.5 39.6562 7.5 39.6281 7.5C39.6 7.5 39.5719 7.5 39.5438 7.5C39.5157 7.5 39.4875 7.5 39.4594 7.5C39.4313 7.5 39.4032 7.5 39.3751 7.5C39.3469 7.5 39.3188 7.5 39.2907 7.5C39.2625 7.5 39.2344 7.5 39.2063 7.5C39.1781 7.5 39.15 7.5 39.1219 7.5C39.0937 7.5 39.0656 7.5 39.0374 7.5C39.0093 7.5 38.9811 7.5 38.953 7.5C38.9248 7.5 38.8967 7.5 38.8685 7.5C38.8403 7.5 38.8122 7.5 38.784 7.5C38.7558 7.5 38.7277 7.5 38.6995 7.5C38.6713 7.5 38.6431 7.5 38.6149 7.5C38.5867 7.5 38.5585 7.5 38.5303 7.5C38.5021 7.5 38.4739 7.5 38.4457 7.5C38.4175 7.5 38.3893 7.5 38.3611 7.5C38.3328 7.5 38.3046 7.5 38.2764 7.5C38.2481 7.5 38.2199 7.5 38.1916 7.5C38.1634 7.5 38.1351 7.5 38.1069 7.5C38.0786 7.5 38.0504 7.5 38.0221 7.5C37.9938 7.5 37.9655 7.5 37.9372 7.5C37.9089 7.5 37.8806 7.5 37.8523 7.5C37.824 7.5 37.7957 7.5 37.7674 7.5C37.7391 7.5 37.7107 7.5 37.6824 7.5C37.6541 7.5 37.6257 7.5 37.5974 7.5C37.569 7.5 37.5406 7.5 37.5123 7.5C37.4839 7.5 37.4555 7.5 37.4271 7.5C37.3987 7.5 37.3703 7.5 37.3419 7.5C37.3135 7.5 37.2851 7.5 37.2566 7.5C37.2282 7.5 37.1998 7.5 37.1713 7.5C37.1429 7.5 37.1144 7.5 37.0859 7.5C37.0575 7.5 37.029 7.5 37.0005 7.5C36.972 7.5 36.9435 7.5 36.915 7.5C36.8865 7.5 36.8579 7.5 36.8294 7.5C36.8009 7.5 36.7723 7.5 36.7438 7.5C36.7152 7.5 36.6866 7.5 36.658 7.5C36.6295 7.5 36.6009 7.5 36.5723 7.5C36.5436 7.5 36.515 7.5 36.4864 7.5C36.4578 7.5 36.4291 7.5 36.4004 7.5C36.3718 7.5 36.3431 7.5 36.3144 7.5C36.2857 7.5 36.257 7.5 36.2283 7.5C36.1996 7.5 36.1709 7.5 36.1421 7.5C36.1134 7.5 36.0846 7.5 36.0559 7.5C36.0271 7.5 35.9983 7.5 35.9695 7.5C35.9407 7.5 35.9119 7.5 35.8831 7.5C35.8543 7.5 35.8254 7.5 35.7966 7.5C35.7677 7.5 35.7388 7.5 35.7099 7.5C35.681 7.5 35.6521 7.5 35.6232 7.5C35.5943 7.5 35.5654 7.5 35.5364 7.5C35.5075 7.5 35.4785 7.5 35.4495 7.5C35.4205 7.5 35.3915 7.5 35.3625 7.5C35.3335 7.5 35.3045 7.5 35.2754 7.5C35.2464 7.5 35.2173 7.5 35.1882 7.5C35.1591 7.5 35.13 7.5 35.1009 7.5C35.0718 7.5 35.0426 7.5 35.0135 7.5C34.9843 7.5 34.9551 7.5 34.926 7.5C34.8968 7.5 34.8676 7.5 34.8383 7.5C34.8091 7.5 34.7798 7.5 34.7506 7.5C34.7213 7.5 34.692 7.5 34.6627 7.5C34.6334 7.5 34.6041 7.5 34.5747 7.5C34.5454 7.5 34.516 7.5 34.4867 7.5C34.4573 7.5 34.4279 7.5 34.3985 7.5C34.369 7.5 34.3396 7.5 34.3101 7.5C34.2807 7.5 34.2512 7.5 34.2217 7.5C34.1922 7.5 34.1626 7.5 34.1331 7.5C34.1036 7.5 34.074 7.5 34.0444 7.5C34.0148 7.5 33.9852 7.5 33.9556 7.5C33.9259 7.5 33.8963 7.5 33.8666 7.5C33.8369 7.5 33.8072 7.5 33.7775 7.5C33.7478 7.5 33.7181 7.5 33.6883 7.5C33.6585 7.5 33.6287 7.5 33.5989 7.5C33.5691 7.5 33.5393 7.5 33.5094 7.5C33.4796 7.5 33.4497 7.5 33.4198 7.5C33.3899 7.5 33.36 7.5 33.33 7.5C33.3001 7.5 33.2701 7.5 33.2401 7.5C33.2101 7.5 33.1801 7.5 33.15 7.5C33.12 7.5 33.0899 7.5 33.0598 7.5C33.0297 7.5 32.9996 7.5 32.9695 7.5C32.9393 7.5 32.9092 7.5 32.879 7.5C32.8488 7.5 32.8186 7.5 32.7883 7.5C32.7581 7.5 32.7278 7.5 32.6975 7.5C32.6672 7.5 32.6369 7.5 32.6065 7.5C32.5762 7.5 32.5458 7.5 32.5154 7.5C32.485 7.5 32.4546 7.5 32.4241 7.5C32.3936 7.5 32.3632 7.5 32.3327 7.5C32.3021 7.5 32.2716 7.5 32.241 7.5C32.2105 7.5 32.1799 7.5 32.1493 7.5C32.1186 7.5 32.088 7.5 32.0573 7.5C32.0266 7.5 31.9959 7.5 31.9652 7.5C31.9345 7.5 31.9037 7.5 31.8729 7.5C31.8421 7.5 31.8113 7.5 31.7805 7.5C31.7496 7.5 31.7188 7.5 31.6878 7.5C31.6569 7.5 31.626 7.5 31.595 7.5C31.5641 7.5 31.5331 7.5 31.5021 7.5C31.471 7.5 31.44 7.5 31.4089 7.5C31.3778 7.5 31.3467 7.5 31.3156 7.5C31.2844 7.5 31.2532 7.5 31.222 7.5C31.1908 7.5 31.1596 7.5 31.1283 7.5C31.097 7.5 31.0658 7.5 31.0344 7.5C31.0031 7.5 30.9717 7.5 30.9403 7.5C30.9089 7.5 30.8775 7.5 30.8461 7.5C30.8146 7.5 30.7831 7.5 30.7516 7.5C30.7201 7.5 30.6885 7.5 30.6569 7.5C30.6253 7.5 30.5937 7.5 30.5621 7.5C30.5304 7.5 30.4987 7.5 30.467 7.5C30.4353 7.5 30.4035 7.5 30.3717 7.5C30.34 7.5 30.3081 7.5 30.2763 7.5C30.2444 7.5 30.2125 7.5 30.1806 7.5C30.1487 7.5 30.1167 7.5 30.0847 7.5C30.0527 7.5 30.0207 7.5 29.9887 7.5C29.9566 7.5 29.9245 7.5 29.8924 7.5C29.8602 7.5 29.8281 7.5 29.7959 7.5C29.7637 7.5 29.7314 7.5 29.6992 7.5C29.6669 7.5 29.6346 7.5 29.6022 7.5C29.5699 7.5 29.5375 7.5 29.5051 7.5C29.4727 7.5 29.4402 7.5 29.4077 7.5C29.3753 7.5 29.3427 7.5 29.3102 7.5C29.2776 7.5 29.245 7.5 29.2124 7.5C29.1797 7.5 29.147 7.5 29.1143 7.5C29.0816 7.5 29.0489 7.5 29.0161 7.5C28.9833 7.5 28.9505 7.5 28.9176 7.5C28.8847 7.5 28.8518 7.5 28.8189 7.5C28.786 7.5 28.753 7.5 28.72 7.5C28.6869 7.5 28.6539 7.5 28.6208 7.5C28.5877 7.5 28.5545 7.5 28.5214 7.5C28.4882 7.5 28.455 7.5 28.4217 7.5C28.3885 7.5 28.3552 7.5 28.3218 7.5C28.2885 7.5 28.2551 7.5 28.2217 7.5C28.1883 7.5 28.1548 7.5 28.1214 7.5C28.0879 7.5 28.0543 7.5 28.0207 7.5C27.9872 7.5 27.9535 7.5 27.9199 7.5C27.8862 7.5 27.8525 7.5 27.8188 7.5C27.785 7.5 27.7513 7.5 27.7174 7.5C27.6836 7.5 27.6497 7.5 27.6158 7.5C27.5819 7.5 27.548 7.5 27.514 7.5C27.48 7.5 27.4459 7.5 27.4118 7.5C27.3778 7.5 27.3436 7.5 27.3095 7.5C27.2753 7.5 27.2411 7.5 27.2068 7.5C27.1726 7.5 27.1383 7.5 27.104 7.5C27.0696 7.5 27.0352 7.5 27.0008 7.5C26.9664 7.5 26.9319 7.5 26.8974 7.5C26.8629 7.5 26.8283 7.5 26.7937 7.5C26.7591 7.5 26.7244 7.5 26.6897 7.5C26.655 7.5 26.6203 7.5 26.5855 7.5C26.5507 7.5 26.5159 7.5 26.481 7.5C26.4461 7.5 26.4112 7.5 26.3763 7.5C26.3413 7.5 26.3063 7.5 26.2712 7.5C26.2362 7.5 26.201 7.5 26.1659 7.5C26.1307 7.5 26.0955 7.5 26.0603 7.5C26.025 7.5 25.9898 7.5 25.9544 7.5C25.9191 7.5 25.8837 7.5 25.8482 7.5C25.8128 7.5 25.7773 7.5 25.7418 7.5C25.7063 7.5 25.6707 7.5 25.6351 7.5C25.5994 7.5 25.5638 7.5 25.528 7.5C25.4923 7.5 25.4565 7.5 25.4207 7.5C25.3849 7.5 25.349 7.5 25.3131 7.5C25.2772 7.5 25.2412 7.5 25.2052 7.5C25.1692 7.5 25.1331 7.5 25.097 7.5C25.0609 7.5 25.0247 7.5 24.9885 7.5C24.9523 7.5 24.916 7.5 24.8797 7.5C24.8434 7.5 24.8071 7.5 24.7706 7.5C24.7342 7.5 24.6978 7.5 24.6612 7.5C24.6247 7.5 24.5882 7.5 24.5515 7.5C24.5149 7.5 24.4782 7.5 24.4415 7.5C24.4048 7.5 24.368 7.5 24.3312 7.5C24.2944 7.5 24.2575 7.5 24.2206 7.5C24.1837 7.5 24.1467 7.5 24.1096 7.5C24.0726 7.5 24.0355 7.5 23.9984 7.5C23.9612 7.5 23.9241 7.5 23.8868 7.5C23.8496 7.5 23.8123 7.5 23.7749 7.5C23.7376 7.5 23.7002 7.5 23.6627 7.5C23.6253 7.5 23.5877 7.5 23.5502 7.5C23.5126 7.5 23.475 7.5 23.4373 7.5C23.3997 7.5 23.3619 7.5 23.3241 7.5C23.2864 7.5 23.2485 7.5 23.2106 7.5C23.1727 7.5 23.1348 7.5 23.0968 7.5C23.0588 7.5 23.0207 7.5 22.9826 7.5C22.9445 7.5 22.9064 7.5 22.8681 7.5C22.8299 7.5 22.7916 7.5 22.7533 7.5C22.715 7.5 22.6766 7.5 22.6381 7.5C22.5997 7.5 22.5612 7.5 22.5226 7.5C22.4841 7.5 22.4454 7.5 22.4068 7.5C22.3681 7.5 22.3294 7.5 22.2906 7.5C22.2518 7.5 22.2129 7.5 22.174 7.5C22.1351 7.5 22.0962 7.5 22.0572 7.5C22.0181 7.5 21.9791 7.5 21.9399 7.5C21.9008 7.5 21.8616 7.5 21.8224 7.5C21.7831 7.5 21.7438 7.5 21.7044 7.5C21.6651 7.5 21.6256 7.5 21.5862 7.5C21.5467 7.5 21.5071 7.5 21.4675 7.5C21.4279 7.5 21.3882 7.5 21.3485 7.5C21.3088 7.5 21.269 7.5 21.2292 7.5C21.1893 7.5 21.1494 7.5 21.1095 7.5C21.0695 7.5 21.0295 7.5 20.9894 7.5C20.9493 7.5 20.9092 7.5 20.8689 7.5C20.8287 7.5 20.7885 7.5 20.7481 7.5C20.7078 7.5 20.6674 7.5 20.627 7.5C20.5865 7.5 20.546 7.5 20.5054 7.5C20.4649 7.5 20.4242 7.5 20.3835 7.5C20.3428 7.5 20.3021 7.5 20.2612 7.5C20.2204 7.5 20.1795 7.5 20.1386 7.5C20.0976 7.5 20.0566 7.5 20.0155 7.5C19.9745 7.5 19.9333 7.5 19.8921 7.5C19.8509 7.5 19.8097 7.5 19.7683 7.5C19.727 7.5 19.6856 7.5 19.6441 7.5C19.6027 7.5 19.5612 7.5 19.5196 7.5C19.478 7.5 19.4363 7.5 19.3946 7.5C19.3529 7.5 19.3111 7.5 19.2693 7.5C19.2274 7.5 19.1855 7.5 19.1436 7.5C19.1016 7.5 19.0595 7.5 19.0174 7.5C18.9753 7.5 18.9332 7.5 18.8909 7.5C18.8487 7.5 18.8064 7.5 18.764 7.5C18.7217 7.5 18.6792 7.5 18.6367 7.5C18.5942 7.5 18.5516 7.5 18.509 7.5C18.4664 7.5 18.4237 7.5 18.3809 7.5C18.3381 7.5 18.2953 7.5 18.2524 7.5C18.2095 7.5 18.1665 7.5 18.1235 7.5C18.0804 7.5 18.0373 7.5 17.9942 7.5C17.951 7.5 17.9077 7.5 17.8644 7.5C17.8211 7.5 17.7777 7.5 17.7343 7.5C17.6909 7.5 17.6473 7.5 17.6037 7.5C17.5602 7.5 17.5165 7.5 17.4728 7.5C17.4291 7.5 17.3853 7.5 17.3414 7.5C17.2975 7.5 17.2536 7.5 17.2096 7.5C17.1656 7.5 17.1215 7.5 17.0774 7.5C17.0332 7.5 16.989 7.5 16.9448 7.5C16.9005 7.5 16.8561 7.5 16.8117 7.5C16.7673 7.5 16.7228 7.5 16.6782 7.5C16.6336 7.5 16.589 7.5 16.5443 7.5C16.4996 7.5 16.4548 7.5 16.41 7.5C16.3651 7.5 16.3202 7.5 16.2752 7.5C16.2302 7.5 16.1851 7.5 16.14 7.5C16.0948 7.5 16.0496 7.5 16.0043 7.5C15.9591 7.5 15.9137 7.5 15.8683 7.5C15.8228 7.5 15.7773 7.5 15.7318 7.5C15.6862 7.5 15.6405 7.5 15.5948 7.5C15.5491 7.5 15.5033 7.5 15.4574 7.5C15.4115 7.5 15.3656 7.5 15.3196 7.5C15.2736 7.5 15.2275 7.5 15.1813 7.5C15.1351 7.5 15.0889 7.5 15.0426 7.5C14.9963 7.5 14.9499 7.5 14.9034 7.5C14.8569 7.5 14.8104 7.5 14.7638 7.5C14.7171 7.5 14.6705 7.5 14.6237 7.5C14.5769 7.5 14.5301 7.5 14.4831 7.5C14.4362 7.5 14.3892 7.5 14.3422 7.5C14.2951 7.5 14.2479 7.5 14.2007 7.5C14.1535 7.5 14.1062 7.5 14.0588 7.5C14.0114 7.5 13.964 7.5 13.9164 7.5C13.8689 7.5 13.8213 7.5 13.7736 7.5C13.7259 7.5 13.6781 7.5 13.6303 7.5C13.5824 7.5 13.5345 7.5 13.4865 7.5C13.4385 7.5 13.3904 7.5 13.3423 7.5C13.2941 7.5 13.2459 7.5 13.1976 7.5C13.1493 7.5 13.1009 7.5 13.0524 7.5C13.0039 7.5 12.9554 7.5 12.9067 7.5C12.8581 7.5 12.8094 7.5 12.7606 7.5C12.7118 7.5 12.663 7.5 12.614 7.5C12.5651 7.5 12.516 7.5 12.4669 7.5C12.4178 7.5 12.3686 7.5 12.3193 7.5C12.2701 7.5 12.2207 7.5 12.1713 7.5C12.1219 7.5 12.0723 7.5 12.0227 7.5C11.9732 7.5 11.9235 7.5 11.8737 7.5C11.824 7.5 11.7741 7.5 11.7242 7.5C11.6743 7.5 11.6243 7.5 11.5742 7.5C11.5241 7.5 11.4739 7.5 11.4237 7.5C11.3734 7.5 11.3231 7.5 11.2727 7.5C11.2223 7.5 11.1718 7.5 11.1212 7.5C11.0706 7.5 11.0199 7.5 10.9692 7.5C10.9185 7.5 10.8676 7.5 10.8167 7.5C10.7658 7.5 10.7148 7.5 10.6637 7.5C10.6126 7.5 10.5615 7.5 10.5102 7.5C10.459 7.5 10.4076 7.5 10.3562 7.5C10.3048 7.5 10.2533 7.5 10.2017 7.5C10.1501 7.5 10.0984 7.5 10.0467 7.5C9.9949 7.5 9.94306 7.5 9.89113 7.5C9.8392 7.5 9.78718 7.5 9.73508 7.5C9.68297 7.5 9.63079 7.5 9.57851 7.5C9.52624 7.5 9.47388 7.5 9.42143 7.5C9.36898 7.5 9.31645 7.5 9.26383 7.5C9.21121 7.5 9.1585 7.5 9.10571 7.5C9.05291 7.5 9.00003 7.5 8.94706 7.5C8.8941 7.5 8.84104 7.5 8.7879 7.5C8.73475 7.5 8.68152 7.5 8.6282 7.5C8.57488 7.5 8.52147 7.5 8.46798 7.5C8.41448 7.5 8.3609 7.5 8.30723 7.5C8.25355 7.5 8.19979 7.5 8.14594 7.5C8.09209 7.5 8.03815 7.5 7.98412 7.5C7.93009 7.5 7.87598 7.5 7.82177 7.5C7.76756 7.5 7.71326 7.5 7.65888 7.5C7.60449 7.5 7.55001 7.5 7.49545 7.5C7.44088 7.5 7.38622 7.5 7.33147 7.5C7.27673 7.5 7.22189 7.5 7.16696 7.5C7.11203 7.5 7.05701 7.5 7.0019 7.5C6.94679 7.5 6.89159 7.5 6.83629 7.5C6.781 7.5 6.72562 7.5 6.67014 7.5C6.61466 7.5 6.55909 7.5 6.50343 7.5C6.44777 7.5 6.39202 7.5 6.33618 7.5C6.28033 7.5 6.2244 7.5 6.16837 7.5C6.11234 7.5 6.05622 7.5 6 7.5V9Z" fill="url(#paint0_linear_4278_2742)"/>
<circle cx="6" cy="9" r="4.5" fill="white" stroke="url(#paint1_linear_4278_2742)" stroke-width="3"/>
<defs>
<linearGradient id="paint0_linear_4278_2742" x1="40" y1="9" x2="40" y2="10" gradientUnits="userSpaceOnUse">
<stop stop-color="#C77DFF"/>
<stop offset="1" stop-color="#9D4EDD"/>
</linearGradient>
<linearGradient id="paint1_linear_4278_2742" x1="6" y1="3" x2="6" y2="15" gradientUnits="userSpaceOnUse">
<stop stop-color="#C77DFF"/>
<stop offset="1" stop-color="#9D4EDD"/>
</linearGradient>
</defs>
</svg>
