<svg width="28" height="28" viewBox="0 0 28 28" fill="none" xmlns="http://www.w3.org/2000/svg">
<path d="M14.0006 24.5C12.0709 24.5 10.5006 22.9297 10.5006 21V15.442C9.16705 16.6367 6.97139 16.5842 5.69272 15.3079C5.03657 14.6515 4.66797 13.7614 4.66797 12.8334C4.66797 11.9053 5.03657 11.0152 5.69272 10.3589L14.0006 2.05103L22.3084 10.3589C22.9645 11.0152 23.3331 11.9053 23.3331 12.8334C23.3331 13.7614 22.9645 14.6515 22.3084 15.3079C21.0321 16.5854 18.8329 16.6379 17.5006 15.442V21C17.5006 22.9297 15.9302 24.5 14.0006 24.5ZM12.8339 9.81636V21C12.8473 21.3004 12.9761 21.5841 13.1934 21.7919C13.4108 21.9997 13.6999 22.1157 14.0006 22.1157C14.3012 22.1157 14.5904 21.9997 14.8077 21.7919C15.025 21.5841 15.1538 21.3004 15.1672 21V9.81636L19.0091 13.6582C19.2311 13.8706 19.5266 13.9891 19.8339 13.9891C20.1412 13.9891 20.4366 13.8706 20.6587 13.6582C20.8774 13.4394 21.0003 13.1427 21.0003 12.8334C21.0003 12.524 20.8774 12.2273 20.6587 12.0085L14.0006 5.35036L7.34239 12.0085C7.12367 12.2273 7.0008 12.524 7.0008 12.8334C7.0008 13.1427 7.12367 13.4394 7.34239 13.6582C7.56448 13.8706 7.85993 13.9891 8.16722 13.9891C8.47451 13.9891 8.76996 13.8706 8.99205 13.6582L12.8339 9.81636Z" fill="url(#paint0_linear_4278_2791)"/>
<defs>
<linearGradient id="paint0_linear_4278_2791" x1="14.0006" y1="2.05103" x2="14.0006" y2="24.5" gradientUnits="userSpaceOnUse">
<stop stop-color="#C77DFF"/>
<stop offset="1" stop-color="#9D4EDD"/>
</linearGradient>
</defs>
</svg>
