<svg width="82" height="82" viewBox="0 0 82 82" fill="none" xmlns="http://www.w3.org/2000/svg">
<path fill-rule="evenodd" clip-rule="evenodd" d="M81 40.9058L80.98 41.3075L80.9203 41.7081L80.8215 42.1064L80.6847 42.5015L80.5113 42.8923L80.3033 43.278L80.0627 43.6576L79.7921 44.0305L79.494 44.3961L79.1714 44.7538L78.8273 45.1034L78.4647 45.4447L78.0867 45.7774L77.6965 46.1016L77.2971 46.4176L76.8915 46.7254L76.4826 47.0255L76.0732 47.3183L75.666 47.6043L75.2633 47.8842L74.8677 48.1587L74.4812 48.4283L74.1059 48.6941L73.7437 48.9567L73.3964 49.2172L73.0656 49.4764L72.7528 49.7353L72.4595 49.995L72.1871 50.2565L71.9367 50.521L71.7098 50.7896L71.5074 51.0636L71.3308 51.3441L71.1813 51.6327L71.06 51.9306L70.9683 52.2395L70.9077 52.5609L70.8795 52.8967L70.8855 53.2487L70.9275 53.619L71.0074 54.0098L71.1276 54.4238L71.2906 54.8636L71.4993 55.3324L71.757 55.8336L72.0676 56.3713L72.4355 56.9497L72.8657 57.5742L73.3643 58.2504L73.9381 58.9853L74.5954 59.7868L75.0721 60.3441C75.2059 60.5005 75.1451 60.7423 74.9532 60.8168C74.9016 60.8369 74.8454 60.8422 74.791 60.8322L73.7756 60.6456L72.785 60.4858L71.8904 60.3644L71.0812 60.2784L70.3485 60.2252L69.6845 60.2028L69.0826 60.2093L68.5369 60.2432L68.0423 60.3032L67.5943 60.3882L67.189 60.4972L66.8228 60.6295L66.4923 60.7844L66.1949 60.9613L65.9278 61.1597L65.6887 61.379L65.4753 61.6189L65.2856 61.879L65.1175 62.1589L64.9694 62.4583L64.8394 62.7766L64.7258 63.1136L64.6269 63.4687L64.5413 63.8414L64.4671 64.2312L64.403 64.6373L64.3471 65.059L64.298 65.4955L64.254 65.9457L64.2133 66.4085L64.1745 66.8827L64.1356 67.3668L64.095 67.8593L64.0509 68.3584L64.0016 68.8621L63.9452 69.3684L63.88 69.8751L63.8043 70.3798L63.7163 70.8799L63.6144 71.3729L63.4972 71.856L63.3631 72.3264L63.2108 72.7814L63.0392 73.2181L62.8473 73.6339L62.6344 74.0262L62.4 74.3925L62.1436 74.7307L61.8653 75.0386L61.5653 75.3147L61.244 75.5575L60.902 75.7661L60.5404 75.9397L60.1601 76.0782L59.7627 76.1816L59.3495 76.2505L58.9221 76.2858L58.4824 76.2887L58.0321 76.2607L57.5731 76.2037L57.1073 76.1198L56.6364 76.0114L56.1623 75.8808L55.6866 75.7307L55.211 75.5637L54.737 75.3826L54.2659 75.1901L53.7991 74.9889L53.3376 74.7818L52.8824 74.5713L52.4342 74.36L51.9939 74.1503L51.562 73.9446L51.1387 73.7451L50.7246 73.5539L50.3197 73.3732L49.9242 73.2049L49.538 73.0508L49.161 72.9129L48.793 72.7927L48.4338 72.692L48.083 72.6125L47.7402 72.5559L47.4049 72.5238L47.0767 72.518L46.755 72.5402L46.4391 72.5922L46.1285 72.676L45.8223 72.7936L45.5197 72.9473L45.22 73.1396L44.9223 73.3731L44.6255 73.6508L44.3287 73.9761L44.0306 74.3526L43.7301 74.7846L43.4257 75.2769L43.1159 75.835L42.7991 76.4652L42.4732 77.1748L42.1362 77.9723L41.7856 78.8676L41.4185 79.8722L41.3669 80.0226C41.2506 80.3614 40.7765 80.3748 40.6412 80.0432L40.2712 79.0199L39.9181 78.1081L39.5791 77.2957L39.2517 76.5727L38.9335 75.9304L38.6228 75.3612L38.3176 74.8588L38.0166 74.4175L37.7182 74.0325L37.4212 73.6993L37.1245 73.4143L36.827 73.174L36.5277 72.9753L36.2257 72.8156L35.9201 72.6924L35.6102 72.6034L35.2952 72.5464L34.9744 72.5196L34.6473 72.5211L34.3132 72.5491L33.9717 72.6019L33.6222 72.6779L33.2643 72.7753L32.8977 72.8925L32.5222 73.0278L32.1374 73.1794L31.7434 73.3456L31.34 73.5244L30.9273 73.714L30.5055 73.9123L30.0749 74.1172L29.6359 74.3264L29.189 74.5376L28.7349 74.7484L28.2743 74.9563L27.8082 75.1586L27.3378 75.3526L26.8641 75.5357L26.3887 75.7051L25.9129 75.8581L25.4384 75.992L24.9669 76.1041L24.5001 76.1921L24.0399 76.2535L23.5881 76.2862L23.1466 76.2884L22.7172 76.2584L22.3016 76.1949L21.9016 76.097L21.5185 75.9641L21.1538 75.7961L20.8086 75.5931L20.484 75.3556L20.1805 75.0848L19.8987 74.7818L19.6389 74.4483L19.401 74.0864L19.1847 73.6981L18.9895 73.2858L18.8147 72.8522L18.6595 72.4L18.5225 71.9318L18.4027 71.4506L18.2985 70.959L18.2084 70.4598L18.1308 69.9557L18.0641 69.4492L18.0064 68.9426L17.956 68.4383L17.9112 67.9384L17.8702 67.4448L17.8312 66.9592L17.7924 66.4833L17.7522 66.0186L17.7088 65.5663L17.6606 65.1276L17.606 64.7034L17.5432 64.2948L17.4708 63.9023L17.387 63.5269L17.2904 63.1689L17.1793 62.829L17.052 62.5077L16.9068 62.2053L16.7421 61.9223L16.5559 61.659L16.3464 61.4159L16.1115 61.1932L15.8491 60.9915L15.5567 60.8112L15.2317 60.6527L14.8713 60.5168L14.4725 60.4039L14.0316 60.3151L13.5447 60.251L13.0075 60.2129L12.4149 60.2019L11.7612 60.2197L11.0399 60.2678L10.2434 60.3484L9.36306 60.464L8.38859 60.6175L7.33857 60.8068C7.31825 60.8105 7.29764 60.8123 7.27699 60.8123C6.98165 60.8121 6.82277 60.4654 7.01542 60.2415L7.29105 59.9212L7.96251 59.1083L8.54905 58.3634L9.05909 57.6782L9.49978 57.0459L9.87722 56.4605L10.1966 55.9167L10.4625 55.41L10.6788 54.9362L10.8489 54.492L10.9757 54.0741L11.0619 53.6798L11.1097 53.3064L11.1213 52.9516L11.0985 52.6134L11.0429 52.2898L10.9561 51.979L10.8395 51.6794L10.6943 51.3895L10.522 51.1078L10.3236 50.8329L10.1005 50.5635L9.85382 50.2984L9.5848 50.0365L9.29474 49.7766L8.98498 49.5176L8.65695 49.2585L8.31216 48.9983L7.95222 48.7361L7.57889 48.4709L7.19405 48.2019L6.7997 47.9283L6.39803 47.6493L5.99134 47.3643L5.58212 47.0726L5.17298 46.7737L4.76668 46.4671L4.36609 46.1525L3.9742 45.8296L3.59407 45.4982L3.2288 45.1584L2.88151 44.8101L2.55528 44.4536L2.25313 44.0892L1.97794 43.7175L1.73241 43.3389L1.51904 42.9541L1.34003 42.5641L1.19729 42.1696L1.09234 41.7717L1.02634 41.3714L1 40.9698L1.01362 40.568L1.06705 40.1671L1.15969 39.7683L1.29055 39.3726L1.45819 38.9811L1.66084 38.5946L1.89638 38.2139L2.16241 37.8399L2.45628 37.4731L2.77516 37.1141L3.11608 36.7632L3.47596 36.4206L3.85169 36.0865L4.24017 35.761L4.63832 35.4437L5.04312 35.1346L5.45166 34.8333L5.86115 34.5394L6.26892 34.2523L6.67244 33.9715L7.06937 33.6962L7.45746 33.4258L7.83467 33.1595L8.19907 32.8964L8.54887 32.6357L8.88241 32.3764L9.19814 32.1175L9.49463 31.8579L9.77049 31.5968L10.0244 31.3328L10.2552 31.065L10.4616 30.792L10.6423 30.5126L10.7963 30.2254L10.9221 29.929L11.0186 29.622L11.0843 29.3027L11.1177 28.9693L11.1173 28.6201L11.0812 28.2528L11.0074 27.8654L10.8938 27.4553L10.7378 27.0198L10.5366 26.5558L10.2869 26.06L9.98503 25.5285L9.62661 24.9569L9.20668 24.3401L8.71945 23.6725L8.15813 22.9474L7.51472 22.1571L6.89324 21.426C6.82382 21.3443 6.80703 21.2302 6.84999 21.132C6.90229 21.0124 7.03017 20.9447 7.15845 20.9687L8.05654 21.1366L9.06341 21.3029L9.97257 21.4302L10.7947 21.5217L11.5391 21.5799L12.2136 21.6071L12.825 21.6051L13.3793 21.5755L13.8817 21.5196L14.3368 21.4385L14.7486 21.3332L15.1209 21.2046L15.4568 21.0532L15.7593 20.8798L16.031 20.6848L16.2745 20.4688L16.4918 20.2321L16.6852 19.9752L16.8566 19.6985L17.0078 19.4022L17.1406 19.0868L17.2567 18.7528L17.3577 18.4006L17.4454 18.0306L17.5213 17.6435L17.5869 17.24L17.644 16.8207L17.6941 16.3865L17.7388 15.9384L17.7798 15.4775L17.8189 15.005L17.8576 14.5224L17.8978 14.0311L17.9413 13.533L17.9896 13.0299L18.0448 12.5238L18.1085 12.017L18.1824 11.5118L18.2683 11.0108L18.3678 10.5165L18.4825 10.0317L18.6139 9.55905L18.7632 9.10144L18.9317 8.66161L19.1202 8.24229L19.3297 7.84608L19.5607 7.47546L19.8136 7.1327L20.0884 6.81982L20.385 6.53856L20.7029 6.29036L21.0417 6.07629L21.4003 5.89706L21.7776 5.75299L22.1724 5.64401L22.5832 5.56967L23.0084 5.52912L23.4463 5.5212L23.895 5.54438L24.3527 5.59687L24.8176 5.6766L25.2878 5.78131L25.7616 5.90855L26.2371 6.05574L26.7128 6.22021L27.1872 6.39925L27.6588 6.5901L28.1264 6.79006L28.5888 6.99641L29.0451 7.20655L29.4944 7.41791L29.936 7.62802L30.3693 7.83453L30.7939 8.03517L31.2095 8.22777L31.6159 8.41027L32.0129 8.58069L32.4006 8.73714L32.7791 8.87782L33.1485 9.00095L33.5091 9.10484L33.8612 9.1878L34.2053 9.24816L34.5417 9.28426L34.871 9.29439L35.1937 9.2768L35.5104 9.22967L35.8219 9.15108L36.1287 9.03898L36.4318 8.89115L36.7319 8.70519L37.0299 8.47845L37.3267 8.208L37.6235 7.89058L37.9213 7.52251L38.2213 7.09965L38.525 6.61729L38.8338 6.07006L39.1494 5.45178L39.4737 4.75533L39.8087 3.97246L40.157 3.0935L40.5213 2.10714L40.6849 1.63507C40.7749 1.37518 41.1238 1.33125 41.2754 1.5607C41.2901 1.58291 41.3021 1.6068 41.311 1.63187L41.6706 2.63639L42.0262 3.56514L42.3672 4.39262L42.6964 5.12925L43.0158 5.78392L43.3277 6.36427L43.6336 6.87691L43.9352 7.32758L44.2339 7.72128L44.531 8.06241L44.8277 8.35488L45.125 8.60211L45.424 8.80721L45.7255 8.97295L46.0305 9.10183L46.3397 9.19617L46.6538 9.25808L46.9736 9.28955L47.2996 9.29244L47.6326 9.26854L47.9729 9.21956L48.3211 9.14719L48.6776 9.05309L49.0428 8.93894L49.4169 8.80644L49.8002 8.6573L50.1927 8.49332L50.5946 8.31635L51.0058 8.12833L51.4262 7.93127L51.8554 7.72729L52.2931 7.5186L52.7388 7.30754L53.1919 7.0965L53.6515 6.88802L54.1167 6.68467L54.5866 6.48913L55.0598 6.30411L55.535 6.13233L56.0108 5.97655L56.4856 5.83945L56.9578 5.72366L57.4254 5.6317L57.8868 5.56592L58.34 5.5285L58.7833 5.52135L59.2148 5.54614L59.6327 5.60421L60.0353 5.69657L60.4212 5.82384L60.7889 5.98628L61.1372 6.18377L61.4652 6.41577L61.7721 6.68139L62.0574 6.97936L62.3207 7.30809L62.5621 7.66567L62.7818 8.04994L62.9803 8.45854L63.1583 8.88891L63.3166 9.33836L63.4563 9.80416L63.5788 10.2835L63.6854 10.7736L63.7777 11.2718L63.8571 11.7753L63.9255 12.2816L63.9845 12.7883L64.0359 13.2931L64.0814 13.7939L64.1229 14.2886L64.1622 14.7756L64.2009 15.2531L64.2407 15.7197L64.2835 16.174L64.3308 16.615L64.3843 17.0415L64.4457 17.4527L64.5165 17.8478L64.5983 18.226L64.6928 18.5868L64.8015 18.9296L64.9261 19.2539L65.0683 19.5593L65.2298 19.8454L65.4124 20.1119L65.618 20.3583L65.8487 20.5842L66.1067 20.7893L66.3942 20.9731L66.7138 21.135L67.0683 21.2746L67.4608 21.3912L67.8948 21.4839L68.374 21.552L68.9029 21.5943L69.4863 21.6097L70.1299 21.5967L70.8399 21.5535L71.6238 21.4782L72.4902 21.3684L73.4489 21.2211L74.5117 21.0331C74.8812 20.9713 75.1251 21.406 74.8799 21.6892L74.8239 21.7539L74.138 22.5785L73.5385 23.3337L73.0168 24.0279L72.5655 24.6681L72.1784 25.2607L71.8501 25.8108L71.5759 26.3231L71.352 26.8019L71.1747 27.2506L71.0412 27.6724L70.9487 28.0704L70.8949 28.447L70.8776 28.8046L70.8951 29.1453L70.9456 29.4711L71.0275 29.7838L71.1395 30.085L71.2802 30.3764L71.4483 30.6593L71.6426 30.9352L71.8618 31.2054L72.1049 31.4711L72.3704 31.7334L72.6572 31.9936L72.9639 32.2527L73.2891 32.5117L73.6314 32.7716L73.989 33.0335L74.3603 33.2981L74.7435 33.5665L75.1364 33.8393L75.5371 34.1174L75.9431 34.4014L76.3521 34.692L76.7615 34.9897L77.1684 35.295L77.5701 35.6083L77.9636 35.9299L78.3458 36.2599L78.7136 36.5985L79.064 36.9454L79.3938 37.3006L79.7 37.6637L79.9796 38.0343L80.2301 38.4119L80.4487 38.7957L80.6333 39.185L80.782 39.5788L80.893 39.9763L80.9653 40.3763L80.998 40.7777L81 40.9058Z" fill="url(#paint0_linear_4608_958)"/>
<path fill-rule="evenodd" clip-rule="evenodd" d="M81 40.9058L80.98 41.3075L80.9203 41.7081L80.8215 42.1064L80.6847 42.5015L80.5113 42.8923L80.3033 43.278L80.0627 43.6576L79.7921 44.0305L79.494 44.3961L79.1714 44.7538L78.8273 45.1034L78.4647 45.4447L78.0867 45.7774L77.6965 46.1016L77.2971 46.4176L76.8915 46.7254L76.4826 47.0255L76.0732 47.3183L75.666 47.6043L75.2633 47.8842L74.8677 48.1587L74.4812 48.4283L74.1059 48.6941L73.7437 48.9567L73.3964 49.2172L73.0656 49.4764L72.7528 49.7353L72.4595 49.995L72.1871 50.2565L71.9367 50.521L71.7098 50.7896L71.5074 51.0636L71.3308 51.3441L71.1813 51.6327L71.06 51.9306L70.9683 52.2395L70.9077 52.5609L70.8795 52.8967L70.8855 53.2487L70.9275 53.619L71.0074 54.0098L71.1276 54.4238L71.2906 54.8636L71.4993 55.3324L71.757 55.8336L72.0676 56.3713L72.4355 56.9497L72.8657 57.5742L73.3643 58.2504L73.9381 58.9853L74.5954 59.7868L75.0721 60.3441C75.2059 60.5005 75.1451 60.7423 74.9532 60.8168C74.9016 60.8369 74.8454 60.8422 74.791 60.8322L73.7756 60.6456L72.785 60.4858L71.8904 60.3644L71.0812 60.2784L70.3485 60.2252L69.6845 60.2028L69.0826 60.2093L68.5369 60.2432L68.0423 60.3032L67.5943 60.3882L67.189 60.4972L66.8228 60.6295L66.4923 60.7844L66.1949 60.9613L65.9278 61.1597L65.6887 61.379L65.4753 61.6189L65.2856 61.879L65.1175 62.1589L64.9694 62.4583L64.8394 62.7766L64.7258 63.1136L64.6269 63.4687L64.5413 63.8414L64.4671 64.2312L64.403 64.6373L64.3471 65.059L64.298 65.4955L64.254 65.9457L64.2133 66.4085L64.1745 66.8827L64.1356 67.3668L64.095 67.8593L64.0509 68.3584L64.0016 68.8621L63.9452 69.3684L63.88 69.8751L63.8043 70.3798L63.7163 70.8799L63.6144 71.3729L63.4972 71.856L63.3631 72.3264L63.2108 72.7814L63.0392 73.2181L62.8473 73.6339L62.6344 74.0262L62.4 74.3925L62.1436 74.7307L61.8653 75.0386L61.5653 75.3147L61.244 75.5575L60.902 75.7661L60.5404 75.9397L60.1601 76.0782L59.7627 76.1816L59.3495 76.2505L58.9221 76.2858L58.4824 76.2887L58.0321 76.2607L57.5731 76.2037L57.1073 76.1198L56.6364 76.0114L56.1623 75.8808L55.6866 75.7307L55.211 75.5637L54.737 75.3826L54.2659 75.1901L53.7991 74.9889L53.3376 74.7818L52.8824 74.5713L52.4342 74.36L51.9939 74.1503L51.562 73.9446L51.1387 73.7451L50.7246 73.5539L50.3197 73.3732L49.9242 73.2049L49.538 73.0508L49.161 72.9129L48.793 72.7927L48.4338 72.692L48.083 72.6125L47.7402 72.5559L47.4049 72.5238L47.0767 72.518L46.755 72.5402L46.4391 72.5922L46.1285 72.676L45.8223 72.7936L45.5197 72.9473L45.22 73.1396L44.9223 73.3731L44.6255 73.6508L44.3287 73.9761L44.0306 74.3526L43.7301 74.7846L43.4257 75.2769L43.1159 75.835L42.7991 76.4652L42.4732 77.1748L42.1362 77.9723L41.7856 78.8676L41.4185 79.8722L41.3669 80.0226C41.2506 80.3614 40.7765 80.3748 40.6412 80.0432L40.2712 79.0199L39.9181 78.1081L39.5791 77.2957L39.2517 76.5727L38.9335 75.9304L38.6228 75.3612L38.3176 74.8588L38.0166 74.4175L37.7182 74.0325L37.4212 73.6993L37.1245 73.4143L36.827 73.174L36.5277 72.9753L36.2257 72.8156L35.9201 72.6924L35.6102 72.6034L35.2952 72.5464L34.9744 72.5196L34.6473 72.5211L34.3132 72.5491L33.9717 72.6019L33.6222 72.6779L33.2643 72.7753L32.8977 72.8925L32.5222 73.0278L32.1374 73.1794L31.7434 73.3456L31.34 73.5244L30.9273 73.714L30.5055 73.9123L30.0749 74.1172L29.6359 74.3264L29.189 74.5376L28.7349 74.7484L28.2743 74.9563L27.8082 75.1586L27.3378 75.3526L26.8641 75.5357L26.3887 75.7051L25.9129 75.8581L25.4384 75.992L24.9669 76.1041L24.5001 76.1921L24.0399 76.2535L23.5881 76.2862L23.1466 76.2884L22.7172 76.2584L22.3016 76.1949L21.9016 76.097L21.5185 75.9641L21.1538 75.7961L20.8086 75.5931L20.484 75.3556L20.1805 75.0848L19.8987 74.7818L19.6389 74.4483L19.401 74.0864L19.1847 73.6981L18.9895 73.2858L18.8147 72.8522L18.6595 72.4L18.5225 71.9318L18.4027 71.4506L18.2985 70.959L18.2084 70.4598L18.1308 69.9557L18.0641 69.4492L18.0064 68.9426L17.956 68.4383L17.9112 67.9384L17.8702 67.4448L17.8312 66.9592L17.7924 66.4833L17.7522 66.0186L17.7088 65.5663L17.6606 65.1276L17.606 64.7034L17.5432 64.2948L17.4708 63.9023L17.387 63.5269L17.2904 63.1689L17.1793 62.829L17.052 62.5077L16.9068 62.2053L16.7421 61.9223L16.5559 61.659L16.3464 61.4159L16.1115 61.1932L15.8491 60.9915L15.5567 60.8112L15.2317 60.6527L14.8713 60.5168L14.4725 60.4039L14.0316 60.3151L13.5447 60.251L13.0075 60.2129L12.4149 60.2019L11.7612 60.2197L11.0399 60.2678L10.2434 60.3484L9.36306 60.464L8.38859 60.6175L7.33857 60.8068C7.31825 60.8105 7.29764 60.8123 7.27699 60.8123C6.98165 60.8121 6.82277 60.4654 7.01542 60.2415L7.29105 59.9212L7.96251 59.1083L8.54905 58.3634L9.05909 57.6782L9.49978 57.0459L9.87722 56.4605L10.1966 55.9167L10.4625 55.41L10.6788 54.9362L10.8489 54.492L10.9757 54.0741L11.0619 53.6798L11.1097 53.3064L11.1213 52.9516L11.0985 52.6134L11.0429 52.2898L10.9561 51.979L10.8395 51.6794L10.6943 51.3895L10.522 51.1078L10.3236 50.8329L10.1005 50.5635L9.85382 50.2984L9.5848 50.0365L9.29474 49.7766L8.98498 49.5176L8.65695 49.2585L8.31216 48.9983L7.95222 48.7361L7.57889 48.4709L7.19405 48.2019L6.7997 47.9283L6.39803 47.6493L5.99134 47.3643L5.58212 47.0726L5.17298 46.7737L4.76668 46.4671L4.36609 46.1525L3.9742 45.8296L3.59407 45.4982L3.2288 45.1584L2.88151 44.8101L2.55528 44.4536L2.25313 44.0892L1.97794 43.7175L1.73241 43.3389L1.51904 42.9541L1.34003 42.5641L1.19729 42.1696L1.09234 41.7717L1.02634 41.3714L1 40.9698L1.01362 40.568L1.06705 40.1671L1.15969 39.7683L1.29055 39.3726L1.45819 38.9811L1.66084 38.5946L1.89638 38.2139L2.16241 37.8399L2.45628 37.4731L2.77516 37.1141L3.11608 36.7632L3.47596 36.4206L3.85169 36.0865L4.24017 35.761L4.63832 35.4437L5.04312 35.1346L5.45166 34.8333L5.86115 34.5394L6.26892 34.2523L6.67244 33.9715L7.06937 33.6962L7.45746 33.4258L7.83467 33.1595L8.19907 32.8964L8.54887 32.6357L8.88241 32.3764L9.19814 32.1175L9.49463 31.8579L9.77049 31.5968L10.0244 31.3328L10.2552 31.065L10.4616 30.792L10.6423 30.5126L10.7963 30.2254L10.9221 29.929L11.0186 29.622L11.0843 29.3027L11.1177 28.9693L11.1173 28.6201L11.0812 28.2528L11.0074 27.8654L10.8938 27.4553L10.7378 27.0198L10.5366 26.5558L10.2869 26.06L9.98503 25.5285L9.62661 24.9569L9.20668 24.3401L8.71945 23.6725L8.15813 22.9474L7.51472 22.1571L6.89324 21.426C6.82382 21.3443 6.80703 21.2302 6.84999 21.132C6.90229 21.0124 7.03017 20.9447 7.15845 20.9687L8.05654 21.1366L9.06341 21.3029L9.97257 21.4302L10.7947 21.5217L11.5391 21.5799L12.2136 21.6071L12.825 21.6051L13.3793 21.5755L13.8817 21.5196L14.3368 21.4385L14.7486 21.3332L15.1209 21.2046L15.4568 21.0532L15.7593 20.8798L16.031 20.6848L16.2745 20.4688L16.4918 20.2321L16.6852 19.9752L16.8566 19.6985L17.0078 19.4022L17.1406 19.0868L17.2567 18.7528L17.3577 18.4006L17.4454 18.0306L17.5213 17.6435L17.5869 17.24L17.644 16.8207L17.6941 16.3865L17.7388 15.9384L17.7798 15.4775L17.8189 15.005L17.8576 14.5224L17.8978 14.0311L17.9413 13.533L17.9896 13.0299L18.0448 12.5238L18.1085 12.017L18.1824 11.5118L18.2683 11.0108L18.3678 10.5165L18.4825 10.0317L18.6139 9.55905L18.7632 9.10144L18.9317 8.66161L19.1202 8.24229L19.3297 7.84608L19.5607 7.47546L19.8136 7.1327L20.0884 6.81982L20.385 6.53856L20.7029 6.29036L21.0417 6.07629L21.4003 5.89706L21.7776 5.75299L22.1724 5.64401L22.5832 5.56967L23.0084 5.52912L23.4463 5.5212L23.895 5.54438L24.3527 5.59687L24.8176 5.6766L25.2878 5.78131L25.7616 5.90855L26.2371 6.05574L26.7128 6.22021L27.1872 6.39925L27.6588 6.5901L28.1264 6.79006L28.5888 6.99641L29.0451 7.20655L29.4944 7.41791L29.936 7.62802L30.3693 7.83453L30.7939 8.03517L31.2095 8.22777L31.6159 8.41027L32.0129 8.58069L32.4006 8.73714L32.7791 8.87782L33.1485 9.00095L33.5091 9.10484L33.8612 9.1878L34.2053 9.24816L34.5417 9.28426L34.871 9.29439L35.1937 9.2768L35.5104 9.22967L35.8219 9.15108L36.1287 9.03898L36.4318 8.89115L36.7319 8.70519L37.0299 8.47845L37.3267 8.208L37.6235 7.89058L37.9213 7.52251L38.2213 7.09965L38.525 6.61729L38.8338 6.07006L39.1494 5.45178L39.4737 4.75533L39.8087 3.97246L40.157 3.0935L40.5213 2.10714L40.6849 1.63507C40.7749 1.37518 41.1238 1.33125 41.2754 1.5607C41.2901 1.58291 41.3021 1.6068 41.311 1.63187L41.6706 2.63639L42.0262 3.56514L42.3672 4.39262L42.6964 5.12925L43.0158 5.78392L43.3277 6.36427L43.6336 6.87691L43.9352 7.32758L44.2339 7.72128L44.531 8.06241L44.8277 8.35488L45.125 8.60211L45.424 8.80721L45.7255 8.97295L46.0305 9.10183L46.3397 9.19617L46.6538 9.25808L46.9736 9.28955L47.2996 9.29244L47.6326 9.26854L47.9729 9.21956L48.3211 9.14719L48.6776 9.05309L49.0428 8.93894L49.4169 8.80644L49.8002 8.6573L50.1927 8.49332L50.5946 8.31635L51.0058 8.12833L51.4262 7.93127L51.8554 7.72729L52.2931 7.5186L52.7388 7.30754L53.1919 7.0965L53.6515 6.88802L54.1167 6.68467L54.5866 6.48913L55.0598 6.30411L55.535 6.13233L56.0108 5.97655L56.4856 5.83945L56.9578 5.72366L57.4254 5.6317L57.8868 5.56592L58.34 5.5285L58.7833 5.52135L59.2148 5.54614L59.6327 5.60421L60.0353 5.69657L60.4212 5.82384L60.7889 5.98628L61.1372 6.18377L61.4652 6.41577L61.7721 6.68139L62.0574 6.97936L62.3207 7.30809L62.5621 7.66567L62.7818 8.04994L62.9803 8.45854L63.1583 8.88891L63.3166 9.33836L63.4563 9.80416L63.5788 10.2835L63.6854 10.7736L63.7777 11.2718L63.8571 11.7753L63.9255 12.2816L63.9845 12.7883L64.0359 13.2931L64.0814 13.7939L64.1229 14.2886L64.1622 14.7756L64.2009 15.2531L64.2407 15.7197L64.2835 16.174L64.3308 16.615L64.3843 17.0415L64.4457 17.4527L64.5165 17.8478L64.5983 18.226L64.6928 18.5868L64.8015 18.9296L64.9261 19.2539L65.0683 19.5593L65.2298 19.8454L65.4124 20.1119L65.618 20.3583L65.8487 20.5842L66.1067 20.7893L66.3942 20.9731L66.7138 21.135L67.0683 21.2746L67.4608 21.3912L67.8948 21.4839L68.374 21.552L68.9029 21.5943L69.4863 21.6097L70.1299 21.5967L70.8399 21.5535L71.6238 21.4782L72.4902 21.3684L73.4489 21.2211L74.5117 21.0331C74.8812 20.9713 75.1251 21.406 74.8799 21.6892L74.8239 21.7539L74.138 22.5785L73.5385 23.3337L73.0168 24.0279L72.5655 24.6681L72.1784 25.2607L71.8501 25.8108L71.5759 26.3231L71.352 26.8019L71.1747 27.2506L71.0412 27.6724L70.9487 28.0704L70.8949 28.447L70.8776 28.8046L70.8951 29.1453L70.9456 29.4711L71.0275 29.7838L71.1395 30.085L71.2802 30.3764L71.4483 30.6593L71.6426 30.9352L71.8618 31.2054L72.1049 31.4711L72.3704 31.7334L72.6572 31.9936L72.9639 32.2527L73.2891 32.5117L73.6314 32.7716L73.989 33.0335L74.3603 33.2981L74.7435 33.5665L75.1364 33.8393L75.5371 34.1174L75.9431 34.4014L76.3521 34.692L76.7615 34.9897L77.1684 35.295L77.5701 35.6083L77.9636 35.9299L78.3458 36.2599L78.7136 36.5985L79.064 36.9454L79.3938 37.3006L79.7 37.6637L79.9796 38.0343L80.2301 38.4119L80.4487 38.7957L80.6333 39.185L80.782 39.5788L80.893 39.9763L80.9653 40.3763L80.998 40.7777L81 40.9058Z" fill="#FFE9FF"/>
<path fill-rule="evenodd" clip-rule="evenodd" d="M81 40.9058L80.98 41.3075L80.9203 41.7081L80.8215 42.1064L80.6847 42.5015L80.5113 42.8923L80.3033 43.278L80.0627 43.6576L79.7921 44.0305L79.494 44.3961L79.1714 44.7538L78.8273 45.1034L78.4647 45.4447L78.0867 45.7774L77.6965 46.1016L77.2971 46.4176L76.8915 46.7254L76.4826 47.0255L76.0732 47.3183L75.666 47.6043L75.2633 47.8842L74.8677 48.1587L74.4812 48.4283L74.1059 48.6941L73.7437 48.9567L73.3964 49.2172L73.0656 49.4764L72.7528 49.7353L72.4595 49.995L72.1871 50.2565L71.9367 50.521L71.7098 50.7896L71.5074 51.0636L71.3308 51.3441L71.1813 51.6327L71.06 51.9306L70.9683 52.2395L70.9077 52.5609L70.8795 52.8967L70.8855 53.2487L70.9275 53.619L71.0074 54.0098L71.1276 54.4238L71.2906 54.8636L71.4993 55.3324L71.757 55.8336L72.0676 56.3713L72.4355 56.9497L72.8657 57.5742L73.3643 58.2504L73.9381 58.9853L74.5954 59.7868L75.0721 60.3441C75.2059 60.5005 75.1451 60.7423 74.9532 60.8168C74.9016 60.8369 74.8454 60.8422 74.791 60.8322L73.7756 60.6456L72.785 60.4858L71.8904 60.3644L71.0812 60.2784L70.3485 60.2252L69.6845 60.2028L69.0826 60.2093L68.5369 60.2432L68.0423 60.3032L67.5943 60.3882L67.189 60.4972L66.8228 60.6295L66.4923 60.7844L66.1949 60.9613L65.9278 61.1597L65.6887 61.379L65.4753 61.6189L65.2856 61.879L65.1175 62.1589L64.9694 62.4583L64.8394 62.7766L64.7258 63.1136L64.6269 63.4687L64.5413 63.8414L64.4671 64.2312L64.403 64.6373L64.3471 65.059L64.298 65.4955L64.254 65.9457L64.2133 66.4085L64.1745 66.8827L64.1356 67.3668L64.095 67.8593L64.0509 68.3584L64.0016 68.8621L63.9452 69.3684L63.88 69.8751L63.8043 70.3798L63.7163 70.8799L63.6144 71.3729L63.4972 71.856L63.3631 72.3264L63.2108 72.7814L63.0392 73.2181L62.8473 73.6339L62.6344 74.0262L62.4 74.3925L62.1436 74.7307L61.8653 75.0386L61.5653 75.3147L61.244 75.5575L60.902 75.7661L60.5404 75.9397L60.1601 76.0782L59.7627 76.1816L59.3495 76.2505L58.9221 76.2858L58.4824 76.2887L58.0321 76.2607L57.5731 76.2037L57.1073 76.1198L56.6364 76.0114L56.1623 75.8808L55.6866 75.7307L55.211 75.5637L54.737 75.3826L54.2659 75.1901L53.7991 74.9889L53.3376 74.7818L52.8824 74.5713L52.4342 74.36L51.9939 74.1503L51.562 73.9446L51.1387 73.7451L50.7246 73.5539L50.3197 73.3732L49.9242 73.2049L49.538 73.0508L49.161 72.9129L48.793 72.7927L48.4338 72.692L48.083 72.6125L47.7402 72.5559L47.4049 72.5238L47.0767 72.518L46.755 72.5402L46.4391 72.5922L46.1285 72.676L45.8223 72.7936L45.5197 72.9473L45.22 73.1396L44.9223 73.3731L44.6255 73.6508L44.3287 73.9761L44.0306 74.3526L43.7301 74.7846L43.4257 75.2769L43.1159 75.835L42.7991 76.4652L42.4732 77.1748L42.1362 77.9723L41.7856 78.8676L41.4185 79.8722L41.3669 80.0226C41.2506 80.3614 40.7765 80.3748 40.6412 80.0432L40.2712 79.0199L39.9181 78.1081L39.5791 77.2957L39.2517 76.5727L38.9335 75.9304L38.6228 75.3612L38.3176 74.8588L38.0166 74.4175L37.7182 74.0325L37.4212 73.6993L37.1245 73.4143L36.827 73.174L36.5277 72.9753L36.2257 72.8156L35.9201 72.6924L35.6102 72.6034L35.2952 72.5464L34.9744 72.5196L34.6473 72.5211L34.3132 72.5491L33.9717 72.6019L33.6222 72.6779L33.2643 72.7753L32.8977 72.8925L32.5222 73.0278L32.1374 73.1794L31.7434 73.3456L31.34 73.5244L30.9273 73.714L30.5055 73.9123L30.0749 74.1172L29.6359 74.3264L29.189 74.5376L28.7349 74.7484L28.2743 74.9563L27.8082 75.1586L27.3378 75.3526L26.8641 75.5357L26.3887 75.7051L25.9129 75.8581L25.4384 75.992L24.9669 76.1041L24.5001 76.1921L24.0399 76.2535L23.5881 76.2862L23.1466 76.2884L22.7172 76.2584L22.3016 76.1949L21.9016 76.097L21.5185 75.9641L21.1538 75.7961L20.8086 75.5931L20.484 75.3556L20.1805 75.0848L19.8987 74.7818L19.6389 74.4483L19.401 74.0864L19.1847 73.6981L18.9895 73.2858L18.8147 72.8522L18.6595 72.4L18.5225 71.9318L18.4027 71.4506L18.2985 70.959L18.2084 70.4598L18.1308 69.9557L18.0641 69.4492L18.0064 68.9426L17.956 68.4383L17.9112 67.9384L17.8702 67.4448L17.8312 66.9592L17.7924 66.4833L17.7522 66.0186L17.7088 65.5663L17.6606 65.1276L17.606 64.7034L17.5432 64.2948L17.4708 63.9023L17.387 63.5269L17.2904 63.1689L17.1793 62.829L17.052 62.5077L16.9068 62.2053L16.7421 61.9223L16.5559 61.659L16.3464 61.4159L16.1115 61.1932L15.8491 60.9915L15.5567 60.8112L15.2317 60.6527L14.8713 60.5168L14.4725 60.4039L14.0316 60.3151L13.5447 60.251L13.0075 60.2129L12.4149 60.2019L11.7612 60.2197L11.0399 60.2678L10.2434 60.3484L9.36306 60.464L8.38859 60.6175L7.33857 60.8068C7.31825 60.8105 7.29764 60.8123 7.27699 60.8123C6.98165 60.8121 6.82277 60.4654 7.01542 60.2415L7.29105 59.9212L7.96251 59.1083L8.54905 58.3634L9.05909 57.6782L9.49978 57.0459L9.87722 56.4605L10.1966 55.9167L10.4625 55.41L10.6788 54.9362L10.8489 54.492L10.9757 54.0741L11.0619 53.6798L11.1097 53.3064L11.1213 52.9516L11.0985 52.6134L11.0429 52.2898L10.9561 51.979L10.8395 51.6794L10.6943 51.3895L10.522 51.1078L10.3236 50.8329L10.1005 50.5635L9.85382 50.2984L9.5848 50.0365L9.29474 49.7766L8.98498 49.5176L8.65695 49.2585L8.31216 48.9983L7.95222 48.7361L7.57889 48.4709L7.19405 48.2019L6.7997 47.9283L6.39803 47.6493L5.99134 47.3643L5.58212 47.0726L5.17298 46.7737L4.76668 46.4671L4.36609 46.1525L3.9742 45.8296L3.59407 45.4982L3.2288 45.1584L2.88151 44.8101L2.55528 44.4536L2.25313 44.0892L1.97794 43.7175L1.73241 43.3389L1.51904 42.9541L1.34003 42.5641L1.19729 42.1696L1.09234 41.7717L1.02634 41.3714L1 40.9698L1.01362 40.568L1.06705 40.1671L1.15969 39.7683L1.29055 39.3726L1.45819 38.9811L1.66084 38.5946L1.89638 38.2139L2.16241 37.8399L2.45628 37.4731L2.77516 37.1141L3.11608 36.7632L3.47596 36.4206L3.85169 36.0865L4.24017 35.761L4.63832 35.4437L5.04312 35.1346L5.45166 34.8333L5.86115 34.5394L6.26892 34.2523L6.67244 33.9715L7.06937 33.6962L7.45746 33.4258L7.83467 33.1595L8.19907 32.8964L8.54887 32.6357L8.88241 32.3764L9.19814 32.1175L9.49463 31.8579L9.77049 31.5968L10.0244 31.3328L10.2552 31.065L10.4616 30.792L10.6423 30.5126L10.7963 30.2254L10.9221 29.929L11.0186 29.622L11.0843 29.3027L11.1177 28.9693L11.1173 28.6201L11.0812 28.2528L11.0074 27.8654L10.8938 27.4553L10.7378 27.0198L10.5366 26.5558L10.2869 26.06L9.98503 25.5285L9.62661 24.9569L9.20668 24.3401L8.71945 23.6725L8.15813 22.9474L7.51472 22.1571L6.89324 21.426C6.82382 21.3443 6.80703 21.2302 6.84999 21.132C6.90229 21.0124 7.03017 20.9447 7.15845 20.9687L8.05654 21.1366L9.06341 21.3029L9.97257 21.4302L10.7947 21.5217L11.5391 21.5799L12.2136 21.6071L12.825 21.6051L13.3793 21.5755L13.8817 21.5196L14.3368 21.4385L14.7486 21.3332L15.1209 21.2046L15.4568 21.0532L15.7593 20.8798L16.031 20.6848L16.2745 20.4688L16.4918 20.2321L16.6852 19.9752L16.8566 19.6985L17.0078 19.4022L17.1406 19.0868L17.2567 18.7528L17.3577 18.4006L17.4454 18.0306L17.5213 17.6435L17.5869 17.24L17.644 16.8207L17.6941 16.3865L17.7388 15.9384L17.7798 15.4775L17.8189 15.005L17.8576 14.5224L17.8978 14.0311L17.9413 13.533L17.9896 13.0299L18.0448 12.5238L18.1085 12.017L18.1824 11.5118L18.2683 11.0108L18.3678 10.5165L18.4825 10.0317L18.6139 9.55905L18.7632 9.10144L18.9317 8.66161L19.1202 8.24229L19.3297 7.84608L19.5607 7.47546L19.8136 7.1327L20.0884 6.81982L20.385 6.53856L20.7029 6.29036L21.0417 6.07629L21.4003 5.89706L21.7776 5.75299L22.1724 5.64401L22.5832 5.56967L23.0084 5.52912L23.4463 5.5212L23.895 5.54438L24.3527 5.59687L24.8176 5.6766L25.2878 5.78131L25.7616 5.90855L26.2371 6.05574L26.7128 6.22021L27.1872 6.39925L27.6588 6.5901L28.1264 6.79006L28.5888 6.99641L29.0451 7.20655L29.4944 7.41791L29.936 7.62802L30.3693 7.83453L30.7939 8.03517L31.2095 8.22777L31.6159 8.41027L32.0129 8.58069L32.4006 8.73714L32.7791 8.87782L33.1485 9.00095L33.5091 9.10484L33.8612 9.1878L34.2053 9.24816L34.5417 9.28426L34.871 9.29439L35.1937 9.2768L35.5104 9.22967L35.8219 9.15108L36.1287 9.03898L36.4318 8.89115L36.7319 8.70519L37.0299 8.47845L37.3267 8.208L37.6235 7.89058L37.9213 7.52251L38.2213 7.09965L38.525 6.61729L38.8338 6.07006L39.1494 5.45178L39.4737 4.75533L39.8087 3.97246L40.157 3.0935L40.5213 2.10714L40.6849 1.63507C40.7749 1.37518 41.1238 1.33125 41.2754 1.5607C41.2901 1.58291 41.3021 1.6068 41.311 1.63187L41.6706 2.63639L42.0262 3.56514L42.3672 4.39262L42.6964 5.12925L43.0158 5.78392L43.3277 6.36427L43.6336 6.87691L43.9352 7.32758L44.2339 7.72128L44.531 8.06241L44.8277 8.35488L45.125 8.60211L45.424 8.80721L45.7255 8.97295L46.0305 9.10183L46.3397 9.19617L46.6538 9.25808L46.9736 9.28955L47.2996 9.29244L47.6326 9.26854L47.9729 9.21956L48.3211 9.14719L48.6776 9.05309L49.0428 8.93894L49.4169 8.80644L49.8002 8.6573L50.1927 8.49332L50.5946 8.31635L51.0058 8.12833L51.4262 7.93127L51.8554 7.72729L52.2931 7.5186L52.7388 7.30754L53.1919 7.0965L53.6515 6.88802L54.1167 6.68467L54.5866 6.48913L55.0598 6.30411L55.535 6.13233L56.0108 5.97655L56.4856 5.83945L56.9578 5.72366L57.4254 5.6317L57.8868 5.56592L58.34 5.5285L58.7833 5.52135L59.2148 5.54614L59.6327 5.60421L60.0353 5.69657L60.4212 5.82384L60.7889 5.98628L61.1372 6.18377L61.4652 6.41577L61.7721 6.68139L62.0574 6.97936L62.3207 7.30809L62.5621 7.66567L62.7818 8.04994L62.9803 8.45854L63.1583 8.88891L63.3166 9.33836L63.4563 9.80416L63.5788 10.2835L63.6854 10.7736L63.7777 11.2718L63.8571 11.7753L63.9255 12.2816L63.9845 12.7883L64.0359 13.2931L64.0814 13.7939L64.1229 14.2886L64.1622 14.7756L64.2009 15.2531L64.2407 15.7197L64.2835 16.174L64.3308 16.615L64.3843 17.0415L64.4457 17.4527L64.5165 17.8478L64.5983 18.226L64.6928 18.5868L64.8015 18.9296L64.9261 19.2539L65.0683 19.5593L65.2298 19.8454L65.4124 20.1119L65.618 20.3583L65.8487 20.5842L66.1067 20.7893L66.3942 20.9731L66.7138 21.135L67.0683 21.2746L67.4608 21.3912L67.8948 21.4839L68.374 21.552L68.9029 21.5943L69.4863 21.6097L70.1299 21.5967L70.8399 21.5535L71.6238 21.4782L72.4902 21.3684L73.4489 21.2211L74.5117 21.0331C74.8812 20.9713 75.1251 21.406 74.8799 21.6892L74.8239 21.7539L74.138 22.5785L73.5385 23.3337L73.0168 24.0279L72.5655 24.6681L72.1784 25.2607L71.8501 25.8108L71.5759 26.3231L71.352 26.8019L71.1747 27.2506L71.0412 27.6724L70.9487 28.0704L70.8949 28.447L70.8776 28.8046L70.8951 29.1453L70.9456 29.4711L71.0275 29.7838L71.1395 30.085L71.2802 30.3764L71.4483 30.6593L71.6426 30.9352L71.8618 31.2054L72.1049 31.4711L72.3704 31.7334L72.6572 31.9936L72.9639 32.2527L73.2891 32.5117L73.6314 32.7716L73.989 33.0335L74.3603 33.2981L74.7435 33.5665L75.1364 33.8393L75.5371 34.1174L75.9431 34.4014L76.3521 34.692L76.7615 34.9897L77.1684 35.295L77.5701 35.6083L77.9636 35.9299L78.3458 36.2599L78.7136 36.5985L79.064 36.9454L79.3938 37.3006L79.7 37.6637L79.9796 38.0343L80.2301 38.4119L80.4487 38.7957L80.6333 39.185L80.782 39.5788L80.893 39.9763L80.9653 40.3763L80.998 40.7777L81 40.9058Z" fill="#FFF1FF"/>
<path fill-rule="evenodd" clip-rule="evenodd" d="M81 40.9058L80.98 41.3075L80.9203 41.7081L80.8215 42.1064L80.6847 42.5015L80.5113 42.8923L80.3033 43.278L80.0627 43.6576L79.7921 44.0305L79.494 44.3961L79.1714 44.7538L78.8273 45.1034L78.4647 45.4447L78.0867 45.7774L77.6965 46.1016L77.2971 46.4176L76.8915 46.7254L76.4826 47.0255L76.0732 47.3183L75.666 47.6043L75.2633 47.8842L74.8677 48.1587L74.4812 48.4283L74.1059 48.6941L73.7437 48.9567L73.3964 49.2172L73.0656 49.4764L72.7528 49.7353L72.4595 49.995L72.1871 50.2565L71.9367 50.521L71.7098 50.7896L71.5074 51.0636L71.3308 51.3441L71.1813 51.6327L71.06 51.9306L70.9683 52.2395L70.9077 52.5609L70.8795 52.8967L70.8855 53.2487L70.9275 53.619L71.0074 54.0098L71.1276 54.4238L71.2906 54.8636L71.4993 55.3324L71.757 55.8336L72.0676 56.3713L72.4355 56.9497L72.8657 57.5742L73.3643 58.2504L73.9381 58.9853L74.5954 59.7868L75.0721 60.3441C75.2059 60.5005 75.1451 60.7423 74.9532 60.8168C74.9016 60.8369 74.8454 60.8422 74.791 60.8322L73.7756 60.6456L72.785 60.4858L71.8904 60.3644L71.0812 60.2784L70.3485 60.2252L69.6845 60.2028L69.0826 60.2093L68.5369 60.2432L68.0423 60.3032L67.5943 60.3882L67.189 60.4972L66.8228 60.6295L66.4923 60.7844L66.1949 60.9613L65.9278 61.1597L65.6887 61.379L65.4753 61.6189L65.2856 61.879L65.1175 62.1589L64.9694 62.4583L64.8394 62.7766L64.7258 63.1136L64.6269 63.4687L64.5413 63.8414L64.4671 64.2312L64.403 64.6373L64.3471 65.059L64.298 65.4955L64.254 65.9457L64.2133 66.4085L64.1745 66.8827L64.1356 67.3668L64.095 67.8593L64.0509 68.3584L64.0016 68.8621L63.9452 69.3684L63.88 69.8751L63.8043 70.3798L63.7163 70.8799L63.6144 71.3729L63.4972 71.856L63.3631 72.3264L63.2108 72.7814L63.0392 73.2181L62.8473 73.6339L62.6344 74.0262L62.4 74.3925L62.1436 74.7307L61.8653 75.0386L61.5653 75.3147L61.244 75.5575L60.902 75.7661L60.5404 75.9397L60.1601 76.0782L59.7627 76.1816L59.3495 76.2505L58.9221 76.2858L58.4824 76.2887L58.0321 76.2607L57.5731 76.2037L57.1073 76.1198L56.6364 76.0114L56.1623 75.8808L55.6866 75.7307L55.211 75.5637L54.737 75.3826L54.2659 75.1901L53.7991 74.9889L53.3376 74.7818L52.8824 74.5713L52.4342 74.36L51.9939 74.1503L51.562 73.9446L51.1387 73.7451L50.7246 73.5539L50.3197 73.3732L49.9242 73.2049L49.538 73.0508L49.161 72.9129L48.793 72.7927L48.4338 72.692L48.083 72.6125L47.7402 72.5559L47.4049 72.5238L47.0767 72.518L46.755 72.5402L46.4391 72.5922L46.1285 72.676L45.8223 72.7936L45.5197 72.9473L45.22 73.1396L44.9223 73.3731L44.6255 73.6508L44.3287 73.9761L44.0306 74.3526L43.7301 74.7846L43.4257 75.2769L43.1159 75.835L42.7991 76.4652L42.4732 77.1748L42.1362 77.9723L41.7856 78.8676L41.4185 79.8722L41.3669 80.0226C41.2506 80.3614 40.7765 80.3748 40.6412 80.0432L40.2712 79.0199L39.9181 78.1081L39.5791 77.2957L39.2517 76.5727L38.9335 75.9304L38.6228 75.3612L38.3176 74.8588L38.0166 74.4175L37.7182 74.0325L37.4212 73.6993L37.1245 73.4143L36.827 73.174L36.5277 72.9753L36.2257 72.8156L35.9201 72.6924L35.6102 72.6034L35.2952 72.5464L34.9744 72.5196L34.6473 72.5211L34.3132 72.5491L33.9717 72.6019L33.6222 72.6779L33.2643 72.7753L32.8977 72.8925L32.5222 73.0278L32.1374 73.1794L31.7434 73.3456L31.34 73.5244L30.9273 73.714L30.5055 73.9123L30.0749 74.1172L29.6359 74.3264L29.189 74.5376L28.7349 74.7484L28.2743 74.9563L27.8082 75.1586L27.3378 75.3526L26.8641 75.5357L26.3887 75.7051L25.9129 75.8581L25.4384 75.992L24.9669 76.1041L24.5001 76.1921L24.0399 76.2535L23.5881 76.2862L23.1466 76.2884L22.7172 76.2584L22.3016 76.1949L21.9016 76.097L21.5185 75.9641L21.1538 75.7961L20.8086 75.5931L20.484 75.3556L20.1805 75.0848L19.8987 74.7818L19.6389 74.4483L19.401 74.0864L19.1847 73.6981L18.9895 73.2858L18.8147 72.8522L18.6595 72.4L18.5225 71.9318L18.4027 71.4506L18.2985 70.959L18.2084 70.4598L18.1308 69.9557L18.0641 69.4492L18.0064 68.9426L17.956 68.4383L17.9112 67.9384L17.8702 67.4448L17.8312 66.9592L17.7924 66.4833L17.7522 66.0186L17.7088 65.5663L17.6606 65.1276L17.606 64.7034L17.5432 64.2948L17.4708 63.9023L17.387 63.5269L17.2904 63.1689L17.1793 62.829L17.052 62.5077L16.9068 62.2053L16.7421 61.9223L16.5559 61.659L16.3464 61.4159L16.1115 61.1932L15.8491 60.9915L15.5567 60.8112L15.2317 60.6527L14.8713 60.5168L14.4725 60.4039L14.0316 60.3151L13.5447 60.251L13.0075 60.2129L12.4149 60.2019L11.7612 60.2197L11.0399 60.2678L10.2434 60.3484L9.36306 60.464L8.38859 60.6175L7.33857 60.8068C7.31825 60.8105 7.29764 60.8123 7.27699 60.8123C6.98165 60.8121 6.82277 60.4654 7.01542 60.2415L7.29105 59.9212L7.96251 59.1083L8.54905 58.3634L9.05909 57.6782L9.49978 57.0459L9.87722 56.4605L10.1966 55.9167L10.4625 55.41L10.6788 54.9362L10.8489 54.492L10.9757 54.0741L11.0619 53.6798L11.1097 53.3064L11.1213 52.9516L11.0985 52.6134L11.0429 52.2898L10.9561 51.979L10.8395 51.6794L10.6943 51.3895L10.522 51.1078L10.3236 50.8329L10.1005 50.5635L9.85382 50.2984L9.5848 50.0365L9.29474 49.7766L8.98498 49.5176L8.65695 49.2585L8.31216 48.9983L7.95222 48.7361L7.57889 48.4709L7.19405 48.2019L6.7997 47.9283L6.39803 47.6493L5.99134 47.3643L5.58212 47.0726L5.17298 46.7737L4.76668 46.4671L4.36609 46.1525L3.9742 45.8296L3.59407 45.4982L3.2288 45.1584L2.88151 44.8101L2.55528 44.4536L2.25313 44.0892L1.97794 43.7175L1.73241 43.3389L1.51904 42.9541L1.34003 42.5641L1.19729 42.1696L1.09234 41.7717L1.02634 41.3714L1 40.9698L1.01362 40.568L1.06705 40.1671L1.15969 39.7683L1.29055 39.3726L1.45819 38.9811L1.66084 38.5946L1.89638 38.2139L2.16241 37.8399L2.45628 37.4731L2.77516 37.1141L3.11608 36.7632L3.47596 36.4206L3.85169 36.0865L4.24017 35.761L4.63832 35.4437L5.04312 35.1346L5.45166 34.8333L5.86115 34.5394L6.26892 34.2523L6.67244 33.9715L7.06937 33.6962L7.45746 33.4258L7.83467 33.1595L8.19907 32.8964L8.54887 32.6357L8.88241 32.3764L9.19814 32.1175L9.49463 31.8579L9.77049 31.5968L10.0244 31.3328L10.2552 31.065L10.4616 30.792L10.6423 30.5126L10.7963 30.2254L10.9221 29.929L11.0186 29.622L11.0843 29.3027L11.1177 28.9693L11.1173 28.6201L11.0812 28.2528L11.0074 27.8654L10.8938 27.4553L10.7378 27.0198L10.5366 26.5558L10.2869 26.06L9.98503 25.5285L9.62661 24.9569L9.20668 24.3401L8.71945 23.6725L8.15813 22.9474L7.51472 22.1571L6.89324 21.426C6.82382 21.3443 6.80703 21.2302 6.84999 21.132C6.90229 21.0124 7.03017 20.9447 7.15845 20.9687L8.05654 21.1366L9.06341 21.3029L9.97257 21.4302L10.7947 21.5217L11.5391 21.5799L12.2136 21.6071L12.825 21.6051L13.3793 21.5755L13.8817 21.5196L14.3368 21.4385L14.7486 21.3332L15.1209 21.2046L15.4568 21.0532L15.7593 20.8798L16.031 20.6848L16.2745 20.4688L16.4918 20.2321L16.6852 19.9752L16.8566 19.6985L17.0078 19.4022L17.1406 19.0868L17.2567 18.7528L17.3577 18.4006L17.4454 18.0306L17.5213 17.6435L17.5869 17.24L17.644 16.8207L17.6941 16.3865L17.7388 15.9384L17.7798 15.4775L17.8189 15.005L17.8576 14.5224L17.8978 14.0311L17.9413 13.533L17.9896 13.0299L18.0448 12.5238L18.1085 12.017L18.1824 11.5118L18.2683 11.0108L18.3678 10.5165L18.4825 10.0317L18.6139 9.55905L18.7632 9.10144L18.9317 8.66161L19.1202 8.24229L19.3297 7.84608L19.5607 7.47546L19.8136 7.1327L20.0884 6.81982L20.385 6.53856L20.7029 6.29036L21.0417 6.07629L21.4003 5.89706L21.7776 5.75299L22.1724 5.64401L22.5832 5.56967L23.0084 5.52912L23.4463 5.5212L23.895 5.54438L24.3527 5.59687L24.8176 5.6766L25.2878 5.78131L25.7616 5.90855L26.2371 6.05574L26.7128 6.22021L27.1872 6.39925L27.6588 6.5901L28.1264 6.79006L28.5888 6.99641L29.0451 7.20655L29.4944 7.41791L29.936 7.62802L30.3693 7.83453L30.7939 8.03517L31.2095 8.22777L31.6159 8.41027L32.0129 8.58069L32.4006 8.73714L32.7791 8.87782L33.1485 9.00095L33.5091 9.10484L33.8612 9.1878L34.2053 9.24816L34.5417 9.28426L34.871 9.29439L35.1937 9.2768L35.5104 9.22967L35.8219 9.15108L36.1287 9.03898L36.4318 8.89115L36.7319 8.70519L37.0299 8.47845L37.3267 8.208L37.6235 7.89058L37.9213 7.52251L38.2213 7.09965L38.525 6.61729L38.8338 6.07006L39.1494 5.45178L39.4737 4.75533L39.8087 3.97246L40.157 3.0935L40.5213 2.10714L40.6849 1.63507C40.7749 1.37518 41.1238 1.33125 41.2754 1.5607C41.2901 1.58291 41.3021 1.6068 41.311 1.63187L41.6706 2.63639L42.0262 3.56514L42.3672 4.39262L42.6964 5.12925L43.0158 5.78392L43.3277 6.36427L43.6336 6.87691L43.9352 7.32758L44.2339 7.72128L44.531 8.06241L44.8277 8.35488L45.125 8.60211L45.424 8.80721L45.7255 8.97295L46.0305 9.10183L46.3397 9.19617L46.6538 9.25808L46.9736 9.28955L47.2996 9.29244L47.6326 9.26854L47.9729 9.21956L48.3211 9.14719L48.6776 9.05309L49.0428 8.93894L49.4169 8.80644L49.8002 8.6573L50.1927 8.49332L50.5946 8.31635L51.0058 8.12833L51.4262 7.93127L51.8554 7.72729L52.2931 7.5186L52.7388 7.30754L53.1919 7.0965L53.6515 6.88802L54.1167 6.68467L54.5866 6.48913L55.0598 6.30411L55.535 6.13233L56.0108 5.97655L56.4856 5.83945L56.9578 5.72366L57.4254 5.6317L57.8868 5.56592L58.34 5.5285L58.7833 5.52135L59.2148 5.54614L59.6327 5.60421L60.0353 5.69657L60.4212 5.82384L60.7889 5.98628L61.1372 6.18377L61.4652 6.41577L61.7721 6.68139L62.0574 6.97936L62.3207 7.30809L62.5621 7.66567L62.7818 8.04994L62.9803 8.45854L63.1583 8.88891L63.3166 9.33836L63.4563 9.80416L63.5788 10.2835L63.6854 10.7736L63.7777 11.2718L63.8571 11.7753L63.9255 12.2816L63.9845 12.7883L64.0359 13.2931L64.0814 13.7939L64.1229 14.2886L64.1622 14.7756L64.2009 15.2531L64.2407 15.7197L64.2835 16.174L64.3308 16.615L64.3843 17.0415L64.4457 17.4527L64.5165 17.8478L64.5983 18.226L64.6928 18.5868L64.8015 18.9296L64.9261 19.2539L65.0683 19.5593L65.2298 19.8454L65.4124 20.1119L65.618 20.3583L65.8487 20.5842L66.1067 20.7893L66.3942 20.9731L66.7138 21.135L67.0683 21.2746L67.4608 21.3912L67.8948 21.4839L68.374 21.552L68.9029 21.5943L69.4863 21.6097L70.1299 21.5967L70.8399 21.5535L71.6238 21.4782L72.4902 21.3684L73.4489 21.2211L74.5117 21.0331C74.8812 20.9713 75.1251 21.406 74.8799 21.6892L74.8239 21.7539L74.138 22.5785L73.5385 23.3337L73.0168 24.0279L72.5655 24.6681L72.1784 25.2607L71.8501 25.8108L71.5759 26.3231L71.352 26.8019L71.1747 27.2506L71.0412 27.6724L70.9487 28.0704L70.8949 28.447L70.8776 28.8046L70.8951 29.1453L70.9456 29.4711L71.0275 29.7838L71.1395 30.085L71.2802 30.3764L71.4483 30.6593L71.6426 30.9352L71.8618 31.2054L72.1049 31.4711L72.3704 31.7334L72.6572 31.9936L72.9639 32.2527L73.2891 32.5117L73.6314 32.7716L73.989 33.0335L74.3603 33.2981L74.7435 33.5665L75.1364 33.8393L75.5371 34.1174L75.9431 34.4014L76.3521 34.692L76.7615 34.9897L77.1684 35.295L77.5701 35.6083L77.9636 35.9299L78.3458 36.2599L78.7136 36.5985L79.064 36.9454L79.3938 37.3006L79.7 37.6637L79.9796 38.0343L80.2301 38.4119L80.4487 38.7957L80.6333 39.185L80.782 39.5788L80.893 39.9763L80.9653 40.3763L80.998 40.7777L81 40.9058Z" stroke="#E7C8F8" stroke-width="2"/>
<path d="M47.9487 24.74C48.7114 24.5933 49.3421 24.52 49.8407 24.52C50.4567 24.52 50.9407 24.696 51.2927 25.048C51.6447 25.4 51.8207 25.9427 51.8207 26.676C51.8207 27.1453 51.7327 27.7173 51.5567 28.392L45.7927 48.588C45.7341 48.7347 45.7047 48.9547 45.7047 49.248C45.7047 49.6587 45.8221 49.9813 46.0567 50.216C46.2914 50.4507 46.6434 50.7 47.1127 50.964C47.5527 51.228 47.8607 51.448 48.0367 51.624C48.2127 51.8 48.3007 52.0493 48.3007 52.372C48.3007 52.5773 48.2861 52.724 48.2567 52.812C48.1101 53.252 47.7874 53.56 47.2887 53.736C46.8194 53.912 46.0421 54 44.9567 54H31.7127C31.0967 54 30.6421 53.8827 30.3487 53.648C30.0554 53.4133 29.9087 53.0907 29.9087 52.68C29.9087 52.504 29.9234 52.372 29.9527 52.284C30.0701 51.932 30.2901 51.668 30.6127 51.492C30.9061 51.2867 31.3607 51.0667 31.9767 50.832C32.7394 50.568 33.3407 50.2747 33.7807 49.952C34.2501 49.6293 34.5727 49.1453 34.7487 48.5L39.3247 32.308C39.3834 32.132 39.4127 31.912 39.4127 31.648C39.4127 31.208 39.2807 30.8413 39.0167 30.548C38.7527 30.2253 38.3861 29.9173 37.9167 29.624C37.4767 29.3013 37.1541 29.0373 36.9487 28.832C36.7434 28.5973 36.6407 28.3187 36.6407 27.996C36.6407 27.8787 36.6701 27.732 36.7287 27.556C36.7874 27.2333 36.9634 26.984 37.2567 26.808C37.5501 26.632 38.0194 26.4853 38.6647 26.368L47.9487 24.74Z" fill="url(#paint1_linear_4608_958)"/>
<defs>
<linearGradient id="paint0_linear_4608_958" x1="-169.316" y1="142.915" x2="-220.528" y2="81.4546" gradientUnits="userSpaceOnUse">
<stop stop-color="#AD12F0"/>
<stop offset="1" stop-color="#57369E"/>
</linearGradient>
<linearGradient id="paint1_linear_4608_958" x1="41" y1="17" x2="41" y2="65" gradientUnits="userSpaceOnUse">
<stop stop-color="#C77DFF"/>
<stop offset="1" stop-color="#9D4EDD"/>
</linearGradient>
</defs>
</svg>
